<svg version="1.1" id="Layer_1" xmlns="http://www.w3.org/2000/svg" xmlns:xlink="http://www.w3.org/1999/xlink" x="0px" y="0px"
	 width="100%" viewBox="0 0 1500 941" enable-background="new 0 0 1500 941" xml:space="preserve">
<path fill="#FFFEFE" opacity="1.000000" stroke="none" 
	d="
M379.000000,942.000000 
	C252.999985,942.000000 126.999977,942.000000 1.000000,942.000000 
	C1.000000,932.903748 1.000000,923.913086 1.354256,914.557007 
	C4.814447,922.551514 9.994525,929.148499 18.865160,931.461182 
	C25.045832,933.072571 31.538406,934.291382 37.894543,934.304749 
	C124.393852,934.486206 210.893738,934.472412 297.393158,934.324585 
	C303.290283,934.314514 309.371002,933.516113 315.042450,931.927856 
	C327.303131,928.494263 333.863525,919.216064 333.879517,906.330444 
	C333.927124,867.997314 333.766022,829.663452 333.963715,791.331238 
	C334.048889,774.821289 322.497101,763.287659 305.720825,763.304504 
	C257.054413,763.353455 208.387878,763.320435 159.721390,763.320435 
	C121.221535,763.320435 82.721619,763.297302 44.221962,763.385559 
	C42.013920,763.390625 38.955204,763.554626 37.741505,764.926636 
	C30.657837,772.934204 26.101881,781.762695 29.959457,793.047852 
	C33.075916,802.164978 39.207226,806.974609 48.876968,806.974609 
	C125.210022,806.974792 201.543076,806.974731 277.876129,806.974731 
	C290.290558,806.974731 290.290558,806.974731 290.265472,819.389404 
	C290.251068,826.523743 290.251068,826.534485 283.010681,826.534729 
	C206.177628,826.537476 129.344498,826.479553 52.511654,826.607971 
	C42.753075,826.624268 32.983082,827.442566 23.242058,828.195679 
	C13.354239,828.960083 6.616439,834.183533 3.013358,843.472961 
	C2.641626,844.431396 1.685141,845.163086 0.999989,846.000000 
	C1.000000,564.416748 1.000000,282.833435 1.000000,1.000000 
	C194.692429,1.000000 388.384979,1.000000 582.642395,1.372325 
	C582.250671,2.294909 581.350403,2.999986 580.328857,3.371749 
	C568.767639,7.579094 558.482056,13.926283 552.294250,24.669588 
	C548.063293,32.015343 545.457947,40.386986 542.777100,48.514797 
	C538.793335,60.592525 535.332642,72.844666 531.747253,85.051308 
	C528.017883,97.748154 524.459045,110.495110 520.725098,123.190598 
	C517.219666,135.109161 513.540283,146.976501 510.017029,158.889908 
	C506.968811,169.197083 504.059326,179.545227 501.038086,189.860489 
	C498.432770,198.755676 495.687286,207.610214 493.130219,216.519012 
	C490.346924,226.215912 487.784698,235.976334 484.989777,245.669754 
	C481.278168,258.542480 477.411713,271.370422 473.654419,284.230072 
	C470.177826,296.129059 466.800751,308.057220 463.298859,319.948669 
	C460.358429,329.933594 457.255829,339.870728 454.307312,349.853333 
	C450.649841,362.236328 447.077484,374.644470 443.467926,387.041656 
	C439.863098,399.422485 436.279938,411.809692 432.646576,424.182159 
	C428.965759,436.716003 425.216827,449.229858 421.532166,461.762604 
	C418.730377,471.292511 415.997437,480.842621 413.206482,490.375732 
	C410.371155,500.060425 407.514648,509.738983 404.644836,519.413574 
	C401.162750,531.152100 397.620819,542.873047 394.172546,554.621460 
	C391.197876,564.756348 388.104462,574.863892 385.459778,585.085999 
	C383.063141,594.349487 380.337830,603.660583 379.343109,613.117432 
	C378.316498,622.877625 383.484344,630.349792 392.941986,633.329224 
	C398.807556,635.177002 405.245453,635.918762 411.429626,635.934875 
	C478.909332,636.110962 546.389648,636.055054 613.869812,636.032593 
	C621.364441,636.030151 628.906616,636.348755 636.344727,635.648193 
	C657.427490,633.662354 672.820435,623.028870 681.205994,603.495728 
	C684.704346,595.346619 686.593628,586.503723 689.172485,577.963501 
	C692.854431,565.770203 696.543030,553.578491 700.145203,541.361511 
	C703.983276,528.344177 707.731262,515.300354 711.504700,502.264130 
	C714.313538,492.560394 717.080627,482.844604 719.901917,473.144501 
	C723.318665,461.397095 726.743958,449.652008 730.219055,437.921814 
	C733.835144,425.715576 737.569580,413.544250 741.151672,401.328125 
	C744.876465,388.625397 748.439758,375.875366 752.151428,363.168762 
	C754.932556,353.648010 757.888794,344.178436 760.671814,334.658203 
	C763.455872,325.134521 766.063660,315.559265 768.853943,306.037445 
	C772.484314,293.648743 776.263611,281.303711 779.896545,268.915710 
	C784.323425,253.820557 788.635559,238.691742 793.052246,223.593567 
	C796.627075,211.373337 800.350464,199.196335 803.886169,186.964935 
	C808.205811,172.021439 812.273987,157.004486 816.677551,142.086212 
	C821.919312,124.328468 827.473511,106.663124 832.760437,88.918465 
	C838.379700,70.058197 844.281006,51.264984 849.214294,32.223602 
	C852.204163,20.683071 849.174194,9.175659 836.616699,3.400831 
	C835.317810,2.803511 834.201172,1.809787 833.000000,0.999999 
	C1055.601929,1.000000 1278.203735,1.000000 1501.000000,1.000000 
	C1501.000000,262.359131 1501.000000,523.718323 1500.625488,785.572632 
	C1499.583008,784.954651 1498.873901,783.863892 1498.253662,782.724731 
	C1494.797729,776.378113 1490.554077,772.767883 1482.245117,772.796082 
	C1383.770508,773.130005 1285.294312,773.112732 1186.818970,772.921143 
	C1168.584717,772.885620 1159.555664,784.212341 1159.306641,799.729370 
	C1158.734253,835.377930 1158.789673,871.047119 1159.327759,906.696777 
	C1159.500732,918.157227 1164.587769,927.964661 1177.028076,930.917725 
	C1183.241089,932.392578 1189.824341,932.837097 1196.241211,932.844849 
	C1292.050659,932.960266 1387.860474,932.861084 1483.669556,933.068481 
	C1490.019409,933.082214 1493.499878,930.405334 1496.362183,925.476562 
	C1497.689575,923.190796 1499.440796,921.151184 1501.000000,919.000000 
	C1501.000000,926.663818 1501.000000,934.327637 1501.000000,941.995728 
	C1130.974121,942.000000 760.948364,942.000000 390.585693,941.659180 
	C390.640839,941.014465 390.988342,940.598877 391.431122,940.422729 
	C405.417175,934.858521 406.399719,933.430176 406.399719,918.546204 
	C406.399811,860.082458 406.400177,801.618652 406.399414,743.154907 
	C406.399261,730.162964 406.306641,717.170166 406.439270,704.179626 
	C406.487122,699.492676 404.941650,696.381104 400.978394,693.376587 
	C393.624420,687.801575 385.655609,687.227173 377.314240,688.775330 
	C368.473724,690.416077 362.549377,698.121887 362.549347,706.927795 
	C362.548950,778.883179 362.648346,850.838928 362.392517,922.793396 
	C362.367523,929.819519 364.842834,934.106567 370.731201,937.139526 
	C373.569092,938.601196 376.248718,940.370178 379.000000,942.000000 
M901.500000,213.209534 
	C872.509949,213.209839 843.519348,213.293594 814.530212,213.130341 
	C809.557068,213.102325 807.433044,215.179764 806.277466,219.772598 
	C803.857300,229.391418 801.072815,238.921432 798.301086,248.448074 
	C795.440308,258.280823 792.349670,268.046661 789.482239,277.877502 
	C786.009705,289.782898 782.721252,301.742004 779.251160,313.648132 
	C775.505371,326.500336 771.609192,339.308685 767.838684,352.153809 
	C764.297363,364.218445 760.873901,376.317749 757.324829,388.380127 
	C754.428284,398.224701 751.357910,408.018311 748.482727,417.869019 
	C745.006409,429.779633 741.713013,441.743683 738.232849,453.653137 
	C734.524170,466.344269 730.645325,478.985565 726.922913,491.672699 
	C723.339905,503.884644 719.915527,516.143127 716.322876,528.352234 
	C712.677551,540.740356 708.744812,553.046326 705.269287,565.480835 
	C703.550964,571.628601 704.170044,572.121277 710.389160,572.122864 
	C753.541199,572.133789 796.694763,572.322083 839.844116,571.980103 
	C849.550293,571.903198 859.284607,570.448486 868.202271,565.615784 
	C880.657288,558.866150 890.436523,549.574280 895.355164,536.216553 
	C900.210205,523.031555 903.947815,509.439636 908.428284,496.111115 
	C914.388306,478.381348 920.730103,460.779663 926.658325,443.039520 
	C934.322327,420.104767 941.621521,397.048004 949.297241,374.117249 
	C956.917419,351.352356 964.931519,328.719330 972.546814,305.952850 
	C979.532349,285.069000 985.648315,263.876068 993.222107,243.213257 
	C998.782410,228.043549 986.867798,213.136734 971.976135,213.210281 
	C948.817993,213.324661 925.658752,213.221008 901.500000,213.209534 
M659.500000,816.666687 
	C692.989319,816.666382 726.478638,816.691467 759.967773,816.608032 
	C762.188843,816.602539 765.231506,816.546265 766.496582,815.201233 
	C776.045105,805.048767 781.610352,794.983215 772.880249,780.405762 
	C769.905945,775.439148 766.517212,772.851013 760.192810,772.869568 
	C683.883545,773.093262 607.573364,773.015381 531.263428,773.011169 
	C524.527039,773.010803 524.503540,772.994995 524.499023,766.453308 
	C524.485901,747.625732 524.183960,728.790283 524.661621,709.974854 
	C524.828003,703.419983 522.845093,699.146973 517.122192,696.373474 
	C516.227173,695.939697 515.443115,695.279114 514.552307,694.834229 
	C503.597809,689.362610 494.404663,689.133179 484.064514,698.975220 
	C482.091370,700.853271 480.823975,704.419983 480.784058,707.229675 
	C480.504791,726.886414 480.641907,746.548889 480.627411,766.209534 
	C480.622437,772.960327 480.582489,772.996582 474.025940,773.008118 
	C463.029358,773.027527 452.029266,772.876709 441.038940,773.141052 
	C438.830688,773.194214 435.956177,774.171814 434.583008,775.757385 
	C424.304199,787.625732 424.688507,802.292969 435.581268,813.357178 
	C437.321289,815.124512 440.351501,816.440857 442.830994,816.519287 
	C453.650269,816.861389 464.490417,816.840576 475.314453,816.587097 
	C479.581238,816.487183 480.775879,818.056335 480.702576,822.106689 
	C480.500488,833.266296 480.631805,844.431885 480.634430,855.595154 
	C480.638489,872.756531 480.545441,889.918762 480.686554,907.079041 
	C480.777252,918.104919 486.598297,927.185364 496.923248,930.322571 
	C503.438324,932.302246 510.603577,932.768433 517.484314,932.813049 
	C553.138611,933.044312 588.795105,932.921631 624.450867,932.921509 
	C669.770325,932.921326 715.089783,932.901855 760.409180,932.954773 
	C764.041504,932.958984 767.080139,932.471802 769.807007,929.544128 
	C778.834961,919.851501 779.672058,908.416931 771.985413,896.799622 
	C769.102844,892.443115 765.661499,890.408325 760.056519,890.422729 
	C683.747131,890.618408 607.437012,890.555725 531.127075,890.550415 
	C524.536621,890.549927 524.506775,890.529236 524.501404,883.834229 
	C524.485168,863.673706 524.489990,843.513245 524.495911,823.352722 
	C524.497803,816.686890 524.510681,816.670532 531.039062,816.669678 
	C573.526062,816.664246 616.013000,816.666504 659.500000,816.666687 
M927.813538,475.201996 
	C924.007446,486.842682 920.442932,498.570984 916.269043,510.078308 
	C914.729309,514.323486 915.931641,515.030029 919.717102,515.019836 
	C942.699890,514.957886 965.703430,515.580017 988.659790,514.796448 
	C1010.243042,514.059692 1027.968262,504.324402 1037.868164,484.998932 
	C1045.193115,470.699738 1049.396118,454.790802 1054.863403,439.553589 
	C1059.499146,426.633698 1064.010620,413.668304 1068.472290,400.687073 
	C1072.778931,388.156830 1077.218262,375.661957 1081.084839,362.994507 
	C1083.466309,355.192871 1079.470215,345.144775 1072.099487,341.567352 
	C1066.905151,339.046265 1060.791748,337.315613 1055.052612,337.210815 
	C1029.912964,336.751709 1004.760071,337.052887 979.612244,336.973358 
	C975.752991,336.961182 973.313232,338.005890 972.544434,342.219757 
	C971.984924,345.286316 970.665833,348.216949 969.656616,351.198425 
	C962.757080,371.581573 955.816162,391.950775 948.954651,412.346680 
	C941.989990,433.048950 935.101379,453.776764 927.813538,475.201996 
M914.500000,890.317078 
	C894.504272,890.317078 874.508545,890.317017 854.512817,890.316956 
	C841.298950,890.316895 841.469055,890.315674 841.370422,877.177917 
	C841.337219,872.764343 842.747803,871.174194 847.122986,871.513733 
	C851.098206,871.822266 855.116394,871.589722 859.115540,871.574585 
	C941.068970,871.264587 1023.022949,871.041626 1104.975098,870.528381 
	C1115.573975,870.461975 1124.641113,866.219849 1128.325684,855.260498 
	C1130.088135,850.017822 1131.267212,844.352844 1131.427979,838.841736 
	C1131.850708,824.356934 1131.774292,809.847534 1131.481079,795.356323 
	C1131.340942,788.432495 1130.998657,781.292725 1127.026123,775.205994 
	C1121.026367,766.013306 1111.809204,762.668091 1101.401855,762.497986 
	C1085.409302,762.236572 1069.409302,762.423645 1053.412476,762.423584 
	C978.427307,762.423035 903.441956,762.347473 828.457458,762.572266 
	C822.627197,762.589722 816.483459,763.899841 811.045471,766.035461 
	C800.909241,770.016113 797.357544,779.213501 796.409363,789.128235 
	C795.619385,797.388672 796.089600,805.774780 796.096436,814.105164 
	C796.121948,845.097961 795.702698,876.102722 796.463318,907.078064 
	C796.789124,920.343201 801.825623,928.173889 814.435730,932.416870 
	C820.921814,934.599304 828.154480,935.367126 835.054443,935.390198 
	C899.041016,935.604309 963.028687,935.516968 1027.015991,935.516846 
	C1055.677002,935.516785 1084.338135,935.566101 1112.998535,935.428040 
	C1115.486206,935.416077 1118.676270,934.925354 1120.338013,933.371521 
	C1131.515381,922.920654 1135.199951,908.672974 1124.499023,895.243042 
	C1121.557373,891.551392 1118.526733,890.233032 1113.960571,890.240784 
	C1047.807129,890.352844 981.653564,890.317688 914.500000,890.317078 
z"/>
<path fill="#D12620" opacity="1.000000" stroke="none" 
	d="
M832.531372,0.999999 
	C834.201172,1.809787 835.317810,2.803511 836.616699,3.400831 
	C849.174194,9.175659 852.204163,20.683071 849.214294,32.223602 
	C844.281006,51.264984 838.379700,70.058197 832.760437,88.918465 
	C827.473511,106.663124 821.919312,124.328468 816.677551,142.086212 
	C812.273987,157.004486 808.205811,172.021439 803.886169,186.964935 
	C800.350464,199.196335 796.627075,211.373337 793.052246,223.593567 
	C788.635559,238.691742 784.323425,253.820557 779.896545,268.915710 
	C776.263611,281.303711 772.484314,293.648743 768.853943,306.037445 
	C766.063660,315.559265 763.455872,325.134521 760.671814,334.658203 
	C757.888794,344.178436 754.932556,353.648010 752.151428,363.168762 
	C748.439758,375.875366 744.876465,388.625397 741.151672,401.328125 
	C737.569580,413.544250 733.835144,425.715576 730.219055,437.921814 
	C726.743958,449.652008 723.318665,461.397095 719.901917,473.144501 
	C717.080627,482.844604 714.313538,492.560394 711.504700,502.264130 
	C707.731262,515.300354 703.983276,528.344177 700.145203,541.361511 
	C696.543030,553.578491 692.854431,565.770203 689.172485,577.963501 
	C686.593628,586.503723 684.704346,595.346619 681.205994,603.495728 
	C672.820435,623.028870 657.427490,633.662354 636.344727,635.648193 
	C628.906616,636.348755 621.364441,636.030151 613.869812,636.032593 
	C546.389648,636.055054 478.909332,636.110962 411.429626,635.934875 
	C405.245453,635.918762 398.807556,635.177002 392.941986,633.329224 
	C383.484344,630.349792 378.316498,622.877625 379.343109,613.117432 
	C380.337830,603.660583 383.063141,594.349487 385.459778,585.085999 
	C388.104462,574.863892 391.197876,564.756348 394.172546,554.621460 
	C397.620819,542.873047 401.162750,531.152100 404.644836,519.413574 
	C407.514648,509.738983 410.371155,500.060425 413.206482,490.375732 
	C415.997437,480.842621 418.730377,471.292511 421.532166,461.762604 
	C425.216827,449.229858 428.965759,436.716003 432.646576,424.182159 
	C436.279938,411.809692 439.863098,399.422485 443.467926,387.041656 
	C447.077484,374.644470 450.649841,362.236328 454.307312,349.853333 
	C457.255829,339.870728 460.358429,329.933594 463.298859,319.948669 
	C466.800751,308.057220 470.177826,296.129059 473.654419,284.230072 
	C477.411713,271.370422 481.278168,258.542480 484.989777,245.669754 
	C487.784698,235.976334 490.346924,226.215912 493.130219,216.519012 
	C495.687286,207.610214 498.432770,198.755676 501.038086,189.860489 
	C504.059326,179.545227 506.968811,169.197083 510.017029,158.889908 
	C513.540283,146.976501 517.219666,135.109161 520.725098,123.190598 
	C524.459045,110.495110 528.017883,97.748154 531.747253,85.051308 
	C535.332642,72.844666 538.793335,60.592525 542.777100,48.514797 
	C545.457947,40.386986 548.063293,32.015343 552.294250,24.669588 
	C558.482056,13.926283 568.767639,7.579094 580.328857,3.371749 
	C581.350403,2.999986 582.250671,2.294909 583.103638,1.372325 
	C666.020874,1.000000 749.041809,1.000000 832.531372,0.999999 
z"/>
<path fill="#D22B25" opacity="1.000000" stroke="none" 
	d="
M0.999989,846.468628 
	C1.685141,845.163086 2.641626,844.431396 3.013358,843.472961 
	C6.616439,834.183533 13.354239,828.960083 23.242058,828.195679 
	C32.983082,827.442566 42.753075,826.624268 52.511654,826.607971 
	C129.344498,826.479553 206.177628,826.537476 283.010681,826.534729 
	C290.251068,826.534485 290.251068,826.523743 290.265472,819.389404 
	C290.290558,806.974731 290.290558,806.974731 277.876129,806.974731 
	C201.543076,806.974731 125.210022,806.974792 48.876968,806.974609 
	C39.207226,806.974609 33.075916,802.164978 29.959457,793.047852 
	C26.101881,781.762695 30.657837,772.934204 37.741505,764.926636 
	C38.955204,763.554626 42.013920,763.390625 44.221962,763.385559 
	C82.721619,763.297302 121.221535,763.320435 159.721390,763.320435 
	C208.387878,763.320435 257.054413,763.353455 305.720825,763.304504 
	C322.497101,763.287659 334.048889,774.821289 333.963715,791.331238 
	C333.766022,829.663452 333.927124,867.997314 333.879517,906.330444 
	C333.863525,919.216064 327.303131,928.494263 315.042450,931.927856 
	C309.371002,933.516113 303.290283,934.314514 297.393158,934.324585 
	C210.893738,934.472412 124.393852,934.486206 37.894543,934.304749 
	C31.538406,934.291382 25.045832,933.072571 18.865160,931.461182 
	C9.994525,929.148499 4.814447,922.551514 1.354256,914.095703 
	C1.000000,891.645752 1.000000,869.291565 0.999989,846.468628 
M273.497101,870.028503 
	C201.703613,870.028503 129.910065,869.978516 58.116699,870.067932 
	C42.505619,870.087402 44.435116,867.507446 44.310993,883.744263 
	C44.253769,891.229553 44.312321,891.245789 51.659126,891.246216 
	C126.284348,891.250549 200.909561,891.249512 275.534790,891.249878 
	C292.211182,891.249939 292.153961,891.255188 290.580841,874.422974 
	C290.264709,871.040405 288.837463,869.781128 285.485748,869.981567 
	C281.834259,870.200134 278.159485,870.029541 273.497101,870.028503 
z"/>
<path fill="#D22B25" opacity="1.000000" stroke="none" 
	d="
M1501.000000,918.533142 
	C1499.440796,921.151184 1497.689575,923.190796 1496.362183,925.476562 
	C1493.499878,930.405334 1490.019409,933.082214 1483.669556,933.068481 
	C1387.860474,932.861084 1292.050659,932.960266 1196.241211,932.844849 
	C1189.824341,932.837097 1183.241089,932.392578 1177.028076,930.917725 
	C1164.587769,927.964661 1159.500732,918.157227 1159.327759,906.696777 
	C1158.789673,871.047119 1158.734253,835.377930 1159.306641,799.729370 
	C1159.555664,784.212341 1168.584717,772.885620 1186.818970,772.921143 
	C1285.294312,773.112732 1383.770508,773.130005 1482.245117,772.796082 
	C1490.554077,772.767883 1494.797729,776.378113 1498.253662,782.724731 
	C1498.873901,783.863892 1499.583008,784.954651 1500.625488,786.033875 
	C1501.000000,790.689270 1501.000000,795.378479 1500.661621,800.638428 
	C1499.667847,802.333862 1498.976440,803.439270 1498.362671,804.586426 
	C1494.218872,812.332642 1489.197021,816.969727 1478.986450,816.917725 
	C1390.052368,816.464417 1301.115112,816.655823 1212.178711,816.658142 
	C1210.180420,816.658203 1208.012817,816.216125 1206.236938,816.852600 
	C1204.799927,817.367554 1202.822144,819.188171 1202.810181,820.446045 
	C1202.602417,842.261719 1202.676514,864.079956 1202.648560,885.897583 
	C1202.644165,889.301025 1204.488525,890.685181 1207.602173,890.828491 
	C1209.264526,890.904968 1210.932251,890.875000 1212.597534,890.875061 
	C1303.199341,890.877197 1393.801270,890.923950 1484.402710,890.764404 
	C1489.946655,890.754639 1493.564575,892.652588 1496.378052,897.127136 
	C1497.696899,899.224243 1499.445923,901.050781 1501.000000,903.000000 
	C1501.000000,908.022095 1501.000000,913.044189 1501.000000,918.533142 
z"/>
<path fill="#FEFBFB" opacity="1.000000" stroke="none" 
	d="
M1501.000000,902.531372 
	C1499.445923,901.050781 1497.696899,899.224243 1496.378052,897.127136 
	C1493.564575,892.652588 1489.946655,890.754639 1484.402710,890.764404 
	C1393.801270,890.923950 1303.199341,890.877197 1212.597534,890.875061 
	C1210.932251,890.875000 1209.264526,890.904968 1207.602173,890.828491 
	C1204.488525,890.685181 1202.644165,889.301025 1202.648560,885.897583 
	C1202.676514,864.079956 1202.602417,842.261719 1202.810181,820.446045 
	C1202.822144,819.188171 1204.799927,817.367554 1206.236938,816.852600 
	C1208.012817,816.216125 1210.180420,816.658203 1212.178711,816.658142 
	C1301.115112,816.655823 1390.052368,816.464417 1478.986450,816.917725 
	C1489.197021,816.969727 1494.218872,812.332642 1498.362671,804.586426 
	C1498.976440,803.439270 1499.667847,802.333862 1500.661621,801.104553 
	C1501.000000,834.687561 1501.000000,868.375122 1501.000000,902.531372 
z"/>
<path fill="#D22A24" opacity="1.000000" stroke="none" 
	d="
M379.458069,942.000000 
	C376.248718,940.370178 373.569092,938.601196 370.731201,937.139526 
	C364.842834,934.106567 362.367523,929.819519 362.392517,922.793396 
	C362.648346,850.838928 362.548950,778.883179 362.549347,706.927795 
	C362.549377,698.121887 368.473724,690.416077 377.314240,688.775330 
	C385.655609,687.227173 393.624420,687.801575 400.978394,693.376587 
	C404.941650,696.381104 406.487122,699.492676 406.439270,704.179626 
	C406.306641,717.170166 406.399261,730.162964 406.399414,743.154907 
	C406.400177,801.618652 406.399811,860.082458 406.399719,918.546204 
	C406.399719,933.430176 405.417175,934.858521 391.431122,940.422729 
	C390.988342,940.598877 390.640839,941.014465 390.124451,941.659180 
	C386.638702,942.000000 383.277435,942.000000 379.458069,942.000000 
z"/>
<path fill="#9A282D" opacity="1.000000" stroke="none" 
	d="
M902.000000,213.209656 
	C925.658752,213.221008 948.817993,213.324661 971.976135,213.210281 
	C986.867798,213.136734 998.782410,228.043549 993.222107,243.213257 
	C985.648315,263.876068 979.532349,285.069000 972.546814,305.952850 
	C964.931519,328.719330 956.917419,351.352356 949.297241,374.117249 
	C941.621521,397.048004 934.322327,420.104767 926.658325,443.039520 
	C920.730103,460.779663 914.388306,478.381348 908.428284,496.111115 
	C903.947815,509.439636 900.210205,523.031555 895.355164,536.216553 
	C890.436523,549.574280 880.657288,558.866150 868.202271,565.615784 
	C859.284607,570.448486 849.550293,571.903198 839.844116,571.980103 
	C796.694763,572.322083 753.541199,572.133789 710.389160,572.122864 
	C704.170044,572.121277 703.550964,571.628601 705.269287,565.480835 
	C708.744812,553.046326 712.677551,540.740356 716.322876,528.352234 
	C719.915527,516.143127 723.339905,503.884644 726.922913,491.672699 
	C730.645325,478.985565 734.524170,466.344269 738.232849,453.653137 
	C741.713013,441.743683 745.006409,429.779633 748.482727,417.869019 
	C751.357910,408.018311 754.428284,398.224701 757.324829,388.380127 
	C760.873901,376.317749 764.297363,364.218445 767.838684,352.153809 
	C771.609192,339.308685 775.505371,326.500336 779.251160,313.648132 
	C782.721252,301.742004 786.009705,289.782898 789.482239,277.877502 
	C792.349670,268.046661 795.440308,258.280823 798.301086,248.448074 
	C801.072815,238.921432 803.857300,229.391418 806.277466,219.772598 
	C807.433044,215.179764 809.557068,213.102325 814.530212,213.130341 
	C843.519348,213.293594 872.509949,213.209839 902.000000,213.209656 
z"/>
<path fill="#D22B25" opacity="1.000000" stroke="none" 
	d="
M659.000000,816.666504 
	C616.013000,816.666504 573.526062,816.664246 531.039062,816.669678 
	C524.510681,816.670532 524.497803,816.686890 524.495911,823.352722 
	C524.489990,843.513245 524.485168,863.673706 524.501404,883.834229 
	C524.506775,890.529236 524.536621,890.549927 531.127075,890.550415 
	C607.437012,890.555725 683.747131,890.618408 760.056519,890.422729 
	C765.661499,890.408325 769.102844,892.443115 771.985413,896.799622 
	C779.672058,908.416931 778.834961,919.851501 769.807007,929.544128 
	C767.080139,932.471802 764.041504,932.958984 760.409180,932.954773 
	C715.089783,932.901855 669.770325,932.921326 624.450867,932.921509 
	C588.795105,932.921631 553.138611,933.044312 517.484314,932.813049 
	C510.603577,932.768433 503.438324,932.302246 496.923248,930.322571 
	C486.598297,927.185364 480.777252,918.104919 480.686554,907.079041 
	C480.545441,889.918762 480.638489,872.756531 480.634430,855.595154 
	C480.631805,844.431885 480.500488,833.266296 480.702576,822.106689 
	C480.775879,818.056335 479.581238,816.487183 475.314453,816.587097 
	C464.490417,816.840576 453.650269,816.861389 442.830994,816.519287 
	C440.351501,816.440857 437.321289,815.124512 435.581268,813.357178 
	C424.688507,802.292969 424.304199,787.625732 434.583008,775.757385 
	C435.956177,774.171814 438.830688,773.194214 441.038940,773.141052 
	C452.029266,772.876709 463.029358,773.027527 474.025940,773.008118 
	C480.582489,772.996582 480.622437,772.960327 480.627411,766.209534 
	C480.641907,746.548889 480.504791,726.886414 480.784058,707.229675 
	C480.823975,704.419983 482.091370,700.853271 484.064514,698.975220 
	C494.404663,689.133179 503.597809,689.362610 514.552307,694.834229 
	C515.443115,695.279114 516.227173,695.939697 517.122192,696.373474 
	C522.845093,699.146973 524.828003,703.419983 524.661621,709.974854 
	C524.183960,728.790283 524.485901,747.625732 524.499023,766.453308 
	C524.503540,772.994995 524.527039,773.010803 531.263428,773.011169 
	C607.573364,773.015381 683.883545,773.093262 760.192810,772.869568 
	C766.517212,772.851013 769.905945,775.439148 772.880249,780.405762 
	C781.610352,794.983215 776.045105,805.048767 766.496582,815.201233 
	C765.231506,816.546265 762.188843,816.602539 759.967773,816.608032 
	C726.478638,816.691467 692.989319,816.666382 659.000000,816.666504 
z"/>
<path fill="#80262E" opacity="1.000000" stroke="none" 
	d="
M927.996460,474.847656 
	C935.101379,453.776764 941.989990,433.048950 948.954651,412.346680 
	C955.816162,391.950775 962.757080,371.581573 969.656616,351.198425 
	C970.665833,348.216949 971.984924,345.286316 972.544434,342.219757 
	C973.313232,338.005890 975.752991,336.961182 979.612244,336.973358 
	C1004.760071,337.052887 1029.912964,336.751709 1055.052612,337.210815 
	C1060.791748,337.315613 1066.905151,339.046265 1072.099487,341.567352 
	C1079.470215,345.144775 1083.466309,355.192871 1081.084839,362.994507 
	C1077.218262,375.661957 1072.778931,388.156830 1068.472290,400.687073 
	C1064.010620,413.668304 1059.499146,426.633698 1054.863403,439.553589 
	C1049.396118,454.790802 1045.193115,470.699738 1037.868164,484.998932 
	C1027.968262,504.324402 1010.243042,514.059692 988.659790,514.796448 
	C965.703430,515.580017 942.699890,514.957886 919.717102,515.019836 
	C915.931641,515.030029 914.729309,514.323486 916.269043,510.078308 
	C920.442932,498.570984 924.007446,486.842682 927.996460,474.847656 
z"/>
<path fill="#E37875" opacity="1.000000" stroke="none" 
	d="
M915.000000,890.317444 
	C981.653564,890.317688 1047.807129,890.352844 1113.960571,890.240784 
	C1118.526733,890.233032 1121.557373,891.551392 1124.499023,895.243042 
	C1135.199951,908.672974 1131.515381,922.920654 1120.338013,933.371521 
	C1118.676270,934.925354 1115.486206,935.416077 1112.998535,935.428040 
	C1084.338135,935.566101 1055.677002,935.516785 1027.015991,935.516846 
	C963.028687,935.516968 899.041016,935.604309 835.054443,935.390198 
	C828.154480,935.367126 820.921814,934.599304 814.435730,932.416870 
	C801.825623,928.173889 796.789124,920.343201 796.463318,907.078064 
	C795.702698,876.102722 796.121948,845.097961 796.096436,814.105164 
	C796.089600,805.774780 795.619385,797.388672 796.409363,789.128235 
	C797.357544,779.213501 800.909241,770.016113 811.045471,766.035461 
	C816.483459,763.899841 822.627197,762.589722 828.457458,762.572266 
	C903.441956,762.347473 978.427307,762.423035 1053.412476,762.423584 
	C1069.409302,762.423645 1085.409302,762.236572 1101.401855,762.497986 
	C1111.809204,762.668091 1121.026367,766.013306 1127.026123,775.205994 
	C1130.998657,781.292725 1131.340942,788.432495 1131.481079,795.356323 
	C1131.774292,809.847534 1131.850708,824.356934 1131.427979,838.841736 
	C1131.267212,844.352844 1130.088135,850.017822 1128.325684,855.260498 
	C1124.641113,866.219849 1115.573975,870.461975 1104.975098,870.528381 
	C1023.022949,871.041626 941.068970,871.264587 859.115540,871.574585 
	C855.116394,871.589722 851.098206,871.822266 847.122986,871.513733 
	C842.747803,871.174194 841.337219,872.764343 841.370422,877.177917 
	C841.469055,890.315674 841.298950,890.316895 854.512817,890.316956 
	C874.508545,890.317017 894.504272,890.317078 915.000000,890.317444 
M900.500000,868.194519 
	C924.828979,868.194458 949.157898,868.200012 973.486877,868.193176 
	C1016.979553,868.180908 1060.474976,868.432556 1103.963257,867.990540 
	C1118.302246,867.844849 1127.759155,859.604797 1128.066772,844.476990 
	C1128.446167,825.821289 1128.143921,807.151978 1128.159424,788.488525 
	C1128.164307,782.555908 1125.866577,777.549683 1121.944824,773.279114 
	C1115.844604,766.636414 1107.631348,764.989868 1099.262939,764.964417 
	C1045.105835,764.799500 990.948059,764.878479 936.790466,764.878235 
	C900.629883,764.878052 864.466003,764.607544 828.310730,765.046631 
	C817.590454,765.176758 806.561646,767.248657 801.991455,779.118530 
	C799.767212,784.895325 798.243469,791.324585 798.166382,797.480591 
	C797.784912,827.970642 797.815979,858.469849 798.108826,888.961914 
	C798.187744,897.170288 799.494385,905.391968 800.601013,913.558228 
	C801.652466,921.317383 806.154602,927.166382 813.630066,928.911133 
	C821.913269,930.844299 830.570435,931.779480 839.090942,931.969055 
	C858.411499,932.398926 877.748108,932.104431 897.078186,932.104309 
	C968.899414,932.104065 1040.720703,932.117371 1112.541748,932.038269 
	C1114.723511,932.035889 1117.489502,931.744385 1118.989502,930.442810 
	C1128.052124,922.578735 1131.907227,910.558167 1123.859741,898.992737 
	C1120.973511,894.844849 1117.970215,892.696960 1112.508057,892.708618 
	C1025.023071,892.895325 937.537720,892.840271 850.052429,892.840149 
	C848.552673,892.840149 847.043274,892.728271 845.554993,892.858765 
	C840.915405,893.265503 838.695923,891.429504 838.987305,886.556396 
	C839.225586,882.571228 839.205811,878.551819 838.995605,874.563599 
	C838.744507,869.797607 840.787537,868.088379 845.509705,868.131348 
	C863.505127,868.294861 881.503052,868.195862 900.500000,868.194519 
z"/>
<path fill="#FDF3F2" opacity="1.000000" stroke="none" 
	d="
M273.995972,870.028503 
	C278.159485,870.029541 281.834259,870.200134 285.485748,869.981567 
	C288.837463,869.781128 290.264709,871.040405 290.580841,874.422974 
	C292.153961,891.255188 292.211182,891.249939 275.534790,891.249878 
	C200.909561,891.249512 126.284348,891.250549 51.659126,891.246216 
	C44.312321,891.245789 44.253769,891.229553 44.310993,883.744263 
	C44.435116,867.507446 42.505619,870.087402 58.116699,870.067932 
	C129.910065,869.978516 201.703613,870.028503 273.995972,870.028503 
z"/>
<path fill="#D12721" opacity="1.000000" stroke="none" 
	d="
M900.000000,868.194702 
	C881.503052,868.195862 863.505127,868.294861 845.509705,868.131348 
	C840.787537,868.088379 838.744507,869.797607 838.995605,874.563599 
	C839.205811,878.551819 839.225586,882.571228 838.987305,886.556396 
	C838.695923,891.429504 840.915405,893.265503 845.554993,892.858765 
	C847.043274,892.728271 848.552673,892.840149 850.052429,892.840149 
	C937.537720,892.840271 1025.023071,892.895325 1112.508057,892.708618 
	C1117.970215,892.696960 1120.973511,894.844849 1123.859741,898.992737 
	C1131.907227,910.558167 1128.052124,922.578735 1118.989502,930.442810 
	C1117.489502,931.744385 1114.723511,932.035889 1112.541748,932.038269 
	C1040.720703,932.117371 968.899414,932.104065 897.078186,932.104309 
	C877.748108,932.104431 858.411499,932.398926 839.090942,931.969055 
	C830.570435,931.779480 821.913269,930.844299 813.630066,928.911133 
	C806.154602,927.166382 801.652466,921.317383 800.601013,913.558228 
	C799.494385,905.391968 798.187744,897.170288 798.108826,888.961914 
	C797.815979,858.469849 797.784912,827.970642 798.166382,797.480591 
	C798.243469,791.324585 799.767212,784.895325 801.991455,779.118530 
	C806.561646,767.248657 817.590454,765.176758 828.310730,765.046631 
	C864.466003,764.607544 900.629883,764.878052 936.790466,764.878235 
	C990.948059,764.878479 1045.105835,764.799500 1099.262939,764.964417 
	C1107.631348,764.989868 1115.844604,766.636414 1121.944824,773.279114 
	C1125.866577,777.549683 1128.164307,782.555908 1128.159424,788.488525 
	C1128.143921,807.151978 1128.446167,825.821289 1128.066772,844.476990 
	C1127.759155,859.604797 1118.302246,867.844849 1103.963257,867.990540 
	C1060.474976,868.432556 1016.979553,868.180908 973.486877,868.193176 
	C949.157898,868.200012 924.828979,868.194458 900.000000,868.194702 
M1080.137207,806.634949 
	C1003.321045,806.634827 926.504944,806.634644 849.688782,806.634705 
	C848.355774,806.634705 847.012817,806.742554 845.691528,806.618774 
	C841.716003,806.246155 839.737549,807.680176 840.090393,811.977783 
	C840.348572,815.122437 840.309326,818.317322 840.093567,821.468628 
	C839.798645,825.775330 841.551697,827.380432 845.894470,827.376221 
	C924.376831,827.300354 1002.859253,827.306213 1081.341675,827.365906 
	C1085.534790,827.369141 1087.603149,825.891052 1087.365479,821.526550 
	C1087.211548,818.702271 1087.161987,815.849426 1087.376465,813.033020 
	C1087.734497,808.326355 1085.875122,806.069275 1080.137207,806.634949 
z"/>
<path fill="#FCF2F1" opacity="1.000000" stroke="none" 
	d="
M1080.586914,806.635986 
	C1085.875122,806.069275 1087.734497,808.326355 1087.376465,813.033020 
	C1087.161987,815.849426 1087.211548,818.702271 1087.365479,821.526550 
	C1087.603149,825.891052 1085.534790,827.369141 1081.341675,827.365906 
	C1002.859253,827.306213 924.376831,827.300354 845.894470,827.376221 
	C841.551697,827.380432 839.798645,825.775330 840.093567,821.468628 
	C840.309326,818.317322 840.348572,815.122437 840.090393,811.977783 
	C839.737549,807.680176 841.716003,806.246155 845.691528,806.618774 
	C847.012817,806.742554 848.355774,806.634705 849.688782,806.634705 
	C926.504944,806.634644 1003.321045,806.634827 1080.586914,806.635986 
z"/>
</svg>