<svg xmlns="http://www.w3.org/2000/svg" width="400" height="400" viewBox="0 0 400 400" version="1.1"><path d="" stroke="none" fill="#089ce4" fill-rule="evenodd"/><path d="M 56.944 92.750 C 56.913 93.162, 50.925 131.300, 43.636 177.500 L 30.384 261.500 43.329 261.780 C 50.448 261.934, 56.411 261.923, 56.579 261.755 C 56.747 261.587, 58.428 253.361, 60.314 243.475 C 62.558 231.719, 63.948 226.365, 64.332 228 C 64.824 230.096, 68.006 258.928, 68.002 261.250 C 68.001 261.663, 73.625 262, 80.500 262 L 93 262 93 259.054 C 93 257.434, 91.883 243.284, 90.518 227.610 L 88.036 199.112 99.018 172.911 C 105.058 158.501, 110 146.551, 110 146.356 C 110 146.160, 104.487 146.008, 97.750 146.019 L 85.500 146.037 78.503 162.938 C 74.654 172.233, 71.430 179.762, 71.338 179.669 C 71.246 179.576, 73.821 160.825, 77.060 138 C 80.300 115.175, 82.961 95.487, 82.975 94.250 C 83 92.031, 82.822 92, 70 92 C 62.850 92, 56.975 92.338, 56.944 92.750 M 120.505 147.250 C 120.213 148.488, 115.480 173.575, 109.990 203 C 104.499 232.425, 99.741 257.752, 99.417 259.282 L 98.827 262.065 110.651 261.782 L 122.474 261.500 126.987 237 L 131.500 212.500 132.684 229 C 133.335 238.075, 134.164 249.226, 134.526 253.780 L 135.185 262.060 147.265 261.780 L 159.346 261.500 170.153 204 C 176.096 172.375, 180.968 146.162, 180.980 145.750 C 180.991 145.338, 175.855 145, 169.567 145 C 159.548 145, 158.069 145.216, 157.604 146.750 C 157.313 147.713, 155.467 157.500, 153.503 168.500 C 151.539 179.500, 149.586 189.353, 149.162 190.395 C 148.697 191.537, 147.688 184.593, 146.618 172.895 C 145.643 162.228, 144.594 151.588, 144.286 149.250 L 143.728 145 132.383 145 C 121.442 145, 121.019 145.080, 120.505 147.250 M 198.134 154.250 C 190.997 176.034, 164 260.763, 164 261.380 C 164 261.752, 170.146 261.931, 177.657 261.778 L 191.314 261.500 193.947 251.500 L 196.581 241.500 200.791 241.193 C 203.106 241.023, 204.984 241.248, 204.964 241.693 C 204.944 242.137, 204.349 246.887, 203.642 252.250 L 202.356 262 215.178 262 C 227.806 262, 228 261.966, 228.007 259.750 C 228.011 258.512, 229.811 232.321, 232.007 201.546 C 234.203 170.771, 236 145.459, 236 145.296 C 236 145.133, 228.162 145, 218.582 145 L 201.165 145 198.134 154.250 M 249.091 178.750 C 236.579 245.633, 236.629 245.139, 241.573 253.669 C 243.399 256.819, 245.498 258.593, 250.155 260.919 C 255.555 263.618, 257.349 264, 264.622 264 C 279.208 264, 289.460 258.172, 295.721 246.321 C 299.298 239.550, 299.708 237.744, 309.057 187.500 C 312.946 166.600, 316.373 148.488, 316.673 147.250 L 317.217 145 303.358 145.003 L 289.500 145.005 281.080 190.253 C 271.693 240.691, 271.562 241.289, 269.483 243.014 C 267.292 244.833, 264.961 242.558, 265.535 239.163 C 266.529 233.287, 282.193 149.346, 282.687 147.250 L 283.217 145 269.311 145 L 255.404 145 249.091 178.750 M 325 145.589 C 325 145.912, 318.475 182.392, 310.500 226.654 C 302.525 270.917, 296 307.327, 296 307.566 C 296 307.805, 302.022 308, 309.382 308 L 322.764 308 324.410 298.750 C 325.315 293.663, 329.100 272.400, 332.820 251.500 L 339.585 213.500 347.579 213.213 L 355.572 212.926 357.293 202.713 C 358.240 197.096, 359.011 191.938, 359.007 191.250 C 359.002 190.362, 356.830 190, 351.500 190 C 346.135 190, 344.017 189.644, 344.060 188.750 C 344.093 188.063, 344.888 183.450, 345.828 178.500 L 347.537 169.500 356.315 169.210 C 362.065 169.021, 365.235 168.503, 365.504 167.710 C 365.730 167.045, 366.773 161.662, 367.821 155.750 L 369.727 145 347.364 145 C 335.064 145, 325 145.265, 325 145.589 M 207.059 195.739 C 204.720 203.858, 202.199 212.637, 201.457 215.250 L 200.108 220 203.982 220 L 207.856 220 208.426 214.750 C 208.739 211.863, 209.681 203.248, 210.520 195.606 C 211.358 187.964, 211.880 181.546, 211.678 181.345 C 211.477 181.144, 209.398 187.621, 207.059 195.739" stroke="none" fill="#049ce4" fill-rule="evenodd"/></svg>