<svg xmlns="http://www.w3.org/2000/svg" version="1.1" viewBox="0 0 231.01 230.01"><path d="M 62.039 34.928 C 61.471 35.988, 61.244 37.473, 61.534 38.229 C 61.824 38.984, 80.273 56.211, 102.531 76.510 C 124.789 96.808, 143 113.981, 143 114.671 C 143 115.361, 124.829 132.479, 102.620 152.713 C 80.411 172.946, 62.010 190.258, 61.730 191.185 C 61.450 192.112, 61.872 193.800, 62.667 194.935 C 64.061 196.926, 64.992 197, 88.504 197 L 112.895 197 151.795 161.483 C 173.189 141.949, 191.229 124.792, 191.884 123.356 C 192.538 121.920, 193.341 118.791, 193.668 116.402 C 194.893 107.471, 192.834 105.089, 151.192 67.250 L 113.500 33.001 88.285 33 C 64.410 33, 63.016 33.102, 62.039 34.928 M 126 33.404 C 126 33.626, 131.440 38.808, 138.089 44.919 L 150.179 56.030 159.589 47.392 C 174.352 33.841, 173.575 33, 146.300 33 C 135.135 33, 126 33.182, 126 33.404 M 59.406 85.349 C 46.523 97.153, 38.850 104.927, 37.930 107.108 C 35.968 111.762, 36.252 118.953, 38.570 123.320 C 39.640 125.337, 49.307 134.982, 60.278 144.981 L 80.056 163.005 94.528 149.769 C 102.488 142.490, 108.962 136.301, 108.916 136.017 C 108.870 135.733, 103.920 131.055, 97.916 125.621 C 91.912 120.188, 87.001 115.238, 87.003 114.621 C 87.005 114.005, 91.955 109.037, 98.003 103.582 C 104.051 98.126, 108.968 93.401, 108.928 93.082 C 108.842 92.383, 81.320 67.612, 80.219 67.242 C 79.797 67.100, 70.430 75.248, 59.406 85.349 M 137.179 185.276 L 124.857 196.500 144.179 196.784 C 154.805 196.940, 164.483 196.826, 165.683 196.531 C 168.136 195.929, 169.541 192.771, 168.311 190.627 C 167.357 188.963, 150.901 173.988, 150.069 174.026 C 149.756 174.040, 143.955 179.103, 137.179 185.276" stroke="none" fill="#fcfaea" fill-rule="evenodd"/><path d="M -0 115.004 L -0 230.008 115.250 229.754 L 230.500 229.500 230.754 114.750 L 231.008 -0 115.504 -0 L 0 0 -0 115.004 M 0.483 115.500 C 0.483 178.750, 0.603 204.478, 0.750 172.673 C 0.896 140.868, 0.896 89.118, 0.750 57.673 C 0.603 26.228, 0.483 52.250, 0.483 115.500 M 62.039 34.928 C 61.471 35.988, 61.244 37.473, 61.534 38.229 C 61.824 38.984, 80.273 56.211, 102.531 76.510 C 124.789 96.808, 143 113.981, 143 114.671 C 143 115.361, 124.829 132.479, 102.620 152.713 C 80.411 172.946, 62.010 190.258, 61.730 191.185 C 61.450 192.112, 61.872 193.800, 62.667 194.935 C 64.061 196.926, 64.992 197, 88.504 197 L 112.895 197 151.795 161.483 C 173.189 141.949, 191.229 124.792, 191.884 123.356 C 192.538 121.920, 193.341 118.791, 193.668 116.402 C 194.893 107.471, 192.834 105.089, 151.192 67.250 L 113.500 33.001 88.285 33 C 64.410 33, 63.016 33.102, 62.039 34.928 M 126 33.404 C 126 33.626, 131.440 38.808, 138.089 44.919 L 150.179 56.030 159.589 47.392 C 174.352 33.841, 173.575 33, 146.300 33 C 135.135 33, 126 33.182, 126 33.404 M 59.406 85.349 C 46.523 97.153, 38.850 104.927, 37.930 107.108 C 35.968 111.762, 36.252 118.953, 38.570 123.320 C 39.640 125.337, 49.307 134.982, 60.278 144.981 L 80.056 163.005 94.528 149.769 C 102.488 142.490, 108.962 136.301, 108.916 136.017 C 108.870 135.733, 103.920 131.055, 97.916 125.621 C 91.912 120.188, 87.001 115.238, 87.003 114.621 C 87.005 114.005, 91.955 109.037, 98.003 103.582 C 104.051 98.126, 108.968 93.401, 108.928 93.082 C 108.842 92.383, 81.320 67.612, 80.219 67.242 C 79.797 67.100, 70.430 75.248, 59.406 85.349 M 137.179 185.276 L 124.857 196.500 144.179 196.784 C 154.805 196.940, 164.483 196.826, 165.683 196.531 C 168.136 195.929, 169.541 192.771, 168.311 190.627 C 167.357 188.963, 150.901 173.988, 150.069 174.026 C 149.756 174.040, 143.955 179.103, 137.179 185.276" stroke="none" fill="#fc1404" fill-rule="evenodd"/></svg>