<svg version="1.1" id="Layer_1" xmlns="http://www.w3.org/2000/svg" xmlns:xlink="http://www.w3.org/1999/xlink" x="0px" y="0px"
	 width="100%" viewBox="0 0 200 200" enable-background="new 0 0 200 200" xml:space="preserve">
<path fill="#1D2648" opacity="1.000000" stroke="none" 
	d="
M200.000000,201.000000 
	C133.739639,201.000000 67.479271,201.000000 1.000000,201.000000 
	C1.000000,134.979263 1.000000,68.958290 1.468657,2.467675 
	C48.168209,1.997396 94.399117,2.011320 140.630005,1.989033 
	C159.420258,1.979974 178.210464,1.892170 197.370117,1.965120 
	C198.497009,4.602811 199.911285,7.114365 199.915924,9.628528 
	C200.033844,73.418854 200.003967,137.209457 200.000000,201.000000 
M35.749176,95.261452 
	C35.749176,95.261452 35.651836,95.617355 35.168091,96.119148 
	C32.349541,102.425194 29.530994,108.731232 26.712444,115.037270 
	C26.247717,114.878792 25.782990,114.720314 25.318262,114.561829 
	C23.773624,107.131241 22.228985,99.700653 20.656229,92.134804 
	C19.288694,92.037788 18.146654,91.850601 17.013559,91.894478 
	C11.668077,92.101440 11.066213,93.057457 13.401798,97.812698 
	C17.722034,106.608696 22.086533,115.383141 26.479128,124.143219 
	C27.235033,125.650711 28.221292,127.042686 29.651182,129.391571 
	C35.800365,115.374931 41.464928,102.462967 47.249794,89.276772 
	C38.343899,88.537918 37.924664,88.774124 35.749176,95.261452 
M119.123550,98.542801 
	C119.284851,97.219879 119.524376,95.901100 119.594833,94.573357 
	C120.069992,85.618881 115.466461,81.157127 106.638123,82.010048 
	C102.493591,82.410446 98.355324,82.875092 94.212875,83.297493 
	C90.289398,83.697563 87.506714,85.608147 86.938438,89.631813 
	C85.355118,100.842438 83.909149,112.073524 82.569054,123.315613 
	C82.450516,124.309990 83.230217,126.033882 84.053993,126.410759 
	C87.690224,128.074371 91.528282,125.606804 92.121666,121.516006 
	C92.336769,120.033005 92.782219,118.560661 92.808434,117.077904 
	C92.857498,114.302605 93.847504,112.883766 96.879791,112.678337 
	C99.722763,112.485741 101.756882,112.823769 102.598656,115.945305 
	C103.204269,118.191101 103.886604,120.466797 104.940926,122.520630 
	C105.506569,123.622490 106.866577,124.906158 107.978699,125.019127 
	C110.549927,125.280304 113.188545,124.878090 116.592201,124.704506 
	C115.743050,121.945938 115.317375,119.672134 114.364296,117.646484 
	C112.164139,112.970337 111.141571,108.807472 116.184441,105.019615 
	C117.704208,103.878059 118.127823,101.277184 119.123550,98.542801 
M184.501831,73.097107 
	C179.720062,73.696190 174.952057,74.586349 170.152679,74.813545 
	C165.227249,75.046707 162.798813,77.646423 162.174744,82.094749 
	C160.650558,92.959061 159.219345,103.839432 157.983170,114.739700 
	C157.467789,119.284264 159.155594,120.711197 163.891129,120.305740 
	C168.694977,119.894440 173.485199,119.323898 178.281128,118.820480 
	C185.536423,118.058922 186.616547,116.439247 184.926712,108.381439 
	C179.647919,108.779930 174.296921,109.183868 168.969849,109.585999 
	C168.395493,102.296730 168.796936,101.842216 175.141937,101.155510 
	C177.602432,100.889229 180.554688,101.101952 182.338577,99.801262 
	C184.094559,98.520920 184.654388,95.600060 185.739044,93.399025 
	C183.982071,92.573357 182.295547,91.437057 180.446426,91.017715 
	C178.893097,90.665451 177.096390,91.455254 175.506531,91.175758 
	C173.900299,90.893372 171.353897,90.199944 171.085693,89.190643 
	C170.397186,86.599686 171.354172,84.321091 174.804535,84.142891 
	C177.455093,84.005989 180.084457,83.492561 182.728973,83.197975 
	C190.376419,82.346107 191.212173,81.197098 189.675476,73.046761 
	C188.297943,73.046761 186.838287,73.046761 184.501831,73.097107 
M74.567757,121.658295 
	C68.916359,121.658295 63.264961,121.658295 57.626812,121.658295 
	C56.693810,116.636360 58.200970,113.945244 63.336777,113.819527 
	C65.648460,113.762939 68.376633,113.902267 70.142082,112.758453 
	C72.184647,111.435104 74.476326,108.902412 74.686531,106.705910 
	C75.030281,103.114059 71.700829,103.024345 68.890511,103.317772 
	C67.237007,103.490410 65.533333,104.079659 63.956573,103.827942 
	C62.494404,103.594521 60.242752,102.737610 59.974628,101.722954 
	C59.368355,99.428642 59.926933,97.078125 63.240143,96.832458 
	C66.054382,96.623795 68.847885,96.133942 71.650101,95.765015 
	C79.368782,94.748810 80.227264,93.478256 78.528244,85.017303 
	C74.144470,85.560547 69.715660,86.104279 65.288223,86.658958 
	C52.242481,88.293388 52.135590,88.279221 50.216953,101.226646 
	C48.908623,110.055588 47.951588,118.936600 46.731419,128.637573 
	C55.079449,128.140854 62.642506,127.535118 70.216873,127.309784 
	C73.691971,127.206406 75.075417,125.818237 74.567757,121.658295 
M148.692322,99.273415 
	C151.868896,91.920441 155.045456,84.567459 158.356018,76.904335 
	C152.182190,75.991852 148.514175,77.108437 146.769943,82.854469 
	C145.235519,87.909309 142.746094,92.684433 140.536301,97.518105 
	C139.843597,99.033295 138.689667,100.337624 137.118271,102.672447 
	C136.384781,100.298279 135.907562,99.118294 135.660919,97.891930 
	C134.612564,92.679543 133.579636,87.462852 132.644257,82.229294 
	C131.895157,78.037956 128.999176,79.441750 126.455383,79.654106 
	C123.745682,79.880302 122.556770,81.098351 123.157364,83.889809 
	C125.777557,96.068192 128.295120,108.269196 131.005829,120.427238 
	C131.824875,124.100845 135.067520,125.031639 137.677902,122.363731 
	C139.022812,120.989197 139.906036,119.079865 140.722672,117.286835 
	C143.339203,111.541885 145.827286,105.738449 148.692322,99.273415 
z"/>
<path fill="#444F6D" opacity="1.000000" stroke="none" 
	d="
M200.500000,201.000000 
	C200.003967,137.209457 200.033844,73.418854 199.915924,9.628528 
	C199.911285,7.114365 198.497009,4.602811 197.369934,1.755275 
	C197.000305,1.420508 197.000000,1.000000 197.000000,1.000000 
	C198.333328,1.000000 199.666672,1.000000 201.000000,1.000000 
	C201.000000,67.666664 201.000000,134.333328 200.500000,201.000000 
z"/>
<path fill="#444F6D" opacity="1.000000" stroke="none" 
	d="
M196.531342,1.000000 
	C197.000000,1.000000 197.000305,1.420508 197.000504,1.630352 
	C178.210464,1.892170 159.420258,1.979974 140.630005,1.989033 
	C94.399117,2.011320 48.168209,1.997396 1.468657,1.999017 
	C2.329624,1.666667 3.659030,1.042719 4.988904,1.041721 
	C68.680138,0.993932 132.371414,1.000000 196.531342,1.000000 
z"/>
<path fill="#DC5E17" opacity="1.000000" stroke="none" 
	d="
M119.088562,98.943802 
	C118.127823,101.277184 117.704208,103.878059 116.184441,105.019615 
	C111.141571,108.807472 112.164139,112.970337 114.364296,117.646484 
	C115.317375,119.672134 115.743050,121.945938 116.592201,124.704506 
	C113.188545,124.878090 110.549927,125.280304 107.978699,125.019127 
	C106.866577,124.906158 105.506569,123.622490 104.940926,122.520630 
	C103.886604,120.466797 103.204269,118.191101 102.598656,115.945305 
	C101.756882,112.823769 99.722763,112.485741 96.879791,112.678337 
	C93.847504,112.883766 92.857498,114.302605 92.808434,117.077904 
	C92.782219,118.560661 92.336769,120.033005 92.121666,121.516006 
	C91.528282,125.606804 87.690224,128.074371 84.053993,126.410759 
	C83.230217,126.033882 82.450516,124.309990 82.569054,123.315613 
	C83.909149,112.073524 85.355118,100.842438 86.938438,89.631813 
	C87.506714,85.608147 90.289398,83.697563 94.212875,83.297493 
	C98.355324,82.875092 102.493591,82.410446 106.638123,82.010048 
	C115.466461,81.157127 120.069992,85.618881 119.594833,94.573357 
	C119.524376,95.901100 119.284851,97.219879 119.088562,98.943802 
M101.637253,103.055641 
	C103.095619,102.787621 105.226189,103.024475 105.880875,102.152824 
	C107.554588,99.924416 108.887787,97.290115 109.628960,94.616302 
	C109.815865,93.942047 107.376213,91.750198 105.960098,91.549370 
	C96.843346,90.256409 93.588074,94.031578 95.582771,103.741089 
	C97.304573,103.543404 99.071777,103.340508 101.637253,103.055641 
z"/>
<path fill="#DB5E18" opacity="1.000000" stroke="none" 
	d="
M184.940216,73.071930 
	C186.838287,73.046761 188.297943,73.046761 189.675476,73.046761 
	C191.212173,81.197098 190.376419,82.346107 182.728973,83.197975 
	C180.084457,83.492561 177.455093,84.005989 174.804535,84.142891 
	C171.354172,84.321091 170.397186,86.599686 171.085693,89.190643 
	C171.353897,90.199944 173.900299,90.893372 175.506531,91.175758 
	C177.096390,91.455254 178.893097,90.665451 180.446426,91.017715 
	C182.295547,91.437057 183.982071,92.573357 185.739044,93.399033 
	C184.654388,95.600060 184.094559,98.520920 182.338577,99.801262 
	C180.554688,101.101952 177.602432,100.889229 175.141937,101.155510 
	C168.796936,101.842216 168.395493,102.296730 168.969849,109.585999 
	C174.296921,109.183868 179.647919,108.779930 184.926712,108.381439 
	C186.616547,116.439247 185.536423,118.058922 178.281128,118.820480 
	C173.485199,119.323898 168.694977,119.894440 163.891129,120.305740 
	C159.155594,120.711197 157.467789,119.284264 157.983170,114.739700 
	C159.219345,103.839432 160.650558,92.959061 162.174744,82.094749 
	C162.798813,77.646423 165.227249,75.046707 170.152679,74.813545 
	C174.952057,74.586349 179.720062,73.696190 184.940216,73.071930 
z"/>
<path fill="#DA5E19" opacity="1.000000" stroke="none" 
	d="
M74.674805,122.073639 
	C75.075417,125.818237 73.691971,127.206406 70.216873,127.309784 
	C62.642506,127.535118 55.079449,128.140854 46.731419,128.637573 
	C47.951588,118.936600 48.908623,110.055588 50.216953,101.226646 
	C52.135590,88.279221 52.242481,88.293388 65.288223,86.658958 
	C69.715660,86.104279 74.144470,85.560547 78.528244,85.017303 
	C80.227264,93.478256 79.368782,94.748810 71.650101,95.765015 
	C68.847885,96.133942 66.054382,96.623795 63.240143,96.832458 
	C59.926933,97.078125 59.368355,99.428642 59.974628,101.722954 
	C60.242752,102.737610 62.494404,103.594521 63.956573,103.827942 
	C65.533333,104.079659 67.237007,103.490410 68.890511,103.317772 
	C71.700829,103.024345 75.030281,103.114059 74.686531,106.705910 
	C74.476326,108.902412 72.184647,111.435104 70.142082,112.758453 
	C68.376633,113.902267 65.648460,113.762939 63.336777,113.819527 
	C58.200970,113.945244 56.693810,116.636360 57.626812,121.658295 
	C63.264961,121.658295 68.916359,121.658295 74.674805,122.073639 
z"/>
<path fill="#D95E19" opacity="1.000000" stroke="none" 
	d="
M148.528625,99.615494 
	C145.827286,105.738449 143.339203,111.541885 140.722672,117.286835 
	C139.906036,119.079865 139.022812,120.989197 137.677902,122.363731 
	C135.067520,125.031639 131.824875,124.100845 131.005829,120.427238 
	C128.295120,108.269196 125.777557,96.068192 123.157364,83.889809 
	C122.556770,81.098351 123.745682,79.880302 126.455383,79.654106 
	C128.999176,79.441750 131.895157,78.037956 132.644257,82.229294 
	C133.579636,87.462852 134.612564,92.679543 135.660919,97.891930 
	C135.907562,99.118294 136.384781,100.298279 137.118271,102.672447 
	C138.689667,100.337624 139.843597,99.033295 140.536301,97.518105 
	C142.746094,92.684433 145.235519,87.909309 146.769943,82.854469 
	C148.514175,77.108437 152.182190,75.991852 158.356018,76.904335 
	C155.045456,84.567459 151.868896,91.920441 148.528625,99.615494 
z"/>
<path fill="#C85E26" opacity="1.000000" stroke="none" 
	d="
M36.009674,95.000137 
	C37.924664,88.774124 38.343899,88.537918 47.249794,89.276772 
	C41.464928,102.462967 35.800365,115.374931 29.651182,129.391571 
	C28.221292,127.042686 27.235033,125.650711 26.479128,124.143219 
	C22.086533,115.383141 17.722034,106.608696 13.401798,97.812698 
	C11.066213,93.057457 11.668077,92.101440 17.013559,91.894478 
	C18.146654,91.850601 19.288694,92.037788 20.656229,92.134804 
	C22.228985,99.700653 23.773624,107.131241 25.318262,114.561829 
	C25.782990,114.720314 26.247717,114.878792 26.712444,115.037270 
	C29.530994,108.731232 32.349541,102.425194 35.436951,96.264557 
	C35.212463,104.335587 30.622406,110.609299 27.425861,117.470596 
	C26.803371,118.806770 27.920734,120.953491 28.235588,122.726349 
	C29.467615,121.737946 31.225359,121.002686 31.843601,119.718727 
	C35.076180,113.005348 38.158691,106.209908 40.991138,99.318771 
	C42.039303,96.768661 42.263279,93.879784 42.863136,91.145409 
	C40.578648,92.430321 38.294159,93.715225 36.009674,95.000137 
z"/>
<path fill="#E85E0E" opacity="1.000000" stroke="none" 
	d="
M35.879425,95.130798 
	C38.294159,93.715225 40.578648,92.430321 42.863136,91.145409 
	C42.263279,93.879784 42.039303,96.768661 40.991138,99.318771 
	C38.158691,106.209908 35.076180,113.005348 31.843601,119.718727 
	C31.225359,121.002686 29.467615,121.737946 28.235588,122.726349 
	C27.920734,120.953491 26.803371,118.806770 27.425861,117.470596 
	C30.622406,110.609299 35.212463,104.335587 35.678825,96.013657 
	C35.651836,95.617355 35.749176,95.261452 35.879425,95.130798 
z"/>
<path fill="#2F263A" opacity="1.000000" stroke="none" 
	d="
M101.238113,103.096619 
	C99.071777,103.340508 97.304573,103.543404 95.582771,103.741089 
	C93.588074,94.031578 96.843346,90.256409 105.960098,91.549370 
	C107.376213,91.750198 109.815865,93.942047 109.628960,94.616302 
	C108.887787,97.290115 107.554588,99.924416 105.880875,102.152824 
	C105.226189,103.024475 103.095619,102.787621 101.238113,103.096619 
z"/>
</svg>