<svg id="svg" version="1.1" xmlns="http://www.w3.org/2000/svg" xmlns:xlink="http://www.w3.org/1999/xlink" width="400" height="400" viewBox="0, 0, 400,400"><g id="svgg"><path id="path0" d="M54.200 35.535 C 39.088 40.080,32.381 57.256,40.477 70.678 C 41.986 73.180,44.354 75.787,46.400 77.197 C 47.170 77.727,47.890 78.263,48.000 78.386 C 48.214 78.626,51.669 80.299,53.000 80.807 C 55.980 81.943,65.094 82.469,66.400 81.579 C 66.832 81.285,66.575 81.244,65.481 81.433 C 62.524 81.945,55.501 73.330,53.715 67.000 C 52.555 62.891,52.401 61.864,52.414 58.354 C 52.445 50.145,55.062 43.977,61.099 37.876 L 63.795 35.152 65.797 35.419 C 66.899 35.566,69.110 36.288,70.711 37.022 C 72.311 37.757,73.536 38.221,73.433 38.053 C 73.252 37.761,71.134 36.678,68.600 35.582 C 66.562 34.701,57.076 34.670,54.200 35.535 M74.005 38.673 C 74.008 38.853,74.657 39.419,75.448 39.932 C 76.240 40.445,76.772 40.678,76.631 40.451 C 76.241 39.818,73.999 38.301,74.005 38.673 M79.108 43.400 C 83.242 48.987,85.259 58.194,83.577 63.800 C 82.063 68.845,80.018 72.493,77.170 75.229 C 76.306 76.059,75.600 76.877,75.600 77.047 C 75.600 78.303,81.226 71.192,82.596 68.206 C 86.172 60.408,84.738 49.453,79.349 43.400 L 77.924 41.800 79.108 43.400 M74.100 77.688 C 73.605 77.927,73.200 78.279,73.200 78.470 C 73.200 78.662,73.650 78.524,74.200 78.163 C 75.667 77.202,75.616 76.957,74.100 77.688 M69.000 80.400 C 68.120 80.807,67.603 81.154,67.851 81.170 C 68.410 81.207,71.200 80.061,71.200 79.795 C 71.200 79.477,70.691 79.617,69.000 80.400 M120.575 185.147 C 109.479 188.935,108.549 203.806,119.084 208.995 C 126.460 212.629,135.524 207.959,137.151 199.686 C 138.985 190.364,129.546 182.085,120.575 185.147 M35.600 330.589 C 18.198 333.930,11.616 354.714,24.015 367.173 C 33.807 377.012,50.920 375.122,57.960 363.424 C 67.706 347.227,53.974 327.061,35.600 330.589 " stroke="none" fill="#5ec5c0" fill-rule="evenodd"></path><path id="path1" d="M214.712 26.812 C 201.217 29.086,194.242 46.046,201.964 57.811 C 210.064 70.152,228.108 70.162,236.078 57.831 C 245.944 42.565,232.974 23.735,214.712 26.812 M61.099 37.876 C 57.439 41.575,55.492 44.498,54.185 48.259 C 51.294 56.579,51.791 63.896,55.782 71.800 C 56.967 74.146,58.271 75.891,60.672 78.340 L 63.946 81.679 65.632 81.395 C 67.952 81.003,72.507 79.111,73.529 78.115 C 73.819 77.832,74.212 77.600,74.402 77.600 C 75.083 77.600,78.788 73.646,80.303 71.301 C 81.782 69.013,82.519 67.325,83.577 63.800 C 84.136 61.935,83.960 53.802,83.310 51.505 C 82.130 47.339,78.608 42.085,75.600 40.006 C 74.830 39.474,74.103 38.901,73.984 38.732 C 73.490 38.030,67.649 35.667,65.797 35.419 L 63.795 35.152 61.099 37.876 " stroke="none" fill="#ced6b6" fill-rule="evenodd"></path><path id="path2" d="M213.000 16.400 C 212.864 16.620,212.133 16.800,211.376 16.800 C 210.619 16.800,210.000 16.980,210.000 17.200 C 210.000 17.420,209.460 17.600,208.800 17.600 C 208.140 17.600,207.600 17.780,207.600 18.000 C 207.600 18.220,207.240 18.400,206.800 18.400 C 206.360 18.400,206.000 18.580,206.000 18.800 C 206.000 19.020,205.640 19.200,205.200 19.200 C 204.760 19.200,204.400 19.380,204.400 19.600 C 204.400 19.820,204.040 20.000,203.600 20.000 C 203.160 20.000,202.800 20.180,202.800 20.400 C 202.800 20.620,202.557 20.800,202.259 20.800 C 201.962 20.800,201.154 21.340,200.463 22.000 C 199.772 22.660,199.088 23.200,198.941 23.200 C 198.680 23.200,196.873 25.054,194.700 27.550 C 194.095 28.245,193.600 29.041,193.600 29.319 C 193.600 29.596,193.240 30.083,192.800 30.400 C 192.360 30.717,192.000 31.297,192.000 31.688 C 192.000 32.080,191.820 32.400,191.600 32.400 C 191.380 32.400,191.200 32.760,191.200 33.200 C 191.200 33.640,191.020 34.000,190.800 34.000 C 190.580 34.000,190.400 34.540,190.400 35.200 C 190.400 35.860,190.220 36.400,190.000 36.400 C 189.780 36.400,189.600 36.760,189.600 37.200 C 189.600 37.996,189.333 38.000,138.800 38.000 C 95.126 38.000,88.000 37.920,88.000 37.431 C 88.000 36.798,82.629 31.200,82.021 31.200 C 81.809 31.200,81.186 30.750,80.636 30.200 C 80.086 29.650,79.373 29.200,79.052 29.200 C 78.730 29.200,78.407 29.065,78.333 28.900 C 78.096 28.365,75.700 27.200,74.838 27.200 C 74.377 27.200,74.000 27.020,74.000 26.800 C 74.000 26.580,73.651 26.400,73.224 26.400 C 72.797 26.400,72.336 26.220,72.200 26.000 C 72.064 25.780,71.333 25.600,70.576 25.600 C 69.819 25.600,69.200 25.420,69.200 25.200 C 69.200 24.978,68.133 24.800,66.800 24.800 C 65.467 24.800,64.400 24.622,64.400 24.400 C 64.400 24.161,62.867 24.000,60.600 24.000 C 58.333 24.000,56.800 24.161,56.800 24.400 C 56.800 24.622,55.733 24.800,54.400 24.800 C 53.067 24.800,52.000 24.978,52.000 25.200 C 52.000 25.420,51.471 25.600,50.824 25.600 C 50.177 25.600,49.536 25.780,49.400 26.000 C 49.264 26.220,48.713 26.400,48.176 26.400 C 47.639 26.400,47.200 26.580,47.200 26.800 C 47.200 27.020,46.912 27.200,46.560 27.200 C 45.767 27.200,43.183 28.391,42.471 29.085 C 42.181 29.368,41.795 29.600,41.614 29.600 C 41.433 29.600,40.707 30.140,40.000 30.800 C 39.293 31.460,38.579 32.000,38.412 32.000 C 37.957 32.000,34.000 35.983,34.000 36.440 C 34.000 36.658,33.564 37.272,33.031 37.805 C 32.498 38.338,31.946 39.140,31.804 39.587 C 31.662 40.034,31.378 40.400,31.173 40.400 C 30.968 40.400,30.800 40.760,30.800 41.200 C 30.800 41.640,30.620 42.000,30.400 42.000 C 30.180 42.000,30.000 42.360,30.000 42.800 C 30.000 43.240,29.820 43.600,29.600 43.600 C 29.380 43.600,29.200 43.872,29.200 44.205 C 29.200 44.774,29.071 45.092,27.958 47.262 C 27.715 47.736,27.419 49.536,27.301 51.262 C 27.182 52.988,26.931 54.400,26.743 54.400 C 26.554 54.400,26.400 56.110,26.400 58.200 C 26.400 60.290,26.553 62.000,26.741 62.000 C 26.928 62.000,27.188 63.517,27.319 65.371 C 27.450 67.225,27.726 69.070,27.932 69.471 C 28.138 69.872,28.529 70.740,28.800 71.400 C 29.072 72.060,29.554 73.050,29.872 73.600 C 30.189 74.150,30.549 74.915,30.671 75.300 C 30.793 75.685,31.052 76.000,31.247 76.000 C 31.441 76.000,31.600 76.272,31.600 76.604 C 31.600 76.936,32.140 77.772,32.800 78.463 C 33.460 79.154,34.000 79.882,34.000 80.081 C 34.000 80.549,38.730 85.200,39.204 85.200 C 39.402 85.200,40.014 85.650,40.564 86.200 C 41.114 86.750,41.765 87.200,42.010 87.200 C 42.790 87.200,43.600 88.306,43.600 89.371 C 43.600 89.937,43.420 90.400,43.200 90.400 C 42.958 90.400,42.800 92.133,42.800 94.800 C 42.800 97.467,42.642 99.200,42.400 99.200 C 42.157 99.200,42.000 101.000,42.000 103.800 C 42.000 106.600,41.843 108.400,41.600 108.400 C 41.358 108.400,41.200 110.125,41.200 112.776 C 41.200 115.263,41.027 117.260,40.800 117.400 C 40.573 117.540,40.400 119.537,40.400 122.024 C 40.400 124.675,40.242 126.400,40.000 126.400 C 39.758 126.400,39.600 128.125,39.600 130.776 C 39.600 133.263,39.427 135.260,39.200 135.400 C 38.973 135.540,38.800 137.537,38.800 140.024 C 38.800 142.675,38.642 144.400,38.400 144.400 C 38.157 144.400,38.000 146.200,38.000 149.000 C 38.000 151.800,37.843 153.600,37.600 153.600 C 37.358 153.600,37.200 155.333,37.200 158.000 C 37.200 160.667,37.042 162.400,36.800 162.400 C 36.557 162.400,36.400 164.200,36.400 167.000 C 36.400 169.800,36.243 171.600,36.000 171.600 C 35.758 171.600,35.600 173.325,35.600 175.976 C 35.600 178.463,35.427 180.460,35.200 180.600 C 34.973 180.740,34.800 182.737,34.800 185.224 C 34.800 187.875,34.642 189.600,34.400 189.600 C 34.158 189.600,34.000 191.325,34.000 193.976 C 34.000 196.463,33.827 198.460,33.600 198.600 C 33.373 198.740,33.200 200.730,33.200 203.200 C 33.200 205.670,33.027 207.660,32.800 207.800 C 32.573 207.940,32.400 209.937,32.400 212.424 C 32.400 215.075,32.242 216.800,32.000 216.800 C 31.758 216.800,31.600 218.525,31.600 221.176 C 31.600 223.663,31.427 225.660,31.200 225.800 C 30.974 225.940,30.800 227.911,30.800 230.344 C 30.800 232.707,30.631 234.811,30.425 235.020 C 30.219 235.229,29.954 237.290,29.836 239.600 C 29.635 243.537,29.393 246.562,28.410 257.400 C 28.191 259.820,27.784 265.791,27.505 270.669 C 27.227 275.547,26.865 279.672,26.700 279.836 C 26.535 279.999,26.400 282.083,26.400 284.467 C 26.400 287.089,26.242 288.800,26.000 288.800 C 25.758 288.800,25.600 290.525,25.600 293.176 C 25.600 295.663,25.427 297.660,25.200 297.800 C 24.973 297.940,24.800 299.937,24.800 302.424 C 24.800 305.075,24.642 306.800,24.400 306.800 C 24.157 306.800,24.000 308.600,24.000 311.400 C 24.000 314.200,23.843 316.000,23.600 316.000 C 23.361 316.000,23.200 317.539,23.200 319.818 C 23.200 323.684,22.406 325.600,20.804 325.600 C 19.379 325.600,11.200 334.433,11.200 335.972 C 11.200 336.207,11.036 336.400,10.835 336.400 C 10.634 336.400,10.349 337.120,10.200 338.000 C 10.051 338.880,9.766 339.600,9.565 339.600 C 9.364 339.600,9.200 340.140,9.200 340.800 C 9.200 341.460,9.020 342.000,8.800 342.000 C 8.580 342.000,8.400 342.529,8.400 343.176 C 8.400 343.823,8.220 344.464,8.000 344.600 C 7.462 344.933,7.462 359.067,8.000 359.400 C 8.220 359.536,8.400 360.177,8.400 360.824 C 8.400 361.471,8.580 362.000,8.800 362.000 C 9.020 362.000,9.200 362.540,9.200 363.200 C 9.200 363.860,9.380 364.400,9.600 364.400 C 9.820 364.400,10.000 364.697,10.000 365.060 C 10.000 365.899,12.062 370.000,12.484 370.000 C 12.658 370.000,12.800 370.230,12.800 370.512 C 12.800 371.334,20.057 378.400,20.901 378.400 C 21.188 378.400,21.683 378.760,22.000 379.200 C 22.317 379.640,22.897 380.000,23.288 380.000 C 23.680 380.000,24.000 380.180,24.000 380.400 C 24.000 380.620,24.360 380.800,24.800 380.800 C 25.240 380.800,25.600 380.980,25.600 381.200 C 25.600 381.420,26.050 381.600,26.600 381.600 C 27.150 381.600,27.600 381.780,27.600 382.000 C 27.600 382.220,28.140 382.400,28.800 382.400 C 29.460 382.400,30.000 382.580,30.000 382.800 C 30.000 383.020,30.720 383.200,31.600 383.200 C 32.480 383.200,33.200 383.380,33.200 383.600 C 33.200 384.139,45.067 384.139,45.400 383.600 C 45.536 383.380,46.357 383.200,47.224 383.200 C 48.091 383.200,48.800 383.020,48.800 382.800 C 48.800 382.580,49.340 382.400,50.000 382.400 C 50.660 382.400,51.200 382.220,51.200 382.000 C 51.200 381.780,51.560 381.600,52.000 381.600 C 52.440 381.600,52.800 381.420,52.800 381.200 C 52.800 380.980,53.160 380.800,53.600 380.800 C 54.040 380.800,54.400 380.620,54.400 380.400 C 54.400 380.180,54.760 380.000,55.200 380.000 C 55.640 380.000,56.000 379.820,56.000 379.600 C 56.000 379.380,56.236 379.200,56.525 379.200 C 56.813 379.200,57.436 378.840,57.908 378.400 C 58.380 377.960,58.870 377.600,58.997 377.600 C 59.123 377.600,59.837 376.989,60.583 376.243 C 61.330 375.497,62.095 374.822,62.285 374.743 C 62.474 374.664,63.253 373.796,64.015 372.814 C 64.777 371.832,65.715 370.673,66.100 370.238 C 66.485 369.804,66.800 369.213,66.800 368.925 C 66.800 368.636,66.980 368.400,67.200 368.400 C 67.420 368.400,67.600 368.040,67.600 367.600 C 67.600 367.160,67.780 366.800,68.000 366.800 C 68.220 366.800,68.400 366.517,68.400 366.171 C 68.400 365.227,69.414 364.400,70.571 364.400 C 71.137 364.400,71.600 364.220,71.600 364.000 C 71.600 363.780,72.320 363.600,73.200 363.600 C 74.080 363.600,74.800 363.420,74.800 363.200 C 74.800 362.980,75.430 362.800,76.200 362.800 C 76.970 362.800,77.600 362.620,77.600 362.400 C 77.600 362.180,78.320 362.000,79.200 362.000 C 80.080 362.000,80.800 361.820,80.800 361.600 C 80.800 361.380,81.520 361.200,82.400 361.200 C 83.280 361.200,84.000 361.020,84.000 360.800 C 84.000 360.580,84.720 360.400,85.600 360.400 C 86.480 360.400,87.200 360.220,87.200 360.000 C 87.200 359.780,87.830 359.600,88.600 359.600 C 89.370 359.600,90.000 359.456,90.000 359.279 C 90.000 359.103,91.305 358.760,92.900 358.517 C 94.495 358.274,96.610 357.865,97.600 357.608 C 98.590 357.352,99.987 357.045,100.704 356.927 C 101.421 356.808,102.106 356.551,102.227 356.356 C 102.348 356.160,103.056 356.000,103.800 356.000 C 104.544 356.000,105.264 355.820,105.400 355.600 C 105.536 355.380,106.166 355.200,106.800 355.200 C 107.434 355.200,108.064 355.020,108.200 354.800 C 108.336 354.580,109.067 354.400,109.824 354.400 C 110.581 354.400,111.200 354.220,111.200 354.000 C 111.200 353.780,111.920 353.600,112.800 353.600 C 113.680 353.600,114.400 353.420,114.400 353.200 C 114.400 352.980,115.120 352.800,116.000 352.800 C 116.880 352.800,117.600 352.620,117.600 352.400 C 117.600 352.180,118.320 352.000,119.200 352.000 C 120.080 352.000,120.800 351.820,120.800 351.600 C 120.800 351.380,121.419 351.200,122.176 351.200 C 122.933 351.200,123.664 351.020,123.800 350.800 C 123.936 350.580,124.667 350.400,125.424 350.400 C 126.181 350.400,126.800 350.220,126.800 350.000 C 126.800 349.780,127.520 349.600,128.400 349.600 C 129.280 349.600,130.000 349.420,130.000 349.200 C 130.000 348.980,130.720 348.800,131.600 348.800 C 132.480 348.800,133.200 348.620,133.200 348.400 C 133.200 348.180,133.819 348.000,134.576 348.000 C 135.333 348.000,136.064 347.820,136.200 347.600 C 136.336 347.380,137.056 347.200,137.800 347.200 C 138.544 347.200,139.264 347.020,139.400 346.800 C 139.536 346.580,140.267 346.400,141.024 346.400 C 141.781 346.400,142.400 346.220,142.400 346.000 C 142.400 345.780,143.120 345.600,144.000 345.600 C 144.880 345.600,145.600 345.420,145.600 345.200 C 145.600 344.980,146.219 344.800,146.976 344.800 C 147.733 344.800,148.464 344.620,148.600 344.400 C 148.736 344.180,149.366 344.000,150.000 344.000 C 150.634 344.000,151.264 343.820,151.400 343.600 C 151.536 343.380,152.256 343.200,153.000 343.200 C 153.744 343.200,154.464 343.020,154.600 342.800 C 154.736 342.580,155.467 342.400,156.224 342.400 C 156.981 342.400,157.600 342.235,157.600 342.034 C 157.600 341.833,158.950 341.542,160.600 341.387 C 162.250 341.233,163.600 340.947,163.600 340.753 C 163.600 340.559,164.219 340.400,164.976 340.400 C 165.733 340.400,166.464 340.220,166.600 340.000 C 166.736 339.780,167.456 339.600,168.200 339.600 C 168.944 339.600,169.664 339.420,169.800 339.200 C 169.936 338.980,170.667 338.800,171.424 338.800 C 172.181 338.800,172.800 338.620,172.800 338.400 C 172.800 338.180,173.520 338.000,174.400 338.000 C 175.280 338.000,176.000 337.820,176.000 337.600 C 176.000 337.380,176.720 337.200,177.600 337.200 C 178.480 337.200,179.200 337.020,179.200 336.800 C 179.200 336.580,179.819 336.400,180.576 336.400 C 181.333 336.400,182.064 336.220,182.200 336.000 C 182.336 335.780,183.056 335.600,183.800 335.600 C 184.544 335.600,185.264 335.420,185.400 335.200 C 185.536 334.980,186.267 334.800,187.024 334.800 C 187.781 334.800,188.400 334.620,188.400 334.400 C 188.400 334.180,189.019 334.000,189.776 334.000 C 190.533 334.000,191.252 333.840,191.373 333.644 C 191.494 333.449,192.224 333.179,192.996 333.044 C 193.768 332.910,195.032 332.690,195.804 332.556 C 196.576 332.421,197.306 332.151,197.427 331.956 C 197.548 331.760,198.267 331.600,199.024 331.600 C 199.781 331.600,200.400 331.420,200.400 331.200 C 200.400 330.980,201.120 330.800,202.000 330.800 C 202.880 330.800,203.600 330.620,203.600 330.400 C 203.600 330.180,204.219 330.000,204.976 330.000 C 205.733 330.000,206.464 329.820,206.600 329.600 C 206.736 329.380,207.467 329.200,208.224 329.200 C 208.981 329.200,209.600 329.020,209.600 328.800 C 209.600 328.580,210.320 328.400,211.200 328.400 C 212.080 328.400,212.800 328.220,212.800 328.000 C 212.800 327.780,213.520 327.600,214.400 327.600 C 215.280 327.600,216.000 327.420,216.000 327.200 C 216.000 326.980,216.720 326.800,217.600 326.800 C 218.480 326.800,219.200 326.620,219.200 326.400 C 219.200 326.180,219.800 326.000,220.533 326.000 C 221.267 326.000,222.001 325.865,222.165 325.700 C 222.329 325.535,223.664 325.188,225.131 324.928 C 226.599 324.669,228.610 324.251,229.600 324.000 C 230.590 323.748,231.987 323.445,232.704 323.327 C 233.421 323.208,234.106 322.951,234.227 322.756 C 234.793 321.841,237.627 322.400,239.011 323.700 C 239.773 324.415,241.022 325.585,241.786 326.300 C 242.551 327.015,243.323 327.600,243.500 327.600 C 243.678 327.600,244.083 327.960,244.400 328.400 C 244.717 328.840,245.214 329.200,245.505 329.200 C 245.796 329.200,246.420 329.560,246.892 330.000 C 247.364 330.440,247.987 330.800,248.275 330.800 C 248.564 330.800,248.800 330.980,248.800 331.200 C 248.800 331.420,249.149 331.600,249.576 331.600 C 250.003 331.600,250.464 331.780,250.600 332.000 C 250.736 332.220,251.287 332.400,251.824 332.400 C 252.361 332.400,252.800 332.580,252.800 332.800 C 252.800 333.020,253.239 333.200,253.776 333.200 C 254.313 333.200,254.864 333.380,255.000 333.600 C 255.136 333.820,255.766 334.000,256.400 334.000 C 257.034 334.000,257.664 334.180,257.800 334.400 C 257.936 334.620,259.027 334.800,260.224 334.800 C 261.421 334.800,262.400 334.980,262.400 335.200 C 262.400 335.706,270.492 335.741,271.020 335.237 C 271.229 335.037,272.300 334.777,273.400 334.658 C 276.731 334.299,278.400 333.931,278.400 333.556 C 278.400 333.360,278.940 333.200,279.600 333.200 C 280.260 333.200,280.800 333.020,280.800 332.800 C 280.800 332.580,281.149 332.400,281.576 332.400 C 282.003 332.400,282.464 332.220,282.600 332.000 C 282.736 331.780,283.163 331.600,283.548 331.600 C 283.934 331.600,284.636 331.240,285.108 330.800 C 285.580 330.360,286.244 330.000,286.583 330.000 C 286.922 330.000,287.200 329.820,287.200 329.600 C 287.200 329.380,287.443 329.200,287.741 329.200 C 288.038 329.200,288.846 328.660,289.537 328.000 C 290.228 327.340,290.893 326.800,291.015 326.800 C 291.137 326.800,291.661 326.395,292.181 325.900 C 292.700 325.405,293.468 324.730,293.886 324.400 C 294.305 324.070,295.266 322.990,296.023 322.000 C 296.781 321.011,297.715 319.909,298.100 319.553 C 298.485 319.197,298.800 318.695,298.800 318.436 C 298.800 318.178,299.160 317.580,299.600 317.108 C 300.040 316.636,300.400 316.013,300.400 315.725 C 300.400 315.436,300.580 315.200,300.800 315.200 C 301.020 315.200,301.200 314.840,301.200 314.400 C 301.200 313.960,301.347 313.600,301.528 313.600 C 301.708 313.600,302.100 312.700,302.400 311.600 C 302.700 310.500,303.092 309.600,303.272 309.600 C 303.453 309.600,303.600 308.981,303.600 308.224 C 303.600 307.467,303.780 306.736,304.000 306.600 C 304.220 306.464,304.400 305.654,304.400 304.800 C 304.400 303.946,304.580 303.136,304.800 303.000 C 305.339 302.667,305.339 291.200,304.800 291.200 C 304.580 291.200,304.400 290.300,304.400 289.200 C 304.400 288.100,304.220 287.200,304.000 287.200 C 303.780 287.200,303.600 286.581,303.600 285.824 C 303.600 285.067,303.420 284.336,303.200 284.200 C 302.980 284.064,302.800 283.618,302.800 283.210 C 302.800 282.801,302.575 282.386,302.300 282.287 C 301.961 282.165,302.090 281.850,302.700 281.307 C 303.195 280.867,303.600 280.329,303.600 280.112 C 303.600 279.896,304.140 279.154,304.800 278.463 C 305.460 277.772,306.000 277.071,306.001 276.904 C 306.001 276.737,306.541 275.970,307.200 275.200 C 307.859 274.430,308.399 273.673,308.399 273.518 C 308.400 273.363,308.850 272.786,309.400 272.236 C 309.950 271.686,310.400 271.075,310.400 270.878 C 310.400 270.680,310.940 269.954,311.600 269.263 C 312.260 268.572,312.800 267.808,312.800 267.564 C 312.800 267.320,313.340 266.617,314.000 266.000 C 314.660 265.383,315.200 264.663,315.200 264.400 C 315.200 264.137,315.740 263.417,316.400 262.800 C 317.060 262.183,317.600 261.463,317.600 261.200 C 317.600 260.937,318.140 260.217,318.800 259.600 C 319.460 258.983,320.000 258.361,320.000 258.218 C 320.000 258.074,320.539 257.381,321.198 256.678 C 321.857 255.975,322.397 255.203,322.398 254.962 C 322.399 254.721,322.778 254.182,323.241 253.763 C 323.703 253.344,324.360 252.461,324.700 251.801 C 325.040 251.140,325.652 250.309,326.059 249.953 C 326.467 249.597,326.800 249.084,326.800 248.814 C 326.800 248.543,327.340 247.817,328.000 247.200 C 328.660 246.583,329.200 245.863,329.200 245.600 C 329.200 245.337,329.740 244.617,330.400 244.000 C 331.060 243.383,331.600 242.683,331.600 242.443 C 331.600 242.203,332.140 241.491,332.800 240.860 C 333.460 240.229,334.000 239.596,334.000 239.453 C 334.000 239.310,334.540 238.628,335.200 237.937 C 335.860 237.246,336.400 236.526,336.400 236.337 C 336.400 236.148,336.940 235.428,337.600 234.737 C 338.260 234.046,338.800 233.321,338.800 233.124 C 338.800 232.927,339.175 232.369,339.634 231.883 C 340.093 231.397,340.749 230.460,341.093 229.800 C 341.437 229.140,342.052 228.309,342.459 227.953 C 342.867 227.597,343.200 227.084,343.200 226.814 C 343.200 226.543,343.740 225.817,344.400 225.200 C 345.060 224.583,345.600 223.970,345.600 223.836 C 345.600 223.702,346.140 223.028,346.800 222.337 C 347.460 221.646,348.000 220.926,348.000 220.737 C 348.000 220.548,348.540 219.828,349.200 219.137 C 349.860 218.446,350.400 217.726,350.400 217.537 C 350.400 217.348,350.940 216.628,351.600 215.937 C 352.260 215.246,352.800 214.526,352.800 214.337 C 352.800 214.148,353.340 213.428,354.000 212.737 C 354.660 212.046,355.200 211.304,355.200 211.088 C 355.200 210.871,355.521 210.403,355.914 210.047 C 356.738 209.300,359.600 205.415,359.600 205.043 C 359.600 204.905,360.140 204.228,360.800 203.537 C 361.460 202.846,362.000 202.126,362.000 201.937 C 362.000 201.748,362.540 201.028,363.200 200.337 C 363.860 199.646,364.400 198.926,364.400 198.737 C 364.400 198.548,364.940 197.828,365.600 197.137 C 366.260 196.446,366.800 195.726,366.800 195.537 C 366.800 195.348,367.340 194.628,368.000 193.937 C 368.660 193.246,369.200 192.464,369.200 192.198 C 369.200 191.890,370.244 191.618,372.083 191.447 C 373.668 191.300,375.063 191.033,375.183 190.855 C 375.302 190.677,376.255 190.282,377.300 189.978 C 378.345 189.674,379.200 189.306,379.200 189.161 C 379.200 189.016,379.740 188.673,380.400 188.400 C 381.060 188.127,381.600 187.784,381.600 187.638 C 381.600 187.492,382.129 187.060,382.776 186.678 C 384.192 185.841,387.200 183.005,387.200 182.507 C 387.200 182.311,387.527 181.800,387.927 181.371 C 389.252 179.949,391.226 175.924,391.469 174.149 C 391.601 173.187,391.864 172.400,392.054 172.400 C 392.244 172.400,392.400 169.430,392.400 165.800 C 392.400 162.170,392.245 159.200,392.056 159.200 C 391.866 159.200,391.609 158.345,391.483 157.300 C 391.255 155.409,388.969 150.400,388.333 150.400 C 388.150 150.400,388.000 150.136,388.000 149.814 C 388.000 149.026,383.376 144.570,381.943 143.976 C 381.314 143.716,380.800 143.345,380.800 143.151 C 380.800 142.958,380.440 142.800,380.000 142.800 C 379.560 142.800,379.200 142.620,379.200 142.400 C 379.200 142.180,378.840 142.000,378.400 142.000 C 377.960 142.000,377.600 141.820,377.600 141.600 C 377.600 141.380,377.240 141.200,376.800 141.200 C 376.360 141.200,376.000 141.020,376.000 140.800 C 376.000 140.580,375.370 140.400,374.600 140.400 C 373.830 140.400,373.200 140.220,373.200 140.000 C 373.200 139.772,372.008 139.600,370.424 139.600 C 368.897 139.600,367.536 139.420,367.400 139.200 C 367.264 138.980,366.803 138.800,366.376 138.800 C 365.949 138.800,365.600 138.980,365.600 139.200 C 365.600 139.431,364.333 139.600,362.600 139.600 C 360.867 139.600,359.600 139.431,359.600 139.200 C 359.600 138.980,359.415 138.800,359.189 138.800 C 358.964 138.800,357.992 138.013,357.031 137.052 C 356.069 136.091,354.592 134.786,353.749 134.152 C 352.905 133.518,351.444 132.238,350.503 131.307 C 349.562 130.375,348.299 129.297,347.696 128.910 C 346.090 127.879,345.766 127.608,343.385 125.300 C 342.193 124.145,341.112 123.200,340.983 123.200 C 340.854 123.200,339.905 122.340,338.874 121.289 C 337.843 120.238,336.383 118.943,335.629 118.411 C 334.874 117.879,333.271 116.489,332.066 115.322 C 330.861 114.155,329.738 113.200,329.570 113.200 C 329.403 113.200,328.541 112.525,327.657 111.700 C 326.772 110.875,325.384 109.660,324.573 109.000 C 323.762 108.340,322.176 106.898,321.049 105.795 C 319.922 104.693,318.370 103.345,317.600 102.800 C 316.830 102.255,315.251 100.862,314.091 99.705 C 312.932 98.547,311.815 97.600,311.610 97.600 C 311.406 97.600,310.362 96.745,309.291 95.700 C 308.220 94.655,306.832 93.440,306.206 93.000 C 305.580 92.560,303.907 91.075,302.488 89.700 C 301.068 88.325,299.736 87.200,299.528 87.200 C 299.319 87.200,298.305 86.340,297.274 85.289 C 296.243 84.238,294.827 82.974,294.127 82.481 C 293.427 81.987,291.859 80.597,290.644 79.392 C 289.429 78.186,288.248 77.200,288.020 77.200 C 287.792 77.200,286.331 75.940,284.772 74.400 C 283.214 72.860,281.763 71.600,281.547 71.600 C 281.332 71.600,280.096 70.520,278.800 69.200 C 277.504 67.880,276.265 66.800,276.045 66.800 C 275.825 66.800,275.410 66.485,275.123 66.100 C 274.503 65.271,271.537 62.610,269.659 61.200 C 268.926 60.650,267.431 59.345,266.337 58.300 C 265.242 57.255,264.182 56.400,263.981 56.400 C 263.779 56.400,262.445 55.230,261.015 53.800 C 259.585 52.370,258.317 51.200,258.197 51.200 C 258.077 51.200,257.192 50.413,256.231 49.452 C 255.269 48.491,253.790 47.186,252.944 46.552 C 250.087 44.413,249.600 43.753,249.600 42.018 C 249.600 41.128,249.420 40.400,249.200 40.400 C 248.980 40.400,248.800 39.680,248.800 38.800 C 248.800 37.920,248.620 37.200,248.400 37.200 C 248.180 37.200,248.000 36.660,248.000 36.000 C 248.000 35.340,247.820 34.800,247.600 34.800 C 247.380 34.800,247.200 34.440,247.200 34.000 C 247.200 33.560,247.020 33.200,246.800 33.200 C 246.580 33.200,246.400 32.840,246.400 32.400 C 246.400 31.960,246.220 31.600,246.000 31.600 C 245.780 31.600,245.600 31.364,245.600 31.075 C 245.600 30.787,245.240 30.164,244.800 29.692 C 244.360 29.220,244.000 28.731,244.000 28.605 C 244.000 28.096,237.641 21.600,237.143 21.600 C 236.936 21.600,236.380 21.240,235.908 20.800 C 235.436 20.360,234.813 20.000,234.525 20.000 C 234.236 20.000,234.000 19.820,234.000 19.600 C 234.000 19.380,233.640 19.200,233.200 19.200 C 232.760 19.200,232.400 19.020,232.400 18.800 C 232.400 18.580,232.051 18.400,231.624 18.400 C 231.197 18.400,230.736 18.220,230.600 18.000 C 230.464 17.780,229.913 17.600,229.376 17.600 C 228.839 17.600,228.400 17.420,228.400 17.200 C 228.400 16.980,227.691 16.800,226.824 16.800 C 225.957 16.800,225.136 16.620,225.000 16.400 C 224.854 16.163,222.404 16.000,219.000 16.000 C 215.596 16.000,213.146 16.163,213.000 16.400 M225.400 26.805 C 237.503 31.809,242.850 43.299,238.296 54.516 C 232.569 68.624,214.020 71.938,203.749 60.689 C 192.961 48.874,199.273 29.200,214.800 26.247 C 216.616 25.901,224.178 26.299,225.400 26.805 M67.800 35.091 C 84.749 40.342,90.665 61.561,78.795 74.533 C 63.824 90.892,36.714 80.509,36.676 58.400 C 36.648 42.068,52.354 30.306,67.800 35.091 M188.243 48.700 C 188.550 49.104,188.780 50.458,188.787 51.900 C 188.794 53.292,188.977 54.400,189.200 54.400 C 189.420 54.400,189.600 55.030,189.600 55.800 C 189.600 56.570,189.780 57.200,190.000 57.200 C 190.220 57.200,190.400 57.560,190.400 58.000 C 190.400 58.440,190.580 58.800,190.800 58.800 C 191.020 58.800,191.200 59.160,191.200 59.600 C 191.200 60.040,191.380 60.400,191.600 60.400 C 191.820 60.400,192.000 60.760,192.000 61.200 C 192.000 61.640,192.180 62.000,192.400 62.000 C 192.620 62.000,192.800 62.360,192.800 62.800 C 192.800 63.240,192.958 63.600,193.151 63.600 C 193.345 63.600,193.729 64.146,194.005 64.813 C 194.537 66.097,199.746 71.600,200.430 71.600 C 200.652 71.600,201.220 71.960,201.692 72.400 C 202.164 72.840,202.787 73.200,203.075 73.200 C 203.364 73.200,203.600 73.380,203.600 73.600 C 203.600 73.820,203.960 74.000,204.400 74.000 C 204.840 74.000,205.200 74.164,205.200 74.365 C 205.200 74.566,205.920 74.851,206.800 75.000 C 207.680 75.149,208.400 75.434,208.400 75.635 C 208.400 75.836,209.030 76.000,209.800 76.000 C 210.570 76.000,211.200 76.180,211.200 76.400 C 211.200 76.620,212.179 76.800,213.376 76.800 C 214.573 76.800,215.664 76.980,215.800 77.200 C 215.936 77.420,217.297 77.600,218.824 77.600 L 221.600 77.600 221.600 79.976 C 221.600 81.283,221.780 82.464,222.000 82.600 C 222.223 82.738,222.400 84.604,222.400 86.824 C 222.400 89.208,222.560 90.800,222.800 90.800 C 223.038 90.800,223.200 92.325,223.200 94.576 C 223.200 96.663,223.379 98.463,223.600 98.600 C 223.821 98.737,224.000 100.537,224.000 102.624 C 224.000 104.875,224.162 106.400,224.400 106.400 C 224.640 106.400,224.800 108.000,224.800 110.400 C 224.800 112.800,224.960 114.400,225.200 114.400 C 225.438 114.400,225.600 115.925,225.600 118.176 C 225.600 120.263,225.779 122.063,226.000 122.200 C 226.221 122.336,226.400 124.126,226.400 126.190 C 226.400 128.249,226.553 129.993,226.741 130.067 C 226.929 130.140,227.206 133.035,227.357 136.500 L 227.632 142.800 226.440 142.800 C 225.784 142.800,225.136 142.980,225.000 143.200 C 224.864 143.420,224.446 143.600,224.070 143.600 C 223.695 143.600,222.707 143.965,221.874 144.411 C 221.042 144.858,220.144 145.091,219.880 144.929 C 219.373 144.619,219.291 144.555,217.400 142.993 C 216.740 142.447,216.047 142.001,215.860 142.000 C 215.674 142.000,215.017 141.460,214.400 140.800 C 213.783 140.140,213.075 139.600,212.826 139.600 C 212.577 139.600,211.782 139.015,211.059 138.300 C 210.336 137.585,209.143 136.550,208.409 136.000 C 207.674 135.450,206.845 134.775,206.565 134.500 C 206.286 134.225,205.930 134.000,205.775 134.000 C 205.621 134.000,205.203 133.676,204.847 133.281 C 204.491 132.886,203.570 132.129,202.800 131.600 C 202.030 131.071,201.130 130.343,200.800 129.982 C 200.470 129.621,199.761 129.093,199.225 128.809 C 198.689 128.524,198.059 128.133,197.825 127.938 C 195.509 126.011,194.954 125.601,194.660 125.600 C 194.474 125.600,193.817 125.060,193.200 124.400 C 192.583 123.740,191.953 123.200,191.800 123.200 C 191.647 123.200,191.017 122.660,190.400 122.000 C 189.783 121.340,189.119 120.800,188.924 120.800 C 188.728 120.800,187.772 120.080,186.800 119.200 C 185.828 118.320,184.872 117.600,184.676 117.600 C 184.481 117.600,183.817 117.060,183.200 116.400 C 182.583 115.740,181.916 115.200,181.718 115.200 C 181.519 115.200,180.669 114.570,179.828 113.800 C 178.987 113.030,178.161 112.400,177.992 112.400 C 177.823 112.400,177.107 111.860,176.400 111.200 C 175.693 110.540,174.992 110.000,174.842 110.000 C 174.691 110.000,173.772 109.280,172.800 108.400 C 171.828 107.520,170.872 106.800,170.676 106.800 C 170.481 106.800,169.817 106.260,169.200 105.600 C 168.583 104.940,167.919 104.400,167.724 104.400 C 167.528 104.400,166.572 103.680,165.600 102.800 C 164.628 101.920,163.672 101.200,163.476 101.200 C 163.281 101.200,162.617 100.660,162.000 100.000 C 161.383 99.340,160.719 98.800,160.523 98.800 C 160.327 98.800,159.499 98.215,158.684 97.500 C 155.536 94.741,154.089 93.600,153.735 93.600 C 153.533 93.600,152.572 92.880,151.600 92.000 C 150.628 91.120,149.672 90.400,149.476 90.400 C 149.281 90.400,148.617 89.860,148.000 89.200 C 147.383 88.540,146.681 88.000,146.440 88.000 C 146.198 88.000,145.259 87.280,144.352 86.400 C 143.445 85.520,142.547 84.800,142.355 84.800 C 142.164 84.800,141.491 84.260,140.860 83.600 C 140.229 82.940,139.523 82.400,139.290 82.400 C 139.057 82.400,138.807 82.258,138.733 82.085 C 138.660 81.912,137.796 81.147,136.813 80.385 C 135.831 79.623,134.573 78.595,134.017 78.100 C 133.462 77.605,132.782 77.200,132.505 77.200 C 132.228 77.200,131.259 76.480,130.352 75.600 C 129.445 74.720,128.527 74.000,128.312 74.000 C 128.097 74.000,127.417 73.460,126.800 72.800 C 126.183 72.140,125.547 71.600,125.386 71.600 C 125.226 71.600,124.803 71.276,124.447 70.881 C 124.091 70.486,123.170 69.723,122.400 69.185 C 121.630 68.648,120.478 67.712,119.841 67.104 C 119.203 66.497,118.504 66.000,118.288 66.000 C 118.071 66.000,117.603 65.676,117.247 65.281 C 116.891 64.886,115.970 64.125,115.200 63.592 C 114.430 63.058,113.440 62.287,113.000 61.877 C 112.560 61.467,111.701 60.871,111.091 60.551 C 110.046 60.004,108.793 58.988,106.587 56.900 C 106.064 56.405,105.448 56.000,105.218 56.000 C 104.988 56.000,104.800 55.820,104.800 55.600 C 104.800 55.380,104.602 55.200,104.360 55.200 C 104.119 55.200,103.417 54.660,102.800 54.000 C 102.183 53.340,101.519 52.800,101.324 52.800 C 101.128 52.800,100.172 52.080,99.200 51.200 C 98.228 50.320,97.277 49.600,97.087 49.600 C 96.702 49.600,95.600 48.584,95.600 48.229 C 95.600 47.537,187.716 48.006,188.243 48.700 M249.028 58.100 C 249.355 58.375,250.631 59.545,251.865 60.700 C 253.098 61.855,254.267 62.800,254.461 62.800 C 254.656 62.800,255.967 63.925,257.376 65.300 C 260.469 68.319,264.431 71.867,265.684 72.740 C 266.636 73.404,266.916 73.645,270.164 76.608 C 271.244 77.594,272.289 78.400,272.486 78.400 C 272.683 78.400,273.904 79.480,275.200 80.800 C 276.496 82.120,277.670 83.200,277.809 83.200 C 277.949 83.200,278.724 83.876,279.531 84.702 C 280.339 85.528,281.630 86.706,282.400 87.319 C 283.846 88.471,285.841 90.177,288.578 92.602 C 289.446 93.371,290.311 94.000,290.500 94.000 C 290.690 94.000,291.904 95.080,293.200 96.400 C 294.496 97.720,295.660 98.800,295.788 98.800 C 295.916 98.800,296.808 99.587,297.769 100.548 C 298.731 101.509,300.204 102.814,301.042 103.448 C 301.881 104.082,303.564 105.545,304.782 106.700 C 306.000 107.855,307.240 108.800,307.538 108.800 C 307.992 108.800,309.146 109.883,310.734 111.800 C 310.916 112.020,311.664 112.650,312.396 113.200 C 313.128 113.750,314.889 115.325,316.310 116.700 C 317.731 118.075,319.057 119.200,319.257 119.200 C 319.457 119.200,320.398 119.965,321.348 120.900 C 323.771 123.286,325.100 124.372,326.227 124.885 C 326.762 125.129,327.200 125.460,327.200 125.622 C 327.200 126.078,329.251 128.126,330.790 129.207 C 331.555 129.744,333.236 131.222,334.525 132.492 C 335.815 133.761,337.046 134.800,337.261 134.800 C 337.476 134.800,338.497 135.655,339.529 136.700 C 340.561 137.745,342.303 139.320,343.400 140.200 C 344.496 141.080,346.091 142.475,346.945 143.300 C 347.798 144.125,348.681 144.800,348.906 144.800 C 349.132 144.800,348.435 145.752,347.358 146.915 C 344.588 149.907,343.600 151.266,343.600 152.087 C 343.600 152.479,343.420 152.800,343.200 152.800 C 342.980 152.800,342.800 153.160,342.800 153.600 C 342.800 154.040,342.620 154.400,342.400 154.400 C 342.180 154.400,342.000 154.940,342.000 155.600 C 342.000 156.260,341.820 156.800,341.600 156.800 C 341.380 156.800,341.200 157.263,341.200 157.829 C 341.200 160.340,343.969 160.176,298.830 160.341 L 257.793 160.491 257.270 158.945 C 256.463 156.561,255.944 155.388,254.638 153.000 C 254.397 152.560,254.101 152.110,253.981 152.000 C 253.860 151.890,253.326 151.170,252.794 150.400 C 251.760 148.903,249.207 146.425,248.683 146.409 C 248.509 146.404,247.980 146.040,247.508 145.600 C 247.036 145.160,246.413 144.800,246.125 144.800 C 245.836 144.800,245.600 144.636,245.600 144.435 C 245.600 144.234,244.880 143.949,244.000 143.800 C 243.120 143.651,242.400 143.366,242.400 143.165 C 242.400 142.964,241.860 142.800,241.200 142.800 C 240.540 142.800,240.000 142.620,240.000 142.400 C 240.000 142.180,239.730 142.000,239.400 142.000 C 238.936 142.000,238.800 141.476,238.800 139.680 C 238.800 138.404,238.632 137.189,238.427 136.980 C 238.222 136.771,237.958 134.980,237.839 133.000 C 237.721 131.020,237.433 127.510,237.200 125.200 C 236.967 122.890,236.679 119.380,236.561 117.400 C 236.442 115.420,236.178 113.629,235.973 113.420 C 235.768 113.211,235.600 111.377,235.600 109.344 C 235.600 107.311,235.420 105.536,235.200 105.400 C 234.979 105.263,234.800 103.463,234.800 101.376 C 234.800 99.125,234.638 97.600,234.400 97.600 C 234.160 97.600,234.000 96.000,234.000 93.600 C 234.000 91.200,233.840 89.600,233.600 89.600 C 233.362 89.600,233.200 88.093,233.200 85.880 C 233.200 83.831,233.013 81.973,232.783 81.743 C 232.540 81.500,232.414 79.937,232.483 77.996 L 232.600 74.666 234.000 73.891 C 234.770 73.464,235.460 72.955,235.533 72.758 C 235.607 72.561,235.877 72.397,236.133 72.393 C 237.045 72.379,242.400 67.592,242.400 66.792 C 242.400 66.533,242.940 65.817,243.600 65.200 C 244.260 64.583,244.800 63.791,244.800 63.440 C 244.800 63.088,244.980 62.800,245.200 62.800 C 245.420 62.800,245.604 62.575,245.609 62.300 C 245.614 62.025,245.970 61.350,246.400 60.800 C 246.830 60.250,247.186 59.521,247.191 59.180 C 247.209 57.935,248.164 57.373,249.028 58.100 M95.637 62.800 C 95.841 62.800,96.572 63.340,97.263 64.000 C 97.954 64.660,98.672 65.200,98.859 65.200 C 99.046 65.200,99.941 65.920,100.848 66.800 C 101.755 67.680,102.656 68.400,102.852 68.400 C 103.047 68.400,103.772 68.940,104.463 69.600 C 105.154 70.260,105.896 70.800,106.112 70.800 C 106.329 70.800,106.797 71.116,107.153 71.502 C 108.258 72.700,111.512 75.200,111.967 75.200 C 112.205 75.200,112.400 75.380,112.400 75.600 C 112.400 75.820,112.598 76.000,112.840 76.000 C 113.081 76.000,113.783 76.540,114.400 77.200 C 115.017 77.860,115.719 78.400,115.960 78.400 C 116.202 78.400,116.400 78.580,116.400 78.800 C 116.400 79.020,116.598 79.200,116.840 79.200 C 117.081 79.200,117.783 79.740,118.400 80.400 C 119.017 81.060,119.737 81.600,120.000 81.600 C 120.263 81.600,120.983 82.140,121.600 82.800 C 122.217 83.460,122.892 84.000,123.101 84.000 C 123.310 84.000,124.008 84.495,124.652 85.100 C 125.964 86.332,127.561 87.627,130.800 90.082 C 132.010 90.999,133.060 91.896,133.133 92.075 C 133.207 92.254,133.539 92.400,133.873 92.400 C 134.206 92.400,134.983 92.940,135.600 93.600 C 136.217 94.260,136.919 94.800,137.160 94.800 C 137.402 94.800,137.600 94.980,137.600 95.200 C 137.600 95.420,137.798 95.600,138.040 95.600 C 138.281 95.600,138.983 96.140,139.600 96.800 C 140.217 97.460,140.937 98.000,141.200 98.000 C 141.463 98.000,142.183 98.540,142.800 99.200 C 143.417 99.860,144.053 100.400,144.214 100.400 C 144.374 100.400,144.797 100.724,145.153 101.119 C 145.509 101.514,146.430 102.277,147.200 102.815 C 147.970 103.352,149.122 104.288,149.759 104.896 C 150.397 105.503,151.072 106.000,151.258 106.000 C 151.445 106.000,152.266 106.630,153.082 107.400 C 153.899 108.170,154.817 108.800,155.123 108.800 C 155.429 108.800,156.183 109.340,156.800 110.000 C 157.417 110.660,158.126 111.200,158.377 111.200 C 158.627 111.200,159.517 111.920,160.354 112.800 C 161.191 113.680,161.996 114.400,162.142 114.400 C 162.288 114.400,162.972 114.940,163.663 115.600 C 164.354 116.260,165.072 116.800,165.259 116.800 C 165.446 116.800,166.341 117.520,167.248 118.400 C 168.155 119.280,169.056 120.000,169.252 120.000 C 169.447 120.000,170.172 120.540,170.863 121.200 C 171.554 121.860,172.272 122.400,172.458 122.400 C 172.645 122.400,173.466 123.030,174.282 123.800 C 175.099 124.570,176.077 125.200,176.456 125.200 C 176.836 125.200,177.260 125.560,177.400 126.000 C 177.540 126.440,177.912 126.800,178.227 126.800 C 178.542 126.800,178.800 126.980,178.800 127.200 C 178.800 127.420,178.998 127.600,179.240 127.600 C 179.481 127.600,180.183 128.140,180.800 128.800 C 181.417 129.460,182.119 130.000,182.360 130.000 C 182.602 130.000,182.800 130.180,182.800 130.400 C 182.800 130.620,182.998 130.800,183.240 130.800 C 183.481 130.800,184.183 131.340,184.800 132.000 C 185.417 132.660,186.125 133.200,186.374 133.200 C 186.623 133.200,187.457 133.830,188.227 134.600 C 188.997 135.370,189.792 136.000,189.995 136.000 C 190.198 136.000,190.778 136.405,191.285 136.900 C 191.791 137.395,192.834 138.275,193.603 138.855 C 194.371 139.435,195.433 140.290,195.961 140.755 C 196.490 141.220,197.093 141.600,197.301 141.600 C 197.509 141.600,198.183 142.140,198.800 142.800 C 199.417 143.460,200.119 144.000,200.360 144.000 C 200.602 144.000,201.541 144.720,202.448 145.600 C 203.355 146.480,204.273 147.200,204.488 147.200 C 204.703 147.200,205.383 147.740,206.000 148.400 C 206.617 149.060,207.325 149.600,207.574 149.600 C 207.823 149.600,208.613 150.185,209.330 150.900 C 210.047 151.615,211.076 152.492,211.616 152.848 C 212.593 153.493,212.595 153.503,211.899 154.962 C 211.514 155.768,211.200 156.676,211.200 156.980 C 211.200 157.284,210.983 157.606,210.717 157.694 C 210.375 157.808,210.186 159.752,210.069 164.328 L 209.904 170.800 207.952 170.800 C 206.878 170.800,206.000 170.980,206.000 171.200 C 206.000 171.420,205.280 171.600,204.400 171.600 C 203.520 171.600,202.800 171.780,202.800 172.000 C 202.800 172.220,201.990 172.400,201.000 172.400 C 200.010 172.400,199.200 172.580,199.200 172.800 C 199.200 173.020,198.491 173.200,197.624 173.200 C 196.757 173.200,195.936 173.380,195.800 173.600 C 195.664 173.820,194.944 174.000,194.200 174.000 C 193.456 174.000,192.736 174.180,192.600 174.400 C 192.464 174.620,191.553 174.800,190.576 174.800 C 189.599 174.800,188.800 174.980,188.800 175.200 C 188.800 175.420,188.080 175.600,187.200 175.600 C 186.320 175.600,185.600 175.780,185.600 176.000 C 185.600 176.220,184.801 176.400,183.824 176.400 C 182.847 176.400,181.947 176.562,181.825 176.759 C 181.703 176.957,180.297 177.247,178.702 177.404 C 177.106 177.561,175.620 177.828,175.400 177.997 C 175.002 178.304,173.345 178.635,170.100 179.059 C 169.165 179.181,168.400 179.424,168.400 179.600 C 168.400 179.776,167.635 180.016,166.700 180.134 C 164.030 180.471,162.268 180.825,161.400 181.200 C 160.532 181.575,158.770 181.929,156.100 182.266 C 155.165 182.384,154.400 182.642,154.400 182.840 C 154.400 183.038,153.691 183.200,152.824 183.200 C 151.957 183.200,151.136 183.380,151.000 183.600 C 150.864 183.820,150.054 184.000,149.200 184.000 C 148.346 184.000,147.548 184.161,147.426 184.358 C 147.180 184.756,144.000 185.156,144.000 184.789 C 144.000 184.661,143.372 183.846,142.604 182.978 C 141.836 182.110,140.801 180.938,140.304 180.373 C 139.087 178.991,136.380 177.200,135.507 177.200 C 135.118 177.200,134.800 177.020,134.800 176.800 C 134.800 176.580,134.440 176.400,134.000 176.400 C 133.560 176.400,133.200 176.220,133.200 176.000 C 133.200 175.780,132.660 175.600,132.000 175.600 C 131.340 175.600,130.800 175.420,130.800 175.200 C 130.800 174.951,128.524 174.800,124.771 174.800 C 118.523 174.800,117.600 174.572,117.600 173.029 C 117.600 172.683,117.420 172.400,117.200 172.400 C 116.980 172.400,116.800 172.128,116.800 171.795 C 116.800 171.462,116.592 170.787,116.338 170.295 C 115.367 168.418,115.200 167.993,115.200 167.405 C 115.200 167.072,115.020 166.800,114.800 166.800 C 114.580 166.800,114.400 166.440,114.400 166.000 C 114.400 165.560,114.220 165.200,114.000 165.200 C 113.780 165.200,113.600 164.851,113.600 164.424 C 113.600 163.997,113.420 163.536,113.200 163.400 C 112.980 163.264,112.800 162.803,112.800 162.376 C 112.800 161.949,112.620 161.600,112.400 161.600 C 112.180 161.600,112.000 161.240,112.000 160.800 C 112.000 160.360,111.820 160.000,111.600 160.000 C 111.380 160.000,111.200 159.640,111.200 159.200 C 111.200 158.760,111.020 158.400,110.800 158.400 C 110.580 158.400,110.400 157.961,110.400 157.424 C 110.400 156.887,110.220 156.336,110.000 156.200 C 109.780 156.064,109.600 155.603,109.600 155.176 C 109.600 154.749,109.436 154.400,109.235 154.400 C 109.034 154.400,108.749 153.680,108.600 152.800 C 108.451 151.920,108.166 151.200,107.965 151.200 C 107.764 151.200,107.600 150.928,107.600 150.595 C 107.600 150.262,107.427 149.677,107.216 149.295 C 107.005 148.913,106.271 147.340,105.584 145.800 C 104.898 144.260,104.171 142.687,103.968 142.305 C 103.766 141.923,103.600 141.338,103.600 141.005 C 103.600 140.672,103.420 140.400,103.200 140.400 C 102.980 140.400,102.800 140.040,102.800 139.600 C 102.800 139.160,102.620 138.800,102.400 138.800 C 102.180 138.800,102.000 138.528,102.000 138.195 C 102.000 137.607,101.833 137.182,100.862 135.305 C 100.608 134.813,100.400 134.138,100.400 133.805 C 100.400 133.472,100.220 133.200,100.000 133.200 C 99.780 133.200,99.600 132.840,99.600 132.400 C 99.600 131.960,99.420 131.600,99.200 131.600 C 98.980 131.600,98.800 131.251,98.800 130.824 C 98.800 130.397,98.620 129.936,98.400 129.800 C 98.180 129.664,98.000 129.203,98.000 128.776 C 98.000 128.349,97.820 128.000,97.600 128.000 C 97.380 128.000,97.200 127.640,97.200 127.200 C 97.200 126.760,97.020 126.400,96.800 126.400 C 96.580 126.400,96.400 126.040,96.400 125.600 C 96.400 125.160,96.220 124.800,96.000 124.800 C 95.780 124.800,95.600 124.361,95.600 123.824 C 95.600 123.287,95.420 122.736,95.200 122.600 C 94.980 122.464,94.800 122.003,94.800 121.576 C 94.800 121.149,94.620 120.800,94.400 120.800 C 94.180 120.800,94.000 120.440,94.000 120.000 C 94.000 119.560,93.820 119.200,93.600 119.200 C 93.380 119.200,93.200 118.840,93.200 118.400 C 93.200 117.960,93.020 117.600,92.800 117.600 C 92.580 117.600,92.400 117.161,92.400 116.624 C 92.400 116.087,92.220 115.536,92.000 115.400 C 91.780 115.264,91.600 114.866,91.600 114.516 C 91.600 113.965,90.301 110.866,89.165 108.705 C 88.964 108.323,88.800 107.738,88.800 107.405 C 88.800 107.072,88.620 106.800,88.400 106.800 C 88.180 106.800,88.000 106.440,88.000 106.000 C 88.000 105.560,87.820 105.200,87.600 105.200 C 87.380 105.200,87.200 104.928,87.200 104.595 C 87.200 104.262,87.020 103.632,86.800 103.195 C 86.580 102.758,86.220 102.042,86.000 101.605 C 85.780 101.168,85.600 100.538,85.600 100.205 C 85.600 99.872,85.420 99.600,85.200 99.600 C 84.980 99.600,84.800 99.240,84.800 98.800 C 84.800 98.360,84.620 98.000,84.400 98.000 C 84.180 98.000,84.000 97.651,84.000 97.224 C 84.000 96.797,83.820 96.336,83.600 96.200 C 83.380 96.064,83.200 95.603,83.200 95.176 C 83.200 94.749,83.020 94.400,82.800 94.400 C 82.580 94.400,82.400 94.040,82.400 93.600 C 82.400 93.160,82.220 92.800,82.000 92.800 C 81.780 92.800,81.600 92.440,81.600 92.000 C 81.600 91.560,81.420 91.200,81.200 91.200 C 80.980 91.200,80.800 90.761,80.800 90.224 C 80.800 89.687,80.620 89.136,80.400 89.000 C 79.755 88.601,79.911 86.400,80.585 86.400 C 81.327 86.400,88.800 78.957,88.800 78.218 C 88.800 77.915,88.942 77.607,89.115 77.533 C 89.615 77.322,91.600 73.723,91.600 73.029 C 91.600 72.683,91.780 72.400,92.000 72.400 C 92.220 72.400,92.400 71.860,92.400 71.200 C 92.400 70.540,92.580 70.000,92.800 70.000 C 93.020 70.000,93.200 69.460,93.200 68.800 C 93.200 68.140,93.380 67.600,93.600 67.600 C 93.820 67.600,94.000 66.891,94.000 66.024 C 94.000 65.157,94.180 64.336,94.400 64.200 C 94.620 64.064,94.814 63.468,94.832 62.876 C 94.849 62.284,94.954 62.025,95.065 62.300 C 95.176 62.575,95.433 62.800,95.637 62.800 M55.200 92.000 C 55.200 92.248,57.325 92.400,60.776 92.400 C 64.063 92.400,66.454 92.236,66.600 92.000 C 67.232 90.977,69.612 91.561,69.860 92.800 C 69.992 93.460,70.258 94.000,70.450 94.000 C 70.642 94.000,70.800 94.360,70.800 94.800 C 70.800 95.240,70.980 95.600,71.200 95.600 C 71.420 95.600,71.600 95.960,71.600 96.400 C 71.600 96.840,71.780 97.200,72.000 97.200 C 72.220 97.200,72.400 97.549,72.400 97.976 C 72.400 98.403,72.580 98.864,72.800 99.000 C 73.020 99.136,73.200 99.687,73.200 100.224 C 73.200 100.761,73.380 101.200,73.600 101.200 C 73.820 101.200,74.000 101.560,74.000 102.000 C 74.000 102.440,74.180 102.800,74.400 102.800 C 74.620 102.800,74.800 103.160,74.800 103.600 C 74.800 104.040,74.980 104.400,75.200 104.400 C 75.420 104.400,75.600 104.850,75.600 105.400 C 75.600 105.950,75.780 106.400,76.000 106.400 C 76.220 106.400,76.400 106.649,76.400 106.954 C 76.400 107.259,76.669 108.024,76.998 108.654 C 77.326 109.284,77.596 110.115,77.598 110.500 C 77.599 110.885,77.780 111.200,78.000 111.200 C 78.220 111.200,78.400 111.479,78.400 111.819 C 78.400 112.160,78.760 113.184,79.200 114.094 C 79.640 115.005,80.000 115.986,80.000 116.275 C 80.000 116.564,80.180 116.800,80.400 116.800 C 80.620 116.800,80.800 117.160,80.800 117.600 C 80.800 118.040,80.980 118.400,81.200 118.400 C 81.420 118.400,81.600 118.735,81.600 119.145 C 81.600 119.554,82.320 121.289,83.200 123.000 C 84.080 124.711,84.800 126.446,84.800 126.855 C 84.800 127.265,84.980 127.600,85.200 127.600 C 85.420 127.600,85.600 127.960,85.600 128.400 C 85.600 128.840,85.780 129.200,86.000 129.200 C 86.220 129.200,86.400 129.560,86.400 130.000 C 86.400 130.440,86.580 130.800,86.800 130.800 C 87.020 130.800,87.200 131.239,87.200 131.776 C 87.200 132.313,87.380 132.864,87.600 133.000 C 87.820 133.136,88.000 133.597,88.000 134.024 C 88.000 134.451,88.180 134.800,88.400 134.800 C 88.620 134.800,88.800 135.160,88.800 135.600 C 88.800 136.040,88.980 136.400,89.200 136.400 C 89.420 136.400,89.600 136.760,89.600 137.200 C 89.600 137.640,89.780 138.000,90.000 138.000 C 90.220 138.000,90.400 138.450,90.400 139.000 C 90.400 139.550,90.580 140.000,90.800 140.000 C 91.020 140.000,91.200 140.360,91.200 140.800 C 91.200 141.240,91.380 141.600,91.600 141.600 C 91.820 141.600,92.000 141.960,92.000 142.400 C 92.000 142.840,92.180 143.200,92.400 143.200 C 92.620 143.200,92.800 143.560,92.800 144.000 C 92.800 144.440,92.980 144.800,93.200 144.800 C 93.420 144.800,93.601 145.295,93.602 145.900 C 93.603 146.505,94.053 147.886,94.602 148.968 C 95.151 150.050,95.600 151.175,95.600 151.468 C 95.600 151.761,95.780 152.000,96.000 152.000 C 96.220 152.000,96.400 152.272,96.400 152.605 C 96.400 152.938,96.566 153.523,96.768 153.905 C 97.915 156.070,99.600 160.037,99.600 160.575 C 99.600 160.919,99.780 161.200,100.000 161.200 C 100.220 161.200,100.400 161.560,100.400 162.000 C 100.400 162.440,100.580 162.800,100.800 162.800 C 101.020 162.800,101.200 163.160,101.200 163.600 C 101.200 164.040,101.380 164.400,101.600 164.400 C 101.820 164.400,102.000 164.839,102.000 165.376 C 102.000 165.913,102.180 166.464,102.400 166.600 C 102.620 166.736,102.800 167.197,102.800 167.624 C 102.800 168.051,102.980 168.400,103.200 168.400 C 103.420 168.400,103.600 168.760,103.600 169.200 C 103.600 169.640,103.780 170.000,104.000 170.000 C 104.220 170.000,104.400 170.360,104.400 170.800 C 104.400 171.240,104.580 171.600,104.800 171.600 C 105.020 171.600,105.200 172.050,105.200 172.600 C 105.200 173.150,105.380 173.600,105.600 173.600 C 105.820 173.600,106.000 173.960,106.000 174.400 C 106.000 174.840,106.180 175.200,106.400 175.200 C 106.620 175.200,106.800 175.560,106.800 176.000 C 106.800 176.440,106.980 176.800,107.200 176.800 C 107.420 176.800,107.600 177.160,107.600 177.600 C 107.600 178.040,107.780 178.400,108.000 178.400 C 108.739 178.400,108.424 180.606,107.600 181.200 C 107.160 181.517,106.800 182.007,106.800 182.288 C 106.800 182.570,106.620 182.800,106.400 182.800 C 106.180 182.800,106.000 183.030,106.000 183.312 C 106.000 183.593,105.640 184.083,105.200 184.400 C 104.760 184.717,104.400 185.297,104.400 185.688 C 104.400 186.080,104.220 186.400,104.000 186.400 C 103.780 186.400,103.600 186.760,103.600 187.200 C 103.600 187.640,103.420 188.000,103.200 188.000 C 102.980 188.000,102.800 188.540,102.800 189.200 C 102.800 189.860,102.620 190.400,102.400 190.400 C 102.180 190.400,102.000 191.199,102.000 192.176 C 102.000 193.153,101.820 194.064,101.600 194.200 C 101.078 194.522,101.078 200.678,101.600 201.000 C 101.820 201.136,102.000 201.957,102.000 202.824 C 102.000 203.691,102.180 204.400,102.400 204.400 C 102.620 204.400,102.800 204.839,102.800 205.376 C 102.800 205.913,102.980 206.464,103.200 206.600 C 103.420 206.736,103.600 207.197,103.600 207.624 C 103.600 208.051,103.780 208.400,104.000 208.400 C 104.220 208.400,104.400 208.670,104.400 209.000 C 104.400 209.330,104.580 209.600,104.800 209.600 C 105.020 209.600,105.200 209.852,105.200 210.159 C 105.200 210.467,106.100 211.638,107.200 212.761 C 109.070 214.671,109.726 216.000,108.800 216.000 C 108.580 216.000,108.400 216.270,108.400 216.600 C 108.400 216.930,108.220 217.200,108.000 217.200 C 107.780 217.200,107.600 217.470,107.600 217.800 C 107.600 218.130,107.420 218.400,107.200 218.400 C 106.980 218.400,106.800 218.760,106.800 219.200 C 106.800 219.640,106.620 220.000,106.400 220.000 C 106.180 220.000,106.000 220.360,106.000 220.800 C 106.000 221.240,105.820 221.600,105.600 221.600 C 105.380 221.600,105.200 221.960,105.200 222.400 C 105.200 222.840,105.020 223.200,104.800 223.200 C 104.580 223.200,104.400 223.436,104.400 223.725 C 104.400 224.013,104.040 224.636,103.600 225.108 C 103.160 225.580,102.800 226.244,102.800 226.583 C 102.800 226.922,102.654 227.200,102.475 227.200 C 102.296 227.200,101.902 227.830,101.600 228.600 C 101.298 229.370,100.904 230.000,100.725 230.000 C 100.546 230.000,100.400 230.345,100.400 230.767 C 100.400 231.188,100.265 231.593,100.100 231.667 C 99.724 231.834,98.425 233.964,98.129 234.900 C 98.007 235.285,97.748 235.600,97.553 235.600 C 97.359 235.600,97.200 235.960,97.200 236.400 C 97.200 236.840,97.020 237.200,96.800 237.200 C 96.580 237.200,96.400 237.560,96.400 238.000 C 96.400 238.440,96.253 238.800,96.074 238.800 C 95.894 238.800,95.219 239.925,94.574 241.300 C 93.928 242.675,93.265 243.860,93.100 243.933 C 92.935 244.007,92.800 244.412,92.800 244.833 C 92.800 245.255,92.641 245.600,92.447 245.600 C 92.252 245.600,91.993 245.915,91.871 246.300 C 91.575 247.236,90.276 249.366,89.900 249.533 C 89.735 249.607,89.600 250.012,89.600 250.433 C 89.600 250.855,89.420 251.200,89.200 251.200 C 88.980 251.200,88.800 251.560,88.800 252.000 C 88.800 252.440,88.641 252.800,88.447 252.800 C 88.252 252.800,87.993 253.115,87.871 253.500 C 87.575 254.436,86.276 256.566,85.900 256.733 C 85.735 256.807,85.600 257.212,85.600 257.633 C 85.600 258.055,85.420 258.400,85.200 258.400 C 84.980 258.400,84.800 258.760,84.800 259.200 C 84.800 259.640,84.620 260.000,84.400 260.000 C 84.180 260.000,84.000 260.270,84.000 260.600 C 84.000 260.930,83.865 261.201,83.700 261.203 C 83.535 261.205,83.202 261.610,82.960 262.103 C 81.778 264.511,80.570 266.613,80.300 266.733 C 80.135 266.807,80.000 267.197,80.000 267.600 C 80.000 268.003,79.865 268.393,79.700 268.467 C 79.226 268.677,77.200 272.638,77.200 273.354 C 77.200 273.709,77.020 274.000,76.800 274.000 C 76.580 274.000,76.400 274.278,76.400 274.617 C 76.400 274.956,76.040 275.620,75.600 276.092 C 75.160 276.564,74.800 277.187,74.800 277.475 C 74.800 277.764,74.620 278.000,74.400 278.000 C 74.180 278.000,74.000 278.270,74.000 278.600 C 74.000 278.930,73.820 279.200,73.600 279.200 C 73.380 279.200,73.200 279.560,73.200 280.000 C 73.200 280.440,73.020 280.800,72.800 280.800 C 72.580 280.800,72.400 281.160,72.400 281.600 C 72.400 282.040,72.220 282.400,72.000 282.400 C 71.780 282.400,71.600 282.678,71.600 283.017 C 71.600 283.356,71.240 284.020,70.800 284.492 C 70.360 284.964,70.000 285.587,70.000 285.875 C 70.000 286.164,69.820 286.400,69.600 286.400 C 69.380 286.400,69.200 286.760,69.200 287.200 C 69.200 287.640,69.020 288.000,68.800 288.000 C 68.580 288.000,68.400 288.360,68.400 288.800 C 68.400 289.240,68.220 289.600,68.000 289.600 C 67.780 289.600,67.600 289.960,67.600 290.400 C 67.600 290.840,67.442 291.200,67.249 291.200 C 67.055 291.200,66.673 291.740,66.400 292.400 C 66.127 293.060,65.790 293.601,65.651 293.601 C 65.513 293.602,64.950 294.592,64.400 295.800 C 63.850 297.008,63.265 297.998,63.100 297.999 C 62.935 297.999,62.800 298.172,62.800 298.382 C 62.800 298.593,62.251 299.696,61.580 300.835 C 60.908 301.973,60.256 303.421,60.130 304.052 C 60.003 304.684,59.742 305.200,59.550 305.200 C 59.358 305.200,59.200 305.520,59.200 305.912 C 59.200 306.303,58.840 306.883,58.400 307.200 C 57.960 307.517,57.600 308.097,57.600 308.488 C 57.600 308.880,57.454 309.200,57.275 309.200 C 57.096 309.200,56.702 309.830,56.400 310.600 C 56.098 311.370,55.704 312.000,55.525 312.000 C 55.346 312.000,55.200 312.360,55.200 312.800 C 55.200 313.240,55.020 313.600,54.800 313.600 C 54.580 313.600,54.400 313.870,54.400 314.200 C 54.400 314.530,54.254 314.800,54.075 314.800 C 53.896 314.800,53.502 315.430,53.200 316.200 C 52.898 316.970,52.504 317.600,52.325 317.600 C 52.146 317.600,52.000 317.960,52.000 318.400 C 52.000 318.840,51.820 319.200,51.600 319.200 C 51.380 319.200,51.200 319.483,51.200 319.829 C 51.200 320.830,50.040 321.800,49.494 321.254 C 49.244 321.004,48.457 320.800,47.744 320.800 C 47.031 320.800,46.336 320.620,46.200 320.400 C 46.053 320.162,43.529 320.000,39.976 320.000 L 34.000 320.000 34.000 318.400 C 34.000 317.520,34.180 316.800,34.400 316.800 C 34.642 316.800,34.800 315.075,34.800 312.424 C 34.800 309.937,34.973 307.940,35.200 307.800 C 35.427 307.660,35.600 305.670,35.600 303.200 C 35.600 300.730,35.773 298.740,36.000 298.600 C 36.225 298.461,36.400 296.537,36.400 294.200 C 36.400 291.863,36.575 289.939,36.800 289.800 C 37.027 289.660,37.200 287.670,37.200 285.200 C 37.200 282.730,37.373 280.740,37.600 280.600 C 37.827 280.460,38.000 278.470,38.000 276.000 C 38.000 273.530,38.173 271.540,38.400 271.400 C 38.625 271.261,38.800 269.356,38.800 267.056 C 38.800 264.803,38.969 262.789,39.175 262.580 C 39.382 262.371,39.646 260.220,39.762 257.800 C 39.878 255.380,40.155 251.420,40.376 249.000 C 40.597 246.580,40.994 240.595,41.257 235.700 C 41.520 230.805,41.885 226.800,42.068 226.800 C 42.250 226.800,42.400 224.730,42.400 222.200 C 42.400 219.400,42.557 217.600,42.800 217.600 C 43.042 217.600,43.200 215.875,43.200 213.224 C 43.200 210.737,43.373 208.740,43.600 208.600 C 43.827 208.460,44.000 206.463,44.000 203.976 C 44.000 201.325,44.158 199.600,44.400 199.600 C 44.642 199.600,44.800 197.875,44.800 195.224 C 44.800 192.737,44.973 190.740,45.200 190.600 C 45.427 190.460,45.600 188.463,45.600 185.976 C 45.600 183.325,45.758 181.600,46.000 181.600 C 46.243 181.600,46.400 179.800,46.400 177.000 C 46.400 174.200,46.557 172.400,46.800 172.400 C 47.042 172.400,47.200 170.675,47.200 168.024 C 47.200 165.537,47.373 163.540,47.600 163.400 C 47.827 163.260,48.000 161.270,48.000 158.800 C 48.000 156.330,48.173 154.340,48.400 154.200 C 48.625 154.061,48.800 152.137,48.800 149.800 C 48.800 147.463,48.975 145.539,49.200 145.400 C 49.427 145.260,49.600 143.270,49.600 140.800 C 49.600 138.330,49.773 136.340,50.000 136.200 C 50.227 136.060,50.400 134.070,50.400 131.600 C 50.400 129.130,50.573 127.140,50.800 127.000 C 51.025 126.861,51.200 124.937,51.200 122.600 C 51.200 120.263,51.375 118.339,51.600 118.200 C 51.827 118.060,52.000 116.070,52.000 113.600 C 52.000 111.130,52.173 109.140,52.400 109.000 C 52.625 108.861,52.800 106.937,52.800 104.600 C 52.800 102.263,52.975 100.339,53.200 100.200 C 53.425 100.061,53.600 98.129,53.600 95.776 C 53.600 91.867,53.651 91.600,54.400 91.600 C 54.840 91.600,55.200 91.780,55.200 92.000 M59.500 148.147 C 58.895 148.667,58.400 149.387,58.400 149.747 C 58.400 150.106,58.220 150.400,58.000 150.400 C 57.755 150.400,57.600 152.333,57.600 155.400 C 57.600 158.467,57.755 160.400,58.000 160.400 C 58.220 160.400,58.400 160.687,58.400 161.037 C 58.400 161.388,58.760 161.769,59.200 161.884 C 59.640 161.999,60.000 162.252,60.000 162.447 C 60.000 162.641,61.170 162.800,62.600 162.800 C 64.067 162.800,65.200 162.626,65.200 162.400 C 65.200 162.180,65.560 162.000,66.000 162.000 C 66.533 162.000,66.800 161.733,66.800 161.200 C 66.800 160.760,66.980 160.400,67.200 160.400 C 67.420 160.400,67.600 159.961,67.600 159.424 C 67.600 158.887,67.780 158.336,68.000 158.200 C 68.584 157.839,68.501 150.969,67.900 149.899 C 66.289 147.030,61.870 146.108,59.500 148.147 M370.294 149.690 C 379.493 152.056,384.993 161.914,381.946 170.573 C 376.484 186.092,355.385 185.520,350.592 169.724 C 347.142 158.351,358.613 146.686,370.294 149.690 M237.794 152.214 C 248.464 155.450,251.386 168.557,243.138 176.193 C 235.553 183.215,223.240 179.782,220.215 169.800 C 217.001 159.196,227.195 148.999,237.794 152.214 M59.200 171.200 C 59.200 171.420,58.922 171.600,58.582 171.600 C 57.272 171.600,56.000 173.463,56.000 175.382 C 56.000 176.382,55.820 177.200,55.600 177.200 C 55.361 177.200,55.200 178.733,55.200 181.000 C 55.200 183.267,55.039 184.800,54.800 184.800 C 54.560 184.800,54.400 186.400,54.400 188.800 C 54.400 191.200,54.240 192.800,54.000 192.800 C 53.761 192.800,53.600 194.333,53.600 196.600 C 53.600 198.690,53.432 200.400,53.227 200.400 C 53.023 200.400,52.753 202.110,52.627 204.200 C 52.502 206.290,52.298 209.710,52.173 211.800 C 52.047 213.890,51.777 215.600,51.573 215.600 C 51.368 215.600,51.200 217.310,51.200 219.400 C 51.200 221.667,51.039 223.200,50.800 223.200 C 50.562 223.200,50.400 224.725,50.400 226.976 C 50.400 229.063,50.221 230.863,50.000 231.000 C 48.078 232.188,50.026 243.200,52.158 243.200 C 52.485 243.200,52.864 243.380,53.000 243.600 C 53.136 243.820,53.957 244.000,54.824 244.000 C 55.691 244.000,56.400 243.820,56.400 243.600 C 56.400 243.380,56.838 243.200,57.373 243.200 C 57.995 243.200,58.438 242.911,58.600 242.400 C 58.740 241.960,59.022 241.600,59.227 241.600 C 59.432 241.600,59.600 241.150,59.600 240.600 C 59.600 240.050,59.780 239.600,60.000 239.600 C 60.237 239.600,60.400 238.141,60.400 236.024 C 60.400 234.057,60.580 232.336,60.800 232.200 C 61.021 232.063,61.200 230.263,61.200 228.176 C 61.200 225.925,61.362 224.400,61.600 224.400 C 61.839 224.400,62.000 222.867,62.000 220.600 C 62.000 218.333,62.161 216.800,62.400 216.800 C 62.640 216.800,62.800 215.200,62.800 212.800 C 62.800 210.400,62.960 208.800,63.200 208.800 C 63.439 208.800,63.600 207.267,63.600 205.000 C 63.600 202.910,63.768 201.200,63.973 201.200 C 64.177 201.200,64.445 199.535,64.567 197.500 C 65.123 188.239,65.280 186.576,65.628 186.220 C 65.833 186.011,66.000 184.166,66.000 182.120 C 66.000 179.907,66.162 178.400,66.400 178.400 C 66.620 178.400,66.800 177.590,66.800 176.600 C 66.800 175.610,66.620 174.800,66.400 174.800 C 66.180 174.800,66.000 174.522,66.000 174.182 C 66.000 173.382,64.218 171.600,63.418 171.600 C 63.078 171.600,62.800 171.420,62.800 171.200 C 62.800 170.980,61.990 170.800,61.000 170.800 C 60.010 170.800,59.200 170.980,59.200 171.200 M340.400 171.400 C 340.400 171.730,340.580 172.000,340.800 172.000 C 341.020 172.000,341.200 172.630,341.200 173.400 C 341.200 174.170,341.380 174.800,341.600 174.800 C 341.820 174.800,342.000 175.250,342.000 175.800 C 342.000 176.350,342.180 176.800,342.400 176.800 C 342.620 176.800,342.800 177.160,342.800 177.600 C 342.800 178.040,342.960 178.400,343.157 178.400 C 343.353 178.400,343.630 178.866,343.773 179.434 C 343.916 180.003,344.430 180.896,344.916 181.418 C 345.402 181.940,346.340 183.080,347.000 183.952 C 347.660 184.824,348.650 185.775,349.200 186.066 C 349.750 186.357,350.491 186.911,350.847 187.297 C 351.203 187.684,351.788 188.000,352.147 188.000 C 352.506 188.000,352.800 188.165,352.800 188.367 C 352.800 188.569,353.700 189.142,354.800 189.639 C 357.158 190.704,357.117 190.583,355.600 192.000 C 354.940 192.617,354.400 193.242,354.400 193.389 C 354.400 193.537,354.175 193.894,353.900 194.184 C 352.991 195.142,352.000 196.406,352.000 196.608 C 352.000 196.718,351.460 197.372,350.800 198.063 C 350.140 198.754,349.600 199.474,349.600 199.663 C 349.600 199.852,349.060 200.572,348.400 201.263 C 347.740 201.954,347.200 202.680,347.200 202.878 C 347.200 203.075,346.750 203.686,346.200 204.236 C 345.650 204.786,345.200 205.381,345.200 205.557 C 345.200 205.839,344.753 206.451,343.207 208.283 C 342.983 208.549,342.800 209.032,342.800 209.356 C 342.800 209.681,342.440 210.060,342.000 210.200 C 341.560 210.340,341.200 210.712,341.200 211.027 C 341.200 211.342,341.020 211.600,340.800 211.600 C 340.580 211.600,340.400 211.782,340.400 212.004 C 340.400 212.226,339.860 212.972,339.200 213.663 C 338.540 214.354,338.000 215.074,338.000 215.263 C 338.000 215.452,337.460 216.172,336.800 216.863 C 336.140 217.554,335.600 218.274,335.600 218.463 C 335.600 218.652,335.060 219.372,334.400 220.063 C 333.740 220.754,333.200 221.480,333.200 221.678 C 333.200 221.875,332.750 222.486,332.200 223.036 C 331.650 223.586,331.200 224.200,331.200 224.400 C 331.200 224.600,330.795 225.178,330.300 225.685 C 328.954 227.062,327.200 229.488,327.200 229.973 C 327.200 230.208,327.020 230.400,326.800 230.400 C 326.580 230.400,326.400 230.582,326.400 230.804 C 326.400 231.026,325.860 231.772,325.200 232.463 C 324.540 233.154,324.000 233.874,324.000 234.063 C 324.000 234.252,323.460 234.972,322.800 235.663 C 322.140 236.354,321.600 237.074,321.600 237.263 C 321.600 237.452,321.060 238.172,320.400 238.863 C 319.740 239.554,319.200 240.296,319.200 240.512 C 319.200 240.729,318.883 241.197,318.497 241.553 C 318.110 241.909,316.985 243.280,315.998 244.600 C 315.010 245.920,314.103 247.090,313.982 247.200 C 313.861 247.310,313.325 248.030,312.792 248.800 C 312.258 249.570,311.504 250.547,311.115 250.971 C 310.727 251.394,310.298 252.091,310.162 252.518 C 310.027 252.946,309.395 253.841,308.758 254.507 C 308.121 255.173,307.600 255.874,307.600 256.063 C 307.600 256.252,307.060 256.972,306.400 257.663 C 305.740 258.354,305.200 259.064,305.200 259.241 C 305.200 259.419,304.795 259.990,304.300 260.512 C 303.208 261.663,302.494 262.562,301.213 264.400 C 300.677 265.170,299.914 266.091,299.519 266.447 C 299.124 266.803,298.800 267.271,298.800 267.488 C 298.800 267.704,298.293 268.412,297.674 269.060 C 297.054 269.708,296.425 270.557,296.276 270.947 C 296.044 271.551,295.718 271.369,294.089 269.728 C 292.131 267.755,289.037 265.200,288.607 265.200 C 288.475 265.200,287.980 264.840,287.508 264.400 C 287.036 263.960,286.413 263.600,286.125 263.600 C 285.836 263.600,285.600 263.420,285.600 263.200 C 285.600 262.980,285.372 262.800,285.094 262.800 C 284.816 262.800,283.452 262.246,282.062 261.568 C 280.661 260.884,278.572 260.236,277.368 260.112 C 276.176 259.989,275.200 259.733,275.200 259.544 C 275.200 259.355,274.663 259.200,274.008 259.200 C 273.031 259.200,272.772 259.001,272.577 258.100 C 272.337 256.998,271.816 255.608,271.153 254.305 C 270.959 253.923,270.800 253.248,270.800 252.805 C 270.800 252.362,270.620 252.000,270.400 252.000 C 270.180 252.000,270.000 251.460,270.000 250.800 C 270.000 250.140,269.820 249.600,269.600 249.600 C 269.380 249.600,269.200 249.161,269.200 248.624 C 269.200 248.087,269.020 247.536,268.800 247.400 C 268.580 247.264,268.400 246.724,268.400 246.200 C 268.400 245.676,268.220 245.136,268.000 245.000 C 267.780 244.864,267.600 244.313,267.600 243.776 C 267.600 243.239,267.420 242.800,267.200 242.800 C 266.980 242.800,266.800 242.438,266.800 241.995 C 266.800 241.552,266.620 240.832,266.400 240.395 C 266.180 239.958,265.820 239.242,265.600 238.805 C 265.380 238.368,265.200 237.648,265.200 237.205 C 265.200 236.762,265.020 236.400,264.800 236.400 C 264.580 236.400,264.400 235.860,264.400 235.200 C 264.400 234.540,264.220 234.000,264.000 234.000 C 263.780 234.000,263.600 233.460,263.600 232.800 C 263.600 232.140,263.420 231.600,263.200 231.600 C 262.980 231.600,262.800 231.161,262.800 230.624 C 262.800 230.087,262.620 229.536,262.400 229.400 C 262.180 229.264,262.000 228.713,262.000 228.176 C 262.000 227.639,261.820 227.200,261.600 227.200 C 261.380 227.200,261.200 226.660,261.200 226.000 C 261.200 225.340,261.020 224.800,260.800 224.800 C 260.580 224.800,260.400 224.451,260.400 224.024 C 260.400 223.597,260.220 223.136,260.000 223.000 C 259.780 222.864,259.600 222.313,259.600 221.776 C 259.600 221.239,259.443 220.800,259.252 220.800 C 259.060 220.800,258.782 219.884,258.633 218.765 C 258.485 217.646,258.206 216.431,258.014 216.065 C 257.538 215.161,256.143 211.379,255.517 209.300 C 255.235 208.365,254.869 207.600,254.703 207.600 C 254.536 207.600,254.400 207.060,254.400 206.400 C 254.400 205.740,254.220 205.200,254.000 205.200 C 253.780 205.200,253.600 204.660,253.600 204.000 C 253.600 203.340,253.420 202.800,253.200 202.800 C 252.980 202.800,252.800 202.260,252.800 201.600 C 252.800 200.940,252.620 200.400,252.400 200.400 C 252.180 200.400,252.000 199.961,252.000 199.424 C 252.000 198.887,251.820 198.336,251.600 198.200 C 251.380 198.064,251.200 197.513,251.200 196.976 C 251.200 196.439,251.020 196.000,250.800 196.000 C 250.580 196.000,250.400 195.561,250.400 195.024 C 250.400 194.487,250.220 193.936,250.000 193.800 C 249.780 193.664,249.600 193.203,249.600 192.776 C 249.600 192.349,249.420 192.000,249.200 192.000 C 248.980 192.000,248.800 191.460,248.800 190.800 C 248.800 190.140,248.620 189.600,248.400 189.600 C 248.180 189.600,248.000 189.060,248.000 188.400 C 248.000 187.740,247.820 187.200,247.600 187.200 C 247.380 187.200,247.200 186.840,247.200 186.400 C 247.200 185.951,247.467 185.600,247.807 185.600 C 248.547 185.600,253.600 180.624,253.600 179.896 C 253.600 179.610,253.960 179.117,254.400 178.800 C 254.840 178.483,255.200 177.903,255.200 177.512 C 255.200 177.120,255.380 176.800,255.600 176.800 C 255.820 176.800,256.000 176.451,256.000 176.024 C 256.000 175.597,256.180 175.136,256.400 175.000 C 256.620 174.864,256.806 174.358,256.813 173.876 C 256.847 171.495,255.759 171.600,280.320 171.600 C 294.844 171.600,302.840 171.459,303.000 171.200 C 303.450 170.472,340.400 170.670,340.400 171.400 M215.081 181.370 C 215.565 182.118,216.645 183.239,217.481 183.860 C 218.316 184.482,219.291 185.308,219.647 185.696 C 220.003 186.083,220.588 186.400,220.947 186.400 C 221.306 186.400,221.600 186.580,221.600 186.800 C 221.600 187.020,221.960 187.200,222.400 187.200 C 222.840 187.200,223.200 187.380,223.200 187.600 C 223.200 187.820,223.560 188.000,224.000 188.000 C 224.440 188.000,224.800 188.180,224.800 188.400 C 224.800 188.620,225.340 188.800,226.000 188.800 C 226.660 188.800,227.200 188.963,227.200 189.163 C 227.200 189.838,235.265 190.430,236.500 189.846 C 237.072 189.575,237.200 189.705,237.200 190.557 C 237.200 191.131,237.380 191.600,237.600 191.600 C 237.820 191.600,238.000 192.140,238.000 192.800 C 238.000 193.460,238.180 194.000,238.400 194.000 C 238.620 194.000,238.800 194.540,238.800 195.200 C 238.800 195.860,238.980 196.400,239.200 196.400 C 239.420 196.400,239.600 196.940,239.600 197.600 C 239.600 198.260,239.780 198.800,240.000 198.800 C 240.220 198.800,240.400 199.340,240.400 200.000 C 240.400 200.660,240.580 201.200,240.800 201.200 C 241.020 201.200,241.200 201.740,241.200 202.400 C 241.200 203.060,241.380 203.600,241.600 203.600 C 241.820 203.600,242.000 204.039,242.000 204.576 C 242.000 205.113,242.180 205.664,242.400 205.800 C 242.620 205.936,242.800 206.487,242.800 207.024 C 242.800 207.561,242.957 208.000,243.148 208.000 C 243.340 208.000,243.615 208.893,243.760 209.984 C 243.905 211.075,244.198 212.075,244.412 212.207 C 244.625 212.339,244.800 212.887,244.800 213.424 C 244.800 213.961,244.980 214.400,245.200 214.400 C 245.420 214.400,245.600 214.839,245.600 215.376 C 245.600 215.913,245.780 216.464,246.000 216.600 C 246.220 216.736,246.400 217.276,246.400 217.800 C 246.400 218.324,246.580 218.864,246.800 219.000 C 247.020 219.136,247.200 219.676,247.200 220.200 C 247.200 220.724,247.380 221.264,247.600 221.400 C 247.820 221.536,248.000 222.076,248.000 222.600 C 248.000 223.124,248.180 223.664,248.400 223.800 C 248.620 223.936,248.800 224.487,248.800 225.024 C 248.800 225.561,248.980 226.000,249.200 226.000 C 249.420 226.000,249.600 226.540,249.600 227.200 C 249.600 227.860,249.780 228.400,250.000 228.400 C 250.220 228.400,250.400 228.839,250.400 229.376 C 250.400 229.913,250.580 230.464,250.800 230.600 C 251.020 230.736,251.200 231.199,251.200 231.629 C 251.200 232.059,251.380 232.768,251.600 233.205 C 251.820 233.642,252.180 234.358,252.400 234.795 C 252.620 235.232,252.800 235.952,252.800 236.395 C 252.800 236.838,252.980 237.200,253.200 237.200 C 253.420 237.200,253.600 237.740,253.600 238.400 C 253.600 239.060,253.780 239.600,254.000 239.600 C 254.220 239.600,254.400 240.050,254.400 240.600 C 254.400 241.150,254.580 241.600,254.800 241.600 C 255.020 241.600,255.200 242.140,255.200 242.800 C 255.200 243.460,255.380 244.000,255.600 244.000 C 255.820 244.000,256.000 244.540,256.000 245.200 C 256.000 245.860,256.180 246.400,256.400 246.400 C 256.620 246.400,256.800 246.940,256.800 247.600 C 256.800 248.260,256.980 248.800,257.200 248.800 C 257.420 248.800,257.600 249.340,257.600 250.000 C 257.600 250.660,257.780 251.200,258.000 251.200 C 258.220 251.200,258.400 251.639,258.400 252.176 C 258.400 252.713,258.580 253.264,258.800 253.400 C 259.020 253.536,259.200 254.072,259.200 254.590 C 259.200 255.109,259.359 255.593,259.553 255.667 C 260.588 256.058,260.484 259.200,259.435 259.200 C 258.866 259.200,258.400 259.354,258.400 259.543 C 258.400 259.732,257.283 260.003,255.918 260.146 C 254.552 260.288,253.256 260.584,253.038 260.802 C 252.819 261.021,252.316 261.200,251.920 261.200 C 251.524 261.200,251.200 261.380,251.200 261.600 C 251.200 261.820,250.928 262.000,250.595 262.000 C 250.039 262.000,248.476 262.723,248.000 263.201 C 247.890 263.311,247.260 263.671,246.600 264.001 C 245.940 264.330,245.064 264.903,244.653 265.274 C 243.918 265.936,242.400 265.552,242.400 264.704 C 242.400 264.537,242.207 264.400,241.972 264.400 C 241.737 264.400,240.759 263.860,239.800 263.200 C 238.841 262.540,237.944 262.000,237.807 262.000 C 237.670 262.000,236.895 261.550,236.086 261.000 C 235.277 260.450,234.336 260.000,233.995 260.000 C 233.655 260.000,233.117 259.640,232.800 259.200 C 232.483 258.760,231.903 258.400,231.512 258.400 C 231.120 258.400,230.800 258.220,230.800 258.000 C 230.800 257.780,230.480 257.600,230.088 257.600 C 229.697 257.600,229.117 257.240,228.800 256.800 C 228.483 256.360,227.986 256.000,227.695 256.000 C 227.404 256.000,226.780 255.640,226.308 255.200 C 225.836 254.760,224.944 254.176,224.325 253.903 C 223.706 253.629,223.200 253.269,223.200 253.102 C 223.200 252.936,222.930 252.800,222.600 252.800 C 222.270 252.800,222.000 252.620,222.000 252.400 C 222.000 252.180,221.730 252.000,221.400 252.000 C 221.070 252.000,220.800 251.820,220.800 251.600 C 220.800 251.380,220.522 251.200,220.183 251.200 C 219.844 251.200,219.180 250.840,218.708 250.400 C 218.236 249.960,217.613 249.600,217.325 249.600 C 217.036 249.600,216.800 249.420,216.800 249.200 C 216.800 248.980,216.522 248.800,216.183 248.800 C 215.844 248.800,215.180 248.440,214.708 248.000 C 214.236 247.560,213.613 247.200,213.325 247.200 C 213.036 247.200,212.800 247.020,212.800 246.800 C 212.800 246.580,212.522 246.400,212.183 246.400 C 211.844 246.400,211.180 246.040,210.708 245.600 C 210.236 245.160,209.613 244.800,209.325 244.800 C 209.036 244.800,208.798 244.665,208.796 244.500 C 208.794 244.335,207.984 243.845,206.996 243.410 C 206.008 242.976,205.200 242.481,205.200 242.310 C 205.200 242.140,204.930 242.000,204.600 242.000 C 204.270 242.000,204.000 241.820,204.000 241.600 C 204.000 241.380,203.730 241.200,203.400 241.200 C 203.070 241.200,202.800 241.020,202.800 240.800 C 202.800 240.580,202.522 240.400,202.183 240.400 C 201.844 240.400,201.180 240.040,200.708 239.600 C 200.236 239.160,199.613 238.800,199.325 238.800 C 199.036 238.800,198.800 238.620,198.800 238.400 C 198.800 238.180,198.480 238.000,198.088 238.000 C 197.697 238.000,197.117 237.640,196.800 237.200 C 196.483 236.760,195.903 236.400,195.512 236.400 C 195.120 236.400,194.800 236.220,194.800 236.000 C 194.800 235.780,194.480 235.600,194.088 235.600 C 193.697 235.600,193.117 235.240,192.800 234.800 C 192.483 234.360,192.071 234.000,191.884 234.000 C 191.697 234.000,190.759 233.460,189.800 232.800 C 188.841 232.140,187.863 231.600,187.628 231.600 C 187.393 231.600,187.200 231.441,187.200 231.247 C 187.200 231.052,186.885 230.793,186.500 230.671 C 185.730 230.427,183.517 229.142,183.200 228.756 C 182.851 228.329,180.461 227.200,179.908 227.200 C 179.616 227.200,179.117 226.840,178.800 226.400 C 178.483 225.960,177.903 225.600,177.512 225.600 C 177.120 225.600,176.800 225.420,176.800 225.200 C 176.800 224.980,176.483 224.800,176.096 224.800 C 175.709 224.800,175.168 224.440,174.893 224.000 C 174.618 223.560,174.125 223.200,173.797 223.200 C 173.468 223.200,173.200 223.020,173.200 222.800 C 173.200 222.580,172.964 222.400,172.675 222.400 C 172.387 222.400,171.764 222.040,171.292 221.600 C 170.820 221.160,170.238 220.800,170.000 220.800 C 169.762 220.800,169.180 220.440,168.708 220.000 C 168.236 219.560,167.613 219.200,167.325 219.200 C 167.036 219.200,166.800 219.020,166.800 218.800 C 166.800 218.580,166.522 218.400,166.183 218.400 C 165.844 218.400,165.180 218.040,164.708 217.600 C 164.236 217.160,163.613 216.800,163.325 216.800 C 163.036 216.800,162.800 216.620,162.800 216.400 C 162.800 216.180,162.480 216.000,162.088 216.000 C 161.697 216.000,161.117 215.640,160.800 215.200 C 160.483 214.760,159.903 214.400,159.512 214.400 C 159.120 214.400,158.800 214.220,158.800 214.000 C 158.800 213.780,158.614 213.600,158.387 213.600 C 158.161 213.600,156.767 212.790,155.292 211.800 C 153.816 210.810,152.374 210.000,152.088 210.000 C 151.801 210.000,151.180 209.640,150.708 209.200 C 150.236 208.760,149.613 208.400,149.325 208.400 C 149.036 208.400,148.800 208.220,148.800 208.000 C 148.800 207.780,148.517 207.600,148.171 207.600 C 146.724 207.600,145.596 204.144,146.800 203.400 C 147.021 203.263,147.200 201.463,147.200 199.376 L 147.200 195.600 148.400 195.600 C 149.060 195.600,149.600 195.420,149.600 195.200 C 149.600 194.980,150.320 194.800,151.200 194.800 C 152.080 194.800,152.800 194.620,152.800 194.400 C 152.800 194.180,153.509 194.000,154.376 194.000 C 155.243 194.000,156.064 193.820,156.200 193.600 C 156.336 193.380,157.157 193.200,158.024 193.200 C 158.891 193.200,159.600 193.020,159.600 192.800 C 159.600 192.580,160.320 192.400,161.200 192.400 C 162.080 192.400,162.800 192.255,162.800 192.077 C 162.800 191.899,164.375 191.537,166.300 191.272 C 172.082 190.477,172.800 190.332,172.800 189.958 C 172.800 189.761,173.509 189.600,174.376 189.600 C 175.243 189.600,176.064 189.420,176.200 189.200 C 176.336 188.980,177.146 188.800,178.000 188.800 C 178.854 188.800,179.664 188.620,179.800 188.400 C 179.936 188.180,180.757 188.000,181.624 188.000 C 182.491 188.000,183.200 187.820,183.200 187.600 C 183.200 187.380,183.920 187.200,184.800 187.200 C 185.680 187.200,186.400 187.020,186.400 186.800 C 186.400 186.580,187.210 186.400,188.200 186.400 C 189.190 186.400,190.000 186.220,190.000 186.000 C 190.000 185.780,190.720 185.600,191.600 185.600 C 192.480 185.600,193.200 185.420,193.200 185.200 C 193.200 184.980,193.909 184.800,194.776 184.800 C 195.643 184.800,196.464 184.620,196.600 184.400 C 196.736 184.180,197.546 184.000,198.400 184.000 C 199.254 184.000,200.064 183.820,200.200 183.600 C 200.336 183.380,201.157 183.200,202.024 183.200 C 202.891 183.200,203.600 183.020,203.600 182.800 C 203.600 182.580,204.320 182.400,205.200 182.400 C 206.080 182.400,206.800 182.220,206.800 182.000 C 206.800 181.780,207.610 181.600,208.600 181.600 C 209.590 181.600,210.400 181.420,210.400 181.200 C 210.400 180.980,211.120 180.800,212.000 180.800 C 212.880 180.800,213.600 180.620,213.600 180.400 C 213.600 179.625,214.209 180.025,215.081 181.370 M128.723 185.278 C 134.674 187.368,138.435 193.782,137.179 199.700 C 134.577 211.962,118.058 214.068,112.858 202.800 C 108.078 192.442,117.981 181.505,128.723 185.278 M139.600 215.600 C 139.600 215.820,139.960 216.000,140.400 216.000 C 140.840 216.000,141.200 216.180,141.200 216.400 C 141.200 216.620,141.494 216.800,141.853 216.800 C 142.212 216.800,142.797 217.116,143.153 217.503 C 143.509 217.889,144.340 218.474,145.000 218.803 C 145.660 219.131,146.549 219.715,146.975 220.100 C 147.402 220.485,147.987 220.800,148.275 220.800 C 148.564 220.800,148.800 220.980,148.800 221.200 C 148.800 221.420,149.160 221.600,149.600 221.600 C 150.040 221.600,150.400 221.750,150.400 221.932 C 150.400 222.115,150.895 222.520,151.500 222.832 C 152.105 223.144,152.690 223.489,152.800 223.599 C 153.277 224.078,155.571 225.200,156.073 225.200 C 156.376 225.200,156.883 225.560,157.200 226.000 C 157.517 226.440,158.097 226.800,158.488 226.800 C 158.880 226.800,159.200 226.980,159.200 227.200 C 159.200 227.420,159.470 227.600,159.800 227.600 C 160.130 227.600,160.400 227.780,160.400 228.000 C 160.400 228.220,160.670 228.400,161.000 228.400 C 161.330 228.400,161.600 228.580,161.600 228.800 C 161.600 229.020,161.870 229.200,162.200 229.200 C 162.530 229.200,162.800 229.380,162.800 229.600 C 162.800 229.820,163.078 230.000,163.417 230.000 C 163.756 230.000,164.420 230.360,164.892 230.800 C 165.364 231.240,165.987 231.600,166.275 231.600 C 166.564 231.600,166.800 231.780,166.800 232.000 C 166.800 232.220,167.036 232.400,167.325 232.400 C 167.613 232.400,168.236 232.760,168.708 233.200 C 169.180 233.640,169.762 234.000,170.000 234.000 C 170.238 234.000,170.820 234.360,171.292 234.800 C 171.764 235.240,172.387 235.600,172.675 235.600 C 172.964 235.600,173.200 235.780,173.200 236.000 C 173.200 236.220,173.478 236.400,173.817 236.400 C 174.156 236.400,174.820 236.760,175.292 237.200 C 175.764 237.640,176.387 238.000,176.675 238.000 C 176.964 238.000,177.200 238.180,177.200 238.400 C 177.200 238.620,177.393 238.800,177.628 238.800 C 177.863 238.800,178.808 239.315,179.728 239.945 C 180.648 240.575,181.805 241.217,182.300 241.372 C 182.795 241.527,183.200 241.822,183.200 242.027 C 183.200 242.232,183.560 242.400,184.000 242.400 C 184.440 242.400,184.800 242.580,184.800 242.800 C 184.800 243.020,185.036 243.200,185.325 243.200 C 185.613 243.200,186.236 243.560,186.708 244.000 C 187.180 244.440,187.762 244.800,188.000 244.800 C 188.238 244.800,188.820 245.160,189.292 245.600 C 189.764 246.040,190.387 246.400,190.675 246.400 C 190.964 246.400,191.200 246.580,191.200 246.800 C 191.200 247.020,191.494 247.200,191.853 247.200 C 192.212 247.200,192.797 247.516,193.153 247.903 C 193.509 248.289,194.340 248.874,195.000 249.203 C 195.660 249.531,196.549 250.115,196.975 250.500 C 197.402 250.885,197.987 251.200,198.275 251.200 C 198.564 251.200,198.800 251.380,198.800 251.600 C 198.800 251.820,199.078 252.000,199.417 252.000 C 199.756 252.000,200.420 252.360,200.892 252.800 C 201.364 253.240,201.987 253.600,202.275 253.600 C 202.564 253.600,202.800 253.780,202.800 254.000 C 202.800 254.220,203.036 254.400,203.325 254.400 C 203.613 254.400,204.236 254.760,204.708 255.200 C 205.180 255.640,205.844 256.000,206.183 256.000 C 206.522 256.000,206.801 256.135,206.801 256.300 C 206.802 256.465,207.837 257.140,209.101 257.800 C 210.366 258.460,211.460 259.135,211.533 259.300 C 211.607 259.465,211.922 259.600,212.233 259.600 C 212.545 259.600,212.800 259.780,212.800 260.000 C 212.800 260.220,213.120 260.400,213.512 260.400 C 213.903 260.400,214.483 260.760,214.800 261.200 C 215.117 261.640,215.697 262.000,216.088 262.000 C 216.480 262.000,216.800 262.180,216.800 262.400 C 216.800 262.620,217.120 262.800,217.512 262.800 C 217.903 262.800,218.483 263.160,218.800 263.600 C 219.117 264.040,219.697 264.400,220.088 264.400 C 220.480 264.400,220.800 264.580,220.800 264.800 C 220.800 265.020,221.036 265.200,221.325 265.200 C 221.613 265.200,222.236 265.560,222.708 266.000 C 223.180 266.440,223.762 266.800,224.000 266.800 C 224.238 266.800,224.820 267.160,225.292 267.600 C 225.764 268.040,226.387 268.400,226.675 268.400 C 226.964 268.400,227.200 268.580,227.200 268.800 C 227.200 269.020,227.436 269.200,227.725 269.200 C 228.013 269.200,228.598 269.525,229.025 269.922 C 229.451 270.320,230.385 270.903,231.100 271.220 C 231.815 271.536,232.400 271.910,232.400 272.049 C 232.400 272.189,232.934 272.524,233.587 272.795 C 235.481 273.579,235.803 274.215,234.833 275.256 C 234.375 275.748,234.000 276.387,234.000 276.675 C 234.000 276.964,233.854 277.200,233.675 277.200 C 233.496 277.200,233.102 277.830,232.800 278.600 C 232.498 279.370,232.104 280.000,231.925 280.000 C 231.746 280.000,231.600 280.272,231.600 280.605 C 231.600 280.938,231.420 281.568,231.200 282.005 C 230.980 282.442,230.620 283.158,230.400 283.595 C 230.180 284.032,230.000 284.842,230.000 285.395 C 230.000 285.948,229.820 286.400,229.600 286.400 C 229.380 286.400,229.200 287.109,229.200 287.976 C 229.200 288.843,229.020 289.664,228.800 289.800 C 228.558 289.949,228.400 292.796,228.400 297.000 C 228.400 301.204,228.558 304.051,228.800 304.200 C 229.020 304.336,229.200 305.146,229.200 306.000 C 229.200 306.854,229.380 307.664,229.600 307.800 C 229.820 307.936,230.000 308.451,230.000 308.944 C 230.000 309.437,230.225 310.068,230.500 310.347 C 231.170 311.026,229.887 312.000,228.324 312.000 C 227.706 312.000,227.200 312.180,227.200 312.400 C 227.200 312.620,226.480 312.800,225.600 312.800 C 224.720 312.800,224.000 312.980,224.000 313.200 C 224.000 313.420,223.280 313.600,222.400 313.600 C 221.520 313.600,220.800 313.780,220.800 314.000 C 220.800 314.220,220.181 314.400,219.424 314.400 C 218.667 314.400,217.936 314.580,217.800 314.800 C 217.664 315.020,216.944 315.200,216.200 315.200 C 215.456 315.200,214.736 315.380,214.600 315.600 C 214.464 315.820,213.733 316.000,212.976 316.000 C 212.219 316.000,211.600 316.180,211.600 316.400 C 211.600 316.620,210.981 316.800,210.224 316.800 C 209.467 316.800,208.736 316.980,208.600 317.200 C 208.464 317.420,207.834 317.600,207.200 317.600 C 206.566 317.600,205.936 317.780,205.800 318.000 C 205.664 318.220,204.933 318.400,204.176 318.400 C 203.419 318.400,202.800 318.580,202.800 318.800 C 202.800 319.020,202.080 319.200,201.200 319.200 C 200.320 319.200,199.600 319.380,199.600 319.600 C 199.600 319.820,198.880 320.000,198.000 320.000 C 197.120 320.000,196.400 320.180,196.400 320.400 C 196.400 320.620,195.770 320.800,195.000 320.800 C 194.230 320.800,193.600 320.980,193.600 321.200 C 193.600 321.420,192.880 321.600,192.000 321.600 C 191.120 321.600,190.400 321.780,190.400 322.000 C 190.400 322.220,189.680 322.400,188.800 322.400 C 187.920 322.400,187.200 322.580,187.200 322.800 C 187.200 323.020,186.570 323.200,185.800 323.200 C 185.030 323.200,184.400 323.380,184.400 323.600 C 184.400 323.820,183.781 324.000,183.024 324.000 C 182.267 324.000,181.536 324.180,181.400 324.400 C 181.264 324.620,180.533 324.800,179.776 324.800 C 179.019 324.800,178.400 324.980,178.400 325.200 C 178.400 325.420,177.770 325.600,177.000 325.600 C 176.230 325.600,175.600 325.780,175.600 326.000 C 175.600 326.220,174.880 326.400,174.000 326.400 C 173.120 326.400,172.400 326.544,172.400 326.721 C 172.400 326.897,171.095 327.237,169.500 327.475 C 167.905 327.713,165.880 328.121,165.000 328.381 C 162.673 329.068,160.384 329.627,158.896 329.873 C 158.179 329.992,157.494 330.249,157.373 330.444 C 157.252 330.640,156.533 330.800,155.776 330.800 C 155.019 330.800,154.400 330.980,154.400 331.200 C 154.400 331.420,153.680 331.600,152.800 331.600 C 151.920 331.600,151.200 331.780,151.200 332.000 C 151.200 332.220,150.581 332.400,149.824 332.400 C 149.067 332.400,148.336 332.580,148.200 332.800 C 148.064 333.020,147.333 333.200,146.576 333.200 C 145.819 333.200,145.200 333.380,145.200 333.600 C 145.200 333.820,144.480 334.000,143.600 334.000 C 142.720 334.000,142.000 334.180,142.000 334.400 C 142.000 334.620,141.381 334.800,140.624 334.800 C 139.867 334.800,139.136 334.980,139.000 335.200 C 138.864 335.420,138.234 335.600,137.600 335.600 C 136.966 335.600,136.336 335.780,136.200 336.000 C 136.064 336.220,135.333 336.400,134.576 336.400 C 133.819 336.400,133.200 336.580,133.200 336.800 C 133.200 337.020,132.480 337.200,131.600 337.200 C 130.720 337.200,130.000 337.380,130.000 337.600 C 130.000 337.820,129.370 338.000,128.600 338.000 C 127.830 338.000,127.200 338.180,127.200 338.400 C 127.200 338.620,126.480 338.800,125.600 338.800 C 124.720 338.800,124.000 338.980,124.000 339.200 C 124.000 339.420,123.280 339.600,122.400 339.600 C 121.520 339.600,120.800 339.780,120.800 340.000 C 120.800 340.220,120.080 340.400,119.200 340.400 C 118.320 340.400,117.600 340.580,117.600 340.800 C 117.600 341.020,116.981 341.200,116.224 341.200 C 115.467 341.200,114.736 341.380,114.600 341.600 C 114.464 341.820,113.834 342.000,113.200 342.000 C 112.566 342.000,111.936 342.180,111.800 342.400 C 111.664 342.620,111.034 342.800,110.400 342.800 C 109.766 342.800,109.149 342.959,109.029 343.153 C 108.909 343.347,107.594 343.635,106.106 343.792 C 104.618 343.950,103.220 344.218,103.000 344.389 C 102.780 344.560,102.060 344.801,101.400 344.925 C 100.740 345.049,99.480 345.334,98.600 345.557 C 97.720 345.781,96.460 346.076,95.800 346.212 C 95.140 346.349,94.240 346.613,93.800 346.800 C 92.956 347.158,91.459 347.515,89.296 347.873 C 88.579 347.991,87.894 348.249,87.773 348.444 C 87.652 348.640,86.933 348.800,86.176 348.800 C 85.419 348.800,84.800 348.980,84.800 349.200 C 84.800 349.420,84.181 349.600,83.424 349.600 C 82.667 349.600,81.936 349.780,81.800 350.000 C 81.664 350.220,80.944 350.400,80.200 350.400 C 79.456 350.400,78.736 350.580,78.600 350.800 C 78.464 351.020,77.733 351.200,76.976 351.200 C 76.219 351.200,75.600 351.380,75.600 351.600 C 75.600 351.820,74.880 352.000,74.000 352.000 C 73.120 352.000,72.400 352.180,72.400 352.400 C 72.400 352.620,72.220 352.800,72.000 352.800 C 71.769 352.800,71.600 351.541,71.600 349.824 C 71.600 348.187,71.420 346.736,71.200 346.600 C 70.980 346.464,70.800 345.654,70.800 344.800 C 70.800 343.946,70.620 343.136,70.400 343.000 C 70.180 342.864,70.000 342.223,70.000 341.576 C 70.000 340.929,69.820 340.400,69.600 340.400 C 69.380 340.400,69.200 340.040,69.200 339.600 C 69.200 339.160,69.020 338.800,68.800 338.800 C 68.580 338.800,68.400 338.440,68.400 338.000 C 68.400 337.560,68.220 337.200,68.000 337.200 C 67.780 337.200,67.600 336.840,67.600 336.400 C 67.600 335.960,67.420 335.600,67.200 335.600 C 66.980 335.600,66.800 335.280,66.800 334.888 C 66.800 334.497,66.440 333.917,66.000 333.600 C 65.560 333.283,65.200 332.817,65.200 332.565 C 65.200 332.018,61.339 327.941,60.200 327.285 C 59.760 327.032,59.625 326.819,59.900 326.812 C 60.175 326.805,60.400 326.440,60.400 326.000 C 60.400 325.560,60.580 325.200,60.800 325.200 C 61.020 325.200,61.200 324.930,61.200 324.600 C 61.200 324.270,61.380 324.000,61.600 324.000 C 61.820 324.000,62.000 323.730,62.000 323.400 C 62.000 323.070,62.146 322.800,62.325 322.800 C 62.504 322.800,62.898 322.170,63.200 321.400 C 63.502 320.630,63.896 320.000,64.075 320.000 C 64.254 320.000,64.400 319.640,64.400 319.200 C 64.400 318.760,64.580 318.400,64.800 318.400 C 65.020 318.400,65.200 318.040,65.200 317.600 C 65.200 317.160,65.380 316.800,65.600 316.800 C 65.820 316.800,66.000 316.564,66.000 316.275 C 66.000 315.987,66.360 315.364,66.800 314.892 C 67.240 314.420,67.600 313.756,67.600 313.417 C 67.600 313.078,67.780 312.800,68.000 312.800 C 68.220 312.800,68.400 312.440,68.400 312.000 C 68.400 311.560,68.580 311.200,68.800 311.200 C 69.020 311.200,69.200 310.840,69.200 310.400 C 69.200 309.960,69.380 309.600,69.600 309.600 C 69.820 309.600,70.000 309.330,70.000 309.000 C 70.000 308.670,70.135 308.399,70.300 308.397 C 70.465 308.395,70.801 307.990,71.046 307.497 C 72.536 304.498,74.233 301.371,74.466 301.196 C 74.615 301.084,74.860 300.499,75.012 299.896 C 75.163 299.293,75.447 298.800,75.643 298.800 C 75.840 298.800,76.000 298.440,76.000 298.000 C 76.000 297.560,76.180 297.200,76.400 297.200 C 76.620 297.200,76.800 296.840,76.800 296.400 C 76.800 295.960,76.980 295.600,77.200 295.600 C 77.420 295.600,77.600 295.322,77.600 294.983 C 77.600 294.644,77.960 293.980,78.400 293.508 C 78.840 293.036,79.200 292.413,79.200 292.125 C 79.200 291.836,79.346 291.600,79.525 291.600 C 79.704 291.600,80.098 290.970,80.400 290.200 C 80.702 289.430,81.096 288.800,81.275 288.800 C 81.454 288.800,81.600 288.440,81.600 288.000 C 81.600 287.560,81.759 287.200,81.953 287.200 C 82.148 287.200,82.407 286.885,82.529 286.500 C 82.825 285.564,84.124 283.434,84.500 283.267 C 84.665 283.193,84.800 282.788,84.800 282.367 C 84.800 281.945,84.980 281.600,85.200 281.600 C 85.420 281.600,85.600 281.240,85.600 280.800 C 85.600 280.360,85.780 280.000,86.000 280.000 C 86.220 280.000,86.400 279.640,86.400 279.200 C 86.400 278.760,86.568 278.400,86.773 278.400 C 86.978 278.400,87.260 278.041,87.399 277.602 C 87.538 277.164,87.866 276.579,88.127 276.302 C 88.388 276.026,89.321 274.360,90.201 272.600 C 91.080 270.840,91.935 269.340,92.100 269.267 C 92.265 269.193,92.400 268.788,92.400 268.367 C 92.400 267.945,92.580 267.600,92.800 267.600 C 93.020 267.600,93.200 267.240,93.200 266.800 C 93.200 266.360,93.380 266.000,93.600 266.000 C 93.820 266.000,94.000 265.640,94.000 265.200 C 94.000 264.760,94.180 264.400,94.400 264.400 C 94.620 264.400,94.800 264.164,94.800 263.875 C 94.800 263.587,95.160 262.964,95.600 262.492 C 96.040 262.020,96.400 261.356,96.400 261.017 C 96.400 260.678,96.580 260.400,96.800 260.400 C 97.020 260.400,97.200 260.040,97.200 259.600 C 97.200 259.160,97.380 258.800,97.600 258.800 C 97.820 258.800,98.000 258.530,98.000 258.200 C 98.000 257.870,98.180 257.600,98.400 257.600 C 98.620 257.600,98.800 257.240,98.800 256.800 C 98.800 256.360,98.980 256.000,99.200 256.000 C 99.420 256.000,99.600 255.730,99.600 255.400 C 99.600 255.070,99.746 254.800,99.925 254.800 C 100.104 254.800,100.498 254.170,100.800 253.400 C 101.102 252.630,101.496 252.000,101.675 252.000 C 101.854 252.000,102.000 251.640,102.000 251.200 C 102.000 250.760,102.180 250.400,102.400 250.400 C 102.620 250.400,102.800 250.040,102.800 249.600 C 102.800 249.160,102.945 248.800,103.121 248.800 C 103.298 248.800,103.883 247.903,104.421 246.806 C 104.960 245.710,105.535 244.810,105.700 244.806 C 105.865 244.803,106.000 244.440,106.000 244.000 C 106.000 243.560,106.180 243.200,106.400 243.200 C 106.620 243.200,106.800 242.840,106.800 242.400 C 106.800 241.960,106.962 241.600,107.160 241.600 C 107.359 241.600,107.854 240.791,108.260 239.801 C 108.667 238.812,109.135 238.002,109.300 238.001 C 109.465 238.001,109.600 237.640,109.600 237.200 C 109.600 236.760,109.780 236.400,110.000 236.400 C 110.220 236.400,110.400 236.040,110.400 235.600 C 110.400 235.160,110.580 234.800,110.800 234.800 C 111.020 234.800,111.200 234.564,111.200 234.275 C 111.200 233.987,111.560 233.364,112.000 232.892 C 112.440 232.420,112.800 231.756,112.800 231.417 C 112.800 231.078,112.980 230.800,113.200 230.800 C 113.420 230.800,113.600 230.440,113.600 230.000 C 113.600 229.560,113.780 229.200,114.000 229.200 C 114.220 229.200,114.400 228.840,114.400 228.400 C 114.400 227.960,114.580 227.600,114.800 227.600 C 115.020 227.600,115.200 227.322,115.200 226.983 C 115.200 226.644,115.560 225.980,116.000 225.508 C 116.440 225.036,116.800 224.413,116.800 224.125 C 116.800 223.836,116.936 223.600,117.102 223.600 C 117.269 223.600,117.663 223.015,117.978 222.300 C 118.921 220.161,121.010 219.122,121.800 220.400 C 121.936 220.620,123.196 220.800,124.600 220.800 C 126.004 220.800,127.264 220.620,127.400 220.400 C 127.536 220.180,128.258 220.000,129.005 220.000 C 129.751 220.000,130.866 219.798,131.481 219.550 C 132.097 219.303,133.050 218.922,133.600 218.704 C 135.845 217.813,137.673 216.747,138.400 215.905 C 139.070 215.129,139.600 214.994,139.600 215.600 M272.294 269.253 C 301.128 276.108,302.636 315.338,274.400 324.052 C 261.603 328.002,246.844 321.173,241.004 308.600 C 234.848 295.345,240.557 278.698,253.521 272.100 C 256.392 270.639,257.633 270.177,261.200 269.240 C 263.208 268.712,270.054 268.720,272.294 269.253 M46.296 330.856 C 66.498 338.956,66.437 365.764,46.200 373.010 C 41.141 374.822,31.853 373.376,27.081 370.035 C 11.335 359.012,15.653 335.332,34.271 330.603 C 36.897 329.936,44.395 330.094,46.296 330.856 " stroke="none" fill="#2b446c" fill-rule="evenodd"></path><path id="path3" d="M229.600 152.217 C 222.329 154.484,218.020 162.557,220.215 169.800 C 223.240 179.782,235.553 183.215,243.138 176.193 C 254.229 165.924,243.961 147.740,229.600 152.217 M261.200 269.240 C 257.633 270.177,256.392 270.639,253.521 272.100 C 227.779 285.201,237.421 324.769,266.400 324.948 C 290.498 325.096,303.488 297.939,288.379 279.000 C 282.258 271.328,270.003 266.927,261.200 269.240 M23.600 336.600 C 22.628 337.590,21.923 338.400,22.033 338.400 C 22.143 338.400,23.028 337.590,24.000 336.600 C 24.972 335.610,25.677 334.800,25.567 334.800 C 25.457 334.800,24.572 335.610,23.600 336.600 M17.314 351.800 C 17.317 352.900,17.395 353.303,17.487 352.695 C 17.579 352.086,17.577 351.186,17.482 350.695 C 17.387 350.203,17.311 350.700,17.314 351.800 M61.314 351.800 C 61.317 352.900,61.395 353.303,61.487 352.695 C 61.579 352.086,61.577 351.186,61.482 350.695 C 61.387 350.203,61.311 350.700,61.314 351.800 M54.778 367.500 L 53.400 369.000 54.900 367.622 C 56.296 366.338,56.584 366.000,56.278 366.000 C 56.212 366.000,55.537 366.675,54.778 367.500 M41.700 373.487 C 42.305 373.578,43.295 373.578,43.900 373.487 C 44.505 373.395,44.010 373.320,42.800 373.320 C 41.590 373.320,41.095 373.395,41.700 373.487 " stroke="none" fill="#4b8cdb" fill-rule="evenodd"></path><path id="path4" d="M214.800 26.247 C 210.936 26.982,205.872 29.968,203.317 33.018 C 201.684 34.968,199.852 37.985,200.131 38.265 C 200.226 38.359,200.841 37.483,201.499 36.318 C 208.755 23.469,228.857 23.238,236.290 35.918 C 236.844 36.863,237.381 37.552,237.484 37.449 C 238.178 36.755,233.416 31.309,230.400 29.347 C 228.663 28.216,227.982 27.870,225.400 26.804 C 224.177 26.299,216.615 25.902,214.800 26.247 M57.400 34.414 C 49.437 35.358,42.361 40.537,38.826 48.010 C 38.152 49.434,37.602 50.870,37.604 51.200 C 37.606 51.530,38.338 50.302,39.232 48.472 C 41.055 44.736,41.451 44.167,44.009 41.609 C 49.207 36.411,54.132 34.619,62.517 34.875 C 65.332 34.960,67.312 34.915,66.917 34.774 C 65.687 34.335,59.914 34.117,57.400 34.414 M72.000 36.944 C 72.000 37.039,72.903 37.696,74.007 38.404 C 76.865 40.238,80.404 44.270,82.145 47.676 C 82.968 49.284,83.518 50.150,83.369 49.600 C 82.797 47.487,80.613 43.949,78.538 41.772 C 76.504 39.639,72.000 36.313,72.000 36.944 M237.600 38.213 C 237.600 38.330,237.849 39.022,238.153 39.750 C 241.946 48.828,237.058 60.813,227.841 65.033 C 226.580 65.610,225.634 66.167,225.738 66.271 C 226.188 66.721,230.759 64.019,232.910 62.030 C 239.410 56.023,241.651 46.946,238.521 39.300 C 238.049 38.146,237.600 37.616,237.600 38.213 M199.051 40.760 C 198.693 41.855,198.422 43.526,198.450 44.475 L 198.500 46.200 198.799 44.161 C 198.963 43.039,199.319 41.452,199.589 40.634 C 199.859 39.816,199.995 39.061,199.891 38.958 C 199.787 38.854,199.409 39.665,199.051 40.760 M198.449 49.040 C 198.422 49.942,198.596 51.292,198.835 52.040 C 199.075 52.788,199.349 53.651,199.445 53.957 C 199.540 54.264,199.710 54.424,199.821 54.313 C 199.932 54.202,199.826 53.593,199.585 52.960 C 199.344 52.328,199.001 50.818,198.823 49.605 C 198.516 47.526,198.495 47.494,198.449 49.040 M83.656 51.200 C 83.656 51.530,83.811 52.160,84.000 52.600 C 84.217 53.104,84.344 53.178,84.344 52.800 C 84.344 52.470,84.189 51.840,84.000 51.400 C 83.783 50.896,83.656 50.822,83.656 51.200 M36.934 53.459 C 35.354 61.133,37.939 69.590,43.580 75.208 C 46.569 78.185,51.819 81.485,52.913 81.075 C 53.206 80.966,53.081 80.780,52.600 80.609 C 51.437 80.197,48.234 78.649,48.000 78.386 C 47.890 78.263,47.170 77.727,46.400 77.197 C 39.955 72.755,36.099 63.516,37.245 55.260 C 37.679 52.128,37.465 50.883,36.934 53.459 M84.547 58.200 C 84.547 60.635,84.676 62.153,84.834 61.600 C 85.197 60.333,85.192 56.571,84.826 55.000 C 84.664 54.305,84.546 55.652,84.547 58.200 M200.009 55.038 C 199.964 57.245,209.159 66.575,210.277 65.457 C 210.387 65.346,209.697 64.858,208.743 64.371 C 206.486 63.219,202.905 59.581,201.293 56.800 C 200.592 55.590,200.014 54.797,200.009 55.038 M83.873 64.153 C 83.723 64.545,83.611 65.166,83.625 65.533 C 83.642 65.975,83.781 65.874,84.037 65.234 C 84.249 64.703,84.361 64.082,84.285 63.854 C 84.209 63.627,84.024 63.761,83.873 64.153 M212.000 66.243 C 212.770 66.601,214.120 66.963,215.000 67.046 C 216.555 67.194,216.543 67.182,214.600 66.634 C 211.046 65.631,210.511 65.550,212.000 66.243 M222.400 66.800 C 221.425 67.112,221.430 67.121,222.600 67.132 C 223.260 67.138,224.160 66.989,224.600 66.800 C 225.694 66.330,223.867 66.330,222.400 66.800 M218.105 67.487 C 218.714 67.579,219.614 67.577,220.105 67.482 C 220.597 67.387,220.100 67.311,219.000 67.314 C 217.900 67.317,217.497 67.395,218.105 67.487 M80.635 71.619 C 78.176 75.335,74.460 78.487,70.507 80.210 C 69.576 80.616,68.886 81.020,68.975 81.108 C 70.111 82.245,79.621 74.640,81.425 71.152 C 82.280 69.498,81.883 69.733,80.635 71.619 M53.673 81.388 C 54.194 81.943,60.614 82.642,63.000 82.404 C 65.198 82.184,65.012 82.142,60.800 81.906 C 58.270 81.764,55.570 81.524,54.800 81.373 C 54.030 81.222,53.523 81.229,53.673 81.388 M66.400 81.600 C 65.605 82.114,66.604 82.114,67.800 81.600 L 68.600 81.256 67.800 81.234 C 67.360 81.222,66.730 81.387,66.400 81.600 M362.200 149.761 C 353.593 152.214,348.130 161.609,350.592 169.724 C 355.385 185.520,376.484 186.092,381.946 170.573 C 386.119 158.716,374.339 146.300,362.200 149.761 " stroke="none" fill="#8a8ab1" fill-rule="evenodd"></path></g></svg>