<svg id="svg" version="1.1" xmlns="http://www.w3.org/2000/svg" xmlns:xlink="http://www.w3.org/1999/xlink" width="400" height="400" viewBox="0, 0, 400,400"><g id="svgg"><path id="path0" d="M190.800 0.405 C 190.030 0.599,188.905 0.877,188.300 1.025 C 187.695 1.173,187.200 1.452,187.200 1.647 C 187.200 1.841,186.840 2.000,186.400 2.000 C 185.960 2.000,185.600 2.180,185.600 2.400 C 185.600 2.620,185.240 2.800,184.800 2.800 C 184.360 2.800,184.000 2.980,184.000 3.200 C 184.000 3.420,183.640 3.600,183.200 3.600 C 182.760 3.600,182.400 3.780,182.400 4.000 C 182.400 4.220,182.040 4.400,181.600 4.400 C 181.160 4.400,180.800 4.580,180.800 4.800 C 180.800 5.020,180.519 5.200,180.176 5.200 C 179.833 5.200,179.664 5.380,179.800 5.600 C 179.936 5.820,179.677 6.000,179.224 6.000 C 178.771 6.000,178.400 6.180,178.400 6.400 C 178.400 6.620,178.130 6.800,177.800 6.800 C 177.470 6.800,177.200 6.980,177.200 7.200 C 177.200 7.420,176.855 7.600,176.433 7.600 C 176.012 7.600,175.607 7.766,175.533 7.970 C 175.460 8.173,175.130 8.398,174.800 8.470 C 174.470 8.541,173.909 8.915,173.553 9.300 C 173.197 9.685,172.717 10.000,172.486 10.000 C 172.255 10.000,170.734 10.787,169.107 11.750 C 167.479 12.712,165.755 13.624,165.276 13.776 C 164.797 13.928,164.173 14.266,163.890 14.526 C 163.167 15.192,161.134 16.407,160.300 16.671 C 159.915 16.793,159.600 17.052,159.600 17.247 C 159.600 17.441,159.330 17.600,159.000 17.600 C 158.670 17.600,158.400 17.780,158.400 18.000 C 158.400 18.220,158.055 18.400,157.633 18.400 C 157.212 18.400,156.807 18.535,156.733 18.700 C 156.660 18.865,155.745 19.433,154.700 19.963 C 153.655 20.492,152.800 21.077,152.800 21.263 C 152.800 21.448,152.440 21.600,152.000 21.600 C 151.560 21.600,151.200 21.780,151.200 22.000 C 151.200 22.220,150.930 22.400,150.600 22.400 C 150.270 22.400,150.000 22.580,150.000 22.800 C 150.000 23.020,149.730 23.200,149.400 23.200 C 149.070 23.200,148.800 23.380,148.800 23.600 C 148.800 23.820,148.440 24.000,148.000 24.000 C 147.560 24.000,147.200 24.180,147.200 24.400 C 147.200 24.620,146.930 24.800,146.600 24.800 C 146.270 24.800,145.999 24.935,145.997 25.100 C 145.995 25.265,145.590 25.603,145.097 25.851 C 144.604 26.100,143.210 26.796,142.000 27.398 C 140.790 28.000,139.710 28.607,139.600 28.746 C 139.226 29.221,137.613 30.000,137.005 30.000 C 136.672 30.000,136.400 30.155,136.400 30.344 C 136.400 30.534,135.545 31.119,134.500 31.644 C 133.455 32.170,132.510 32.692,132.400 32.805 C 132.290 32.918,131.345 33.442,130.300 33.968 C 129.255 34.495,128.400 35.077,128.400 35.263 C 128.400 35.448,128.130 35.600,127.800 35.600 C 127.470 35.600,127.200 35.780,127.200 36.000 C 127.200 36.220,126.840 36.400,126.400 36.400 C 125.960 36.400,125.600 36.580,125.600 36.800 C 125.600 37.020,125.330 37.200,125.000 37.200 C 124.670 37.200,124.400 37.380,124.400 37.600 C 124.400 37.820,124.130 38.000,123.800 38.000 C 123.470 38.000,123.200 38.180,123.200 38.400 C 123.200 38.620,122.840 38.800,122.400 38.800 C 121.960 38.800,121.600 38.980,121.600 39.200 C 121.600 39.420,121.240 39.600,120.800 39.600 C 120.360 39.600,120.000 39.780,120.000 40.000 C 120.000 40.220,119.730 40.400,119.400 40.400 C 119.070 40.400,118.800 40.580,118.800 40.800 C 118.800 41.020,118.530 41.200,118.200 41.200 C 117.870 41.200,117.599 41.335,117.597 41.500 C 117.593 41.859,115.656 42.800,114.920 42.800 C 114.634 42.800,114.400 42.980,114.400 43.200 C 114.400 43.420,114.143 43.600,113.829 43.600 C 113.514 43.600,113.012 43.825,112.712 44.100 C 111.985 44.766,110.795 45.517,109.739 45.976 C 109.265 46.182,108.760 46.542,108.615 46.775 C 108.471 47.009,108.003 47.200,107.576 47.200 C 107.149 47.200,106.800 47.380,106.800 47.600 C 106.800 47.820,106.440 48.000,106.000 48.000 C 105.560 48.000,105.200 48.180,105.200 48.400 C 105.200 48.620,104.930 48.800,104.600 48.800 C 104.270 48.800,104.000 48.980,104.000 49.200 C 104.000 49.420,103.730 49.600,103.400 49.600 C 103.070 49.600,102.800 49.780,102.800 50.000 C 102.800 50.220,102.440 50.400,102.000 50.400 C 101.560 50.400,101.200 50.546,101.200 50.725 C 101.200 50.904,100.573 51.297,99.806 51.598 C 99.039 51.899,98.495 52.229,98.598 52.331 C 98.700 52.433,98.022 52.915,97.092 53.402 C 93.673 55.190,93.217 55.484,93.473 55.739 C 93.616 55.883,93.343 56.000,92.867 56.000 C 92.390 56.000,92.000 56.180,92.000 56.400 C 92.000 56.620,91.655 56.800,91.233 56.800 C 90.812 56.800,90.407 56.966,90.333 57.170 C 90.260 57.373,89.930 57.598,89.600 57.670 C 89.270 57.741,88.709 58.115,88.353 58.500 C 87.997 58.885,87.412 59.200,87.053 59.200 C 86.694 59.200,86.400 59.380,86.400 59.600 C 86.400 59.820,86.053 60.000,85.629 60.000 C 85.204 60.000,84.619 60.235,84.329 60.522 C 84.038 60.810,83.530 61.166,83.200 61.313 C 82.870 61.461,81.700 62.134,80.600 62.809 C 79.500 63.483,78.285 64.138,77.900 64.264 C 77.515 64.390,77.200 64.652,77.200 64.847 C 77.200 65.041,76.840 65.200,76.400 65.200 C 75.960 65.200,75.600 65.345,75.600 65.521 C 75.600 65.698,74.703 66.283,73.606 66.821 C 72.510 67.360,71.610 67.935,71.606 68.100 C 71.603 68.265,71.240 68.400,70.800 68.400 C 70.360 68.400,70.000 68.568,70.000 68.773 C 70.000 68.978,69.641 69.260,69.202 69.399 C 68.764 69.538,68.172 69.866,67.887 70.126 C 67.046 70.895,65.657 71.600,64.982 71.600 C 64.636 71.600,64.445 71.750,64.558 71.932 C 64.671 72.115,64.142 72.509,63.382 72.807 C 62.622 73.105,62.000 73.452,62.000 73.577 C 62.000 73.702,61.415 74.060,60.700 74.372 C 59.985 74.684,59.109 75.268,58.753 75.670 C 58.397 76.071,57.812 76.400,57.453 76.400 C 57.094 76.400,56.800 76.580,56.800 76.800 C 56.800 77.020,56.526 77.200,56.192 77.200 C 55.858 77.200,54.913 77.619,54.092 78.131 C 53.271 78.643,52.015 79.317,51.300 79.629 C 50.585 79.940,50.000 80.296,50.000 80.419 C 50.000 80.542,49.103 81.083,48.006 81.621 C 46.910 82.160,46.010 82.735,46.006 82.900 C 46.003 83.065,45.722 83.200,45.383 83.200 C 45.044 83.200,44.380 83.560,43.908 84.000 C 43.436 84.440,42.813 84.800,42.525 84.800 C 42.236 84.800,42.000 84.980,42.000 85.200 C 42.000 85.420,41.655 85.600,41.233 85.600 C 40.812 85.600,40.407 85.735,40.333 85.900 C 40.166 86.276,38.036 87.575,37.100 87.871 C 36.715 87.993,36.400 88.252,36.400 88.447 C 36.400 88.641,36.130 88.800,35.800 88.800 C 35.470 88.800,35.200 88.980,35.200 89.200 C 35.200 89.420,35.002 89.600,34.761 89.600 C 33.761 89.600,27.200 97.212,27.200 98.372 C 27.200 98.607,27.065 98.801,26.900 98.801 C 26.735 98.802,26.155 99.778,25.610 100.970 C 25.066 102.161,24.481 103.050,24.310 102.945 C 24.140 102.839,24.000 103.303,24.000 103.976 C 24.000 104.649,23.820 105.200,23.600 105.200 C 23.380 105.200,23.200 105.740,23.200 106.400 C 23.200 107.060,23.020 107.600,22.800 107.600 C 22.580 107.600,22.400 108.320,22.400 109.200 C 22.400 110.080,22.220 110.800,22.000 110.800 C 21.446 110.800,21.446 289.057,22.000 289.400 C 22.220 289.536,22.400 290.267,22.400 291.024 C 22.400 291.781,22.580 292.400,22.800 292.400 C 23.020 292.400,23.200 292.940,23.200 293.600 C 23.200 294.260,23.380 294.800,23.600 294.800 C 23.820 294.800,24.000 295.235,24.000 295.767 C 24.000 296.298,24.188 296.796,24.418 296.873 C 24.648 296.949,24.866 297.414,24.903 297.906 C 24.940 298.398,25.100 298.800,25.258 298.800 C 25.417 298.800,25.660 299.159,25.799 299.598 C 26.090 300.514,25.268 300.897,34.400 295.600 C 37.150 294.005,40.120 292.291,41.000 291.791 C 41.880 291.291,44.220 289.941,46.200 288.790 C 51.797 285.536,52.452 285.163,54.800 283.883 C 56.010 283.224,57.180 282.550,57.400 282.385 C 57.620 282.220,58.430 281.729,59.200 281.294 C 59.970 280.859,65.190 277.846,70.800 274.600 C 76.410 271.354,81.585 268.360,82.300 267.949 C 83.015 267.537,84.185 266.863,84.900 266.451 C 85.615 266.040,87.820 264.750,89.800 263.587 C 91.780 262.423,94.378 260.960,95.573 260.335 C 96.768 259.711,97.564 259.200,97.340 259.200 C 96.972 259.200,96.049 257.626,93.703 253.000 C 92.652 250.929,90.387 246.029,90.005 245.000 C 89.728 244.256,89.364 243.356,88.426 241.100 C 87.575 239.053,85.587 232.277,84.466 227.600 C 78.913 204.448,80.482 180.206,88.996 157.600 C 90.173 154.477,90.268 154.255,91.547 151.644 C 92.236 150.238,92.800 148.858,92.800 148.577 C 92.800 148.296,92.935 148.007,93.100 147.933 C 93.265 147.860,94.030 146.540,94.800 145.000 C 96.652 141.293,100.853 134.392,103.078 131.400 C 104.059 130.080,105.253 128.473,105.731 127.829 C 106.552 126.723,107.259 125.838,109.589 123.003 C 110.874 121.440,121.440 110.874,123.003 109.589 C 125.838 107.259,126.723 106.552,127.829 105.731 C 128.473 105.253,130.080 104.058,131.400 103.075 C 134.153 101.026,140.991 96.800,141.555 96.800 C 141.763 96.800,141.993 96.665,142.067 96.500 C 142.140 96.335,143.460 95.570,145.000 94.800 C 146.540 94.030,147.860 93.265,147.933 93.100 C 148.007 92.935,148.286 92.800,148.555 92.800 C 148.823 92.800,149.933 92.368,151.021 91.840 C 172.972 81.194,202.403 78.356,227.600 84.456 C 233.777 85.951,241.472 88.460,245.800 90.389 C 261.354 97.324,272.074 104.492,283.801 115.800 C 292.521 124.208,304.732 141.197,302.057 141.200 C 301.916 141.200,300.270 142.113,298.400 143.229 C 296.530 144.344,294.100 145.760,293.000 146.374 C 288.188 149.062,283.769 151.697,283.400 152.098 C 283.013 152.517,284.659 151.639,288.400 149.428 C 289.390 148.843,290.515 148.262,290.900 148.136 C 291.285 148.010,291.600 147.748,291.600 147.553 C 291.600 147.359,291.772 147.200,291.982 147.200 C 292.193 147.200,293.318 146.635,294.482 145.944 C 296.801 144.569,298.405 143.644,300.700 142.361 C 301.525 141.900,302.560 141.208,303.000 140.825 C 303.440 140.442,305.150 139.357,306.800 138.414 C 308.450 137.471,310.430 136.336,311.200 135.891 C 311.970 135.446,313.590 134.543,314.800 133.883 C 316.010 133.224,317.180 132.547,317.400 132.378 C 317.819 132.057,339.684 119.422,342.800 117.701 C 343.790 117.155,345.410 116.206,346.400 115.594 C 347.390 114.983,350.090 113.408,352.400 112.096 C 354.710 110.784,358.850 108.402,361.600 106.803 C 364.350 105.203,367.590 103.351,368.800 102.687 C 370.589 101.704,372.641 100.433,373.552 99.744 C 373.828 99.535,372.284 96.610,371.636 96.113 C 371.286 95.845,371.143 95.620,371.317 95.613 C 371.866 95.591,365.270 89.276,364.415 89.005 C 363.967 88.862,363.600 88.607,363.600 88.436 C 363.600 88.265,362.745 87.692,361.700 87.163 C 360.655 86.633,359.740 86.065,359.667 85.900 C 359.593 85.735,359.278 85.600,358.967 85.600 C 358.655 85.600,358.400 85.464,358.400 85.298 C 358.400 85.131,357.815 84.741,357.100 84.430 C 356.385 84.119,355.710 83.760,355.600 83.632 C 355.412 83.414,354.479 82.879,350.600 80.765 C 349.720 80.285,348.908 79.782,348.797 79.646 C 348.397 79.163,344.388 77.200,343.800 77.200 C 343.470 77.200,343.200 77.020,343.200 76.800 C 343.200 76.580,342.958 76.400,342.662 76.400 C 342.366 76.400,341.830 76.075,341.471 75.678 C 341.111 75.281,340.183 74.707,339.409 74.403 C 338.634 74.099,338.000 73.704,338.000 73.525 C 338.000 73.346,337.730 73.200,337.400 73.200 C 337.070 73.200,336.800 73.064,336.800 72.898 C 336.800 72.731,336.215 72.341,335.500 72.030 C 334.785 71.719,334.110 71.360,334.000 71.232 C 333.809 71.011,331.212 69.577,329.303 68.640 C 328.810 68.398,328.405 68.065,328.403 67.900 C 328.401 67.735,328.130 67.600,327.800 67.600 C 327.470 67.600,327.200 67.456,327.200 67.280 C 327.200 67.105,326.570 66.733,325.800 66.454 C 325.030 66.176,324.400 65.813,324.400 65.649 C 324.400 65.484,323.770 65.102,323.000 64.800 C 322.230 64.498,321.600 64.133,321.600 63.988 C 321.600 63.844,320.745 63.295,319.700 62.768 C 318.655 62.242,317.668 61.628,317.506 61.405 C 317.344 61.182,317.209 61.148,317.206 61.329 C 317.203 61.509,316.908 61.365,316.552 61.009 C 316.195 60.652,315.385 60.257,314.752 60.130 C 314.118 60.004,313.600 59.743,313.600 59.550 C 313.600 59.358,313.280 59.200,312.888 59.200 C 312.497 59.200,311.917 58.840,311.600 58.400 C 311.283 57.960,310.703 57.600,310.312 57.600 C 309.920 57.600,309.600 57.420,309.600 57.200 C 309.600 56.980,309.330 56.800,309.000 56.800 C 308.670 56.800,308.400 56.620,308.400 56.400 C 308.400 56.180,308.040 56.000,307.600 56.000 C 307.160 56.000,306.800 55.848,306.800 55.663 C 306.800 55.477,305.945 54.893,304.900 54.363 C 303.855 53.834,302.651 53.086,302.225 52.701 C 301.798 52.315,301.123 52.000,300.725 52.000 C 300.326 52.000,300.000 51.820,300.000 51.600 C 300.000 51.380,299.807 51.200,299.572 51.200 C 299.337 51.200,298.359 50.660,297.400 50.000 C 296.441 49.340,295.463 48.800,295.228 48.800 C 294.993 48.800,294.800 48.620,294.800 48.400 C 294.800 48.180,294.528 48.000,294.195 48.000 C 293.486 48.000,292.170 47.289,291.045 46.300 C 290.607 45.915,290.013 45.600,289.725 45.600 C 289.436 45.600,289.198 45.465,289.195 45.300 C 289.192 45.135,288.022 44.460,286.595 43.800 C 285.168 43.140,284.000 42.465,284.000 42.300 C 284.000 42.135,283.680 42.000,283.288 42.000 C 282.897 42.000,282.317 41.640,282.000 41.200 C 281.683 40.760,281.103 40.400,280.712 40.400 C 280.320 40.400,280.000 40.220,280.000 40.000 C 280.000 39.780,279.640 39.600,279.200 39.600 C 278.760 39.600,278.400 39.420,278.400 39.200 C 278.400 38.980,278.040 38.800,277.600 38.800 C 277.160 38.800,276.800 38.642,276.800 38.449 C 276.800 38.255,276.260 37.873,275.600 37.600 C 274.940 37.327,274.400 36.966,274.400 36.798 C 274.400 36.630,274.085 36.393,273.700 36.271 C 272.974 36.041,270.750 34.766,270.400 34.379 C 270.290 34.258,269.533 33.848,268.717 33.468 C 267.901 33.089,267.124 32.600,266.989 32.383 C 266.855 32.165,266.577 32.091,266.372 32.217 C 266.168 32.344,266.000 32.278,266.000 32.072 C 266.000 31.866,265.460 31.473,264.800 31.200 C 264.140 30.927,263.600 30.545,263.600 30.351 C 263.600 30.158,263.240 30.000,262.800 30.000 C 262.360 30.000,262.000 29.841,262.000 29.647 C 262.000 29.452,261.685 29.192,261.300 29.069 C 260.915 28.946,259.520 28.198,258.200 27.407 C 256.880 26.617,255.485 25.865,255.100 25.738 C 254.715 25.611,254.400 25.348,254.400 25.153 C 254.400 24.959,254.055 24.800,253.633 24.800 C 253.212 24.800,252.807 24.665,252.733 24.500 C 252.566 24.124,250.436 22.825,249.500 22.529 C 249.115 22.407,248.800 22.148,248.800 21.953 C 248.800 21.759,248.440 21.600,248.000 21.600 C 247.560 21.600,247.200 21.448,247.200 21.263 C 247.200 21.077,246.345 20.492,245.300 19.963 C 244.255 19.433,243.340 18.865,243.267 18.700 C 243.193 18.535,242.828 18.400,242.455 18.400 C 242.082 18.400,241.517 18.040,241.200 17.600 C 240.883 17.160,240.337 16.800,239.987 16.800 C 239.637 16.800,238.964 16.440,238.492 16.000 C 238.020 15.560,237.378 15.200,237.066 15.200 C 236.753 15.200,236.283 14.941,236.020 14.624 C 235.757 14.307,234.430 13.486,233.071 12.799 C 229.486 10.986,227.271 9.753,225.541 8.609 C 224.703 8.054,223.833 7.600,223.609 7.600 C 223.384 7.600,223.200 7.456,223.200 7.280 C 223.200 7.105,222.570 6.733,221.800 6.454 C 221.030 6.176,220.400 5.780,220.400 5.574 C 220.400 5.368,220.130 5.200,219.800 5.200 C 219.470 5.200,219.200 5.020,219.200 4.800 C 219.200 4.580,218.840 4.400,218.400 4.400 C 217.960 4.400,217.600 4.220,217.600 4.000 C 217.600 3.780,217.240 3.600,216.800 3.600 C 216.360 3.600,215.999 3.465,215.997 3.300 C 215.993 2.949,214.063 2.000,213.354 2.000 C 213.086 2.000,212.807 1.837,212.733 1.638 C 212.660 1.439,212.150 1.214,211.600 1.138 C 211.050 1.062,210.472 0.820,210.315 0.600 C 209.953 0.092,192.734 -0.080,190.800 0.405 M193.400 141.646 C 188.642 142.108,186.644 142.441,186.220 142.841 C 186.011 143.038,185.470 143.200,185.018 143.200 C 184.566 143.200,182.937 143.668,181.398 144.240 C 179.859 144.812,178.242 145.384,177.805 145.511 C 166.078 148.927,151.061 164.156,145.178 178.600 C 144.299 180.759,143.200 184.340,143.200 185.047 C 143.200 185.483,143.038 186.011,142.841 186.220 C 141.055 188.110,141.055 211.890,142.841 213.780 C 143.038 213.989,143.200 214.517,143.200 214.953 C 143.200 216.452,144.786 220.722,147.155 225.600 C 148.064 227.470,148.805 229.259,148.803 229.576 C 148.801 230.057,148.883 230.051,149.300 229.537 C 149.575 229.198,151.150 228.149,152.800 227.206 C 156.513 225.082,165.745 219.775,167.500 218.755 C 168.215 218.340,169.385 217.663,170.100 217.252 C 185.689 208.279,194.680 203.066,195.000 202.813 C 195.220 202.640,196.750 201.780,198.400 200.903 C 200.050 200.026,206.620 196.291,213.000 192.603 C 219.380 188.914,225.185 185.560,225.900 185.148 C 226.615 184.737,227.785 184.064,228.500 183.652 C 229.215 183.241,233.220 180.931,237.400 178.518 C 246.801 173.093,248.634 172.049,250.385 171.129 C 251.146 170.728,251.556 170.400,251.295 170.400 C 251.034 170.400,250.561 169.897,250.243 169.283 C 248.600 166.106,243.885 160.546,238.878 155.882 C 234.407 151.717,224.672 146.079,219.000 144.371 C 218.120 144.106,217.040 143.748,216.600 143.575 C 216.160 143.402,215.260 143.147,214.600 143.009 C 213.940 142.870,212.590 142.573,211.600 142.348 C 207.230 141.355,199.475 141.056,193.400 141.646 M281.200 153.233 L 280.200 154.048 281.500 153.414 C 282.215 153.065,282.800 152.694,282.800 152.590 C 282.800 152.192,282.163 152.448,281.200 153.233 M275.900 156.229 C 275.295 156.557,274.800 156.910,274.800 157.013 C 274.800 157.399,275.432 157.157,276.400 156.400 C 277.589 155.470,277.411 155.409,275.900 156.229 M273.100 157.829 C 272.495 158.157,272.000 158.510,272.000 158.613 C 272.000 158.999,272.632 158.757,273.600 158.000 C 274.789 157.070,274.611 157.009,273.100 157.829 M270.200 159.600 C 269.540 160.037,269.180 160.392,269.400 160.388 C 269.801 160.382,271.976 158.823,271.600 158.812 C 271.490 158.808,270.860 159.163,270.200 159.600 M264.800 162.671 C 262.710 163.899,260.370 165.257,259.600 165.689 C 258.830 166.122,258.020 166.666,257.800 166.900 C 257.298 167.433,260.256 165.814,265.918 162.456 C 267.082 161.765,268.207 161.200,268.418 161.200 C 268.628 161.200,268.800 161.020,268.800 160.800 C 268.800 160.279,269.138 160.121,264.800 162.671 M255.600 168.000 C 255.050 168.430,254.780 168.782,255.000 168.782 C 255.220 168.782,255.850 168.430,256.400 168.000 C 256.950 167.570,257.220 167.218,257.000 167.218 C 256.780 167.218,256.150 167.570,255.600 168.000 M253.100 169.429 C 251.605 170.240,251.696 170.578,253.200 169.800 C 253.860 169.459,254.400 169.094,254.400 168.990 C 254.400 168.732,254.357 168.747,253.100 169.429 M292.267 180.290 C 292.161 180.461,295.028 180.547,298.637 180.481 L 305.200 180.363 305.200 186.349 C 305.200 194.356,304.487 193.600,312.043 193.600 L 318.400 193.600 318.400 200.000 L 318.400 206.400 312.224 206.400 C 308.537 206.400,305.948 206.561,305.800 206.800 C 305.529 207.238,317.054 207.384,318.167 206.957 C 319.118 206.592,319.118 193.408,318.167 193.043 C 317.819 192.909,314.854 192.800,311.577 192.800 L 305.620 192.800 305.510 186.500 L 305.400 180.200 298.930 180.090 C 295.371 180.030,292.373 180.120,292.267 180.290 M341.467 180.267 C 341.320 180.413,341.200 183.293,341.200 186.667 L 341.200 192.800 335.374 192.800 C 327.457 192.800,328.000 192.275,328.000 199.934 C 328.000 207.776,327.439 207.200,335.070 207.200 L 341.180 207.200 341.290 213.500 L 341.400 219.800 348.100 219.910 C 351.785 219.970,354.800 219.880,354.801 219.710 C 354.801 219.539,351.831 219.453,348.201 219.519 L 341.600 219.637 341.600 213.651 C 341.600 205.644,342.313 206.400,334.757 206.400 L 328.400 206.400 328.400 200.010 L 328.400 193.620 334.900 193.510 L 341.400 193.400 341.510 186.881 L 341.620 180.363 348.211 180.481 C 351.835 180.547,354.801 180.465,354.801 180.300 C 354.800 179.929,341.836 179.897,341.467 180.267 M278.977 193.315 C 278.868 193.599,278.829 196.794,278.890 200.415 L 279.000 207.000 285.500 207.110 C 289.743 207.182,292.000 207.077,292.000 206.810 C 292.000 206.547,289.703 206.400,285.600 206.400 L 279.200 206.400 279.200 200.000 L 279.200 193.600 285.600 193.600 C 289.600 193.600,292.000 193.450,292.000 193.200 C 292.000 192.556,279.225 192.670,278.977 193.315 M354.800 193.190 C 354.800 193.423,357.419 193.624,361.300 193.690 L 367.800 193.800 367.800 200.000 L 367.800 206.200 361.609 206.311 C 353.117 206.463,352.700 207.200,361.106 207.200 C 367.089 207.200,367.603 207.142,367.986 206.426 C 368.700 205.093,368.520 194.177,367.771 193.429 C 367.037 192.694,354.800 192.469,354.800 193.190 M305.200 213.619 L 305.200 219.637 298.599 219.519 C 294.969 219.453,291.999 219.535,291.999 219.700 C 292.000 219.865,295.060 220.000,298.800 220.000 L 305.600 220.000 305.600 213.800 C 305.600 210.390,305.510 207.600,305.400 207.600 C 305.290 207.600,305.200 210.308,305.200 213.619 M248.698 233.220 C 247.667 234.749,246.899 236.000,246.991 236.000 C 247.280 236.000,250.905 230.772,250.735 230.602 C 250.646 230.513,249.729 231.691,248.698 233.220 M256.000 232.156 C 256.000 232.252,256.765 232.768,257.700 233.302 C 258.635 233.835,262.280 235.942,265.800 237.983 C 269.320 240.025,272.380 241.779,272.600 241.882 C 273.521 242.314,270.884 240.380,269.600 239.683 C 268.830 239.265,267.480 238.510,266.600 238.005 C 265.720 237.500,264.190 236.634,263.200 236.080 C 262.210 235.526,260.770 234.679,260.000 234.197 C 258.121 233.021,256.000 231.938,256.000 232.156 M153.130 236.300 C 153.561 236.905,154.329 237.760,154.837 238.200 C 155.345 238.640,155.072 238.145,154.232 237.100 C 152.574 235.039,151.863 234.522,153.130 236.300 M241.440 241.736 C 236.594 246.680,236.437 247.010,240.932 242.807 C 242.683 241.170,247.078 236.349,246.740 236.436 C 246.663 236.456,244.278 238.841,241.440 241.736 M158.000 241.800 C 159.417 243.230,160.667 244.400,160.777 244.400 C 160.887 244.400,159.817 243.230,158.400 241.800 C 156.983 240.370,155.733 239.200,155.623 239.200 C 155.513 239.200,156.583 240.370,158.000 241.800 M273.600 242.420 C 274.987 243.361,275.778 243.635,274.800 242.836 C 274.250 242.386,273.620 242.017,273.400 242.015 C 273.180 242.013,273.270 242.196,273.600 242.420 M162.790 245.994 C 163.774 246.915,164.944 247.855,165.390 248.083 C 166.410 248.605,165.965 248.189,163.200 246.035 L 161.000 244.321 162.790 245.994 M280.400 246.420 C 281.787 247.361,282.578 247.635,281.600 246.836 C 281.050 246.386,280.420 246.017,280.200 246.015 C 279.980 246.013,280.070 246.196,280.400 246.420 M233.887 248.168 C 231.506 249.816,231.036 250.293,232.600 249.472 C 233.771 248.857,236.398 246.821,236.000 246.836 C 235.890 246.841,234.939 247.440,233.887 248.168 M284.600 248.719 C 284.998 249.134,290.203 252.213,294.400 254.515 C 295.610 255.179,297.050 256.030,297.600 256.407 C 298.960 257.339,301.496 258.589,301.000 258.083 C 300.780 257.859,299.970 257.323,299.200 256.892 C 298.430 256.461,295.100 254.536,291.800 252.615 C 284.860 248.575,284.033 248.128,284.600 248.719 M170.000 250.941 C 170.000 251.208,173.690 253.243,173.863 253.071 C 173.940 252.993,173.103 252.439,172.002 251.840 C 170.901 251.240,170.000 250.836,170.000 250.941 M227.900 251.877 C 226.856 252.458,226.063 252.997,226.140 253.073 C 226.300 253.234,230.000 251.214,230.000 250.966 C 230.000 250.715,229.943 250.740,227.900 251.877 M174.600 253.510 C 175.090 253.960,181.244 256.414,181.800 256.380 C 182.020 256.367,181.390 256.024,180.400 255.618 C 175.996 253.811,174.229 253.169,174.600 253.510 M221.032 255.017 C 219.730 255.558,218.380 256.014,218.032 256.032 C 217.593 256.054,217.558 256.127,217.918 256.271 C 218.432 256.477,222.653 254.983,223.380 254.338 C 223.932 253.847,223.661 253.926,221.032 255.017 M183.633 256.944 C 183.725 257.023,184.340 257.208,185.000 257.356 C 185.876 257.552,186.038 257.515,185.600 257.218 C 185.060 256.853,183.232 256.598,183.633 256.944 M214.200 257.200 C 213.181 257.638,214.232 257.638,215.600 257.200 C 216.404 256.943,216.443 256.877,215.800 256.868 C 215.360 256.862,214.640 257.011,214.200 257.200 M190.833 258.551 C 190.925 258.635,192.440 258.802,194.200 258.923 C 196.606 259.088,196.953 259.058,195.600 258.801 C 193.750 258.450,190.536 258.281,190.833 258.551 M204.000 258.800 C 202.375 259.053,202.336 259.082,203.600 259.105 C 204.370 259.119,205.900 258.990,207.000 258.818 C 208.892 258.524,208.913 258.507,207.400 258.514 C 206.520 258.517,204.990 258.646,204.000 258.800 M99.724 263.400 C 100.062 264.060,100.638 264.960,101.004 265.400 C 101.370 265.840,101.265 265.480,100.770 264.600 C 99.680 262.658,98.864 261.722,99.724 263.400 M102.993 268.418 C 105.267 271.556,109.600 276.928,109.600 276.609 C 109.600 276.459,108.553 275.046,107.273 273.469 C 105.993 271.891,104.371 269.754,103.668 268.720 C 102.965 267.687,102.170 266.705,101.901 266.539 C 101.632 266.372,102.123 267.218,102.993 268.418 M292.467 273.977 C 291.770 274.844,291.200 275.667,291.200 275.807 C 291.200 276.036,292.033 275.080,293.558 273.100 C 294.652 271.682,293.692 272.452,292.467 273.977 M283.533 283.658 C 279.646 287.597,277.306 290.108,278.333 289.238 C 280.934 287.034,291.406 276.266,290.770 276.449 C 290.676 276.476,287.420 279.720,283.533 283.658 M110.801 278.200 C 111.351 278.860,111.845 279.475,111.900 279.567 C 111.955 279.658,112.088 279.645,112.196 279.538 C 112.304 279.430,111.809 278.815,111.097 278.171 L 109.803 277.000 110.801 278.200 M116.000 283.800 C 118.081 285.890,119.874 287.600,119.984 287.600 C 120.094 287.600,118.481 285.890,116.400 283.800 C 114.319 281.710,112.526 280.000,112.416 280.000 C 112.306 280.000,113.919 281.710,116.000 283.800 M120.422 287.900 C 120.434 288.065,121.019 288.638,121.722 289.174 L 123.000 290.149 121.825 288.874 C 120.603 287.549,120.385 287.397,120.422 287.900 M123.233 290.500 C 123.325 290.555,123.940 291.050,124.600 291.600 L 125.800 292.600 124.830 291.500 C 124.297 290.895,123.682 290.400,123.464 290.400 C 123.245 290.400,123.142 290.445,123.233 290.500 M274.000 292.492 C 273.010 293.378,272.740 293.722,273.400 293.258 C 275.457 291.809,276.148 291.214,275.971 291.045 C 275.877 290.955,274.990 291.606,274.000 292.492 M128.200 294.456 C 129.992 295.923,133.962 298.588,132.767 297.522 C 131.612 296.491,128.017 293.889,127.400 293.637 C 127.180 293.547,127.540 293.915,128.200 294.456 M269.700 295.637 C 268.545 296.512,267.600 297.311,267.600 297.413 C 267.600 297.665,271.541 294.818,271.823 294.363 C 272.171 293.800,271.950 293.932,269.700 295.637 M137.011 300.539 C 138.919 301.841,140.000 302.478,140.000 302.299 C 140.000 302.045,136.904 300.000,136.520 300.000 C 136.356 300.000,136.577 300.242,137.011 300.539 M261.681 300.972 C 259.721 302.358,259.585 302.665,261.400 301.605 C 263.278 300.510,263.925 299.991,263.380 300.020 C 263.171 300.030,262.407 300.459,261.681 300.972 M159.427 311.555 C 159.852 311.944,162.329 312.596,161.954 312.220 C 161.819 312.086,161.111 311.804,160.381 311.595 C 159.651 311.385,159.222 311.368,159.427 311.555 M163.546 313.016 C 164.286 313.337,165.186 313.592,165.546 313.582 C 165.906 313.573,165.480 313.305,164.600 312.988 C 162.527 312.242,161.806 312.260,163.546 313.016 M166.800 313.949 C 167.130 314.146,168.030 314.420,168.800 314.556 C 169.744 314.723,169.940 314.692,169.400 314.461 C 168.163 313.932,166.090 313.523,166.800 313.949 M230.600 314.400 C 229.581 314.838,230.632 314.838,232.000 314.400 C 232.804 314.143,232.843 314.077,232.200 314.068 C 231.760 314.062,231.040 314.211,230.600 314.400 M171.200 315.200 C 172.568 315.638,173.619 315.638,172.600 315.200 C 172.160 315.011,171.440 314.862,171.000 314.868 C 170.357 314.877,170.396 314.943,171.200 315.200 M227.400 315.200 C 226.896 315.417,226.822 315.544,227.200 315.544 C 227.530 315.544,228.160 315.389,228.600 315.200 C 229.104 314.983,229.178 314.856,228.800 314.856 C 228.470 314.856,227.840 315.011,227.400 315.200 M174.400 316.000 C 174.950 316.176,175.760 316.320,176.200 316.320 C 176.833 316.320,176.792 316.254,176.000 316.000 C 175.450 315.824,174.640 315.680,174.200 315.680 C 173.567 315.680,173.608 315.746,174.400 316.000 M223.800 316.000 C 222.781 316.438,223.832 316.438,225.200 316.000 C 226.004 315.743,226.043 315.677,225.400 315.668 C 224.960 315.662,224.240 315.811,223.800 316.000 M178.600 316.800 C 180.292 317.231,181.744 317.231,180.400 316.800 C 179.850 316.624,178.950 316.483,178.400 316.487 C 177.502 316.494,177.522 316.526,178.600 316.800 M219.600 316.800 C 218.256 317.231,219.708 317.231,221.400 316.800 C 222.478 316.526,222.498 316.494,221.600 316.487 C 221.050 316.483,220.150 316.624,219.600 316.800 M183.800 317.600 C 184.460 317.768,185.540 317.906,186.200 317.907 C 187.209 317.908,187.145 317.855,185.800 317.577 C 183.774 317.158,182.137 317.177,183.800 317.600 M214.000 317.600 C 212.650 317.884,212.643 317.895,213.800 317.900 C 214.460 317.903,215.540 317.768,216.200 317.600 C 217.860 317.178,216.007 317.178,214.000 317.600 M191.400 318.465 C 192.500 318.611,196.370 318.730,200.000 318.730 C 203.630 318.730,207.500 318.611,208.600 318.465 C 209.700 318.319,205.830 318.200,200.000 318.200 C 194.170 318.200,190.300 318.319,191.400 318.465 " stroke="none" fill="#649cd3" fill-rule="evenodd"></path><path id="path1" d="M189.800 82.265 C 179.438 83.515,172.881 84.699,168.294 86.149 C 167.363 86.444,165.790 86.911,164.800 87.188 C 163.810 87.465,162.640 87.833,162.200 88.005 C 161.760 88.178,160.770 88.536,160.000 88.800 C 157.890 89.524,155.960 90.304,152.419 91.864 C 144.778 95.228,130.916 103.433,128.065 106.278 C 127.771 106.572,126.871 107.304,126.065 107.906 C 122.642 110.462,112.414 120.406,109.719 123.800 C 109.020 124.680,107.662 126.390,106.700 127.600 C 100.592 135.284,94.101 146.525,90.359 155.900 C 90.162 156.395,89.838 157.205,89.640 157.700 C 89.443 158.195,89.064 159.230,88.800 160.000 C 88.536 160.770,88.172 161.760,87.993 162.200 C 87.814 162.640,87.577 163.360,87.468 163.800 C 87.359 164.240,86.820 166.130,86.272 168.000 C 80.498 187.697,80.556 213.124,86.421 232.600 C 86.885 234.140,87.355 235.760,87.466 236.200 C 87.576 236.640,87.814 237.360,87.993 237.800 C 88.172 238.240,88.536 239.230,88.800 240.000 C 89.064 240.770,89.467 241.850,89.694 242.400 C 89.921 242.950,90.249 243.760,90.422 244.200 C 92.772 250.161,96.085 256.577,99.642 262.059 C 102.669 266.724,106.210 271.788,107.106 272.735 C 107.384 273.029,108.104 273.926,108.706 274.730 C 111.376 278.295,121.648 288.547,125.600 291.592 C 126.590 292.355,127.490 293.083,127.600 293.209 C 127.710 293.335,128.430 293.871,129.200 294.400 C 129.970 294.929,130.690 295.467,130.800 295.596 C 132.348 297.411,149.242 306.939,154.200 308.794 C 156.249 309.560,159.163 310.773,160.095 311.247 C 160.477 311.441,161.064 311.600,161.400 311.600 C 161.736 311.600,162.323 311.762,162.705 311.961 C 163.087 312.160,164.210 312.540,165.200 312.807 C 166.190 313.074,167.450 313.446,168.000 313.633 C 171.046 314.670,178.799 316.200,186.400 317.265 C 191.454 317.973,208.546 317.973,213.600 317.265 C 223.401 315.892,234.489 313.409,237.295 311.959 C 237.677 311.762,238.264 311.600,238.600 311.600 C 238.936 311.600,239.523 311.441,239.905 311.247 C 240.592 310.897,241.951 310.327,243.700 309.654 C 245.776 308.854,246.825 308.375,251.200 306.230 C 257.884 302.952,258.997 302.328,265.000 298.490 C 267.520 296.878,271.888 293.745,272.400 293.182 C 272.510 293.061,273.230 292.522,274.000 291.985 C 278.039 289.168,288.806 278.287,292.799 272.988 C 293.788 271.674,294.712 270.510,294.850 270.400 C 295.621 269.789,301.872 259.732,301.723 259.343 C 301.625 259.088,301.242 258.782,300.872 258.664 C 300.207 258.452,297.987 257.187,297.600 256.800 C 297.490 256.690,296.680 256.213,295.800 255.740 C 293.572 254.542,291.670 253.462,284.900 249.551 C 284.185 249.138,282.925 248.421,282.100 247.957 C 281.275 247.494,280.420 246.973,280.200 246.800 C 279.980 246.627,279.150 246.123,278.355 245.680 C 275.462 244.069,274.996 243.796,274.800 243.600 C 274.600 243.400,271.790 241.869,270.103 241.040 C 269.610 240.798,269.205 240.465,269.203 240.300 C 269.201 240.135,269.038 240.000,268.840 240.000 C 268.642 240.000,264.732 237.840,260.150 235.200 C 250.342 229.548,251.747 229.868,249.828 232.847 C 248.963 234.190,248.062 235.493,247.826 235.744 C 247.590 235.995,246.587 237.188,245.598 238.394 C 243.315 241.181,241.170 243.325,238.394 245.595 C 237.188 246.581,236.109 247.511,235.997 247.660 C 235.655 248.119,229.091 252.148,227.192 253.065 C 226.206 253.541,224.500 254.326,223.400 254.809 C 222.300 255.292,221.087 255.848,220.705 256.044 C 220.323 256.240,219.659 256.400,219.229 256.400 C 218.799 256.400,218.349 256.559,218.229 256.754 C 218.108 256.949,217.513 257.210,216.905 257.336 C 216.297 257.461,214.900 257.761,213.800 258.001 C 208.531 259.151,206.502 259.349,200.000 259.344 C 193.351 259.340,190.065 259.025,186.000 258.003 C 185.010 257.754,183.703 257.451,183.095 257.329 C 182.487 257.207,181.892 256.949,181.771 256.754 C 181.651 256.559,181.149 256.400,180.656 256.400 C 180.163 256.400,179.589 256.248,179.380 256.062 C 179.171 255.877,177.920 255.308,176.600 254.799 C 173.076 253.440,165.112 248.909,164.000 247.630 C 163.890 247.504,162.630 246.415,161.200 245.210 C 145.018 231.581,137.283 208.716,141.781 187.800 C 146.270 166.931,161.895 149.665,182.000 143.358 C 185.573 142.237,186.240 142.069,188.800 141.641 C 194.962 140.609,196.852 140.400,200.000 140.400 C 203.148 140.400,205.038 140.609,211.200 141.641 C 213.945 142.100,214.641 142.281,218.800 143.618 C 230.662 147.432,242.224 156.238,249.505 167.005 C 251.615 170.125,251.230 170.097,255.740 167.457 C 257.753 166.279,260.210 164.864,261.200 164.314 C 263.715 162.915,265.461 161.913,267.918 160.456 C 269.082 159.765,270.207 159.200,270.418 159.200 C 270.628 159.200,270.800 159.041,270.800 158.847 C 270.800 158.652,271.115 158.390,271.500 158.264 C 271.885 158.138,272.920 157.601,273.800 157.070 C 278.965 153.953,292.928 146.000,293.235 146.000 C 293.436 146.000,293.600 145.841,293.600 145.647 C 293.600 145.452,293.915 145.190,294.300 145.064 C 294.685 144.938,295.765 144.377,296.700 143.818 C 297.635 143.258,299.158 142.372,300.084 141.848 C 302.333 140.577,302.337 140.660,299.773 136.575 C 293.094 125.935,283.197 115.131,271.998 106.253 C 265.611 101.190,251.292 93.025,244.200 90.403 C 243.760 90.240,242.950 89.921,242.400 89.694 C 241.850 89.467,240.770 89.064,240.000 88.800 C 239.230 88.536,238.240 88.179,237.800 88.007 C 232.495 85.938,222.166 83.669,213.200 82.602 C 208.676 82.064,193.302 81.842,189.800 82.265 M292.310 187.300 L 292.200 193.800 285.700 193.910 L 279.200 194.020 279.200 200.000 L 279.200 205.980 285.700 206.090 L 292.200 206.200 292.310 212.700 L 292.420 219.200 298.610 219.200 L 304.800 219.200 304.800 213.374 C 304.800 205.468,304.294 206.000,311.814 206.000 L 318.000 206.000 318.000 200.000 L 318.000 194.000 311.814 194.000 C 304.294 194.000,304.800 194.532,304.800 186.626 L 304.800 180.800 298.610 180.800 L 292.420 180.800 292.310 187.300 M341.600 187.400 L 341.600 194.000 335.200 194.000 L 328.800 194.000 328.800 199.990 L 328.800 205.980 335.100 206.090 L 341.400 206.200 341.510 212.700 L 341.620 219.200 348.000 219.200 L 354.380 219.200 354.490 212.700 L 354.600 206.200 361.100 206.090 L 367.600 205.980 367.600 200.000 L 367.600 194.020 361.100 193.910 L 354.600 193.800 354.490 187.300 L 354.380 180.800 347.990 180.800 L 341.600 180.800 341.600 187.400 " stroke="none" fill="#fbfbfb" fill-rule="evenodd"></path><path id="path2" d="M373.617 99.215 C 373.602 99.772,371.983 100.897,368.000 103.119 C 367.230 103.549,364.350 105.208,361.600 106.805 C 358.850 108.403,354.710 110.784,352.400 112.096 C 350.090 113.408,347.390 114.983,346.400 115.594 C 345.410 116.206,343.790 117.155,342.800 117.701 C 339.684 119.422,317.819 132.057,317.400 132.378 C 317.180 132.547,316.010 133.224,314.800 133.883 C 313.590 134.543,311.970 135.446,311.200 135.891 C 310.430 136.336,308.450 137.471,306.800 138.414 C 305.150 139.357,303.440 140.442,303.000 140.825 C 302.560 141.208,301.525 141.900,300.700 142.361 C 298.405 143.644,296.801 144.569,294.482 145.944 C 293.318 146.635,292.193 147.200,291.982 147.200 C 291.772 147.200,291.600 147.359,291.600 147.553 C 291.600 147.748,291.285 148.010,290.900 148.136 C 290.515 148.262,289.390 148.844,288.400 149.430 C 283.108 152.562,279.095 154.800,278.768 154.800 C 278.566 154.800,278.400 154.959,278.400 155.153 C 278.400 155.348,278.085 155.610,277.700 155.736 C 277.315 155.862,276.235 156.423,275.300 156.982 C 274.365 157.542,272.835 158.458,271.900 159.018 C 270.965 159.577,269.885 160.138,269.500 160.264 C 269.115 160.390,268.800 160.652,268.800 160.847 C 268.800 161.041,268.628 161.200,268.418 161.200 C 268.207 161.200,267.082 161.765,265.918 162.456 C 264.753 163.147,263.260 164.025,262.600 164.407 C 261.940 164.789,260.230 165.785,258.800 166.620 C 257.370 167.455,254.580 168.978,252.600 170.004 C 248.453 172.153,247.651 172.603,237.400 178.518 C 233.220 180.931,229.215 183.241,228.500 183.652 C 227.785 184.064,226.615 184.737,225.900 185.148 C 225.185 185.560,219.380 188.914,213.000 192.603 C 206.620 196.291,200.050 200.026,198.400 200.903 C 196.750 201.780,195.220 202.640,195.000 202.813 C 194.680 203.066,185.689 208.279,170.100 217.252 C 169.385 217.663,168.215 218.340,167.500 218.755 C 165.964 219.648,156.717 224.972,152.300 227.506 C 148.671 229.589,148.737 229.356,150.866 232.522 C 157.798 242.832,166.954 250.240,178.406 254.802 C 203.744 264.897,234.532 255.394,248.800 233.073 C 250.010 231.180,251.189 229.624,251.420 229.616 C 252.055 229.592,253.993 230.558,253.997 230.900 C 253.999 231.065,254.174 231.200,254.386 231.200 C 254.598 231.200,256.533 232.218,258.686 233.461 C 260.839 234.705,263.185 236.055,263.900 236.461 C 264.615 236.868,265.830 237.560,266.600 238.000 C 267.370 238.440,268.675 239.179,269.500 239.643 C 270.325 240.106,271.180 240.627,271.400 240.800 C 271.620 240.973,272.450 241.477,273.245 241.920 C 276.138 243.531,276.604 243.804,276.800 244.000 C 276.910 244.110,277.430 244.442,277.955 244.738 C 278.480 245.033,279.560 245.644,280.355 246.094 C 281.150 246.545,282.610 247.364,283.600 247.914 C 285.784 249.128,297.172 255.729,299.400 257.071 C 300.280 257.601,301.315 258.138,301.700 258.264 C 302.506 258.528,302.607 259.662,301.937 260.926 C 301.231 262.260,297.982 267.180,296.474 269.200 C 295.735 270.190,294.741 271.527,294.265 272.171 C 293.449 273.276,292.756 274.144,290.411 276.997 C 288.783 278.978,278.352 289.317,276.200 291.083 C 270.919 295.418,263.032 300.843,258.800 303.052 C 257.590 303.683,256.510 304.298,256.400 304.418 C 256.290 304.537,254.490 305.464,252.400 306.478 C 248.944 308.155,247.308 308.894,244.400 310.094 C 243.850 310.321,243.040 310.656,242.600 310.838 C 231.432 315.464,213.582 318.800,200.000 318.800 C 189.571 318.800,175.265 316.719,166.400 313.912 C 160.924 312.178,159.652 311.741,157.500 310.854 C 156.895 310.604,155.995 310.234,155.500 310.031 C 155.005 309.828,153.801 309.333,152.824 308.931 C 145.858 306.064,131.668 297.700,128.000 294.298 C 127.450 293.788,126.621 293.108,126.157 292.786 C 123.239 290.758,113.397 281.402,110.395 277.800 C 105.153 271.513,101.569 266.603,98.790 261.900 C 97.058 258.969,98.047 258.782,89.800 263.600 C 87.820 264.756,85.615 266.040,84.900 266.451 C 84.185 266.863,83.015 267.537,82.300 267.949 C 81.585 268.360,76.410 271.354,70.800 274.600 C 65.190 277.846,59.970 280.859,59.200 281.294 C 58.430 281.729,57.620 282.220,57.400 282.385 C 57.180 282.550,56.010 283.224,54.800 283.883 C 52.452 285.163,51.797 285.536,46.200 288.790 C 44.220 289.941,41.880 291.291,41.000 291.791 C 40.120 292.291,37.150 294.007,34.400 295.605 C 31.650 297.203,28.725 298.879,27.900 299.329 C 26.517 300.085,25.861 301.200,26.800 301.200 C 27.020 301.200,27.200 301.532,27.200 301.939 C 27.200 302.345,27.560 303.093,28.000 303.600 C 28.440 304.107,28.801 304.630,28.803 304.761 C 28.806 304.992,30.597 306.832,33.687 309.781 C 34.504 310.562,35.367 311.200,35.603 311.200 C 35.840 311.200,36.420 311.560,36.892 312.000 C 37.364 312.440,37.987 312.800,38.275 312.800 C 38.564 312.800,38.800 312.980,38.800 313.200 C 38.800 313.420,39.160 313.600,39.600 313.600 C 40.040 313.600,40.400 313.780,40.400 314.000 C 40.400 314.220,40.694 314.400,41.053 314.400 C 41.412 314.400,41.997 314.718,42.353 315.107 C 42.709 315.496,43.900 316.260,45.000 316.806 C 46.100 317.352,47.349 318.114,47.775 318.499 C 48.202 318.885,48.787 319.200,49.075 319.200 C 49.364 319.200,49.600 319.380,49.600 319.600 C 49.600 319.820,49.960 320.000,50.400 320.000 C 50.840 320.000,51.201 320.135,51.203 320.300 C 51.205 320.465,51.610 320.798,52.103 321.040 C 54.379 322.158,56.645 323.442,57.104 323.876 C 57.382 324.137,58.237 324.578,59.004 324.856 C 59.772 325.134,60.400 325.505,60.400 325.680 C 60.400 325.856,60.678 326.000,61.017 326.000 C 61.356 326.000,62.020 326.360,62.492 326.800 C 62.964 327.240,63.587 327.600,63.875 327.600 C 64.164 327.600,64.400 327.780,64.400 328.000 C 64.400 328.220,64.760 328.400,65.200 328.400 C 65.640 328.400,66.000 328.580,66.000 328.800 C 66.000 329.020,66.236 329.200,66.525 329.200 C 66.813 329.200,67.436 329.560,67.908 330.000 C 68.380 330.440,69.044 330.800,69.383 330.800 C 69.722 330.800,70.000 330.980,70.000 331.200 C 70.000 331.420,70.278 331.600,70.617 331.600 C 70.956 331.600,71.620 331.960,72.092 332.400 C 72.564 332.840,73.187 333.200,73.475 333.200 C 73.764 333.200,74.000 333.380,74.000 333.600 C 74.000 333.820,74.360 334.000,74.800 334.000 C 75.240 334.000,75.600 334.180,75.600 334.400 C 75.600 334.620,75.878 334.800,76.217 334.800 C 76.556 334.800,77.194 335.136,77.634 335.546 C 78.075 335.957,79.282 336.719,80.318 337.241 C 81.353 337.762,82.290 338.295,82.400 338.424 C 82.510 338.554,83.410 339.096,84.400 339.630 C 85.390 340.163,86.290 340.707,86.400 340.838 C 86.510 340.970,87.095 341.198,87.700 341.346 C 88.305 341.494,88.800 341.792,88.800 342.008 C 88.800 342.223,89.160 342.400,89.600 342.400 C 90.040 342.400,90.400 342.580,90.400 342.800 C 90.400 343.020,90.694 343.200,91.053 343.200 C 91.412 343.200,91.997 343.529,92.353 343.930 C 92.709 344.332,93.585 344.916,94.300 345.228 C 95.015 345.540,95.600 345.931,95.600 346.098 C 95.600 346.264,95.878 346.400,96.217 346.400 C 96.556 346.400,97.220 346.760,97.692 347.200 C 98.164 347.640,98.787 348.000,99.075 348.000 C 99.364 348.000,99.600 348.180,99.600 348.400 C 99.600 348.620,99.960 348.800,100.400 348.800 C 100.840 348.800,101.200 348.980,101.200 349.200 C 101.200 349.420,101.478 349.600,101.817 349.600 C 102.156 349.600,102.820 349.960,103.292 350.400 C 103.764 350.840,104.387 351.200,104.675 351.200 C 104.964 351.200,105.200 351.380,105.200 351.600 C 105.200 351.820,105.560 352.000,106.000 352.000 C 106.440 352.000,106.800 352.180,106.800 352.400 C 106.800 352.620,107.036 352.800,107.325 352.800 C 107.613 352.800,108.198 353.115,108.625 353.500 C 109.051 353.885,109.938 354.470,110.595 354.800 C 111.252 355.130,112.872 356.049,114.195 356.842 C 115.518 357.636,117.005 358.413,117.500 358.569 C 117.995 358.726,118.400 359.022,118.400 359.227 C 118.400 359.432,118.760 359.600,119.200 359.600 C 119.640 359.600,120.000 359.780,120.000 360.000 C 120.000 360.220,120.360 360.400,120.800 360.400 C 121.240 360.400,121.600 360.580,121.600 360.800 C 121.600 361.020,121.920 361.200,122.312 361.200 C 122.703 361.200,123.283 361.560,123.600 362.000 C 123.917 362.440,124.497 362.800,124.888 362.800 C 125.280 362.800,125.600 362.980,125.600 363.200 C 125.600 363.420,125.878 363.600,126.217 363.600 C 126.556 363.600,127.220 363.960,127.692 364.400 C 128.164 364.840,129.056 365.424,129.675 365.697 C 130.294 365.971,130.800 366.331,130.800 366.498 C 130.800 366.664,131.160 366.800,131.600 366.800 C 132.040 366.800,132.400 366.980,132.400 367.200 C 132.400 367.420,132.636 367.600,132.925 367.600 C 133.213 367.600,133.836 367.960,134.308 368.400 C 134.780 368.840,135.444 369.200,135.783 369.200 C 136.122 369.200,136.400 369.380,136.400 369.600 C 136.400 369.820,136.678 370.000,137.017 370.000 C 137.356 370.000,138.020 370.360,138.492 370.800 C 138.964 371.240,139.587 371.600,139.875 371.600 C 140.164 371.600,140.400 371.780,140.400 372.000 C 140.400 372.220,140.760 372.400,141.200 372.400 C 141.640 372.400,142.000 372.580,142.000 372.800 C 142.000 373.020,142.190 373.200,142.421 373.200 C 142.653 373.200,143.505 373.650,144.314 374.200 C 145.123 374.750,146.104 375.200,146.493 375.200 C 146.882 375.200,147.200 375.380,147.200 375.600 C 147.200 375.820,147.470 376.000,147.800 376.000 C 148.130 376.000,148.400 376.180,148.400 376.400 C 148.400 376.620,148.670 376.800,149.000 376.800 C 149.330 376.800,149.600 376.980,149.600 377.200 C 149.600 377.420,149.960 377.600,150.400 377.600 C 150.840 377.600,151.200 377.780,151.200 378.000 C 151.200 378.220,151.478 378.400,151.817 378.400 C 152.156 378.400,152.820 378.760,153.292 379.200 C 153.764 379.640,154.387 380.000,154.675 380.000 C 154.964 380.000,155.200 380.180,155.200 380.400 C 155.200 380.620,155.560 380.800,156.000 380.800 C 156.440 380.800,156.800 380.980,156.800 381.200 C 156.800 381.420,157.094 381.600,157.453 381.600 C 157.812 381.600,158.397 381.929,158.753 382.330 C 159.109 382.732,159.985 383.316,160.700 383.628 C 161.415 383.940,162.000 384.331,162.000 384.498 C 162.000 384.664,162.278 384.800,162.617 384.800 C 162.956 384.800,163.620 385.160,164.092 385.600 C 164.564 386.040,165.187 386.400,165.475 386.400 C 165.764 386.400,166.000 386.580,166.000 386.800 C 166.000 387.020,166.360 387.200,166.800 387.200 C 167.240 387.200,167.600 387.359,167.600 387.553 C 167.600 387.748,167.915 388.007,168.300 388.129 C 169.236 388.425,171.366 389.724,171.533 390.100 C 171.607 390.265,171.935 390.400,172.262 390.400 C 172.589 390.400,173.127 390.670,173.457 391.000 C 173.787 391.330,174.404 391.600,174.829 391.600 C 175.253 391.600,175.600 391.780,175.600 392.000 C 175.600 392.220,175.960 392.400,176.400 392.400 C 176.840 392.400,177.200 392.580,177.200 392.800 C 177.200 393.020,177.388 393.200,177.617 393.200 C 177.846 393.200,178.420 393.560,178.892 394.000 C 179.364 394.440,179.987 394.800,180.275 394.800 C 180.564 394.800,180.800 394.980,180.800 395.200 C 180.800 395.420,181.160 395.600,181.600 395.600 C 182.040 395.600,182.400 395.780,182.400 396.000 C 182.400 396.220,182.670 396.400,183.000 396.400 C 183.330 396.400,183.600 396.536,183.600 396.702 C 183.600 396.869,184.185 397.240,184.900 397.529 C 185.615 397.817,186.513 398.221,186.895 398.426 C 187.277 398.632,187.847 398.800,188.161 398.800 C 188.476 398.800,188.808 399.025,188.900 399.300 C 189.028 399.684,191.609 399.800,200.000 399.800 C 208.391 399.800,210.972 399.684,211.100 399.300 C 211.192 399.025,211.601 398.800,212.010 398.800 C 212.418 398.800,212.864 398.620,213.000 398.400 C 213.136 398.180,213.687 398.000,214.224 398.000 C 214.761 398.000,215.200 397.820,215.200 397.600 C 215.200 397.380,215.436 397.200,215.725 397.200 C 216.013 397.200,216.636 396.840,217.108 396.400 C 217.580 395.960,218.244 395.600,218.583 395.600 C 218.922 395.600,219.200 395.420,219.200 395.200 C 219.200 394.980,219.478 394.800,219.817 394.800 C 220.156 394.800,220.820 394.440,221.292 394.000 C 221.764 393.560,222.387 393.200,222.675 393.200 C 222.964 393.200,223.200 393.020,223.200 392.800 C 223.200 392.580,223.560 392.400,224.000 392.400 C 224.440 392.400,224.800 392.240,224.800 392.043 C 224.800 391.847,225.250 391.574,225.800 391.436 C 226.350 391.298,226.800 391.008,226.800 390.792 C 226.800 390.577,227.160 390.400,227.600 390.400 C 228.040 390.400,228.400 390.220,228.400 390.000 C 228.400 389.780,228.760 389.600,229.200 389.600 C 229.640 389.600,230.000 389.442,230.000 389.249 C 230.000 389.055,230.540 388.673,231.200 388.400 C 231.860 388.127,232.400 387.745,232.400 387.551 C 232.400 387.358,232.745 387.200,233.167 387.200 C 233.588 387.200,233.993 387.065,234.067 386.900 C 234.234 386.524,236.364 385.225,237.300 384.929 C 237.685 384.807,238.000 384.548,238.000 384.353 C 238.000 384.159,238.360 384.000,238.800 384.000 C 239.240 384.000,239.600 383.820,239.600 383.600 C 239.600 383.380,239.788 383.200,240.017 383.200 C 240.246 383.200,240.820 382.840,241.292 382.400 C 241.764 381.960,242.387 381.600,242.675 381.600 C 242.964 381.600,243.200 381.420,243.200 381.200 C 243.200 380.980,243.560 380.800,244.000 380.800 C 244.440 380.800,244.800 380.620,244.800 380.400 C 244.800 380.180,245.120 380.000,245.512 380.000 C 245.903 380.000,246.483 379.640,246.800 379.200 C 247.117 378.760,247.697 378.400,248.088 378.400 C 248.480 378.400,248.800 378.220,248.800 378.000 C 248.800 377.780,249.160 377.600,249.600 377.600 C 250.040 377.600,250.400 377.420,250.400 377.200 C 250.400 376.980,250.636 376.800,250.925 376.800 C 251.213 376.800,251.836 376.440,252.308 376.000 C 252.780 375.560,253.419 375.200,253.727 375.200 C 254.036 375.200,254.898 374.795,255.644 374.300 C 256.390 373.805,257.540 373.130,258.200 372.801 C 258.860 372.471,259.490 372.111,259.600 372.001 C 259.994 371.605,262.213 370.346,262.900 370.129 C 263.285 370.007,263.600 369.748,263.600 369.553 C 263.600 369.359,263.960 369.200,264.400 369.200 C 264.840 369.200,265.200 369.020,265.200 368.800 C 265.200 368.580,265.436 368.400,265.725 368.400 C 266.013 368.400,266.636 368.040,267.108 367.600 C 267.580 367.160,268.244 366.800,268.583 366.800 C 268.922 366.800,269.200 366.620,269.200 366.400 C 269.200 366.180,269.560 366.000,270.000 366.000 C 270.440 366.000,270.800 365.820,270.800 365.600 C 270.800 365.380,271.070 365.200,271.400 365.200 C 271.730 365.200,272.000 365.020,272.000 364.800 C 272.000 364.580,272.270 364.400,272.600 364.400 C 272.930 364.400,273.200 364.254,273.200 364.075 C 273.200 363.896,273.830 363.502,274.600 363.200 C 275.370 362.898,276.000 362.504,276.000 362.325 C 276.000 362.146,276.236 362.000,276.525 362.000 C 276.813 362.000,277.436 361.640,277.908 361.200 C 278.380 360.760,279.044 360.400,279.383 360.400 C 279.722 360.400,280.000 360.220,280.000 360.000 C 280.000 359.780,280.360 359.600,280.800 359.600 C 281.240 359.600,281.600 359.454,281.600 359.275 C 281.600 359.096,282.455 358.562,283.500 358.087 C 285.470 357.193,287.652 355.971,288.000 355.568 C 288.110 355.440,288.785 355.081,289.500 354.770 C 290.215 354.459,290.800 354.090,290.800 353.951 C 290.800 353.811,291.340 353.473,292.000 353.200 C 292.660 352.927,293.200 352.545,293.200 352.351 C 293.200 352.158,293.560 352.000,294.000 352.000 C 294.440 352.000,294.800 351.820,294.800 351.600 C 294.800 351.380,295.078 351.200,295.417 351.200 C 295.756 351.200,296.420 350.840,296.892 350.400 C 297.364 349.960,297.987 349.600,298.275 349.600 C 298.564 349.600,298.800 349.420,298.800 349.200 C 298.800 348.980,299.160 348.800,299.600 348.800 C 300.040 348.800,300.400 348.620,300.400 348.400 C 300.400 348.180,300.720 348.000,301.112 348.000 C 301.503 348.000,302.083 347.640,302.400 347.200 C 302.717 346.760,303.297 346.400,303.688 346.400 C 304.080 346.400,304.400 346.220,304.400 346.000 C 304.400 345.780,304.760 345.600,305.200 345.600 C 305.640 345.600,306.000 345.420,306.000 345.200 C 306.000 344.980,306.270 344.800,306.600 344.800 C 306.930 344.800,307.200 344.620,307.200 344.400 C 307.200 344.180,307.470 344.000,307.800 344.000 C 308.130 344.000,308.400 343.820,308.400 343.600 C 308.400 343.380,308.670 343.200,309.000 343.200 C 309.330 343.200,309.600 343.020,309.600 342.800 C 309.600 342.580,309.960 342.400,310.400 342.400 C 310.840 342.400,311.200 342.240,311.200 342.043 C 311.200 341.847,311.693 341.563,312.296 341.412 C 312.899 341.260,313.484 341.013,313.596 340.863 C 313.708 340.712,314.655 340.158,315.700 339.632 C 316.745 339.105,317.600 338.523,317.600 338.337 C 317.600 338.152,317.960 338.000,318.400 338.000 C 318.840 338.000,319.200 337.820,319.200 337.600 C 319.200 337.380,319.478 337.200,319.817 337.200 C 320.156 337.200,320.820 336.840,321.292 336.400 C 321.764 335.960,322.387 335.600,322.675 335.600 C 322.964 335.600,323.200 335.454,323.200 335.275 C 323.200 335.096,323.830 334.702,324.600 334.400 C 325.370 334.098,326.000 333.704,326.000 333.525 C 326.000 333.346,326.236 333.200,326.525 333.200 C 326.813 333.200,327.436 332.840,327.908 332.400 C 328.380 331.960,329.044 331.600,329.383 331.600 C 329.722 331.600,330.000 331.420,330.000 331.200 C 330.000 330.980,330.278 330.800,330.617 330.800 C 330.956 330.800,331.620 330.440,332.092 330.000 C 332.564 329.560,333.187 329.200,333.475 329.200 C 333.764 329.200,334.000 329.020,334.000 328.800 C 334.000 328.580,334.360 328.400,334.800 328.400 C 335.240 328.400,335.600 328.220,335.600 328.000 C 335.600 327.780,335.960 327.600,336.400 327.600 C 336.840 327.600,337.200 327.450,337.200 327.268 C 337.200 327.085,337.695 326.680,338.300 326.368 C 338.905 326.056,339.490 325.706,339.600 325.590 C 339.710 325.473,340.565 325.041,341.500 324.628 C 342.435 324.216,343.200 323.726,343.200 323.539 C 343.200 323.353,343.560 323.200,344.000 323.200 C 344.440 323.200,344.800 323.020,344.800 322.800 C 344.800 322.580,345.160 322.400,345.600 322.400 C 346.040 322.400,346.400 322.242,346.400 322.049 C 346.400 321.855,346.940 321.473,347.600 321.200 C 348.260 320.927,348.800 320.545,348.800 320.351 C 348.800 320.158,349.145 320.000,349.567 320.000 C 349.988 320.000,350.393 319.865,350.467 319.700 C 350.634 319.324,352.764 318.025,353.700 317.729 C 354.085 317.607,354.400 317.348,354.400 317.153 C 354.400 316.959,354.760 316.800,355.200 316.800 C 355.640 316.800,356.000 316.620,356.000 316.400 C 356.000 316.180,356.270 316.000,356.600 316.000 C 356.930 316.000,357.200 315.820,357.200 315.600 C 357.200 315.380,357.470 315.200,357.800 315.200 C 358.130 315.200,358.400 315.020,358.400 314.800 C 358.400 314.580,358.670 314.400,359.000 314.400 C 359.330 314.400,359.600 314.220,359.600 314.000 C 359.600 313.780,359.960 313.600,360.400 313.600 C 360.840 313.600,361.200 313.420,361.200 313.200 C 361.200 312.980,361.436 312.800,361.725 312.800 C 362.013 312.800,362.636 312.440,363.108 312.000 C 363.580 311.560,364.159 311.200,364.395 311.200 C 364.630 311.200,365.449 310.615,366.214 309.900 C 369.434 306.892,371.600 304.647,371.600 304.318 C 371.600 304.125,371.960 303.580,372.400 303.108 C 372.840 302.636,373.200 302.013,373.200 301.725 C 373.200 301.436,373.347 301.200,373.526 301.200 C 373.924 301.200,375.200 298.599,375.200 297.786 C 375.200 297.464,375.380 297.200,375.600 297.200 C 375.820 297.200,376.000 296.660,376.000 296.000 C 376.000 295.340,376.180 294.800,376.400 294.800 C 376.620 294.800,376.800 294.260,376.800 293.600 C 376.800 292.940,376.980 292.400,377.200 292.400 C 377.420 292.400,377.600 291.781,377.600 291.024 C 377.600 290.267,377.780 289.536,378.000 289.400 C 378.265 289.236,378.400 258.996,378.400 199.976 C 378.400 140.792,378.265 110.800,378.000 110.800 C 377.780 110.800,377.600 110.080,377.600 109.200 C 377.600 108.320,377.420 107.600,377.200 107.600 C 376.980 107.600,376.800 107.060,376.800 106.400 C 376.800 105.740,376.620 105.200,376.400 105.200 C 376.180 105.200,376.000 104.660,376.000 104.000 C 376.000 103.340,375.820 102.800,375.600 102.800 C 375.380 102.800,375.192 102.485,375.183 102.100 C 375.162 101.201,373.639 98.397,373.617 99.215 M305.510 186.500 L 305.620 192.800 311.577 192.800 C 319.569 192.800,318.800 192.033,318.800 200.000 C 318.800 207.968,319.571 207.200,311.567 207.200 L 305.600 207.200 305.600 213.600 L 305.600 220.000 298.800 220.000 L 292.000 220.000 292.000 213.610 L 292.000 207.220 285.500 207.110 L 279.000 207.000 279.000 200.000 L 279.000 193.000 285.500 192.890 L 292.000 192.780 292.000 186.657 C 292.000 183.289,292.124 180.409,292.276 180.257 C 292.428 180.105,295.443 180.030,298.976 180.090 L 305.400 180.200 305.510 186.500 M354.800 186.400 L 354.800 192.800 360.971 192.800 C 368.894 192.800,368.400 192.331,368.400 199.855 C 368.400 207.745,368.936 207.200,361.186 207.200 L 354.800 207.200 354.800 213.610 L 354.800 220.019 348.100 219.910 L 341.400 219.800 341.290 213.500 L 341.180 207.200 335.070 207.200 C 327.439 207.200,328.000 207.776,328.000 199.934 C 328.000 192.275,327.457 192.800,335.374 192.800 L 341.200 192.800 341.200 186.667 C 341.200 183.293,341.320 180.413,341.467 180.267 C 341.613 180.120,344.673 180.000,348.267 180.000 L 354.800 180.000 354.800 186.400 " stroke="none" fill="#044d8d" fill-rule="evenodd"></path><path id="path3" d="M190.400 81.598 C 189.410 81.751,190.940 81.789,193.800 81.683 C 196.660 81.576,199.075 81.424,199.167 81.344 C 199.451 81.098,192.299 81.305,190.400 81.598 M201.633 81.345 C 201.725 81.424,203.960 81.579,206.600 81.690 C 209.543 81.813,210.704 81.768,209.600 81.575 C 207.799 81.259,201.319 81.072,201.633 81.345 M183.000 82.400 L 181.800 82.705 183.000 82.705 C 183.660 82.705,184.740 82.568,185.400 82.400 L 186.600 82.095 185.400 82.095 C 184.740 82.095,183.660 82.232,183.000 82.400 M213.633 82.149 C 213.725 82.231,214.700 82.401,215.800 82.528 C 217.149 82.684,217.474 82.649,216.800 82.420 C 215.801 82.080,213.318 81.868,213.633 82.149 M178.000 83.200 C 176.643 83.486,176.637 83.495,177.800 83.507 C 178.460 83.515,179.450 83.376,180.000 83.200 C 181.312 82.780,179.996 82.780,178.000 83.200 M220.000 83.180 C 220.999 83.520,223.482 83.732,223.167 83.451 C 223.075 83.369,222.100 83.199,221.000 83.072 C 219.651 82.916,219.326 82.951,220.000 83.180 M224.200 83.981 C 224.968 84.329,227.110 84.556,226.767 84.253 C 226.675 84.172,225.880 83.996,225.000 83.862 C 223.885 83.693,223.642 83.729,224.200 83.981 M170.800 84.800 C 169.996 85.057,169.957 85.123,170.600 85.132 C 171.040 85.138,171.760 84.989,172.200 84.800 C 173.219 84.362,172.168 84.362,170.800 84.800 M227.800 84.800 C 228.240 84.989,228.960 85.138,229.400 85.132 C 230.043 85.123,230.004 85.057,229.200 84.800 C 227.832 84.362,226.781 84.362,227.800 84.800 M166.400 86.018 C 165.962 86.315,166.124 86.352,167.000 86.156 C 168.471 85.827,168.790 85.598,167.767 85.606 C 167.345 85.609,166.730 85.795,166.400 86.018 M231.633 85.744 C 231.725 85.823,232.340 86.008,233.000 86.156 C 233.876 86.352,234.038 86.315,233.600 86.018 C 233.060 85.653,231.232 85.398,231.633 85.744 M145.900 94.229 C 144.405 95.040,144.496 95.378,146.000 94.600 C 146.660 94.259,147.200 93.894,147.200 93.790 C 147.200 93.532,147.157 93.547,145.900 94.229 M133.695 101.411 C 132.543 102.186,131.600 102.908,131.600 103.015 C 131.600 103.121,132.590 102.551,133.800 101.747 C 135.722 100.471,136.287 100.000,135.895 100.000 C 135.837 100.000,134.847 100.635,133.695 101.411 M264.000 100.097 C 264.000 100.202,265.035 100.970,266.300 101.806 C 267.565 102.641,269.680 104.145,271.000 105.147 C 272.320 106.150,273.180 106.694,272.911 106.357 C 272.132 105.381,264.000 99.669,264.000 100.097 M125.985 107.229 L 124.600 108.458 126.100 107.381 C 127.426 106.430,127.857 106.000,127.485 106.000 C 127.422 106.000,126.747 106.553,125.985 107.229 M117.781 114.477 C 114.791 117.380,111.607 120.665,110.704 121.777 C 109.801 122.890,110.541 122.233,112.348 120.317 C 114.156 118.401,117.467 115.116,119.706 113.017 C 121.946 110.918,123.652 109.200,123.497 109.200 C 123.343 109.200,120.770 111.575,117.781 114.477 M276.400 109.290 C 276.400 109.377,277.435 110.328,278.700 111.403 C 279.965 112.479,280.640 112.944,280.200 112.436 C 279.364 111.471,276.400 109.017,276.400 109.290 M288.989 121.700 C 290.283 123.185,291.417 124.400,291.508 124.400 C 291.773 124.400,288.583 120.681,287.562 119.800 C 287.053 119.360,287.695 120.215,288.989 121.700 M107.544 125.500 C 106.393 126.889,105.906 127.600,106.104 127.600 C 106.214 127.600,106.786 126.970,107.373 126.200 C 108.463 124.771,108.595 124.232,107.544 125.500 M292.006 125.033 C 292.009 125.235,292.656 126.120,293.444 127.000 L 294.876 128.600 293.561 126.800 C 292.837 125.810,292.190 124.925,292.123 124.833 C 292.055 124.742,292.003 124.832,292.006 125.033 M296.208 130.758 C 297.015 131.881,297.757 132.800,297.857 132.800 C 298.132 132.800,295.652 129.280,295.166 128.979 C 294.932 128.835,295.401 129.635,296.208 130.758 M101.687 133.300 C 100.227 135.456,99.912 136.000,100.120 136.000 C 100.212 136.000,100.944 135.010,101.747 133.800 C 102.551 132.590,103.125 131.600,103.023 131.600 C 102.922 131.600,102.320 132.365,101.687 133.300 M298.622 134.300 C 300.759 137.595,301.324 138.400,301.499 138.400 C 301.605 138.400,301.371 137.905,300.978 137.300 C 298.841 134.005,298.276 133.200,298.101 133.200 C 297.995 133.200,298.229 133.695,298.622 134.300 M194.200 141.157 C 193.320 141.291,195.930 141.400,200.000 141.401 C 204.089 141.401,206.595 141.280,205.600 141.130 C 203.427 140.803,196.420 140.819,194.200 141.157 M188.400 142.000 L 187.400 142.320 188.400 142.354 C 188.950 142.373,189.670 142.213,190.000 142.000 C 190.764 141.506,189.942 141.506,188.400 142.000 M210.000 141.994 C 210.330 142.211,211.035 142.391,211.567 142.394 C 212.851 142.402,212.525 142.175,210.800 141.858 C 209.815 141.677,209.578 141.718,210.000 141.994 M185.000 142.800 C 184.229 143.131,184.231 143.145,185.076 143.172 C 185.558 143.187,186.064 143.020,186.200 142.800 C 186.492 142.327,186.101 142.327,185.000 142.800 M213.600 142.800 C 213.930 143.013,214.560 143.178,215.000 143.166 L 215.800 143.144 215.000 142.800 C 213.804 142.286,212.805 142.286,213.600 142.800 M216.600 143.600 C 216.736 143.820,217.242 143.987,217.724 143.972 C 218.569 143.945,218.571 143.931,217.800 143.600 C 216.699 143.127,216.308 143.127,216.600 143.600 M179.000 144.778 C 178.120 145.195,177.580 145.536,177.800 145.538 C 178.346 145.542,181.502 144.064,181.000 144.040 C 180.780 144.030,179.880 144.362,179.000 144.778 M174.489 146.661 C 173.329 147.239,172.442 147.775,172.519 147.852 C 172.682 148.016,176.800 146.007,176.800 145.764 C 176.800 145.516,176.755 145.533,174.489 146.661 M224.800 146.583 C 224.800 146.763,227.202 148.000,227.550 148.000 C 227.897 148.000,226.294 146.967,225.500 146.679 C 225.115 146.539,224.800 146.496,224.800 146.583 M167.400 150.643 C 166.300 151.413,165.131 152.200,164.803 152.391 C 164.475 152.583,164.295 152.813,164.403 152.901 C 164.511 152.990,165.848 152.194,167.374 151.131 C 168.900 150.069,169.980 149.210,169.774 149.222 C 169.568 149.234,168.500 149.874,167.400 150.643 M230.000 149.298 C 230.553 149.870,236.823 153.961,236.605 153.608 C 236.318 153.144,232.328 150.393,230.800 149.607 C 230.250 149.323,229.890 149.185,230.000 149.298 M159.600 156.931 C 158.390 158.094,156.773 159.755,156.007 160.623 C 155.240 161.490,156.275 160.584,158.307 158.608 C 160.338 156.633,162.000 154.968,162.000 154.908 C 162.000 154.661,161.698 154.915,159.600 156.931 M240.000 156.866 C 241.210 158.067,242.981 159.907,243.936 160.955 C 244.891 162.003,245.729 162.802,245.799 162.730 C 246.003 162.519,241.556 157.827,239.600 156.190 C 238.041 154.886,238.094 154.976,240.000 156.866 M246.740 164.316 C 247.233 165.009,247.844 165.704,248.097 165.860 C 248.350 166.017,248.154 165.577,247.660 164.884 C 247.167 164.191,246.556 163.496,246.303 163.340 C 246.050 163.183,246.246 163.623,246.740 164.316 M150.872 167.047 C 149.921 168.493,149.201 169.730,149.272 169.794 C 149.342 169.858,150.243 168.671,151.274 167.156 C 152.305 165.640,153.025 164.404,152.874 164.408 C 152.723 164.413,151.822 165.600,150.872 167.047 M85.849 166.615 C 85.712 166.973,85.615 167.566,85.634 167.933 C 85.653 168.300,85.827 168.069,86.021 167.420 C 86.398 166.158,86.265 165.533,85.849 166.615 M250.392 169.500 C 250.844 170.433,251.772 170.693,252.197 170.005 C 252.339 169.775,252.173 169.712,251.802 169.855 C 251.423 170.000,250.915 169.794,250.559 169.350 C 249.991 168.644,249.981 168.653,250.392 169.500 M84.650 171.250 C 84.317 172.917,84.640 173.240,85.000 171.600 C 85.152 170.909,85.193 170.259,85.091 170.158 C 84.989 170.056,84.791 170.547,84.650 171.250 M146.786 174.298 C 146.268 175.344,145.779 176.335,145.698 176.500 C 145.618 176.665,145.637 176.800,145.741 176.800 C 145.992 176.800,148.028 172.695,147.860 172.527 C 147.788 172.454,147.304 173.251,146.786 174.298 M83.055 178.655 C 82.913 179.686,82.874 180.608,82.969 180.702 C 83.063 180.796,83.265 180.039,83.418 179.018 C 83.571 177.998,83.610 177.076,83.504 176.971 C 83.398 176.865,83.196 177.623,83.055 178.655 M292.162 187.000 C 292.162 190.520,292.224 191.906,292.298 190.081 C 292.372 188.256,292.372 185.376,292.297 183.681 C 292.222 181.986,292.161 183.480,292.162 187.000 M354.561 186.800 C 354.561 190.210,354.622 191.605,354.697 189.900 C 354.772 188.195,354.772 185.405,354.697 183.700 C 354.622 181.995,354.561 183.390,354.561 186.800 M82.200 184.000 C 82.045 185.128,82.008 186.141,82.118 186.251 C 82.228 186.361,82.445 185.528,82.600 184.400 C 82.755 183.272,82.792 182.259,82.682 182.149 C 82.572 182.039,82.355 182.872,82.200 184.000 M142.846 184.667 C 142.821 184.924,142.684 185.464,142.541 185.867 C 142.340 186.436,142.394 186.497,142.779 186.142 C 143.052 185.891,143.189 185.351,143.084 184.942 C 142.979 184.534,142.872 184.410,142.846 184.667 M142.049 188.000 C 142.016 188.330,141.889 189.050,141.767 189.600 C 141.575 190.464,141.607 190.503,141.999 189.888 C 142.248 189.497,142.375 188.777,142.281 188.288 C 142.186 187.800,142.082 187.670,142.049 188.000 M81.467 191.160 C 81.320 192.567,81.226 194.816,81.257 196.159 C 81.297 197.880,81.413 197.244,81.650 194.000 C 82.018 188.974,81.895 187.069,81.467 191.160 M141.059 194.900 C 140.739 197.564,140.777 203.255,141.130 205.600 C 141.281 206.602,141.402 204.165,141.403 200.100 C 141.405 191.940,141.409 191.990,141.059 194.900 M367.599 199.919 L 367.797 206.200 367.910 200.231 C 367.972 196.948,367.882 194.122,367.711 193.950 C 367.540 193.778,367.489 196.464,367.599 199.919 M81.235 204.433 C 81.254 206.065,81.412 208.300,81.585 209.400 C 81.783 210.658,81.824 209.619,81.695 206.600 C 81.464 201.220,81.181 199.887,81.235 204.433 M292.162 213.000 C 292.162 216.520,292.224 217.906,292.298 216.081 C 292.372 214.256,292.372 211.376,292.297 209.681 C 292.222 207.986,292.161 209.480,292.162 213.000 M354.561 213.200 C 354.561 216.610,354.622 218.005,354.697 216.300 C 354.772 214.595,354.772 211.805,354.697 210.100 C 354.622 208.395,354.561 209.790,354.561 213.200 M141.646 210.000 C 141.665 210.330,141.824 211.050,142.000 211.600 L 142.320 212.600 142.354 211.600 C 142.373 211.050,142.213 210.330,142.000 210.000 C 141.655 209.467,141.616 209.467,141.646 210.000 M82.095 214.600 C 82.095 215.260,82.232 216.340,82.400 217.000 L 82.705 218.200 82.705 217.000 C 82.705 216.340,82.568 215.260,82.400 214.600 L 82.095 213.400 82.095 214.600 M142.428 213.876 C 142.518 214.915,143.144 215.796,143.172 214.924 C 143.187 214.442,143.020 213.936,142.800 213.800 C 142.580 213.664,142.413 213.698,142.428 213.876 M145.698 223.500 C 147.076 226.337,147.753 227.581,147.860 227.473 C 148.028 227.305,145.992 223.200,145.741 223.200 C 145.637 223.200,145.618 223.335,145.698 223.500 M84.468 227.600 C 84.488 228.639,85.118 230.346,85.132 229.400 C 85.138 228.960,84.989 228.240,84.800 227.800 C 84.589 227.310,84.461 227.232,84.468 227.600 M85.606 232.233 C 85.609 232.655,85.795 233.270,86.018 233.600 C 86.315 234.038,86.352 233.876,86.156 233.000 C 85.827 231.529,85.598 231.210,85.606 232.233 M87.819 239.401 C 87.975 240.060,88.257 240.768,88.445 240.973 C 88.632 241.178,88.615 240.749,88.405 240.019 C 87.918 238.318,87.444 237.819,87.819 239.401 M241.781 242.100 L 240.200 243.800 241.900 242.219 C 242.835 241.349,243.600 240.584,243.600 240.519 C 243.600 240.216,243.252 240.519,241.781 242.100 M197.700 259.496 C 198.965 259.575,201.035 259.575,202.300 259.496 C 203.565 259.416,202.530 259.351,200.000 259.351 C 197.470 259.351,196.435 259.416,197.700 259.496 M287.375 279.700 L 286.200 281.000 287.500 279.825 C 288.215 279.179,288.800 278.594,288.800 278.525 C 288.800 278.216,288.470 278.488,287.375 279.700 M116.200 283.600 C 118.392 285.800,120.275 287.600,120.385 287.600 C 120.495 287.600,118.792 285.800,116.600 283.600 C 114.408 281.400,112.525 279.600,112.415 279.600 C 112.305 279.600,114.008 281.400,116.200 283.600 M279.375 287.700 L 278.200 289.000 279.500 287.825 C 280.215 287.179,280.800 286.594,280.800 286.525 C 280.800 286.216,280.470 286.488,279.375 287.700 M194.300 318.289 C 195.015 318.378,196.185 318.378,196.900 318.289 C 197.615 318.201,197.030 318.128,195.600 318.128 C 194.170 318.128,193.585 318.201,194.300 318.289 M204.300 318.282 C 204.795 318.378,205.605 318.378,206.100 318.282 C 206.595 318.187,206.190 318.109,205.200 318.109 C 204.210 318.109,203.805 318.187,204.300 318.282 " stroke="none" fill="#9ebddb" fill-rule="evenodd"></path><path id="path4" d="M195.600 81.617 C 192.761 81.789,193.915 81.866,200.167 81.923 C 204.768 81.966,208.458 81.935,208.367 81.855 C 208.026 81.557,199.270 81.394,195.600 81.617 M185.400 82.413 C 184.690 82.601,185.506 82.641,187.400 82.512 C 189.160 82.391,190.675 82.226,190.767 82.146 C 191.080 81.871,186.603 82.094,185.400 82.413 M209.633 82.151 C 209.725 82.235,211.240 82.404,213.000 82.527 C 215.350 82.692,215.775 82.658,214.600 82.399 C 213.006 82.047,209.316 81.864,209.633 82.151 M180.000 83.213 C 179.354 83.429,179.780 83.466,181.200 83.319 C 182.410 83.194,183.475 83.026,183.567 82.946 C 183.887 82.665,180.991 82.883,180.000 83.213 M216.833 82.949 C 216.925 83.031,217.900 83.201,219.000 83.328 C 220.349 83.484,220.674 83.449,220.000 83.220 C 219.001 82.880,216.518 82.668,216.833 82.949 M175.400 84.000 L 174.600 84.344 175.400 84.332 C 175.840 84.326,176.650 84.176,177.200 84.000 L 178.200 83.680 177.200 83.668 C 176.650 83.662,175.840 83.811,175.400 84.000 M222.600 84.000 C 223.040 84.189,223.760 84.344,224.200 84.344 L 225.000 84.344 224.200 84.000 C 223.760 83.811,223.040 83.656,222.600 83.656 L 221.800 83.656 222.600 84.000 M172.200 84.800 C 171.181 85.238,172.232 85.238,173.600 84.800 C 174.404 84.543,174.443 84.477,173.800 84.468 C 173.360 84.462,172.640 84.611,172.200 84.800 M226.400 84.800 C 227.768 85.238,228.819 85.238,227.800 84.800 C 227.360 84.611,226.640 84.462,226.200 84.468 C 225.557 84.477,225.596 84.543,226.400 84.800 M169.000 85.600 C 168.496 85.817,168.422 85.944,168.800 85.944 C 169.130 85.944,169.760 85.789,170.200 85.600 C 170.704 85.383,170.778 85.256,170.400 85.256 C 170.070 85.256,169.440 85.411,169.000 85.600 M229.400 85.600 C 229.840 85.789,230.560 85.944,231.000 85.944 L 231.800 85.944 231.000 85.600 C 230.560 85.411,229.840 85.256,229.400 85.256 L 228.600 85.256 229.400 85.600 M166.200 86.400 L 165.400 86.744 166.200 86.766 C 166.640 86.778,167.270 86.613,167.600 86.400 C 168.395 85.886,167.396 85.886,166.200 86.400 M163.600 87.200 C 163.067 87.545,163.067 87.588,163.600 87.588 C 163.930 87.588,164.470 87.413,164.800 87.200 C 165.333 86.855,165.333 86.812,164.800 86.812 C 164.470 86.812,163.930 86.987,163.600 87.200 M152.000 91.631 C 148.552 93.190,145.974 94.508,146.110 94.643 C 146.185 94.718,147.721 94.064,149.523 93.190 C 151.326 92.315,152.970 91.600,153.177 91.600 C 153.384 91.600,153.664 91.420,153.800 91.200 C 154.124 90.676,154.100 90.682,152.000 91.631 M251.200 93.363 C 251.200 93.438,252.505 94.173,254.100 94.994 C 255.695 95.816,257.810 96.930,258.800 97.469 C 259.790 98.009,260.166 98.124,259.637 97.725 C 257.986 96.483,251.200 92.974,251.200 93.363 M142.000 96.655 C 139.660 97.983,138.932 98.726,141.000 97.675 C 142.549 96.889,144.408 95.621,144.000 95.630 C 143.890 95.632,142.990 96.093,142.000 96.655 M134.200 101.445 C 131.780 103.100,129.530 104.734,129.200 105.075 C 128.665 105.629,138.042 99.546,138.980 98.730 C 140.407 97.490,137.915 98.906,134.200 101.445 M260.833 98.561 C 261.405 99.113,271.204 105.530,271.020 105.232 C 270.733 104.768,261.357 98.400,260.961 98.400 C 260.799 98.400,260.742 98.472,260.833 98.561 M125.400 107.924 C 120.975 111.446,110.069 122.594,106.545 127.200 C 102.891 131.974,98.254 138.787,98.495 139.028 C 98.584 139.117,99.963 137.216,101.561 134.805 C 104.175 130.859,105.399 129.206,109.713 123.800 C 113.200 119.431,124.252 108.962,128.164 106.322 C 128.391 106.169,128.492 105.965,128.388 105.870 C 128.285 105.774,126.940 106.699,125.400 107.924 M271.619 105.852 C 271.630 106.043,272.651 106.920,273.889 107.800 C 276.580 109.713,287.061 119.816,289.600 122.943 C 290.590 124.163,291.557 125.170,291.749 125.181 C 292.197 125.206,287.430 119.827,283.790 116.200 C 279.350 111.776,271.582 105.172,271.619 105.852 M292.446 126.184 C 293.020 127.155,296.474 131.600,296.653 131.600 C 296.911 131.600,294.675 128.533,293.288 126.984 C 292.690 126.316,292.311 125.956,292.446 126.184 M301.014 138.588 C 301.601 139.589,301.935 140.601,301.772 140.888 C 301.547 141.286,301.597 141.294,301.995 140.926 C 302.469 140.488,300.835 136.800,300.166 136.800 C 300.056 136.800,300.438 137.605,301.014 138.588 M97.505 140.500 C 96.619 141.860,95.454 144.255,95.901 143.800 C 96.453 143.237,98.517 139.600,98.284 139.600 C 98.178 139.600,97.828 140.005,97.505 140.500 M194.400 140.753 C 193.630 140.889,196.131 141.000,199.958 141.000 C 203.785 141.000,206.215 140.875,205.358 140.723 C 203.478 140.389,196.350 140.408,194.400 140.753 M190.300 141.482 C 190.795 141.578,191.605 141.578,192.100 141.482 C 192.595 141.387,192.190 141.309,191.200 141.309 C 190.210 141.309,189.805 141.387,190.300 141.482 M207.233 141.344 C 207.325 141.424,208.480 141.589,209.800 141.712 C 211.291 141.851,211.821 141.811,211.200 141.607 C 210.212 141.284,206.911 141.065,207.233 141.344 M185.200 142.406 C 184.778 142.682,185.015 142.723,186.000 142.542 C 187.725 142.225,188.051 141.998,186.767 142.006 C 186.235 142.009,185.530 142.189,185.200 142.406 M212.433 142.143 C 212.525 142.221,213.230 142.401,214.000 142.542 C 214.985 142.723,215.222 142.682,214.800 142.406 C 214.258 142.050,212.037 141.803,212.433 142.143 M182.400 143.218 C 181.962 143.515,182.124 143.552,183.000 143.356 C 184.471 143.027,184.790 142.798,183.767 142.806 C 183.345 142.809,182.730 142.995,182.400 143.218 M215.633 142.944 C 215.725 143.023,216.340 143.208,217.000 143.356 C 217.876 143.552,218.038 143.515,217.600 143.218 C 217.060 142.853,215.232 142.598,215.633 142.944 M93.986 147.095 C 93.250 148.583,92.581 149.935,92.500 150.100 C 92.419 150.265,92.436 150.400,92.537 150.400 C 92.786 150.400,95.622 144.689,95.456 144.523 C 95.384 144.450,94.722 145.608,93.986 147.095 M177.000 145.229 C 176.120 145.652,175.850 145.886,176.400 145.749 C 177.533 145.467,179.612 144.425,179.000 144.446 C 178.780 144.453,177.880 144.806,177.000 145.229 M171.276 147.883 C 170.328 148.435,169.626 148.959,169.716 149.049 C 169.892 149.226,173.600 147.238,173.600 146.966 C 173.600 146.646,172.985 146.889,171.276 147.883 M226.620 147.140 C 227.259 147.712,231.600 150.073,231.600 149.849 C 231.600 149.733,230.510 149.000,229.179 148.219 C 226.857 146.858,225.813 146.418,226.620 147.140 M287.500 149.029 C 286.005 149.840,286.096 150.178,287.600 149.400 C 288.260 149.059,288.800 148.694,288.800 148.590 C 288.800 148.332,288.757 148.347,287.500 149.029 M92.000 150.884 C 92.000 151.004,91.728 151.754,91.395 152.551 C 91.062 153.348,90.879 154.000,90.989 154.000 C 91.306 154.000,92.433 151.100,92.205 150.872 C 92.092 150.759,92.000 150.765,92.000 150.884 M234.986 152.185 C 236.596 153.474,240.646 157.032,241.953 158.307 C 242.698 159.033,243.384 159.549,243.478 159.455 C 243.699 159.234,236.056 152.466,235.000 151.948 C 234.208 151.560,234.208 151.562,234.986 152.185 M158.020 158.020 C 155.783 160.256,154.042 162.176,154.152 162.285 C 154.261 162.394,154.947 161.800,155.675 160.965 C 156.404 160.129,157.550 158.895,158.223 158.223 C 158.895 157.550,160.129 156.404,160.965 155.675 C 161.800 154.947,162.394 154.261,162.285 154.152 C 162.176 154.042,160.256 155.783,158.020 158.020 M245.676 162.400 C 246.844 163.830,248.520 166.123,249.400 167.497 C 250.280 168.870,251.270 169.980,251.600 169.965 C 252.004 169.946,252.038 169.871,251.704 169.736 C 251.431 169.626,250.392 168.320,249.395 166.835 C 248.399 165.349,246.676 163.159,245.568 161.967 L 243.552 159.800 245.676 162.400 M87.000 164.000 C 86.850 164.473,86.817 164.950,86.927 165.060 C 87.037 165.170,87.250 164.873,87.400 164.400 C 87.550 163.927,87.583 163.450,87.473 163.340 C 87.363 163.230,87.150 163.527,87.000 164.000 M259.100 165.429 C 257.605 166.240,257.696 166.578,259.200 165.800 C 259.860 165.459,260.400 165.094,260.400 164.990 C 260.400 164.732,260.357 164.747,259.100 165.429 M86.229 166.629 C 86.081 167.215,86.038 167.772,86.132 167.866 C 86.227 167.960,86.424 167.558,86.571 166.971 C 86.719 166.385,86.762 165.828,86.668 165.734 C 86.573 165.640,86.376 166.042,86.229 166.629 M85.429 169.429 C 85.281 170.015,85.238 170.572,85.332 170.666 C 85.427 170.760,85.624 170.358,85.771 169.771 C 85.919 169.185,85.962 168.628,85.868 168.534 C 85.773 168.440,85.576 168.842,85.429 169.429 M147.840 171.440 C 147.262 172.475,146.860 173.394,146.948 173.482 C 147.036 173.570,147.582 172.795,148.160 171.760 C 148.738 170.725,149.140 169.806,149.052 169.718 C 148.964 169.630,148.418 170.405,147.840 171.440 M84.600 172.800 C 84.448 173.491,84.407 174.141,84.509 174.242 C 84.611 174.344,84.809 173.853,84.950 173.150 C 85.283 171.483,84.960 171.160,84.600 172.800 M83.778 176.178 C 83.627 176.981,83.594 177.727,83.704 177.837 C 83.814 177.947,84.027 177.381,84.178 176.578 C 84.328 175.775,84.362 175.028,84.252 174.918 C 84.142 174.808,83.928 175.375,83.778 176.178 M83.053 180.436 C 82.914 181.131,82.821 182.173,82.847 182.750 C 82.872 183.328,83.055 182.827,83.252 181.639 C 83.637 179.321,83.473 178.334,83.053 180.436 M298.589 180.694 L 304.779 180.820 304.906 186.811 L 305.032 192.801 305.016 186.700 L 305.000 180.600 298.700 180.584 L 292.399 180.569 298.589 180.694 M345.119 180.698 C 346.944 180.772,349.824 180.772,351.519 180.697 C 353.214 180.622,351.720 180.561,348.200 180.562 C 344.680 180.562,343.294 180.624,345.119 180.698 M143.049 182.615 C 142.912 182.973,142.815 183.566,142.834 183.933 C 142.853 184.300,143.027 184.069,143.221 183.420 C 143.598 182.158,143.465 181.533,143.049 182.615 M82.272 185.804 C 82.127 186.682,82.030 188.210,82.056 189.200 C 82.093 190.603,82.180 190.339,82.451 188.000 C 82.828 184.753,82.701 183.205,82.272 185.804 M142.249 185.415 C 142.112 185.773,142.018 186.456,142.041 186.933 C 142.067 187.481,142.203 187.286,142.410 186.403 C 142.760 184.916,142.665 184.333,142.249 185.415 M140.874 193.511 C 140.268 198.403,140.315 202.842,141.019 207.200 C 141.363 209.331,141.500 209.779,141.387 208.400 C 140.759 200.774,140.723 198.064,141.201 194.188 C 141.487 191.877,141.638 189.904,141.537 189.804 C 141.437 189.704,141.139 191.372,140.874 193.511 M81.530 196.500 C 81.424 198.975,81.455 202.620,81.600 204.600 C 81.807 207.446,81.876 206.503,81.931 200.100 C 82.007 191.160,81.827 189.546,81.530 196.500 M354.502 193.200 C 354.639 193.700,355.722 193.803,361.033 193.817 L 367.400 193.833 361.217 193.706 C 356.927 193.617,354.927 193.428,354.686 193.089 C 354.436 192.736,354.385 192.767,354.502 193.200 M285.600 193.600 L 279.000 193.830 285.476 193.915 C 289.457 193.967,292.048 193.846,292.200 193.600 C 292.336 193.380,292.392 193.238,292.324 193.285 C 292.256 193.332,289.230 193.473,285.600 193.600 M305.461 193.700 C 305.563 193.865,308.427 194.000,311.824 194.000 L 318.000 194.000 318.000 200.000 L 318.000 206.000 311.824 206.000 C 308.427 206.000,305.563 206.135,305.461 206.300 C 305.358 206.465,308.183 206.510,311.737 206.400 L 318.200 206.200 318.200 200.000 L 318.200 193.800 311.737 193.600 C 308.183 193.490,305.358 193.535,305.461 193.700 M332.319 193.898 C 334.144 193.972,337.024 193.972,338.719 193.897 C 340.414 193.822,338.920 193.761,335.400 193.762 C 331.880 193.762,330.494 193.824,332.319 193.898 M328.584 200.100 L 328.600 206.200 334.900 206.216 L 341.201 206.231 335.011 206.106 L 328.821 205.980 328.694 199.989 L 328.568 193.999 328.584 200.100 M281.200 206.271 C 286.523 206.560,292.311 206.575,292.139 206.300 C 292.037 206.135,289.038 206.034,285.476 206.076 C 281.914 206.117,279.990 206.205,281.200 206.271 M354.667 206.267 C 354.520 206.413,354.403 206.728,354.406 206.967 C 354.410 207.231,354.533 207.210,354.723 206.911 C 354.942 206.567,356.935 206.385,361.417 206.300 L 367.800 206.178 361.367 206.089 C 357.828 206.040,354.813 206.120,354.667 206.267 M304.888 213.090 L 304.800 219.180 298.500 219.301 L 292.200 219.422 298.513 219.511 C 305.968 219.616,305.261 220.338,305.100 212.782 L 304.976 207.000 304.888 213.090 M82.047 211.233 C 82.073 212.425,82.238 213.940,82.413 214.600 C 82.601 215.310,82.641 214.494,82.512 212.600 C 82.257 208.892,81.978 208.070,82.047 211.233 M142.006 213.233 C 142.009 213.765,142.189 214.470,142.406 214.800 C 142.682 215.222,142.723 214.985,142.542 214.000 C 142.225 212.275,141.998 211.949,142.006 213.233 M142.806 216.233 C 142.809 216.655,142.995 217.270,143.218 217.600 C 143.515 218.038,143.552 217.876,143.356 217.000 C 143.027 215.529,142.798 215.210,142.806 216.233 M82.893 217.800 C 82.894 218.460,83.032 219.540,83.200 220.200 C 83.623 221.863,83.642 220.226,83.223 218.200 C 82.945 216.855,82.892 216.791,82.893 217.800 M345.119 219.498 C 346.944 219.572,349.824 219.572,351.519 219.497 C 353.214 219.422,351.720 219.361,348.200 219.362 C 344.680 219.362,343.294 219.424,345.119 219.498 M83.668 222.800 C 83.662 223.350,83.811 224.160,84.000 224.600 L 84.344 225.400 84.332 224.600 C 84.326 224.160,84.176 223.350,84.000 222.800 L 83.680 221.800 83.668 222.800 M84.468 226.200 C 84.462 226.640,84.611 227.360,84.800 227.800 C 85.238 228.819,85.238 227.768,84.800 226.400 C 84.543 225.596,84.477 225.557,84.468 226.200 M146.800 226.590 C 146.800 226.695,147.159 227.370,147.599 228.090 C 148.538 229.631,148.669 229.281,147.790 227.580 C 147.241 226.519,146.800 226.078,146.800 226.590 M85.256 229.600 C 85.256 229.930,85.411 230.560,85.600 231.000 C 85.817 231.504,85.944 231.578,85.944 231.200 C 85.944 230.870,85.789 230.240,85.600 229.800 C 85.383 229.296,85.256 229.222,85.256 229.600 M250.953 230.500 C 249.578 232.832,249.486 233.035,250.185 232.200 C 250.553 231.760,250.996 231.155,251.169 230.855 C 251.419 230.421,251.679 230.405,252.441 230.777 C 253.351 231.220,253.360 231.212,252.624 230.622 C 251.684 229.869,251.339 229.844,250.953 230.500 M86.056 232.400 C 86.056 232.730,86.211 233.360,86.400 233.800 C 86.617 234.304,86.744 234.378,86.744 234.000 C 86.744 233.670,86.589 233.040,86.400 232.600 C 86.183 232.096,86.056 232.022,86.056 232.400 M86.812 235.200 C 86.812 235.530,86.987 236.070,87.200 236.400 C 87.545 236.933,87.588 236.933,87.588 236.400 C 87.588 236.070,87.413 235.530,87.200 235.200 C 86.855 234.667,86.812 234.667,86.812 235.200 M244.401 239.398 C 243.886 239.948,243.539 240.464,243.632 240.546 C 243.724 240.628,244.219 240.178,244.730 239.547 C 245.876 238.135,245.674 238.044,244.401 239.398 M88.412 240.000 C 88.412 240.330,88.587 240.870,88.800 241.200 C 89.145 241.733,89.188 241.733,89.188 241.200 C 89.188 240.870,89.013 240.330,88.800 240.000 C 88.455 239.467,88.412 239.467,88.412 240.000 M159.200 243.325 C 159.200 243.394,159.785 243.979,160.500 244.625 L 161.800 245.800 160.625 244.500 C 159.530 243.288,159.200 243.016,159.200 243.325 M239.170 244.700 L 238.200 245.800 239.400 244.800 C 240.060 244.250,240.675 243.755,240.767 243.700 C 240.858 243.645,240.755 243.600,240.536 243.600 C 240.318 243.600,239.703 244.095,239.170 244.700 M91.407 247.479 C 92.007 248.914,92.400 249.562,92.400 249.116 C 92.400 248.684,91.185 246.000,90.989 246.000 C 90.879 246.000,91.067 246.666,91.407 247.479 M280.800 247.164 C 281.350 247.614,281.980 247.983,282.200 247.985 C 282.628 247.988,281.905 247.434,280.600 246.760 C 280.069 246.485,280.136 246.621,280.800 247.164 M164.033 247.730 C 164.125 247.801,164.830 248.266,165.600 248.763 L 167.000 249.666 165.800 248.635 C 165.140 248.068,164.435 247.603,164.233 247.602 C 164.032 247.601,163.942 247.658,164.033 247.730 M283.600 248.764 C 284.150 249.214,284.780 249.583,285.000 249.585 C 285.428 249.588,284.705 249.034,283.400 248.360 C 282.869 248.085,282.936 248.221,283.600 248.764 M167.800 250.207 C 168.240 250.566,168.960 251.035,169.400 251.251 L 170.200 251.644 169.400 250.993 C 168.960 250.634,168.240 250.165,167.800 249.949 L 167.000 249.556 167.800 250.207 M286.400 250.420 C 287.787 251.361,288.578 251.635,287.600 250.836 C 287.050 250.386,286.420 250.017,286.200 250.015 C 285.980 250.013,286.070 250.196,286.400 250.420 M93.600 252.099 C 93.600 252.606,96.924 258.637,97.513 259.200 C 98.062 259.723,98.059 259.666,97.494 258.749 C 97.138 258.172,96.190 256.462,95.389 254.949 C 93.922 252.184,93.600 251.670,93.600 252.099 M187.600 258.382 C 187.930 258.605,188.545 258.791,188.967 258.794 C 189.990 258.802,189.671 258.573,188.200 258.244 C 187.324 258.048,187.162 258.085,187.600 258.382 M192.600 259.190 C 193.364 259.528,195.914 259.757,195.567 259.456 C 195.475 259.376,194.590 259.204,193.600 259.073 C 192.398 258.914,192.066 258.953,192.600 259.190 M205.600 259.200 C 204.233 259.488,204.228 259.495,205.400 259.519 C 206.060 259.533,206.960 259.389,207.400 259.200 C 208.362 258.787,207.564 258.787,205.600 259.200 M100.749 264.200 C 100.965 264.640,101.434 265.360,101.793 265.800 L 102.444 266.600 102.051 265.800 C 101.835 265.360,101.366 264.640,101.007 264.200 L 100.356 263.400 100.749 264.200 M287.978 278.700 L 286.600 280.200 288.100 278.822 C 288.925 278.063,289.600 277.388,289.600 277.322 C 289.600 277.016,289.262 277.304,287.978 278.700 M113.000 280.000 C 114.083 281.100,115.060 282.000,115.170 282.000 C 115.280 282.000,114.483 281.100,113.400 280.000 C 112.317 278.900,111.340 278.000,111.230 278.000 C 111.120 278.000,111.917 278.900,113.000 280.000 M283.385 283.700 L 281.400 285.800 283.500 283.815 C 284.655 282.723,285.600 281.778,285.600 281.715 C 285.600 281.417,285.229 281.749,283.385 283.700 M119.200 286.200 C 120.395 287.410,121.463 288.400,121.573 288.400 C 121.683 288.400,120.795 287.410,119.600 286.200 C 118.405 284.990,117.337 284.000,117.227 284.000 C 117.117 284.000,118.005 284.990,119.200 286.200 M278.778 287.900 L 277.400 289.400 278.900 288.022 C 279.725 287.263,280.400 286.588,280.400 286.522 C 280.400 286.216,280.062 286.504,278.778 287.900 M136.600 299.807 C 137.040 300.166,137.760 300.635,138.200 300.851 L 139.000 301.244 138.200 300.593 C 137.760 300.234,137.040 299.765,136.600 299.549 L 135.800 299.156 136.600 299.807 M261.500 300.629 C 260.005 301.440,260.096 301.778,261.600 301.000 C 262.260 300.659,262.800 300.294,262.800 300.190 C 262.800 299.932,262.757 299.947,261.500 300.629 M225.600 315.200 C 224.776 315.464,224.741 315.526,225.400 315.554 C 225.840 315.573,226.470 315.413,226.800 315.200 C 227.501 314.747,227.014 314.747,225.600 315.200 M176.600 315.981 C 177.368 316.329,179.510 316.556,179.167 316.253 C 179.075 316.172,178.280 315.996,177.400 315.862 C 176.285 315.693,176.042 315.729,176.600 315.981 M182.700 317.082 C 183.195 317.178,184.005 317.178,184.500 317.082 C 184.995 316.987,184.590 316.909,183.600 316.909 C 182.610 316.909,182.205 316.987,182.700 317.082 M215.505 317.083 C 216.002 317.179,216.722 317.175,217.105 317.075 C 217.487 316.975,217.080 316.896,216.200 316.901 C 215.320 316.905,215.007 316.987,215.505 317.083 M189.491 317.889 C 190.201 317.977,191.461 317.979,192.291 317.892 C 193.121 317.805,192.540 317.733,191.000 317.731 C 189.460 317.729,188.781 317.800,189.491 317.889 M207.491 317.889 C 208.201 317.977,209.461 317.979,210.291 317.892 C 211.121 317.805,210.540 317.733,209.000 317.731 C 207.460 317.729,206.781 317.800,207.491 317.889 M199.300 318.291 C 200.125 318.378,201.475 318.378,202.300 318.291 C 203.125 318.205,202.450 318.134,200.800 318.134 C 199.150 318.134,198.475 318.205,199.300 318.291 " stroke="none" fill="#b4cce7" fill-rule="evenodd"></path></g></svg>