<svg id="svg" version="1.1" xmlns="http://www.w3.org/2000/svg" xmlns:xlink="http://www.w3.org/1999/xlink" width="400" height="400" viewBox="0, 0, 400,400"><g id="svgg"><path id="path0" d="M36.627 13.324 C 36.202 13.586,33.908 15.780,31.530 18.200 C 29.151 20.620,26.121 23.680,24.797 25.000 C 21.696 28.092,10.602 39.205,8.026 41.800 C 6.935 42.900,4.997 44.802,3.721 46.026 C 2.444 47.251,1.175 48.643,0.900 49.121 C 0.363 50.053,0.195 56.000,0.705 56.000 C 0.873 56.000,1.188 56.402,1.405 56.893 C 2.022 58.288,3.519 58.788,7.097 58.794 L 10.395 58.800 17.751 51.353 C 28.958 40.007,32.635 36.400,32.993 36.400 C 33.107 36.400,33.200 98.050,33.200 173.400 L 33.200 310.400 18.624 310.400 C 9.337 310.400,3.957 310.545,3.800 310.800 C 3.664 311.020,3.276 311.200,2.937 311.200 C 0.054 311.200,-1.341 319.337,1.111 321.858 C 3.230 324.037,2.925 324.000,18.595 324.000 L 33.200 324.000 33.200 342.200 C 33.200 354.067,33.339 360.400,33.600 360.400 C 33.820 360.400,34.000 360.856,34.000 361.413 C 34.000 362.540,36.379 365.200,37.387 365.200 C 37.724 365.200,38.000 365.380,38.000 365.600 C 38.000 365.820,38.990 366.000,40.200 366.000 C 41.410 366.000,42.400 365.820,42.400 365.600 C 42.400 365.380,42.676 365.200,43.013 365.200 C 43.351 365.200,44.251 364.576,45.013 363.813 L 46.400 362.427 46.400 343.213 L 46.400 324.000 140.988 324.000 L 235.576 324.000 237.037 323.179 C 239.593 321.743,240.626 320.212,240.042 318.723 C 239.843 318.215,239.478 317.044,239.230 316.121 C 237.927 311.259,242.361 311.610,182.143 311.604 C 135.775 311.600,130.862 311.540,130.643 310.967 C 130.128 309.626,130.372 183.665,130.890 183.345 C 131.159 183.178,134.264 182.994,137.790 182.935 C 148.409 182.757,152.790 181.191,152.799 177.570 C 152.799 177.223,153.132 176.593,153.537 176.170 C 153.983 175.704,154.159 175.163,153.983 174.800 C 153.824 174.470,153.447 173.660,153.147 173.000 C 152.442 171.454,151.813 170.800,151.029 170.800 C 150.683 170.800,150.400 170.620,150.400 170.400 C 150.400 170.163,148.941 170.000,146.824 170.000 C 144.857 170.000,143.136 170.180,143.000 170.400 C 142.666 170.941,129.200 170.941,129.200 170.400 C 129.200 170.180,128.221 170.000,127.024 170.000 C 125.827 170.000,124.736 169.820,124.600 169.600 C 124.464 169.380,123.834 169.200,123.200 169.200 C 122.566 169.200,121.936 169.020,121.800 168.800 C 121.664 168.580,121.023 168.400,120.376 168.400 C 119.729 168.400,119.200 168.220,119.200 168.000 C 119.200 167.780,118.851 167.600,118.424 167.600 C 117.997 167.600,117.536 167.420,117.400 167.200 C 117.264 166.980,116.713 166.800,116.176 166.800 C 115.639 166.800,115.200 166.620,115.200 166.400 C 115.200 166.180,114.840 166.000,114.400 166.000 C 113.960 166.000,113.600 165.820,113.600 165.600 C 113.600 165.380,113.240 165.200,112.800 165.200 C 112.360 165.200,112.000 165.042,112.000 164.849 C 112.000 164.655,111.460 164.273,110.800 164.000 C 110.140 163.727,109.600 163.345,109.600 163.151 C 109.600 162.958,109.422 162.800,109.203 162.800 C 108.766 162.800,105.773 160.656,103.614 158.795 C 102.851 158.138,102.084 157.600,101.908 157.600 C 101.440 157.600,94.357 150.433,93.212 148.800 C 92.672 148.030,91.473 146.590,90.548 145.600 C 89.622 144.610,88.450 143.260,87.943 142.600 C 87.436 141.940,86.560 140.950,85.995 140.400 C 85.431 139.850,84.532 138.770,83.997 138.000 C 83.463 137.230,82.345 135.939,81.513 135.131 C 80.681 134.324,80.000 133.469,80.000 133.231 C 80.000 132.994,79.820 132.800,79.600 132.800 C 79.380 132.800,79.200 132.612,79.200 132.381 C 79.200 131.834,64.891 117.600,64.342 117.600 C 64.110 117.600,63.417 117.060,62.800 116.400 C 62.183 115.740,61.431 115.200,61.128 115.200 C 60.825 115.200,60.317 114.840,60.000 114.400 C 59.683 113.960,59.271 113.600,59.084 113.600 C 58.897 113.600,57.992 113.093,57.072 112.473 C 55.040 111.104,52.705 110.000,51.840 110.000 C 51.488 110.000,51.200 109.820,51.200 109.600 C 51.200 109.380,50.840 109.200,50.400 109.200 C 49.960 109.200,49.600 109.020,49.600 108.800 C 49.600 108.580,49.240 108.400,48.800 108.400 C 48.360 108.400,48.000 108.220,48.000 108.000 C 48.000 107.780,47.640 107.600,47.200 107.600 C 46.406 107.600,46.400 107.333,46.400 71.600 C 46.400 51.800,46.493 35.600,46.606 35.600 C 46.969 35.600,55.030 43.531,65.104 53.801 L 70.008 58.800 73.230 58.800 C 76.887 58.800,79.200 57.881,79.200 56.429 C 79.200 56.193,79.380 56.000,79.600 56.000 C 79.833 56.000,80.000 54.667,80.000 52.800 C 80.000 50.933,79.833 49.600,79.600 49.600 C 79.380 49.600,79.200 49.328,79.200 48.995 C 79.200 48.206,44.590 13.600,43.802 13.600 C 43.471 13.600,43.200 13.420,43.200 13.200 C 43.200 12.635,37.573 12.740,36.627 13.324 M156.200 32.800 C 156.064 33.020,155.609 33.200,155.189 33.200 C 153.445 33.200,148.800 36.825,148.800 38.187 C 148.800 38.524,148.620 38.800,148.400 38.800 C 148.180 38.800,148.000 39.340,148.000 40.000 C 148.000 40.660,147.827 41.200,147.616 41.200 C 147.404 41.200,147.179 42.767,147.116 44.682 L 147.000 48.163 145.506 48.949 C 144.684 49.381,143.906 50.065,143.779 50.467 C 143.651 50.870,143.378 51.200,143.173 51.200 C 142.968 51.200,142.800 51.740,142.800 52.400 C 142.800 53.060,142.620 53.600,142.400 53.600 C 142.180 53.600,142.000 54.039,142.000 54.576 C 142.000 55.113,142.180 55.664,142.400 55.800 C 142.620 55.936,142.800 56.577,142.800 57.224 C 142.800 57.871,142.980 58.400,143.200 58.400 C 143.420 58.400,143.600 58.593,143.600 58.829 C 143.600 59.457,144.426 60.172,145.900 60.822 L 147.200 61.395 147.200 74.074 C 147.200 82.095,147.347 86.844,147.600 87.000 C 147.820 87.136,148.000 87.519,148.000 87.852 C 148.000 88.542,148.471 89.055,150.262 90.313 C 153.198 92.377,159.600 90.651,159.600 87.795 C 159.600 87.468,159.780 87.200,160.000 87.200 C 160.258 87.200,160.400 82.600,160.400 74.200 L 160.400 61.200 162.000 61.200 C 162.880 61.200,163.600 61.020,163.600 60.800 C 163.600 60.580,163.878 60.400,164.218 60.400 C 165.099 60.400,166.800 58.583,166.800 57.642 C 166.800 57.205,166.980 56.736,167.200 56.600 C 167.420 56.464,167.600 55.553,167.600 54.576 C 167.600 53.599,167.420 52.800,167.200 52.800 C 166.980 52.800,166.800 52.440,166.800 52.000 C 166.800 51.560,166.641 51.200,166.447 51.200 C 166.252 51.200,165.999 50.840,165.884 50.400 C 165.769 49.960,165.388 49.600,165.037 49.600 C 164.687 49.600,164.400 49.420,164.400 49.200 C 164.400 48.980,164.040 48.800,163.600 48.800 C 163.160 48.800,162.800 48.620,162.800 48.400 C 162.800 48.180,162.260 48.000,161.600 48.000 C 160.533 48.000,160.400 47.867,160.400 46.800 L 160.400 45.600 162.800 45.600 C 164.133 45.600,165.200 45.422,165.200 45.200 C 165.200 44.980,165.491 44.800,165.846 44.800 C 167.489 44.800,169.200 41.992,169.200 39.296 C 169.200 36.066,167.610 33.200,165.818 33.200 C 165.478 33.200,165.200 33.020,165.200 32.800 C 165.200 32.558,163.475 32.400,160.824 32.400 C 158.337 32.400,156.340 32.573,156.200 32.800 M186.600 37.600 C 186.464 37.820,186.073 38.000,185.730 38.000 C 184.813 38.000,182.400 40.810,182.400 41.878 C 182.400 42.385,182.220 42.800,182.000 42.800 C 181.780 42.800,181.600 43.419,181.600 44.176 C 181.600 44.933,181.420 45.664,181.200 45.800 C 180.980 45.936,180.800 46.811,180.800 47.744 C 180.800 48.677,180.634 49.611,180.430 49.820 C 179.711 50.559,178.928 65.488,179.575 66.135 C 179.809 66.369,180.000 68.043,180.000 69.856 C 180.000 71.669,180.180 73.264,180.400 73.400 C 180.620 73.536,180.800 74.537,180.800 75.624 C 180.800 76.711,180.980 77.600,181.200 77.600 C 181.420 77.600,181.600 78.309,181.600 79.176 C 181.600 80.043,181.780 80.864,182.000 81.000 C 182.220 81.136,182.400 81.741,182.400 82.345 C 182.400 83.580,184.716 86.400,185.730 86.400 C 186.073 86.400,186.464 86.580,186.600 86.800 C 187.800 88.742,194.800 85.339,194.800 82.813 C 194.800 82.366,194.980 82.000,195.200 82.000 C 195.420 82.000,195.600 81.280,195.600 80.400 C 195.600 79.520,195.420 78.800,195.200 78.800 C 194.980 78.800,194.800 78.080,194.800 77.200 C 194.800 76.320,194.620 75.600,194.400 75.600 C 194.180 75.600,194.000 74.700,194.000 73.600 C 194.000 72.500,193.820 71.600,193.600 71.600 C 193.363 71.600,193.200 70.141,193.200 68.024 C 193.200 66.057,193.020 64.336,192.800 64.200 C 192.580 64.064,192.400 62.793,192.400 61.376 C 192.400 59.925,192.575 58.800,192.800 58.800 C 193.035 58.800,193.200 57.408,193.200 55.424 C 193.200 53.567,193.380 51.936,193.600 51.800 C 193.820 51.664,194.000 50.854,194.000 50.000 C 194.000 49.146,194.180 48.336,194.400 48.200 C 194.620 48.064,194.800 47.423,194.800 46.776 C 194.800 46.129,194.980 45.600,195.200 45.600 C 195.420 45.600,195.600 44.891,195.600 44.024 C 195.600 43.157,195.420 42.336,195.200 42.200 C 194.980 42.064,194.800 41.687,194.800 41.363 C 194.800 40.719,192.665 38.496,191.280 37.700 C 190.243 37.103,186.950 37.033,186.600 37.600 M266.200 37.600 C 266.064 37.820,265.676 38.000,265.337 38.000 C 262.494 38.000,261.257 43.437,262.788 49.200 C 264.025 53.860,264.869 65.691,264.024 66.536 C 263.791 66.769,263.600 68.184,263.600 69.680 C 263.600 71.227,263.427 72.400,263.200 72.400 C 262.980 72.400,262.800 73.300,262.800 74.400 C 262.800 75.500,262.620 76.400,262.400 76.400 C 261.845 76.400,261.889 82.645,262.451 83.696 C 263.122 84.950,264.681 86.400,265.358 86.400 C 265.685 86.400,266.064 86.580,266.200 86.800 C 266.336 87.020,267.326 87.200,268.400 87.200 C 269.474 87.200,270.464 87.020,270.600 86.800 C 270.736 86.580,271.127 86.400,271.470 86.400 C 273.233 86.400,275.182 82.789,275.196 79.500 C 275.198 78.895,275.380 78.400,275.600 78.400 C 275.820 78.400,276.000 77.601,276.000 76.624 C 276.000 75.647,276.180 74.736,276.400 74.600 C 276.620 74.464,276.800 73.013,276.800 71.376 C 276.800 69.659,276.969 68.400,277.200 68.400 C 277.451 68.400,277.600 65.800,277.600 61.400 C 277.600 57.000,277.451 54.400,277.200 54.400 C 276.969 54.400,276.800 53.133,276.800 51.400 C 276.800 49.667,276.631 48.400,276.400 48.400 C 276.180 48.400,276.000 47.691,276.000 46.824 C 276.000 45.957,275.820 45.136,275.600 45.000 C 275.380 44.864,275.200 44.235,275.200 43.602 C 275.200 41.381,272.930 38.000,271.440 38.000 C 271.088 38.000,270.800 37.820,270.800 37.600 C 270.800 37.380,269.821 37.200,268.624 37.200 C 267.427 37.200,266.336 37.380,266.200 37.600 M214.400 40.800 C 214.400 41.020,214.106 41.200,213.747 41.200 C 212.872 41.200,211.595 42.727,211.319 44.103 C 211.197 44.715,210.940 45.314,210.748 45.432 C 209.513 46.196,211.925 51.772,214.475 54.047 C 214.874 54.403,215.201 54.853,215.202 55.047 C 215.203 55.241,215.743 55.975,216.402 56.678 C 217.061 57.381,217.600 58.074,217.600 58.218 C 217.600 58.361,218.185 59.029,218.900 59.701 C 219.721 60.474,220.016 60.987,219.700 61.095 C 219.425 61.190,219.200 61.522,219.200 61.833 C 219.200 62.145,219.020 62.400,218.800 62.400 C 218.580 62.400,218.400 62.582,218.400 62.804 C 218.400 63.026,217.860 63.772,217.200 64.463 C 216.540 65.154,216.000 65.896,216.000 66.112 C 216.000 66.329,215.676 66.797,215.281 67.153 C 214.886 67.509,214.129 68.430,213.600 69.200 C 213.071 69.970,212.526 70.690,212.389 70.800 C 209.225 73.335,209.212 82.400,212.371 82.400 C 212.607 82.400,212.800 82.580,212.800 82.800 C 212.800 83.020,213.149 83.200,213.576 83.200 C 214.003 83.200,214.464 83.380,214.600 83.600 C 214.922 84.121,217.600 84.121,217.600 83.600 C 217.600 83.380,218.062 83.200,218.626 83.200 C 219.587 83.200,223.600 79.678,223.600 78.835 C 223.600 78.560,224.053 77.943,225.593 76.117 C 225.817 75.851,226.000 75.486,226.000 75.305 C 226.000 75.124,226.360 74.717,226.800 74.400 C 227.240 74.083,227.600 73.593,227.600 73.312 C 227.600 72.433,228.676 72.752,229.391 73.842 C 229.767 74.416,230.597 75.432,231.237 76.102 C 231.877 76.771,232.400 77.490,232.400 77.699 C 232.400 77.908,232.940 78.583,233.600 79.200 C 234.260 79.817,234.800 80.527,234.800 80.779 C 234.800 81.452,236.664 83.200,237.382 83.200 C 237.722 83.200,238.000 83.380,238.000 83.600 C 238.000 83.831,239.267 84.000,241.000 84.000 C 242.733 84.000,244.000 83.831,244.000 83.600 C 244.000 83.380,244.283 83.200,244.629 83.200 C 245.437 83.200,246.400 82.237,246.400 81.429 C 246.400 81.083,246.580 80.800,246.800 80.800 C 247.900 80.800,247.238 74.558,246.000 73.263 C 245.340 72.572,244.800 71.808,244.800 71.564 C 244.800 71.320,244.260 70.617,243.600 70.000 C 242.940 69.383,242.400 68.668,242.400 68.411 C 242.400 68.153,242.175 67.692,241.900 67.385 C 241.128 66.525,240.661 65.918,239.600 64.400 C 239.062 63.630,238.302 62.651,237.911 62.225 C 237.134 61.377,236.967 60.400,237.600 60.400 C 237.820 60.400,238.000 60.208,238.000 59.973 C 238.000 59.624,239.602 57.440,242.003 54.517 C 242.221 54.251,242.400 53.846,242.400 53.617 C 242.400 53.388,242.580 53.200,242.800 53.200 C 243.020 53.200,243.200 52.970,243.200 52.688 C 243.200 52.407,243.560 51.917,244.000 51.600 C 244.440 51.283,244.800 50.703,244.800 50.312 C 244.800 49.920,244.980 49.600,245.200 49.600 C 246.640 49.600,245.583 43.962,243.811 42.189 C 239.939 38.318,235.491 39.757,230.800 46.400 C 228.644 49.453,227.600 50.288,227.600 48.960 C 227.600 48.609,227.060 47.817,226.400 47.200 C 225.740 46.583,225.200 45.880,225.200 45.636 C 225.200 45.392,224.705 44.669,224.100 44.030 C 223.495 43.390,222.735 42.491,222.412 42.033 C 222.088 41.575,221.593 41.200,221.312 41.200 C 221.030 41.200,220.800 41.020,220.800 40.800 C 220.800 40.567,219.467 40.400,217.600 40.400 C 215.733 40.400,214.400 40.567,214.400 40.800 M241.200 104.000 C 241.200 104.229,240.000 104.400,238.400 104.400 C 236.800 104.400,235.600 104.571,235.600 104.800 C 235.600 105.020,234.700 105.200,233.600 105.200 C 232.500 105.200,231.600 105.380,231.600 105.600 C 231.600 105.820,231.071 106.000,230.424 106.000 C 229.777 106.000,229.136 106.180,229.000 106.400 C 228.864 106.620,228.223 106.800,227.576 106.800 C 226.929 106.800,226.400 106.980,226.400 107.200 C 226.400 107.420,226.040 107.600,225.600 107.600 C 225.160 107.600,224.800 107.780,224.800 108.000 C 224.800 108.220,224.260 108.400,223.600 108.400 C 222.940 108.400,222.400 108.580,222.400 108.800 C 222.400 109.020,222.040 109.200,221.600 109.200 C 221.160 109.200,220.800 109.380,220.800 109.600 C 220.800 109.820,220.484 110.000,220.097 110.000 C 218.866 110.000,210.855 114.719,210.467 115.672 C 210.393 115.853,210.162 116.000,209.953 116.000 C 209.744 116.000,208.943 116.630,208.173 117.400 C 207.403 118.170,206.609 118.800,206.409 118.800 C 205.901 118.800,195.213 129.450,193.776 131.387 C 193.129 132.259,191.745 133.853,190.700 134.927 C 189.655 136.002,188.800 137.054,188.800 137.266 C 188.800 137.478,187.900 138.529,186.800 139.600 C 185.700 140.671,184.800 141.700,184.800 141.885 C 184.800 142.070,183.855 143.219,182.700 144.438 C 181.545 145.657,179.880 147.510,179.000 148.556 C 176.764 151.214,169.694 158.400,169.314 158.400 C 168.833 158.401,167.061 160.100,166.500 161.099 C 165.904 162.160,165.820 167.600,166.400 167.600 C 166.620 167.600,166.800 167.941,166.800 168.357 C 166.800 169.334,167.367 169.529,171.111 169.839 L 174.200 170.095 176.600 168.284 C 178.755 166.658,187.455 158.029,190.000 154.992 C 192.057 152.539,195.417 148.601,195.881 148.100 C 196.146 147.814,197.046 146.732,197.881 145.696 C 199.455 143.745,200.558 142.450,203.572 139.018 C 206.131 136.103,213.791 128.596,215.522 127.306 C 216.335 126.700,217.090 126.091,217.200 125.953 C 217.726 125.292,222.944 122.184,225.800 120.830 C 245.338 111.573,271.036 116.101,285.101 131.281 L 286.002 132.253 285.901 221.827 L 285.800 311.400 272.600 311.600 C 256.416 311.845,256.295 311.893,255.405 318.362 C 255.121 320.425,255.135 320.462,256.776 322.023 C 257.688 322.890,258.471 323.644,258.517 323.697 C 258.563 323.750,285.373 323.885,318.096 323.997 L 377.592 324.200 366.000 335.800 L 354.407 347.400 354.404 350.622 C 354.400 354.011,355.912 356.800,357.754 356.800 C 358.109 356.800,358.400 356.980,358.400 357.200 C 358.400 357.420,359.390 357.600,360.600 357.600 C 361.810 357.600,362.800 357.420,362.800 357.200 C 362.800 356.980,363.116 356.800,363.501 356.800 C 363.893 356.800,372.108 348.888,382.101 338.885 L 400.000 320.971 400.000 317.295 L 400.000 313.619 398.197 311.909 C 397.205 310.969,395.270 309.074,393.897 307.697 C 391.200 304.994,381.368 295.161,377.550 291.349 C 376.256 290.057,372.646 286.398,369.527 283.217 C 366.407 280.037,363.783 277.652,363.694 277.917 C 363.592 278.225,362.636 278.400,361.058 278.400 C 353.581 278.400,353.072 284.210,359.955 290.992 C 362.638 293.636,363.600 294.849,363.598 295.592 C 363.597 296.369,365.157 298.134,370.398 303.287 C 374.139 306.965,377.200 310.070,377.200 310.187 C 377.200 310.304,374.159 310.400,370.443 310.400 C 364.805 310.400,363.647 310.499,363.455 311.000 C 363.095 311.939,297.803 311.907,297.443 310.967 C 296.980 309.762,297.166 146.068,297.631 145.781 C 298.095 145.494,298.371 145.758,301.402 149.400 C 302.501 150.720,303.490 151.890,303.600 152.000 C 303.711 152.110,304.965 153.550,306.388 155.200 C 313.365 163.292,322.090 171.022,328.000 174.349 C 331.307 176.210,336.456 178.698,338.000 179.181 C 338.990 179.491,339.980 179.868,340.200 180.018 C 340.420 180.169,341.140 180.415,341.800 180.564 C 342.460 180.714,343.720 181.006,344.600 181.214 C 350.691 182.651,360.444 183.390,362.540 182.572 C 362.992 182.396,363.405 182.485,363.600 182.800 C 363.989 183.430,366.000 181.601,366.000 180.618 C 366.000 180.278,366.180 180.000,366.400 180.000 C 366.622 180.000,366.800 178.941,366.800 177.624 C 366.800 176.317,366.620 175.136,366.400 175.000 C 366.180 174.864,366.000 174.469,366.000 174.123 C 366.000 173.332,364.027 171.601,363.124 171.600 C 362.752 171.600,362.336 171.420,362.200 171.200 C 362.061 170.975,360.137 170.800,357.800 170.800 C 355.463 170.800,353.539 170.625,353.400 170.400 C 353.264 170.180,352.173 170.000,350.976 170.000 C 349.779 170.000,348.800 169.820,348.800 169.600 C 348.800 169.380,348.080 169.200,347.200 169.200 C 346.320 169.200,345.600 169.020,345.600 168.800 C 345.600 168.580,345.060 168.400,344.400 168.400 C 343.740 168.400,343.200 168.220,343.200 168.000 C 343.200 167.780,342.851 167.600,342.424 167.600 C 341.997 167.600,341.536 167.420,341.400 167.200 C 341.264 166.980,340.803 166.800,340.376 166.800 C 339.949 166.800,339.600 166.620,339.600 166.400 C 339.600 166.180,339.240 166.000,338.800 166.000 C 338.360 166.000,338.000 165.820,338.000 165.600 C 338.000 165.380,337.640 165.200,337.200 165.200 C 336.760 165.200,336.400 165.020,336.400 164.800 C 336.400 164.580,336.040 164.400,335.600 164.400 C 335.160 164.400,334.800 164.250,334.800 164.068 C 334.800 163.885,334.305 163.480,333.700 163.168 C 333.095 162.855,332.251 162.285,331.825 161.900 C 331.398 161.515,330.895 161.200,330.708 161.200 C 330.344 161.200,329.748 160.749,328.199 159.300 C 327.670 158.805,326.998 158.400,326.706 158.400 C 326.415 158.400,325.912 158.014,325.588 157.541 C 325.265 157.069,323.110 154.747,320.800 152.381 C 318.490 150.014,315.880 147.169,315.000 146.057 C 314.120 144.946,313.085 143.926,312.700 143.791 C 312.315 143.656,312.000 143.317,312.000 143.037 C 312.000 142.756,311.235 141.692,310.300 140.672 C 308.104 138.276,307.831 137.942,307.324 137.036 C 305.871 134.439,287.430 116.000,286.286 116.000 C 286.109 116.000,285.514 115.550,284.964 115.000 C 284.414 114.450,283.805 114.000,283.610 114.000 C 283.416 114.000,283.014 113.775,282.716 113.500 C 281.974 112.814,279.949 111.598,279.100 111.329 C 278.715 111.207,278.400 110.964,278.400 110.789 C 278.400 110.614,277.680 110.349,276.800 110.200 C 275.920 110.051,275.199 109.811,275.197 109.665 C 275.192 109.287,273.175 108.400,272.320 108.400 C 271.924 108.400,271.600 108.220,271.600 108.000 C 271.600 107.780,271.240 107.600,270.800 107.600 C 270.360 107.600,270.000 107.420,270.000 107.200 C 270.000 106.980,269.471 106.800,268.824 106.800 C 268.177 106.800,267.536 106.620,267.400 106.400 C 267.264 106.180,266.533 106.000,265.776 106.000 C 265.019 106.000,264.400 105.820,264.400 105.600 C 264.400 105.380,263.500 105.200,262.400 105.200 C 261.300 105.200,260.400 105.020,260.400 104.800 C 260.400 104.575,259.275 104.400,257.824 104.400 C 256.407 104.400,255.136 104.220,255.000 104.000 C 254.851 103.759,252.063 103.600,247.976 103.600 C 243.725 103.600,241.200 103.749,241.200 104.000 M52.800 124.543 C 53.790 125.205,54.690 125.850,54.800 125.976 C 54.910 126.102,55.688 126.718,56.530 127.345 C 58.289 128.657,67.204 137.411,69.234 139.820 C 69.986 140.712,71.426 142.422,72.435 143.620 C 82.493 155.569,89.800 163.489,94.452 167.485 C 96.552 169.288,102.496 173.661,103.200 173.921 C 103.530 174.042,103.890 174.245,104.000 174.371 C 104.110 174.497,104.920 174.974,105.800 175.430 C 106.680 175.887,107.760 176.452,108.200 176.686 C 110.868 178.107,116.674 180.400,117.604 180.400 C 119.235 180.400,119.206 179.143,119.101 246.442 L 119.000 311.400 82.500 311.502 L 46.000 311.604 46.000 216.469 C 46.000 164.144,46.117 121.216,46.261 121.072 C 46.536 120.797,49.762 122.510,52.800 124.543 M204.600 210.067 C 194.584 213.584,191.379 223.242,197.942 230.130 C 199.521 231.786,200.699 232.403,206.877 234.811 C 212.586 237.036,213.351 237.832,211.100 239.204 C 208.893 240.550,205.867 239.937,203.052 237.574 C 197.109 232.584,189.650 238.624,194.254 244.698 C 202.852 256.042,223.380 251.319,223.363 238.000 C 223.355 231.126,220.370 227.977,210.000 223.900 C 209.450 223.684,208.687 223.348,208.305 223.153 C 207.923 222.959,207.338 222.800,207.005 222.800 C 205.959 222.800,206.296 221.241,207.403 220.964 C 208.919 220.583,210.858 221.079,213.853 222.613 C 219.552 225.531,224.191 223.120,223.439 217.630 C 222.775 212.790,210.677 207.933,204.600 210.067 M273.800 328.943 C 272.327 329.504,270.800 330.949,270.800 331.782 C 270.800 332.122,270.620 332.400,270.400 332.400 C 270.137 332.400,270.000 341.267,270.000 358.200 C 270.000 372.390,270.137 384.000,270.305 384.000 C 270.473 384.000,270.788 384.405,271.005 384.900 C 271.222 385.395,271.805 385.978,272.300 386.195 C 272.795 386.412,273.200 386.727,273.200 386.895 C 273.200 387.647,279.435 387.213,280.308 386.400 C 281.215 385.555,282.984 385.326,283.400 386.000 C 283.536 386.220,284.076 386.400,284.600 386.400 C 285.124 386.400,285.664 386.580,285.800 386.800 C 285.946 387.036,288.337 387.200,291.624 387.200 C 295.075 387.200,297.200 387.048,297.200 386.800 C 297.200 386.580,297.652 386.400,298.205 386.400 C 298.758 386.400,299.568 386.220,300.005 386.000 C 300.442 385.780,301.160 385.420,301.600 385.200 C 304.719 383.640,308.800 380.194,308.800 379.120 C 308.800 378.821,309.160 378.317,309.600 378.000 C 310.040 377.683,310.400 377.103,310.400 376.712 C 310.400 376.320,310.580 376.000,310.800 376.000 C 311.020 376.000,311.200 375.730,311.200 375.400 C 311.200 375.070,311.380 374.800,311.600 374.800 C 311.820 374.800,312.000 374.361,312.000 373.824 C 312.000 373.287,312.180 372.736,312.400 372.600 C 312.620 372.464,312.800 371.654,312.800 370.800 C 312.800 369.946,312.980 369.136,313.200 369.000 C 313.420 368.864,313.600 367.334,313.600 365.600 C 313.600 363.866,313.420 362.336,313.200 362.200 C 312.980 362.064,312.800 361.153,312.800 360.176 C 312.800 359.199,312.620 358.400,312.400 358.400 C 312.180 358.400,312.000 358.040,312.000 357.600 C 312.000 357.160,311.820 356.800,311.600 356.800 C 311.380 356.800,311.200 356.440,311.200 356.000 C 311.200 355.560,311.020 355.200,310.800 355.200 C 310.580 355.200,310.400 354.840,310.400 354.400 C 310.400 353.960,310.220 353.600,310.000 353.600 C 309.780 353.600,309.600 353.330,309.600 353.000 C 309.600 352.670,309.420 352.400,309.200 352.400 C 308.980 352.400,308.800 352.167,308.800 351.883 C 308.800 351.234,305.539 348.000,304.885 348.000 C 304.618 348.000,304.400 347.850,304.400 347.667 C 304.400 347.228,299.678 344.800,298.824 344.800 C 298.459 344.800,297.942 344.582,297.675 344.315 C 297.012 343.652,286.175 343.665,285.510 344.330 C 283.665 346.175,283.200 345.100,283.200 339.000 C 283.200 335.400,283.048 333.200,282.800 333.200 C 282.580 333.200,282.400 332.840,282.400 332.400 C 282.400 331.960,282.220 331.600,282.000 331.600 C 281.780 331.600,281.600 331.342,281.600 331.027 C 281.600 330.712,281.240 330.340,280.800 330.200 C 280.360 330.060,280.000 329.778,280.000 329.573 C 280.000 329.368,279.651 329.200,279.224 329.200 C 278.797 329.200,278.336 329.020,278.200 328.800 C 277.877 328.278,275.327 328.361,273.800 328.943 M126.700 344.446 C 126.095 344.897,125.600 345.522,125.600 345.833 C 125.600 346.457,123.791 346.632,123.427 346.044 C 122.636 344.764,113.212 344.730,110.200 345.997 C 109.760 346.182,108.815 346.572,108.100 346.864 C 107.385 347.156,106.800 347.531,106.800 347.698 C 106.800 347.864,106.524 348.000,106.186 348.000 C 104.285 348.000,98.000 355.389,98.000 357.623 C 98.000 358.050,97.820 358.400,97.600 358.400 C 97.380 358.400,97.200 358.940,97.200 359.600 C 97.200 360.260,97.020 360.800,96.800 360.800 C 96.558 360.800,96.400 362.525,96.400 365.176 C 96.400 367.663,96.573 369.660,96.800 369.800 C 97.020 369.936,97.200 370.566,97.200 371.200 C 97.200 371.834,97.380 372.464,97.600 372.600 C 97.820 372.736,98.000 373.197,98.000 373.624 C 98.000 374.051,98.180 374.400,98.400 374.400 C 98.620 374.400,98.800 374.720,98.800 375.112 C 98.800 375.503,99.160 376.083,99.600 376.400 C 100.040 376.717,100.400 377.212,100.400 377.499 C 100.400 378.178,103.822 381.600,104.501 381.600 C 104.788 381.600,105.283 381.960,105.600 382.400 C 105.917 382.840,106.497 383.200,106.888 383.200 C 107.280 383.200,107.600 383.380,107.600 383.600 C 107.600 383.820,107.949 384.000,108.376 384.000 C 108.803 384.000,109.264 384.180,109.400 384.400 C 109.536 384.620,110.166 384.800,110.800 384.800 C 111.434 384.800,112.064 384.980,112.200 385.200 C 112.340 385.427,114.330 385.600,116.800 385.600 C 119.270 385.600,121.260 385.427,121.400 385.200 C 121.536 384.980,122.162 384.800,122.790 384.800 C 123.419 384.800,124.004 384.587,124.091 384.327 C 124.181 384.057,124.987 384.570,125.973 385.527 L 127.696 387.200 130.848 387.200 C 132.582 387.200,134.000 387.063,134.000 386.895 C 134.000 386.727,134.405 386.412,134.900 386.195 C 135.395 385.978,135.978 385.395,136.195 384.900 C 136.412 384.405,136.727 384.000,136.895 384.000 C 137.063 384.000,137.200 375.602,137.200 365.338 L 137.200 346.675 135.631 345.138 C 133.688 343.232,128.831 342.856,126.700 344.446 M293.400 357.485 C 295.995 358.116,298.800 360.140,298.800 361.382 C 298.800 361.722,298.980 362.000,299.200 362.000 C 299.420 362.000,299.600 362.439,299.600 362.976 C 299.600 363.513,299.780 364.064,300.000 364.200 C 300.220 364.336,300.400 364.977,300.400 365.624 C 300.400 366.271,300.220 366.800,300.000 366.800 C 299.780 366.800,299.600 367.340,299.600 368.000 C 299.600 368.660,299.432 369.200,299.227 369.200 C 299.022 369.200,298.746 369.539,298.615 369.952 C 298.297 370.954,297.020 372.400,296.453 372.400 C 296.204 372.400,296.000 372.580,296.000 372.800 C 296.000 373.020,295.640 373.200,295.200 373.200 C 294.760 373.200,294.400 373.380,294.400 373.600 C 294.400 373.829,293.200 374.000,291.600 374.000 C 290.000 374.000,288.800 373.829,288.800 373.600 C 288.800 373.380,288.525 373.200,288.189 373.200 C 287.409 373.200,284.000 369.810,284.000 369.034 C 284.000 368.711,283.820 368.336,283.600 368.200 C 283.380 368.064,283.200 366.793,283.200 365.376 C 283.200 363.925,283.375 362.800,283.600 362.800 C 283.820 362.800,284.000 362.524,284.000 362.187 C 284.000 360.370,290.135 356.461,292.000 357.089 C 292.330 357.200,292.960 357.378,293.400 357.485 M121.380 360.558 C 122.381 361.560,123.200 362.654,123.200 362.989 C 123.200 363.325,123.380 363.600,123.600 363.600 C 123.820 363.600,124.000 364.320,124.000 365.200 C 124.000 366.080,123.820 366.800,123.600 366.800 C 123.380 366.800,123.200 367.160,123.200 367.600 C 123.200 368.040,123.020 368.400,122.800 368.400 C 122.580 368.400,122.400 368.683,122.400 369.029 C 122.400 370.005,120.294 371.600,119.005 371.600 C 118.672 371.600,118.400 371.780,118.400 372.000 C 118.400 372.220,117.691 372.400,116.824 372.400 C 115.957 372.400,115.136 372.220,115.000 372.000 C 114.864 371.780,114.448 371.600,114.076 371.600 C 113.277 371.599,111.200 369.905,111.200 369.253 C 111.200 369.004,111.020 368.800,110.800 368.800 C 110.580 368.800,110.400 368.350,110.400 367.800 C 110.400 367.250,110.220 366.800,110.000 366.800 C 109.780 366.800,109.600 366.080,109.600 365.200 C 109.600 364.320,109.780 363.600,110.000 363.600 C 110.220 363.600,110.400 363.240,110.400 362.800 C 110.400 362.360,110.580 362.000,110.800 362.000 C 111.020 362.000,111.200 361.655,111.200 361.234 C 111.200 360.767,111.669 360.259,112.400 359.936 C 113.060 359.644,113.600 359.281,113.600 359.130 C 113.600 357.482,119.360 358.539,121.380 360.558 " stroke="none" fill="#050504" fill-rule="evenodd"></path><path id="path1" d="M242.710 116.843 C 238.606 117.158,235.588 117.761,231.623 119.058 C 227.670 120.351,221.248 123.557,219.312 125.206 C 218.920 125.539,217.970 126.256,217.200 126.798 C 212.797 129.903,206.378 136.462,198.214 146.200 C 193.694 151.592,189.584 156.368,188.200 157.837 C 176.628 170.124,175.091 171.164,169.831 170.279 C 167.655 169.913,167.027 169.919,166.898 170.307 C 166.807 170.578,166.388 170.800,165.967 170.800 C 165.545 170.800,165.200 170.980,165.200 171.200 C 165.200 171.420,164.840 171.600,164.400 171.600 C 163.960 171.600,163.600 171.736,163.600 171.902 C 163.600 172.069,163.015 172.440,162.300 172.729 C 161.585 173.017,160.687 173.421,160.305 173.626 C 159.923 173.832,159.338 174.000,159.005 174.000 C 158.672 174.000,158.400 174.180,158.400 174.400 C 158.400 174.620,157.860 174.800,157.200 174.800 C 156.540 174.800,156.000 174.980,156.000 175.200 C 156.000 175.420,155.549 175.600,154.998 175.600 C 154.143 175.600,153.924 175.874,153.498 177.476 C 152.290 182.023,149.412 183.198,138.600 183.560 L 131.400 183.800 131.299 247.296 L 131.198 310.791 183.099 310.896 C 234.854 311.000,235.004 311.002,236.600 311.835 C 238.365 312.757,239.983 315.156,239.993 316.867 C 240.008 319.250,239.838 319.200,247.843 319.200 L 255.200 319.200 255.200 317.461 C 255.200 314.633,256.557 312.662,259.400 311.365 C 259.840 311.164,265.870 310.910,272.800 310.800 L 285.400 310.600 285.501 221.755 L 285.602 132.910 284.776 131.861 C 278.139 123.423,259.032 115.509,247.600 116.463 C 247.270 116.490,245.070 116.661,242.710 116.843 M212.881 209.558 C 213.387 209.755,214.610 210.152,215.600 210.440 C 222.124 212.336,225.645 216.671,223.918 220.681 C 222.255 224.543,218.312 225.562,213.910 223.268 C 211.282 221.899,208.685 221.116,207.842 221.439 C 206.762 221.854,207.099 222.166,209.700 223.161 C 212.192 224.114,214.927 225.266,216.772 226.140 C 220.605 227.955,224.400 233.855,224.400 238.000 C 224.400 242.760,220.257 248.478,215.386 250.439 C 205.752 254.319,190.057 246.997,192.417 239.724 C 194.066 234.639,199.204 233.342,203.242 236.991 C 205.483 239.015,209.357 239.851,210.985 238.661 C 212.336 237.672,212.069 237.503,203.961 234.228 C 196.631 231.267,194.256 228.325,194.251 222.200 C 194.247 216.411,198.944 210.000,203.189 210.000 C 203.609 210.000,204.064 209.820,204.200 209.600 C 204.507 209.103,211.626 209.069,212.881 209.558 " stroke="none" fill="#b1e29c" fill-rule="evenodd"></path><path id="path2" d="M46.400 216.176 L 46.400 310.800 82.600 310.800 L 118.800 310.800 118.800 246.191 L 118.800 181.583 117.900 181.227 C 117.405 181.031,115.920 180.485,114.600 180.013 C 112.139 179.134,106.404 176.390,103.200 174.558 C 99.583 172.489,93.680 167.681,88.766 162.800 C 84.175 158.240,82.056 155.904,76.800 149.605 C 75.810 148.419,74.301 146.628,73.447 145.624 C 72.594 144.621,70.986 142.720,69.875 141.400 C 67.179 138.197,58.206 129.262,56.200 127.784 C 55.320 127.135,54.510 126.500,54.400 126.372 C 54.023 125.934,49.400 122.979,48.200 122.408 C 47.540 122.094,46.865 121.774,46.700 121.695 C 46.535 121.617,46.400 164.133,46.400 216.176 M298.000 228.571 L 298.000 310.800 330.800 310.800 L 363.600 310.800 363.600 303.142 L 363.600 295.484 359.646 291.442 C 354.370 286.048,353.663 284.539,354.958 281.440 C 355.950 279.065,358.121 277.791,361.071 277.854 L 363.603 277.908 363.502 230.454 C 363.412 188.498,363.330 183.019,362.800 183.167 C 358.425 184.384,345.734 182.714,338.400 179.956 C 334.500 178.489,326.761 174.562,326.467 173.900 C 326.393 173.735,326.123 173.600,325.867 173.600 C 325.610 173.599,324.921 173.194,324.336 172.700 C 323.750 172.205,322.192 171.021,320.873 170.070 C 319.554 169.118,316.242 166.148,313.513 163.470 C 308.033 158.092,306.754 156.694,301.000 149.801 C 299.900 148.484,298.775 147.166,298.500 146.874 C 298.100 146.449,298.000 162.772,298.000 228.571 " stroke="none" fill="#fbdf6d" fill-rule="evenodd"></path><path id="path3" d="M244.100 116.287 C 244.705 116.378,245.695 116.378,246.300 116.287 C 246.905 116.195,246.410 116.120,245.200 116.120 C 243.990 116.120,243.495 116.195,244.100 116.287 M250.105 116.287 C 250.714 116.379,251.614 116.377,252.105 116.282 C 252.597 116.187,252.100 116.111,251.000 116.114 C 249.900 116.117,249.497 116.195,250.105 116.287 M46.261 121.072 C 46.117 121.216,46.000 164.144,46.000 216.469 L 46.000 311.604 82.500 311.502 L 119.000 311.400 119.101 246.442 C 119.207 178.298,119.259 180.364,117.451 180.432 C 116.727 180.458,116.765 180.523,117.700 180.865 L 118.800 181.267 118.800 246.233 L 118.800 311.200 82.600 311.200 L 46.400 311.200 46.400 216.173 L 46.400 121.146 47.562 121.973 C 48.201 122.428,48.841 122.800,48.984 122.800 C 52.082 122.800,65.680 135.837,77.353 150.001 C 80.947 154.362,83.578 157.226,89.081 162.765 C 92.449 166.155,95.316 168.818,95.452 168.681 C 95.589 168.545,95.093 167.946,94.350 167.352 C 90.550 164.310,82.645 155.750,72.435 143.620 C 71.426 142.422,69.986 140.712,69.234 139.820 C 67.204 137.411,58.289 128.657,56.530 127.345 C 55.688 126.718,54.910 126.102,54.800 125.976 C 53.835 124.873,46.610 120.723,46.261 121.072 M220.500 123.646 C 219.137 124.519,218.695 125.106,219.900 124.443 C 220.818 123.939,222.256 122.827,222.000 122.819 C 221.890 122.816,221.215 123.188,220.500 123.646 M282.400 128.925 C 282.400 128.994,282.985 129.579,283.700 130.225 L 285.000 131.400 283.825 130.100 C 282.730 128.888,282.400 128.616,282.400 128.925 M208.388 133.900 L 205.800 136.600 208.500 134.012 C 209.985 132.588,211.200 131.373,211.200 131.312 C 211.200 131.017,210.793 131.392,208.388 133.900 M203.178 139.500 L 201.800 141.000 203.300 139.622 C 204.125 138.863,204.800 138.188,204.800 138.122 C 204.800 137.816,204.462 138.104,203.178 139.500 M297.467 145.867 C 297.134 146.200,297.110 310.100,297.443 310.967 C 297.704 311.649,362.919 311.978,363.338 311.300 C 363.440 311.135,356.026 311.058,346.862 311.128 C 337.698 311.199,322.955 311.133,314.100 310.981 L 298.000 310.706 298.006 228.453 L 298.013 146.200 299.106 147.458 C 299.708 148.150,301.992 150.829,304.183 153.411 C 311.123 161.595,318.575 168.562,325.253 173.111 C 327.768 174.825,335.592 178.941,335.848 178.685 C 335.961 178.572,334.557 177.735,332.727 176.825 C 323.325 172.150,315.376 165.624,306.388 155.200 C 304.965 153.550,303.711 152.110,303.600 152.000 C 303.490 151.890,302.500 150.722,301.400 149.403 C 300.300 148.085,299.135 146.690,298.811 146.303 C 298.176 145.545,297.884 145.450,297.467 145.867 M192.175 152.500 L 191.000 153.800 192.300 152.625 C 193.015 151.979,193.600 151.394,193.600 151.325 C 193.600 151.016,193.270 151.288,192.175 152.500 M182.793 162.700 L 178.200 167.400 182.900 162.807 C 187.266 158.540,187.782 158.000,187.493 158.000 C 187.435 158.000,185.320 160.115,182.793 162.700 M96.007 169.104 C 96.010 169.267,97.315 170.321,98.907 171.446 C 103.173 174.462,104.000 174.949,104.000 174.446 C 104.000 174.201,103.775 173.999,103.500 173.997 C 103.225 173.995,101.425 172.827,99.500 171.400 C 97.575 169.974,96.003 168.941,96.007 169.104 M171.500 170.282 C 171.995 170.378,172.805 170.378,173.300 170.282 C 173.795 170.187,173.390 170.109,172.400 170.109 C 171.410 170.109,171.005 170.187,171.500 170.282 M104.400 174.993 C 104.400 175.100,105.345 175.659,106.500 176.236 C 108.825 177.399,108.669 176.957,106.288 175.638 C 104.728 174.774,104.400 174.662,104.400 174.993 M110.138 178.047 C 110.984 178.493,111.760 178.774,111.863 178.671 C 112.089 178.444,109.657 177.193,109.039 177.218 C 108.797 177.227,109.292 177.600,110.138 178.047 M113.426 179.365 C 115.444 180.244,116.726 180.459,115.000 179.629 C 114.120 179.206,113.130 178.853,112.800 178.845 C 112.470 178.838,112.752 179.072,113.426 179.365 M338.153 179.636 C 339.227 180.072,340.197 180.336,340.310 180.223 C 340.422 180.111,340.174 179.910,339.757 179.777 C 339.341 179.644,338.587 179.370,338.081 179.167 C 337.576 178.965,336.946 178.810,336.681 178.822 C 336.417 178.834,337.079 179.200,338.153 179.636 M341.400 180.800 C 342.596 181.314,343.595 181.314,342.800 180.800 C 342.470 180.587,341.840 180.422,341.400 180.434 L 340.600 180.456 341.400 180.800 M344.600 181.600 C 345.040 181.789,345.760 181.944,346.200 181.944 L 347.000 181.944 346.200 181.600 C 345.760 181.411,345.040 181.256,344.600 181.256 L 343.800 181.256 344.600 181.600 M348.200 182.400 C 348.640 182.589,349.630 182.735,350.400 182.725 L 351.800 182.705 350.600 182.400 C 348.803 181.943,347.136 181.943,348.200 182.400 M362.298 182.636 C 362.168 182.765,359.933 182.879,357.331 182.889 L 352.600 182.906 356.496 183.288 C 359.674 183.599,360.706 183.558,362.096 183.066 C 363.033 182.735,363.515 182.449,363.167 182.432 C 362.818 182.414,362.427 182.506,362.298 182.636 M130.880 183.280 C 130.510 183.650,130.422 198.321,130.498 247.380 L 130.596 311.000 130.798 247.200 L 131.000 183.400 132.600 183.157 L 134.200 182.914 132.780 182.857 C 131.999 182.826,131.144 183.016,130.880 183.280 M139.500 183.082 C 139.995 183.178,140.805 183.178,141.300 183.082 C 141.795 182.987,141.390 182.909,140.400 182.909 C 139.410 182.909,139.005 182.987,139.500 183.082 M197.775 213.700 L 196.600 215.000 197.900 213.825 C 199.112 212.730,199.384 212.400,199.075 212.400 C 199.006 212.400,198.421 212.985,197.775 213.700 M223.473 217.600 C 223.604 218.590,223.776 219.475,223.856 219.567 C 224.157 219.914,223.928 217.364,223.590 216.600 C 223.353 216.066,223.314 216.398,223.473 217.600 M194.531 222.200 C 194.533 223.740,194.605 224.321,194.692 223.491 C 194.779 222.661,194.777 221.401,194.689 220.691 C 194.600 219.981,194.529 220.660,194.531 222.200 M207.905 221.083 C 208.402 221.179,209.122 221.175,209.505 221.075 C 209.887 220.975,209.480 220.896,208.600 220.901 C 207.720 220.905,207.407 220.987,207.905 221.083 M217.505 224.283 C 218.002 224.379,218.722 224.375,219.105 224.275 C 219.487 224.175,219.080 224.096,218.200 224.101 C 217.320 224.105,217.007 224.187,217.505 224.283 M219.600 229.000 C 220.346 229.770,221.047 230.400,221.157 230.400 C 221.267 230.400,220.746 229.770,220.000 229.000 C 219.254 228.230,218.553 227.600,218.443 227.600 C 218.333 227.600,218.854 228.230,219.600 229.000 M196.400 228.925 C 196.400 228.994,196.985 229.579,197.700 230.225 L 199.000 231.400 197.825 230.100 C 196.730 228.888,196.400 228.616,196.400 228.925 M223.709 238.000 C 223.709 238.990,223.787 239.395,223.882 238.900 C 223.978 238.405,223.978 237.595,223.882 237.100 C 223.787 236.605,223.709 237.010,223.709 238.000 M207.905 239.883 C 208.402 239.979,209.122 239.975,209.505 239.875 C 209.887 239.775,209.480 239.696,208.600 239.701 C 207.720 239.705,207.407 239.787,207.905 239.883 M219.578 247.100 L 218.200 248.600 219.700 247.222 C 221.096 245.938,221.384 245.600,221.078 245.600 C 221.012 245.600,220.337 246.275,219.578 247.100 M357.562 278.666 C 356.991 279.020,356.302 279.665,356.031 280.098 C 355.696 280.636,356.027 280.497,357.070 279.662 C 358.354 278.634,359.017 278.414,361.200 278.296 L 363.800 278.154 361.200 278.088 C 359.409 278.042,358.277 278.222,357.562 278.666 M355.067 281.467 C 354.920 281.613,354.811 282.108,354.825 282.567 C 354.849 283.333,354.882 283.323,355.234 282.442 C 355.626 281.463,355.544 280.989,355.067 281.467 M354.810 284.800 C 354.806 285.130,355.139 285.940,355.550 286.600 C 356.365 287.910,363.600 295.346,363.600 294.874 C 363.600 294.714,361.960 292.967,359.957 290.992 C 357.953 289.016,355.977 286.680,355.565 285.800 C 355.154 284.920,354.814 284.470,354.810 284.800 M273.600 311.200 L 261.400 311.418 273.476 311.509 C 281.196 311.567,285.642 311.456,285.800 311.200 C 285.936 310.980,285.992 310.841,285.924 310.891 C 285.856 310.941,280.310 311.080,273.600 311.200 " stroke="none" fill="#746532" fill-rule="evenodd"></path><path id="path4" d="M239.400 116.795 C 238.740 116.959,240.090 117.003,242.400 116.892 C 244.710 116.780,246.675 116.624,246.767 116.545 C 247.079 116.274,240.605 116.493,239.400 116.795 M250.033 116.544 C 250.125 116.624,252.000 116.781,254.200 116.895 C 256.400 117.008,257.660 116.965,257.000 116.798 C 255.798 116.494,249.720 116.273,250.033 116.544 M235.200 117.600 C 234.436 118.094,235.258 118.094,236.800 117.600 L 237.800 117.280 236.800 117.246 C 236.250 117.227,235.530 117.387,235.200 117.600 M259.200 117.600 C 259.750 117.776,260.560 117.926,261.000 117.932 L 261.800 117.944 261.000 117.600 C 260.560 117.411,259.750 117.262,259.200 117.268 L 258.200 117.280 259.200 117.600 M232.400 118.400 C 231.605 118.914,232.604 118.914,233.800 118.400 L 234.600 118.056 233.800 118.034 C 233.360 118.022,232.730 118.187,232.400 118.400 M230.000 119.200 C 229.467 119.545,229.467 119.588,230.000 119.588 C 230.330 119.588,230.870 119.413,231.200 119.200 C 231.733 118.855,231.733 118.812,231.200 118.812 C 230.870 118.812,230.330 118.987,230.000 119.200 M227.200 120.400 C 226.430 120.822,225.913 121.174,226.051 121.183 C 226.465 121.211,229.200 120.005,229.200 119.795 C 229.200 119.446,228.625 119.620,227.200 120.400 M268.800 120.564 C 268.800 120.835,272.927 122.806,273.110 122.623 C 273.203 122.530,272.368 121.992,271.253 121.427 C 269.236 120.405,268.800 120.251,268.800 120.564 M222.700 122.629 C 222.095 122.957,221.600 123.310,221.600 123.413 C 221.600 123.799,222.232 123.557,223.200 122.800 C 224.389 121.870,224.211 121.809,222.700 122.629 M273.600 122.920 C 273.600 123.012,274.635 123.771,275.900 124.607 C 278.923 126.606,283.737 130.539,284.776 131.861 L 285.602 132.910 285.501 221.755 L 285.400 310.600 272.733 310.800 C 265.766 310.910,259.976 311.090,259.866 311.200 C 259.624 311.442,284.790 311.244,285.500 310.998 C 285.898 310.860,286.000 292.635,286.000 221.667 L 286.000 132.509 284.900 131.403 C 282.215 128.704,273.600 122.236,273.600 122.920 M216.960 126.456 C 212.954 129.439,204.270 138.348,197.518 146.400 C 194.290 150.250,190.723 154.435,189.591 155.700 C 187.889 157.603,186.978 159.146,188.529 157.499 C 189.561 156.404,194.083 151.128,198.214 146.200 C 206.389 136.449,212.831 129.868,217.200 126.804 C 218.792 125.687,220.257 124.400,219.935 124.400 C 219.816 124.400,218.477 125.325,216.960 126.456 M64.000 135.000 C 64.746 135.770,65.447 136.400,65.557 136.400 C 65.667 136.400,65.146 135.770,64.400 135.000 C 63.654 134.230,62.953 133.600,62.843 133.600 C 62.733 133.600,63.254 134.230,64.000 135.000 M182.993 162.883 C 180.577 165.349,179.590 166.474,180.800 165.383 C 183.116 163.295,187.855 158.400,187.559 158.400 C 187.464 158.400,185.409 160.417,182.993 162.883 M88.600 162.800 C 90.571 164.780,92.273 166.400,92.383 166.400 C 92.493 166.400,90.971 164.780,89.000 162.800 C 87.029 160.820,85.327 159.200,85.217 159.200 C 85.107 159.200,86.629 160.820,88.600 162.800 M177.792 167.612 C 177.634 167.869,176.681 168.601,175.674 169.239 C 174.667 169.878,174.104 170.394,174.422 170.387 C 174.740 170.380,175.281 170.155,175.624 169.887 C 177.990 168.040,178.497 167.563,178.301 167.368 C 178.180 167.246,177.951 167.356,177.792 167.612 M168.800 170.000 C 170.342 170.494,171.164 170.494,170.400 170.000 C 170.070 169.787,169.350 169.627,168.800 169.646 L 167.800 169.680 168.800 170.000 M152.607 178.792 C 152.431 179.338,151.728 180.310,151.044 180.954 C 150.187 181.760,150.072 181.980,150.672 181.663 C 151.781 181.076,153.315 178.942,153.094 178.294 C 153.001 178.022,152.782 178.246,152.607 178.792 M147.000 182.444 C 146.340 182.650,142.470 182.950,138.400 183.110 L 131.000 183.400 130.899 247.176 C 130.818 297.932,130.900 311.016,131.299 311.270 C 131.574 311.445,155.200 311.578,183.800 311.566 C 213.173 311.553,235.452 311.394,235.000 311.200 C 234.560 311.011,211.024 310.844,182.699 310.828 L 131.198 310.800 131.299 247.300 L 131.400 183.800 138.800 183.528 C 143.531 183.354,146.849 183.044,148.000 182.668 C 148.990 182.344,149.440 182.077,149.000 182.074 C 148.560 182.071,147.660 182.238,147.000 182.444 M354.700 183.482 C 355.195 183.578,356.005 183.578,356.500 183.482 C 356.995 183.387,356.590 183.309,355.600 183.309 C 354.610 183.309,354.205 183.387,354.700 183.482 M204.262 209.500 C 204.161 209.665,206.113 209.800,208.601 209.800 C 211.089 209.800,212.917 209.668,212.663 209.506 C 212.053 209.119,204.501 209.113,204.262 209.500 M200.700 210.906 C 199.875 211.365,199.200 211.911,199.200 212.119 C 199.200 212.329,199.433 212.304,199.723 212.064 C 200.011 211.825,201.046 211.267,202.023 210.824 C 203.000 210.380,203.440 210.030,203.000 210.044 C 202.560 210.059,201.525 210.446,200.700 210.906 M213.633 210.144 C 213.725 210.223,214.340 210.408,215.000 210.556 C 215.876 210.752,216.038 210.715,215.600 210.418 C 215.060 210.053,213.232 209.798,213.633 210.144 M218.800 212.204 C 220.230 212.967,221.895 214.171,222.500 214.880 C 223.560 216.123,224.081 216.039,223.087 214.785 C 222.152 213.605,217.624 210.792,216.688 210.809 C 216.420 210.814,217.370 211.442,218.800 212.204 M197.206 213.794 C 196.463 214.561,195.934 215.267,196.031 215.365 C 196.128 215.462,196.801 214.834,197.527 213.971 C 199.160 212.025,199.003 211.939,197.206 213.794 M194.986 217.227 C 194.637 217.902,194.408 218.722,194.476 219.051 C 194.544 219.379,194.893 218.827,195.250 217.824 C 196.003 215.713,195.895 215.469,194.986 217.227 M223.863 217.710 C 223.988 218.484,223.820 219.656,223.460 220.519 C 223.119 221.334,222.975 222.000,223.140 222.000 C 224.017 222.000,224.820 217.107,224.024 216.615 C 223.802 216.478,223.736 216.929,223.863 217.710 M194.114 222.200 C 194.117 223.300,194.195 223.703,194.287 223.095 C 194.379 222.486,194.377 221.586,194.282 221.095 C 194.187 220.603,194.111 221.100,194.114 222.200 M206.584 221.627 C 206.200 222.248,205.638 221.963,212.900 224.829 C 214.055 225.284,214.820 225.492,214.600 225.290 C 214.380 225.088,212.670 224.325,210.800 223.595 C 206.811 222.038,206.853 222.064,207.612 221.584 C 208.110 221.269,208.096 221.211,207.524 221.206 C 207.152 221.203,206.729 221.392,206.584 221.627 M209.800 221.600 C 210.996 222.114,211.995 222.114,211.200 221.600 C 210.870 221.387,210.240 221.222,209.800 221.234 L 209.000 221.256 209.800 221.600 M212.000 222.171 C 212.000 222.447,214.514 223.620,214.702 223.431 C 214.797 223.336,214.327 222.976,213.657 222.629 C 212.409 221.984,212.000 221.871,212.000 222.171 M221.000 223.431 C 220.120 223.957,219.670 224.389,220.000 224.391 C 220.330 224.394,221.140 223.953,221.800 223.412 C 223.289 222.192,223.066 222.197,221.000 223.431 M194.428 225.476 C 194.413 225.958,194.580 226.464,194.800 226.600 C 195.273 226.892,195.273 226.501,194.800 225.400 C 194.469 224.629,194.455 224.631,194.428 225.476 M217.031 226.773 C 218.967 227.883,220.592 229.440,222.079 231.609 C 222.452 232.154,222.767 232.400,222.779 232.156 C 222.837 230.938,216.923 225.594,215.528 225.604 C 215.238 225.606,215.914 226.132,217.031 226.773 M195.224 227.468 C 195.127 229.383,200.462 233.164,206.000 235.107 C 207.739 235.717,205.479 234.400,203.400 233.592 C 199.598 232.114,197.501 230.516,195.724 227.743 C 195.461 227.334,195.236 227.210,195.224 227.468 M197.700 235.076 C 198.085 235.176,198.715 235.176,199.100 235.076 C 199.485 234.975,199.170 234.893,198.400 234.893 C 197.630 234.893,197.315 234.975,197.700 235.076 M195.157 235.799 C 193.038 236.951,191.612 240.459,192.425 242.524 C 193.484 245.212,199.739 250.794,200.660 249.873 C 200.798 249.735,200.481 249.458,199.955 249.258 C 192.856 246.551,190.556 239.183,195.800 235.944 C 197.199 235.080,196.691 234.965,195.157 235.799 M201.745 236.461 C 206.062 239.434,208.017 240.067,210.672 239.355 C 211.981 239.004,212.357 236.800,211.108 236.800 C 210.885 236.800,210.942 237.089,211.236 237.443 C 213.355 239.997,206.163 239.621,203.272 237.026 C 202.462 236.300,201.350 235.575,200.800 235.414 C 200.155 235.226,200.491 235.598,201.745 236.461 M207.200 235.600 C 207.530 235.813,208.070 235.988,208.400 235.988 C 208.933 235.988,208.933 235.945,208.400 235.600 C 208.070 235.387,207.530 235.212,207.200 235.212 C 206.667 235.212,206.667 235.255,207.200 235.600 M223.800 238.000 C 223.800 239.498,223.932 240.516,224.094 240.262 C 224.256 240.008,224.388 238.990,224.388 238.000 C 224.388 237.010,224.256 235.992,224.094 235.738 C 223.932 235.484,223.800 236.502,223.800 238.000 M221.845 244.588 C 221.480 245.144,221.322 245.600,221.495 245.600 C 221.884 245.600,222.919 243.986,222.682 243.749 C 222.586 243.653,222.210 244.031,221.845 244.588 M219.777 247.225 C 219.131 247.898,217.523 248.987,216.202 249.645 C 214.881 250.302,214.250 250.723,214.800 250.579 C 216.753 250.068,222.394 246.000,221.150 246.000 C 221.040 246.000,220.422 246.551,219.777 247.225 M201.600 250.400 C 201.930 250.613,202.470 250.788,202.800 250.788 C 203.333 250.788,203.333 250.745,202.800 250.400 C 202.470 250.187,201.930 250.012,201.600 250.012 C 201.067 250.012,201.067 250.055,201.600 250.400 M204.400 251.200 C 204.950 251.376,206.030 251.517,206.800 251.514 L 208.200 251.508 206.600 251.177 C 204.463 250.735,202.996 250.750,204.400 251.200 M210.600 251.200 L 209.000 251.486 210.600 251.515 C 211.480 251.531,212.560 251.389,213.000 251.200 L 213.800 250.856 213.000 250.885 C 212.560 250.901,211.480 251.042,210.600 251.200 M354.501 283.800 C 354.505 284.680,354.587 284.993,354.683 284.495 C 354.779 283.998,354.775 283.278,354.675 282.895 C 354.575 282.513,354.496 282.920,354.501 283.800 M359.800 291.600 C 361.106 292.920,362.265 294.000,362.375 294.000 C 362.485 294.000,361.506 292.920,360.200 291.600 C 358.894 290.280,357.735 289.200,357.625 289.200 C 357.515 289.200,358.494 290.280,359.800 291.600 M64.270 311.100 C 74.208 311.159,90.588 311.159,100.670 311.100 C 110.751 311.040,102.620 310.992,82.600 310.992 C 62.580 310.992,54.331 311.040,64.270 311.100 M326.329 311.100 C 333.220 311.161,344.380 311.161,351.129 311.100 C 357.878 311.038,352.240 310.988,338.600 310.988 C 324.960 310.988,319.438 311.038,326.329 311.100 M236.038 311.700 C 236.132 311.755,236.904 312.430,237.755 313.200 C 238.828 314.172,239.168 314.342,238.866 313.757 C 238.454 312.954,236.746 311.600,236.147 311.600 C 235.993 311.600,235.944 311.645,236.038 311.700 M257.504 312.443 C 256.102 313.489,255.093 315.616,255.310 317.067 C 255.476 318.171,255.482 318.166,255.540 316.910 C 255.615 315.289,256.789 313.327,258.266 312.353 C 258.890 311.942,259.220 311.610,259.000 311.615 C 258.780 311.621,258.107 311.993,257.504 312.443 M239.468 316.200 C 239.771 318.177,240.002 318.514,239.994 316.967 C 239.991 316.325,239.816 315.530,239.605 315.200 C 239.345 314.791,239.301 315.110,239.468 316.200 " stroke="none" fill="#63825a" fill-rule="evenodd"></path></g></svg>