<svg id="svg" version="1.1" xmlns="http://www.w3.org/2000/svg" xmlns:xlink="http://www.w3.org/1999/xlink" width="400" height="400" viewBox="0, 0, 400,400"><g id="svgg"><path id="path0" d="M216.800 0.249 C 215.662 0.459,215.007 0.715,212.200 2.049 C 211.100 2.572,210.140 3.135,210.067 3.300 C 209.993 3.465,209.705 3.600,209.426 3.600 C 209.147 3.600,208.354 4.140,207.663 4.800 C 206.972 5.460,206.244 6.000,206.044 6.000 C 205.200 6.000,199.621 12.154,199.607 13.100 C 199.603 13.375,199.439 13.600,199.242 13.600 C 198.773 13.600,195.870 19.691,195.238 22.000 C 194.967 22.990,194.554 24.420,194.319 25.178 C 193.739 27.050,193.768 39.528,194.354 40.114 C 194.599 40.359,194.800 41.154,194.800 41.880 C 194.800 42.606,194.980 43.200,195.200 43.200 C 195.420 43.200,195.600 43.740,195.600 44.400 C 195.600 45.060,195.780 45.600,196.000 45.600 C 196.220 45.600,196.400 45.960,196.400 46.400 C 196.400 46.840,196.580 47.200,196.800 47.200 C 197.020 47.200,197.200 47.434,197.200 47.720 C 197.200 48.456,198.141 50.393,198.500 50.397 C 198.665 50.399,198.800 50.720,198.800 51.112 C 198.800 51.503,199.160 52.083,199.600 52.400 C 200.040 52.717,200.400 53.191,200.400 53.453 C 200.400 54.328,206.865 60.382,207.812 60.395 C 208.038 60.398,208.483 60.760,208.800 61.200 C 209.117 61.640,209.697 62.000,210.088 62.000 C 210.480 62.000,210.800 62.180,210.800 62.400 C 210.800 62.620,211.160 62.800,211.600 62.800 C 212.040 62.800,212.400 62.980,212.400 63.200 C 212.400 63.420,212.850 63.600,213.400 63.600 C 213.950 63.600,214.400 63.780,214.400 64.000 C 214.400 64.220,214.940 64.400,215.600 64.400 C 216.260 64.400,216.800 64.580,216.800 64.800 C 216.800 65.020,217.700 65.200,218.800 65.200 C 219.900 65.200,220.800 65.380,220.800 65.600 C 220.800 65.840,222.392 66.000,224.776 66.000 C 226.996 66.000,228.862 65.823,229.000 65.600 C 229.136 65.380,229.957 65.200,230.824 65.200 C 231.691 65.200,232.400 65.020,232.400 64.800 C 232.400 64.580,232.929 64.400,233.576 64.400 C 234.223 64.400,234.864 64.220,235.000 64.000 C 235.136 63.780,235.687 63.600,236.224 63.600 C 236.761 63.600,237.200 63.454,237.200 63.275 C 237.200 63.096,237.830 62.702,238.600 62.400 C 239.370 62.098,240.000 61.704,240.000 61.525 C 240.000 61.346,240.270 61.200,240.600 61.200 C 240.930 61.200,241.200 61.020,241.200 60.800 C 241.200 60.580,241.386 60.400,241.614 60.400 C 241.842 60.400,242.427 60.040,242.914 59.599 C 246.172 56.653,248.000 54.793,248.000 54.426 C 248.000 54.192,248.180 54.000,248.400 54.000 C 248.620 54.000,248.800 53.812,248.800 53.583 C 248.800 53.354,249.160 52.780,249.600 52.308 C 250.040 51.836,250.400 51.213,250.400 50.925 C 250.400 50.636,250.580 50.400,250.800 50.400 C 251.020 50.400,251.200 50.040,251.200 49.600 C 251.200 49.160,251.380 48.800,251.600 48.800 C 251.820 48.800,252.000 48.440,252.000 48.000 C 252.000 47.560,252.180 47.200,252.400 47.200 C 252.620 47.200,252.800 46.840,252.800 46.400 C 252.800 45.960,252.980 45.600,253.200 45.600 C 253.420 45.600,253.600 45.071,253.600 44.424 C 253.600 43.777,253.780 43.136,254.000 43.000 C 254.220 42.864,254.400 42.133,254.400 41.376 C 254.400 40.619,254.580 40.000,254.800 40.000 C 255.052 40.000,255.200 37.333,255.200 32.800 C 255.200 28.267,255.052 25.600,254.800 25.600 C 254.580 25.600,254.400 24.880,254.400 24.000 C 254.400 23.120,254.220 22.400,254.000 22.400 C 253.780 22.400,253.600 21.860,253.600 21.200 C 253.600 20.540,253.420 20.000,253.200 20.000 C 252.980 20.000,252.800 19.728,252.800 19.395 C 252.800 18.749,252.529 18.114,251.436 16.200 C 251.059 15.540,250.651 14.685,250.529 14.300 C 250.407 13.915,250.148 13.600,249.953 13.600 C 249.759 13.600,249.600 13.330,249.600 13.000 C 249.600 12.670,249.420 12.400,249.200 12.400 C 248.980 12.400,248.800 12.170,248.800 11.888 C 248.800 11.607,248.440 11.117,248.000 10.800 C 247.560 10.483,247.200 10.078,247.200 9.901 C 247.200 9.407,243.681 6.000,243.171 6.000 C 242.923 6.000,242.217 5.460,241.600 4.800 C 240.983 4.140,240.281 3.600,240.040 3.600 C 239.798 3.600,239.600 3.420,239.600 3.200 C 239.600 2.980,239.240 2.800,238.800 2.800 C 238.360 2.800,238.000 2.620,238.000 2.400 C 238.000 2.180,237.640 2.000,237.200 2.000 C 236.760 2.000,236.400 1.820,236.400 1.600 C 236.400 1.380,236.076 1.200,235.680 1.200 C 235.284 1.200,234.739 0.979,234.468 0.708 C 233.977 0.217,219.076 -0.171,216.800 0.249 M288.800 63.197 C 288.800 63.859,288.980 64.400,289.200 64.400 C 289.435 64.400,289.600 65.792,289.600 67.776 C 289.600 69.633,289.780 71.264,290.000 71.400 C 290.254 71.557,290.400 76.604,290.400 85.224 L 290.400 98.800 279.800 98.800 L 269.200 98.800 269.200 120.600 L 269.200 142.400 271.176 142.400 C 272.263 142.400,273.247 142.248,273.362 142.062 C 273.652 141.593,282.300 141.207,286.300 141.485 L 289.600 141.714 289.600 185.057 C 289.600 213.686,289.736 228.400,290.000 228.400 C 290.251 228.400,290.400 231.000,290.400 235.400 C 290.400 239.800,290.549 242.400,290.800 242.400 C 291.035 242.400,291.200 243.792,291.200 245.776 C 291.200 247.633,291.380 249.264,291.600 249.400 C 291.820 249.536,292.000 250.627,292.000 251.824 C 292.000 253.021,292.180 254.000,292.400 254.000 C 292.620 254.000,292.800 254.900,292.800 256.000 C 292.800 257.100,292.954 258.000,293.143 258.000 C 293.332 258.000,293.603 259.117,293.746 260.482 C 293.888 261.848,294.184 263.144,294.402 263.362 C 294.621 263.581,294.800 264.163,294.800 264.656 C 294.800 265.149,294.980 265.664,295.200 265.800 C 295.420 265.936,295.600 266.476,295.600 267.000 C 295.600 267.524,295.780 268.064,296.000 268.200 C 296.220 268.336,296.400 268.797,296.400 269.224 C 296.400 269.651,296.580 270.000,296.800 270.000 C 297.020 270.000,297.200 270.349,297.200 270.776 C 297.200 271.203,297.380 271.664,297.600 271.800 C 297.820 271.936,298.000 272.397,298.000 272.824 C 298.000 273.251,298.180 273.600,298.400 273.600 C 298.620 273.600,298.800 273.836,298.800 274.125 C 298.800 274.413,299.160 275.036,299.600 275.508 C 300.040 275.980,300.400 276.644,300.400 276.983 C 300.400 277.322,300.568 277.600,300.773 277.600 C 300.978 277.600,301.256 277.946,301.390 278.368 C 301.524 278.791,302.256 279.816,303.017 280.646 C 303.778 281.477,304.400 282.306,304.400 282.489 C 304.400 282.930,307.393 285.852,309.620 287.585 C 310.599 288.347,311.460 289.112,311.533 289.285 C 311.607 289.458,311.841 289.600,312.055 289.600 C 312.268 289.600,313.105 290.050,313.914 290.600 C 314.723 291.150,315.704 291.600,316.093 291.600 C 316.482 291.600,316.800 291.780,316.800 292.000 C 316.800 292.220,317.160 292.400,317.600 292.400 C 318.040 292.400,318.400 292.580,318.400 292.800 C 318.400 293.020,318.762 293.200,319.205 293.200 C 319.648 293.200,320.368 293.380,320.805 293.600 C 321.242 293.820,321.958 294.180,322.395 294.400 C 322.832 294.620,323.732 294.800,324.395 294.800 C 325.058 294.800,325.600 294.980,325.600 295.200 C 325.600 295.420,326.219 295.600,326.976 295.600 C 327.733 295.600,328.464 295.780,328.600 296.000 C 328.736 296.220,329.827 296.400,331.024 296.400 C 332.221 296.400,333.200 296.580,333.200 296.800 C 333.200 297.057,337.059 297.200,343.976 297.200 C 350.729 297.200,354.845 297.051,355.000 296.800 C 355.136 296.580,356.486 296.400,358.000 296.400 C 359.514 296.400,360.864 296.220,361.000 296.000 C 361.136 295.780,362.137 295.600,363.224 295.600 C 364.311 295.600,365.200 295.420,365.200 295.200 C 365.200 294.980,365.909 294.800,366.776 294.800 C 367.643 294.800,368.464 294.620,368.600 294.400 C 368.736 294.180,369.467 294.000,370.224 294.000 C 370.981 294.000,371.600 293.820,371.600 293.600 C 371.600 293.380,372.140 293.200,372.800 293.200 C 373.460 293.200,374.000 293.020,374.000 292.800 C 374.000 292.580,374.450 292.400,375.000 292.400 C 375.550 292.400,376.000 292.220,376.000 292.000 C 376.000 291.780,376.495 291.599,377.100 291.598 C 377.705 291.596,378.716 291.326,379.346 290.998 C 379.976 290.669,380.741 290.400,381.046 290.400 C 381.351 290.400,381.600 290.220,381.600 290.000 C 381.600 289.780,381.883 289.600,382.229 289.600 C 384.009 289.600,384.000 289.723,384.000 266.029 C 384.000 241.266,384.161 242.735,381.600 244.162 C 378.048 246.140,375.876 247.200,375.376 247.200 C 375.059 247.200,374.800 247.380,374.800 247.600 C 374.800 247.820,374.260 248.000,373.600 248.000 C 372.940 248.000,372.400 248.160,372.400 248.356 C 372.400 248.691,371.478 248.917,367.897 249.458 C 367.071 249.582,366.295 249.845,366.174 250.042 C 366.052 250.239,364.433 250.400,362.576 250.400 C 360.592 250.400,359.200 250.565,359.200 250.800 C 359.200 251.020,358.570 251.200,357.800 251.200 C 357.030 251.200,356.400 251.020,356.400 250.800 C 356.400 250.580,355.410 250.400,354.200 250.400 C 352.990 250.400,352.000 250.220,352.000 250.000 C 352.000 249.780,351.728 249.600,351.395 249.600 C 350.730 249.600,349.337 248.882,348.487 248.100 C 348.188 247.825,347.795 247.600,347.614 247.600 C 347.159 247.600,344.800 245.360,344.800 244.928 C 344.800 244.735,344.440 244.317,344.000 244.000 C 343.560 243.683,343.200 243.103,343.200 242.712 C 343.200 242.320,343.020 242.000,342.800 242.000 C 342.580 242.000,342.400 241.640,342.400 241.200 C 342.400 240.760,342.226 240.400,342.014 240.400 C 341.801 240.400,341.508 239.496,341.361 238.391 C 341.214 237.286,340.938 236.285,340.747 236.167 C 340.556 236.049,340.400 235.279,340.400 234.456 C 340.400 233.633,340.175 232.735,339.900 232.460 C 339.508 232.068,339.371 222.244,339.264 186.780 L 339.128 141.600 354.964 141.600 C 365.255 141.600,370.800 141.740,370.800 142.000 C 370.800 142.251,373.267 142.400,377.400 142.400 L 384.000 142.400 384.000 120.600 L 384.000 98.800 361.625 98.800 L 339.249 98.800 338.996 97.100 C 338.719 95.239,338.978 85.355,339.592 74.400 C 339.807 70.550,340.032 66.230,340.092 64.800 L 340.200 62.200 314.500 62.097 L 288.800 61.994 288.800 63.197 M82.200 96.800 C 82.064 97.020,80.883 97.200,79.576 97.200 C 78.259 97.200,77.200 97.378,77.200 97.600 C 77.200 97.820,76.401 98.000,75.424 98.000 C 74.447 98.000,73.536 98.180,73.400 98.400 C 73.264 98.620,72.634 98.800,72.000 98.800 C 71.366 98.800,70.736 98.980,70.600 99.200 C 70.464 99.420,69.834 99.600,69.200 99.600 C 68.566 99.600,67.936 99.780,67.800 100.000 C 67.664 100.220,67.124 100.400,66.600 100.400 C 66.076 100.400,65.536 100.580,65.400 100.800 C 65.264 101.020,64.803 101.200,64.376 101.200 C 63.949 101.200,63.600 101.380,63.600 101.600 C 63.600 101.820,63.276 102.000,62.880 102.000 C 61.986 102.000,60.007 102.894,60.003 103.300 C 60.001 103.465,59.640 103.600,59.200 103.600 C 58.760 103.600,58.400 103.780,58.400 104.000 C 58.400 104.220,58.040 104.400,57.600 104.400 C 57.160 104.400,56.800 104.580,56.800 104.800 C 56.800 105.020,56.440 105.200,56.000 105.200 C 55.560 105.200,55.200 105.380,55.200 105.600 C 55.200 105.820,54.840 106.000,54.400 106.000 C 53.960 106.000,53.600 106.180,53.600 106.400 C 53.600 106.620,53.280 106.800,52.888 106.800 C 52.497 106.800,51.917 107.160,51.600 107.600 C 51.283 108.040,50.743 108.400,50.400 108.400 C 50.057 108.400,49.517 108.760,49.200 109.200 C 48.883 109.640,48.423 110.000,48.177 110.000 C 46.968 110.000,33.200 122.940,33.200 124.077 C 33.200 124.313,32.885 124.797,32.499 125.153 C 31.523 126.055,28.400 130.633,28.400 131.164 C 28.400 131.404,28.234 131.600,28.032 131.600 C 27.829 131.600,27.545 132.140,27.400 132.800 C 27.255 133.460,26.971 134.000,26.768 134.000 C 26.566 134.000,26.400 134.360,26.400 134.800 C 26.400 135.240,26.220 135.600,26.000 135.600 C 25.780 135.600,25.600 135.960,25.600 136.400 C 25.600 136.840,25.420 137.200,25.200 137.200 C 24.980 137.200,24.800 137.639,24.800 138.176 C 24.800 138.713,24.620 139.264,24.400 139.400 C 24.180 139.536,24.000 139.997,24.000 140.424 C 24.000 140.851,23.820 141.200,23.600 141.200 C 23.380 141.200,23.200 141.740,23.200 142.400 C 23.200 143.060,23.020 143.600,22.800 143.600 C 22.580 143.600,22.400 144.050,22.400 144.600 C 22.400 145.150,22.220 145.600,22.000 145.600 C 21.780 145.600,21.600 146.140,21.600 146.800 C 21.600 147.460,21.420 148.000,21.200 148.000 C 20.980 148.000,20.800 148.720,20.800 149.600 C 20.800 150.480,20.620 151.200,20.400 151.200 C 20.180 151.200,20.000 152.100,20.000 153.200 C 20.000 154.300,19.820 155.200,19.600 155.200 C 19.369 155.200,19.200 156.459,19.200 158.176 C 19.200 159.813,19.020 161.264,18.800 161.400 C 18.557 161.550,18.400 164.471,18.400 168.824 C 18.400 173.341,18.548 176.000,18.800 176.000 C 19.029 176.000,19.200 177.200,19.200 178.800 C 19.200 180.400,19.371 181.600,19.600 181.600 C 19.820 181.600,20.000 182.399,20.000 183.376 C 20.000 184.353,20.180 185.264,20.400 185.400 C 20.620 185.536,20.800 186.256,20.800 187.000 C 20.800 187.744,20.980 188.464,21.200 188.600 C 21.420 188.736,21.600 189.276,21.600 189.800 C 21.600 190.324,21.780 190.864,22.000 191.000 C 22.220 191.136,22.400 191.687,22.400 192.224 C 22.400 192.761,22.580 193.200,22.800 193.200 C 23.020 193.200,23.200 193.740,23.200 194.400 C 23.200 195.060,23.380 195.600,23.600 195.600 C 23.820 195.600,24.000 196.039,24.000 196.576 C 24.000 197.113,24.180 197.664,24.400 197.800 C 24.620 197.936,24.800 198.397,24.800 198.824 C 24.800 199.251,24.980 199.600,25.200 199.600 C 25.420 199.600,25.600 199.960,25.600 200.400 C 25.600 200.840,25.780 201.200,26.000 201.200 C 26.220 201.200,26.400 201.560,26.400 202.000 C 26.400 202.440,26.558 202.800,26.750 202.800 C 26.942 202.800,27.211 203.355,27.347 204.034 C 27.482 204.712,27.955 205.775,28.397 206.395 C 28.839 207.016,29.200 207.721,29.200 207.962 C 29.200 208.203,29.380 208.400,29.600 208.400 C 29.820 208.400,30.000 208.670,30.000 209.000 C 30.000 209.330,30.180 209.600,30.400 209.600 C 30.620 209.600,30.800 209.836,30.800 210.125 C 30.800 210.413,31.160 211.036,31.600 211.508 C 32.040 211.980,32.400 212.527,32.400 212.724 C 32.400 212.921,32.940 213.646,33.600 214.337 C 34.260 215.028,34.800 215.771,34.800 215.989 C 34.800 216.613,43.590 225.200,44.228 225.200 C 44.543 225.200,44.800 225.350,44.800 225.532 C 44.800 225.715,45.295 226.119,45.900 226.430 C 46.505 226.740,47.291 227.311,47.647 227.697 C 48.003 228.084,48.588 228.400,48.947 228.400 C 49.306 228.400,49.600 228.580,49.600 228.800 C 49.600 229.020,49.960 229.200,50.400 229.200 C 50.840 229.200,51.200 229.380,51.200 229.600 C 51.200 229.820,51.560 230.000,52.000 230.000 C 52.440 230.000,52.800 230.167,52.800 230.372 C 52.800 230.577,53.205 230.815,53.700 230.902 C 54.569 231.054,54.573 231.071,53.800 231.409 C 53.360 231.602,52.651 232.084,52.225 232.480 C 51.798 232.876,51.306 233.200,51.130 233.200 C 50.684 233.200,48.024 236.110,48.011 236.612 C 48.005 236.838,47.640 237.283,47.200 237.600 C 46.760 237.917,46.400 238.482,46.400 238.855 C 46.400 239.228,46.258 239.593,46.085 239.667 C 45.572 239.884,43.600 244.209,43.600 245.116 C 43.600 245.576,43.420 246.064,43.200 246.200 C 42.980 246.336,42.800 246.977,42.800 247.624 C 42.800 248.271,42.620 248.800,42.400 248.800 C 42.180 248.800,42.000 249.700,42.000 250.800 C 42.000 251.900,41.820 252.800,41.600 252.800 C 41.348 252.800,41.200 255.533,41.200 260.200 C 41.200 264.867,41.348 267.600,41.600 267.600 C 41.820 267.600,42.000 268.500,42.000 269.600 C 42.000 270.700,42.180 271.600,42.400 271.600 C 42.620 271.600,42.800 272.140,42.800 272.800 C 42.800 273.460,42.960 274.000,43.155 274.000 C 43.350 274.000,43.631 274.810,43.779 275.800 C 43.928 276.790,44.218 277.600,44.425 277.600 C 44.631 277.600,44.800 277.960,44.800 278.400 C 44.800 278.840,44.980 279.200,45.200 279.200 C 45.420 279.200,45.600 279.560,45.600 280.000 C 45.600 280.440,45.780 280.800,46.000 280.800 C 46.220 280.800,46.400 281.043,46.400 281.341 C 46.400 281.638,46.940 282.446,47.600 283.137 C 48.260 283.828,48.800 284.550,48.800 284.742 C 48.800 285.079,51.413 287.547,53.943 289.600 C 55.497 290.860,55.509 291.200,54.000 291.200 C 53.340 291.200,52.800 291.380,52.800 291.600 C 52.800 291.820,52.440 292.000,52.000 292.000 C 51.560 292.000,51.200 292.180,51.200 292.400 C 51.200 292.620,50.761 292.800,50.224 292.800 C 49.687 292.800,49.136 292.980,49.000 293.200 C 48.864 293.420,48.466 293.600,48.116 293.600 C 47.498 293.600,43.201 295.532,42.800 295.991 C 42.690 296.117,41.745 296.665,40.700 297.209 C 39.655 297.753,38.800 298.334,38.800 298.499 C 38.800 298.665,38.575 298.800,38.300 298.801 C 38.025 298.801,37.170 299.341,36.400 300.000 C 35.630 300.659,34.860 301.199,34.689 301.199 C 34.519 301.200,33.598 301.965,32.644 302.900 C 31.690 303.835,30.569 304.878,30.154 305.219 C 29.739 305.559,28.950 306.433,28.400 307.162 C 27.850 307.890,26.815 309.091,26.100 309.830 C 25.385 310.569,24.800 311.277,24.800 311.403 C 24.800 311.530,24.440 312.020,24.000 312.492 C 23.560 312.964,23.200 313.587,23.200 313.875 C 23.200 314.164,23.020 314.400,22.800 314.400 C 22.580 314.400,22.400 314.745,22.400 315.167 C 22.400 315.588,22.265 315.993,22.100 316.067 C 21.668 316.259,20.000 319.572,20.000 320.238 C 20.000 320.547,19.820 320.800,19.600 320.800 C 19.380 320.800,19.200 321.239,19.200 321.776 C 19.200 322.313,19.020 322.864,18.800 323.000 C 18.580 323.136,18.400 323.777,18.400 324.424 C 18.400 325.071,18.220 325.600,18.000 325.600 C 17.780 325.600,17.600 326.219,17.600 326.976 C 17.600 327.733,17.420 328.464,17.200 328.600 C 16.980 328.736,16.800 329.791,16.800 330.944 C 16.800 332.097,16.613 333.227,16.384 333.456 C 15.569 334.271,16.352 353.654,17.237 354.580 C 17.437 354.789,17.600 355.644,17.600 356.480 C 17.600 357.316,17.780 358.000,18.000 358.000 C 18.220 358.000,18.400 358.540,18.400 359.200 C 18.400 359.860,18.580 360.400,18.800 360.400 C 19.020 360.400,19.200 360.940,19.200 361.600 C 19.200 362.260,19.380 362.800,19.600 362.800 C 19.820 362.800,20.000 363.072,20.000 363.405 C 20.000 363.738,20.160 364.323,20.356 364.705 C 20.552 365.087,21.120 366.255,21.619 367.300 C 22.118 368.345,22.677 369.200,22.863 369.200 C 23.048 369.200,23.200 369.560,23.200 370.000 C 23.200 370.440,23.380 370.800,23.600 370.800 C 23.820 370.800,24.000 371.036,24.000 371.325 C 24.000 371.613,24.360 372.236,24.800 372.708 C 25.240 373.180,25.600 373.671,25.600 373.798 C 25.600 373.925,25.964 374.427,26.409 374.914 C 29.900 378.739,31.187 380.242,31.193 380.500 C 31.197 380.665,31.379 380.800,31.598 380.800 C 31.817 380.800,32.915 381.700,34.039 382.800 C 35.162 383.900,36.293 384.800,36.552 384.800 C 36.811 384.800,37.283 385.160,37.600 385.600 C 37.917 386.040,38.457 386.400,38.800 386.400 C 39.143 386.400,39.683 386.760,40.000 387.200 C 40.317 387.640,40.897 388.000,41.288 388.000 C 41.680 388.000,42.000 388.159,42.000 388.353 C 42.000 388.548,42.315 388.809,42.700 388.935 C 43.085 389.061,44.390 389.712,45.600 390.382 C 46.810 391.052,48.205 391.600,48.700 391.600 C 49.195 391.600,49.600 391.780,49.600 392.000 C 49.600 392.220,49.960 392.400,50.400 392.400 C 50.840 392.400,51.200 392.580,51.200 392.800 C 51.200 393.020,51.639 393.200,52.176 393.200 C 52.713 393.200,53.264 393.380,53.400 393.600 C 53.536 393.820,53.997 394.000,54.424 394.000 C 54.851 394.000,55.200 394.180,55.200 394.400 C 55.200 394.620,55.740 394.800,56.400 394.800 C 57.060 394.800,57.600 394.980,57.600 395.200 C 57.600 395.420,58.230 395.600,59.000 395.600 C 59.770 395.600,60.400 395.780,60.400 396.000 C 60.400 396.220,61.030 396.400,61.800 396.400 C 62.570 396.400,63.200 396.580,63.200 396.800 C 63.200 397.020,63.909 397.200,64.776 397.200 C 65.643 397.200,66.464 397.380,66.600 397.600 C 66.736 397.820,67.737 398.000,68.824 398.000 C 69.911 398.000,70.800 398.180,70.800 398.400 C 70.800 398.620,71.664 398.800,72.720 398.800 C 73.776 398.800,74.865 399.025,75.140 399.300 C 75.528 399.688,80.583 399.800,97.687 399.800 C 114.968 399.800,119.769 399.692,119.900 399.300 C 120.006 398.983,120.851 398.800,122.210 398.800 C 123.388 398.800,124.464 398.620,124.600 398.400 C 124.736 398.180,125.647 398.000,126.624 398.000 C 127.601 398.000,128.400 397.820,128.400 397.600 C 128.400 397.380,129.120 397.200,130.000 397.200 C 130.880 397.200,131.600 397.020,131.600 396.800 C 131.600 396.580,132.129 396.400,132.776 396.400 C 133.423 396.400,134.064 396.220,134.200 396.000 C 134.336 395.780,134.966 395.600,135.600 395.600 C 136.234 395.600,136.864 395.420,137.000 395.200 C 137.136 394.980,137.597 394.800,138.024 394.800 C 138.451 394.800,138.800 394.620,138.800 394.400 C 138.800 394.180,139.162 394.000,139.605 394.000 C 140.048 394.000,140.768 393.820,141.205 393.600 C 141.642 393.380,142.358 393.020,142.795 392.800 C 143.232 392.580,143.862 392.400,144.195 392.400 C 144.528 392.400,144.800 392.220,144.800 392.000 C 144.800 391.780,145.091 391.600,145.446 391.600 C 146.018 391.600,149.882 389.730,150.400 389.202 C 150.510 389.090,151.095 388.744,151.700 388.432 C 152.305 388.120,152.800 387.715,152.800 387.532 C 152.800 387.350,153.025 387.197,153.300 387.193 C 154.326 387.178,165.200 376.960,165.200 376.010 C 165.200 375.788,165.740 375.091,166.400 374.460 C 167.060 373.829,167.600 373.123,167.600 372.890 C 167.600 372.657,167.735 372.407,167.900 372.333 C 168.276 372.166,169.575 370.036,169.871 369.100 C 169.993 368.715,170.252 368.400,170.447 368.400 C 170.641 368.400,170.800 368.040,170.800 367.600 C 170.800 367.160,170.980 366.800,171.200 366.800 C 171.420 366.800,171.600 366.440,171.600 366.000 C 171.600 365.560,171.747 365.200,171.928 365.200 C 172.108 365.200,172.504 364.289,172.807 363.175 C 173.110 362.061,173.503 361.060,173.679 360.951 C 173.856 360.842,174.000 360.313,174.000 359.776 C 174.000 359.239,174.166 358.800,174.368 358.800 C 174.571 358.800,174.862 357.630,175.015 356.200 C 175.168 354.770,175.452 353.600,175.647 353.600 C 175.841 353.600,176.000 352.700,176.000 351.600 C 176.000 350.500,176.180 349.600,176.400 349.600 C 176.625 349.600,176.800 348.475,176.800 347.024 C 176.800 345.607,176.980 344.336,177.200 344.200 C 177.744 343.864,177.744 322.936,177.200 322.600 C 176.980 322.464,176.800 321.564,176.800 320.600 C 176.800 319.636,176.620 318.736,176.400 318.600 C 176.180 318.464,176.000 317.823,176.000 317.176 C 176.000 316.529,175.820 316.000,175.600 316.000 C 175.380 316.000,175.200 315.484,175.200 314.854 C 175.200 313.873,172.717 308.188,172.032 307.600 C 171.904 307.490,171.544 306.905,171.232 306.300 C 170.920 305.695,170.515 305.200,170.332 305.200 C 170.150 305.200,170.000 304.941,170.000 304.625 C 170.000 304.018,163.050 296.800,162.465 296.800 C 162.278 296.800,161.601 296.350,160.962 295.800 C 160.323 295.251,159.575 294.801,159.300 294.800 C 159.025 294.800,158.800 294.632,158.800 294.427 C 158.800 294.222,158.395 293.928,157.900 293.773 C 157.405 293.619,156.910 293.381,156.800 293.246 C 156.212 292.522,150.408 289.600,149.559 289.600 C 149.142 289.600,148.800 289.420,148.800 289.200 C 148.800 288.980,148.440 288.800,148.000 288.800 C 147.560 288.800,147.200 288.653,147.200 288.472 C 147.200 288.292,146.300 287.900,145.200 287.600 C 144.100 287.300,143.200 286.908,143.200 286.728 C 143.200 286.547,142.660 286.400,142.000 286.400 C 141.340 286.400,140.800 286.220,140.800 286.000 C 140.800 285.780,140.361 285.600,139.824 285.600 C 139.287 285.600,138.736 285.420,138.600 285.200 C 138.464 284.980,137.834 284.800,137.200 284.800 C 136.566 284.800,135.936 284.620,135.800 284.400 C 135.664 284.180,135.023 284.000,134.376 284.000 C 133.729 284.000,133.200 283.820,133.200 283.600 C 133.200 283.380,132.581 283.200,131.824 283.200 C 131.067 283.200,130.336 283.020,130.200 282.800 C 130.064 282.580,129.434 282.400,128.800 282.400 C 128.166 282.400,127.536 282.220,127.400 282.000 C 127.264 281.780,126.634 281.600,126.000 281.600 C 125.366 281.600,124.736 281.420,124.600 281.200 C 124.464 280.980,123.744 280.800,123.000 280.800 C 122.256 280.800,121.536 280.620,121.400 280.400 C 121.264 280.180,120.533 280.000,119.776 280.000 C 119.019 280.000,118.400 279.840,118.400 279.644 C 118.400 279.448,117.770 279.178,117.000 279.044 C 116.230 278.910,114.970 278.690,114.200 278.556 C 113.430 278.422,112.800 278.173,112.800 278.002 C 112.800 277.832,111.813 277.569,110.606 277.418 C 109.400 277.267,108.309 276.977,108.183 276.772 C 108.056 276.567,107.513 276.400,106.976 276.400 C 106.439 276.400,106.000 276.220,106.000 276.000 C 106.000 275.780,105.561 275.600,105.024 275.600 C 104.487 275.600,103.936 275.420,103.800 275.200 C 103.664 274.980,103.203 274.800,102.776 274.800 C 102.349 274.800,102.000 274.620,102.000 274.400 C 102.000 274.180,101.640 274.000,101.200 274.000 C 100.760 274.000,100.400 273.820,100.400 273.600 C 100.400 273.380,100.040 273.200,99.600 273.200 C 99.160 273.200,98.800 273.020,98.800 272.800 C 98.800 272.580,98.557 272.400,98.259 272.400 C 97.962 272.400,97.154 271.860,96.463 271.200 C 95.772 270.540,95.017 270.000,94.785 270.000 C 93.477 270.000,89.600 263.392,89.600 261.163 C 89.600 260.517,89.381 259.639,89.114 259.211 C 88.732 258.600,88.732 258.143,89.114 257.088 C 89.381 256.348,89.600 254.989,89.600 254.066 C 89.600 253.144,89.754 252.077,89.943 251.695 C 90.131 251.313,90.581 250.432,90.943 249.738 C 91.304 249.044,91.600 248.275,91.600 248.030 C 91.600 247.354,95.894 243.200,96.591 243.200 C 96.926 243.200,97.200 243.020,97.200 242.800 C 97.200 242.580,97.560 242.400,98.000 242.400 C 98.440 242.400,98.800 242.259,98.800 242.086 C 98.800 241.913,99.745 241.568,100.900 241.319 C 102.055 241.069,103.540 240.747,104.200 240.602 C 104.860 240.458,105.760 240.184,106.200 239.995 C 106.640 239.805,107.675 239.548,108.500 239.425 C 111.857 238.922,112.818 238.695,113.027 238.356 C 113.148 238.160,113.766 238.000,114.400 238.000 C 115.034 238.000,115.664 237.820,115.800 237.600 C 115.936 237.380,116.399 237.200,116.829 237.200 C 117.259 237.200,117.968 237.020,118.405 236.800 C 118.842 236.580,119.558 236.220,119.995 236.000 C 120.432 235.780,121.152 235.600,121.595 235.600 C 122.038 235.600,122.400 235.420,122.400 235.200 C 122.400 234.980,122.760 234.800,123.200 234.800 C 123.640 234.800,124.000 234.620,124.000 234.400 C 124.000 234.180,124.265 234.000,124.589 234.000 C 124.913 234.000,125.948 233.542,126.889 232.982 C 127.830 232.423,128.915 231.862,129.300 231.736 C 129.685 231.610,130.000 231.348,130.000 231.153 C 130.000 230.959,130.360 230.800,130.800 230.800 C 131.240 230.800,131.600 230.620,131.600 230.400 C 131.600 230.180,131.836 230.000,132.125 230.000 C 132.413 230.000,133.036 229.640,133.508 229.200 C 133.980 228.760,134.556 228.400,134.787 228.400 C 135.018 228.400,135.772 227.860,136.463 227.200 C 137.154 226.540,137.880 226.000,138.077 226.000 C 138.274 226.000,139.102 225.385,139.917 224.633 C 140.733 223.880,141.940 222.850,142.600 222.342 C 144.273 221.056,148.000 217.172,148.000 216.715 C 148.000 216.507,148.720 215.646,149.600 214.800 C 150.480 213.954,151.200 213.067,151.200 212.828 C 151.200 212.588,151.740 211.828,152.400 211.137 C 153.060 210.446,153.600 209.721,153.600 209.524 C 153.600 209.327,153.960 208.780,154.400 208.308 C 154.840 207.836,155.200 207.213,155.200 206.925 C 155.200 206.636,155.335 206.399,155.500 206.399 C 155.665 206.398,156.250 205.408,156.800 204.200 C 157.350 202.992,157.919 202.002,158.065 202.001 C 158.211 202.001,158.451 201.280,158.600 200.400 C 158.749 199.520,159.034 198.800,159.235 198.800 C 159.436 198.800,159.600 198.440,159.600 198.000 C 159.600 197.560,159.780 197.200,160.000 197.200 C 160.220 197.200,160.400 196.660,160.400 196.000 C 160.400 195.340,160.580 194.800,160.800 194.800 C 161.020 194.800,161.200 194.260,161.200 193.600 C 161.200 192.940,161.380 192.400,161.600 192.400 C 161.820 192.400,162.000 191.961,162.000 191.424 C 162.000 190.887,162.180 190.336,162.400 190.200 C 162.620 190.064,162.800 189.333,162.800 188.576 C 162.800 187.819,162.980 187.200,163.200 187.200 C 163.420 187.200,163.600 186.480,163.600 185.600 C 163.600 184.720,163.780 184.000,164.000 184.000 C 164.220 184.000,164.400 183.111,164.400 182.024 C 164.400 180.937,164.580 179.936,164.800 179.800 C 165.020 179.664,165.200 178.044,165.200 176.200 C 165.200 174.356,165.380 172.736,165.600 172.600 C 165.837 172.454,166.000 169.996,166.000 166.576 C 166.000 162.992,165.848 160.800,165.600 160.800 C 165.371 160.800,165.200 159.600,165.200 158.000 C 165.200 156.400,165.029 155.200,164.800 155.200 C 164.580 155.200,164.400 154.480,164.400 153.600 C 164.400 152.720,164.220 152.000,164.000 152.000 C 163.780 152.000,163.600 151.460,163.600 150.800 C 163.600 150.140,163.420 149.600,163.200 149.600 C 162.980 149.600,162.800 149.060,162.800 148.400 C 162.800 147.267,162.889 147.200,164.400 147.200 C 165.280 147.200,166.000 147.020,166.000 146.800 C 166.000 146.580,166.619 146.400,167.376 146.400 C 168.133 146.400,168.864 146.220,169.000 146.000 C 169.136 145.780,169.777 145.600,170.424 145.600 C 171.071 145.600,171.600 145.420,171.600 145.200 C 171.600 144.980,172.230 144.800,173.000 144.800 C 173.770 144.800,174.400 144.620,174.400 144.400 C 174.400 144.180,174.940 144.000,175.600 144.000 C 176.260 144.000,176.800 143.820,176.800 143.600 C 176.800 143.380,177.275 143.200,177.856 143.200 C 180.005 143.200,179.974 143.541,179.987 120.126 C 179.995 106.978,179.847 98.048,179.610 97.426 C 179.222 96.406,177.200 95.881,177.200 96.800 C 177.200 97.020,176.660 97.200,176.000 97.200 C 175.340 97.200,174.800 97.380,174.800 97.600 C 174.800 97.820,174.451 98.000,174.024 98.000 C 173.597 98.000,173.136 98.180,173.000 98.400 C 172.864 98.620,172.313 98.800,171.776 98.800 C 171.239 98.800,170.800 98.980,170.800 99.200 C 170.800 99.420,170.260 99.600,169.600 99.600 C 168.940 99.600,168.400 99.780,168.400 100.000 C 168.400 100.220,167.860 100.400,167.200 100.400 C 166.540 100.400,166.000 100.580,166.000 100.800 C 166.000 101.020,165.471 101.200,164.824 101.200 C 164.177 101.200,163.536 101.380,163.400 101.600 C 163.264 101.820,162.623 102.000,161.976 102.000 C 161.329 102.000,160.800 102.180,160.800 102.400 C 160.800 102.620,160.080 102.800,159.200 102.800 C 158.320 102.800,157.600 102.980,157.600 103.200 C 157.600 103.420,156.880 103.600,156.000 103.600 C 155.120 103.600,154.400 103.780,154.400 104.000 C 154.400 104.220,153.601 104.400,152.624 104.400 C 151.647 104.400,150.736 104.580,150.600 104.800 C 150.464 105.020,149.463 105.200,148.376 105.200 C 147.289 105.200,146.400 105.380,146.400 105.600 C 146.400 105.831,145.133 106.000,143.400 106.000 C 141.667 106.000,140.400 106.169,140.400 106.400 C 140.400 106.971,131.489 106.914,130.219 106.336 C 129.658 106.080,129.200 105.720,129.200 105.536 C 129.200 105.351,128.840 105.200,128.400 105.200 C 127.960 105.200,127.600 105.020,127.600 104.800 C 127.600 104.580,127.240 104.400,126.800 104.400 C 126.360 104.400,126.000 104.220,126.000 104.000 C 126.000 103.780,125.640 103.600,125.200 103.600 C 124.760 103.600,124.400 103.420,124.400 103.200 C 124.400 102.980,123.950 102.800,123.400 102.800 C 122.850 102.800,122.400 102.620,122.400 102.400 C 122.400 102.180,122.051 102.000,121.624 102.000 C 121.197 102.000,120.736 101.820,120.600 101.600 C 120.464 101.380,119.913 101.200,119.376 101.200 C 118.839 101.200,118.400 101.020,118.400 100.800 C 118.400 100.580,117.860 100.400,117.200 100.400 C 116.540 100.400,116.000 100.220,116.000 100.000 C 116.000 99.780,115.460 99.600,114.800 99.600 C 114.140 99.600,113.600 99.420,113.600 99.200 C 113.600 98.980,112.880 98.800,112.000 98.800 C 111.120 98.800,110.400 98.638,110.400 98.440 C 110.400 98.087,108.782 97.794,104.400 97.352 C 103.190 97.230,102.029 96.965,101.820 96.765 C 101.290 96.256,82.515 96.290,82.200 96.800 M199.800 104.900 C 200.245 116.187,200.433 278.527,200.002 278.958 C 199.762 279.198,199.600 282.311,199.600 286.680 L 199.600 294.000 224.609 294.000 L 249.618 294.000 249.402 278.300 C 248.950 245.499,248.790 126.250,249.198 125.842 C 249.451 125.589,249.600 120.517,249.600 112.120 L 249.600 98.800 224.580 98.800 L 199.560 98.800 199.800 104.900 M97.800 138.400 C 97.936 138.620,98.577 138.800,99.224 138.800 C 99.871 138.800,100.400 138.980,100.400 139.200 C 100.400 139.420,100.925 139.600,101.567 139.600 C 102.208 139.600,102.793 139.735,102.867 139.900 C 103.050 140.313,105.416 141.600,105.992 141.600 C 106.439 141.600,110.907 145.940,112.600 148.018 C 113.699 149.367,116.807 155.640,116.803 156.500 C 116.801 156.885,116.980 157.200,117.200 157.200 C 117.420 157.200,117.600 157.819,117.600 158.576 C 117.600 159.333,117.780 160.064,118.000 160.200 C 118.220 160.336,118.400 161.416,118.400 162.600 C 118.400 163.784,118.580 164.864,118.800 165.000 C 119.031 165.142,119.200 167.271,119.200 170.024 C 119.200 172.941,119.044 174.800,118.800 174.800 C 118.578 174.800,118.400 175.859,118.400 177.176 C 118.400 178.483,118.220 179.664,118.000 179.800 C 117.780 179.936,117.600 180.566,117.600 181.200 C 117.600 181.834,117.420 182.464,117.200 182.600 C 116.980 182.736,116.800 183.199,116.800 183.629 C 116.800 184.059,116.620 184.768,116.400 185.205 C 114.789 188.406,114.297 189.264,113.700 189.913 C 113.425 190.212,113.200 190.627,113.200 190.835 C 113.200 191.401,109.538 194.800,108.928 194.800 C 108.638 194.800,108.400 194.944,108.400 195.120 C 108.400 195.518,104.994 197.200,104.189 197.200 C 103.865 197.200,103.600 197.360,103.600 197.556 C 103.600 197.986,101.519 198.390,98.000 198.643 C 96.570 198.747,94.991 199.036,94.492 199.287 C 93.806 199.632,93.468 199.628,93.112 199.272 C 92.831 198.991,91.389 198.800,89.544 198.800 C 87.841 198.800,86.336 198.620,86.200 198.400 C 86.064 198.180,85.333 198.000,84.576 198.000 C 83.819 198.000,83.200 197.820,83.200 197.600 C 83.200 197.380,82.660 197.200,82.000 197.200 C 81.340 197.200,80.800 197.020,80.800 196.800 C 80.800 196.580,80.440 196.400,80.000 196.400 C 79.560 196.400,79.200 196.249,79.200 196.064 C 79.200 195.880,78.743 195.520,78.185 195.266 C 77.041 194.745,76.504 194.331,74.678 192.561 C 72.223 190.182,70.953 188.292,69.600 185.000 C 69.329 184.340,68.948 183.487,68.753 183.105 C 68.559 182.723,68.400 181.969,68.400 181.429 C 68.400 180.889,68.220 180.336,68.000 180.200 C 67.780 180.064,67.600 179.153,67.600 178.176 C 67.600 177.199,67.420 176.400,67.200 176.400 C 66.951 176.400,66.800 174.133,66.800 170.400 C 66.800 166.667,66.951 164.400,67.200 164.400 C 67.422 164.400,67.600 163.333,67.600 162.000 C 67.600 160.667,67.778 159.600,68.000 159.600 C 68.220 159.600,68.400 159.060,68.400 158.400 C 68.400 157.740,68.580 157.200,68.800 157.200 C 69.020 157.200,69.200 156.838,69.200 156.395 C 69.200 155.952,69.357 155.277,69.550 154.895 C 72.044 149.941,72.475 149.180,73.334 148.220 C 73.738 147.769,74.346 146.869,74.686 146.220 C 75.398 144.858,76.182 144.000,76.712 144.000 C 76.915 144.000,77.618 143.487,78.274 142.860 C 78.930 142.233,79.947 141.600,80.534 141.452 C 81.120 141.305,81.600 141.008,81.600 140.792 C 81.600 140.577,81.960 140.400,82.400 140.400 C 82.840 140.400,83.200 140.220,83.200 140.000 C 83.200 139.780,83.639 139.600,84.176 139.600 C 84.713 139.600,85.264 139.420,85.400 139.200 C 85.536 138.980,86.166 138.800,86.800 138.800 C 87.434 138.800,88.064 138.620,88.200 138.400 C 88.341 138.171,90.396 138.000,93.000 138.000 C 95.604 138.000,97.659 138.171,97.800 138.400 M108.400 317.200 C 108.400 317.420,109.289 317.600,110.376 317.600 C 111.463 317.600,112.464 317.780,112.600 318.000 C 112.736 318.220,113.379 318.400,114.029 318.400 C 114.679 318.400,115.568 318.580,116.005 318.800 C 116.442 319.020,117.158 319.380,117.595 319.600 C 118.032 319.820,118.752 320.000,119.195 320.000 C 119.638 320.000,120.000 320.180,120.000 320.400 C 120.000 320.620,120.360 320.800,120.800 320.800 C 121.240 320.800,121.600 320.980,121.600 321.200 C 121.600 321.420,121.960 321.600,122.400 321.600 C 122.840 321.600,123.200 321.741,123.200 321.914 C 123.200 322.086,123.735 322.543,124.388 322.929 C 126.003 323.883,128.091 325.965,128.773 327.300 C 129.082 327.905,129.485 328.400,129.668 328.400 C 129.850 328.400,130.000 328.749,130.000 329.176 C 130.000 329.603,130.180 330.064,130.400 330.200 C 130.620 330.336,130.800 330.851,130.800 331.344 C 130.800 331.837,130.990 332.430,131.222 332.662 C 132.077 333.517,131.263 346.400,130.355 346.400 C 130.160 346.400,130.000 346.760,130.000 347.200 C 130.000 347.640,129.820 348.000,129.600 348.000 C 129.380 348.000,129.200 348.289,129.200 348.642 C 129.200 349.198,128.731 349.908,126.794 352.283 C 126.577 352.549,126.400 352.954,126.400 353.183 C 126.400 353.412,126.112 353.600,125.760 353.600 C 125.409 353.600,124.617 354.140,124.000 354.800 C 123.383 355.460,122.591 356.000,122.240 356.000 C 121.888 356.000,121.600 356.180,121.600 356.400 C 121.600 356.620,121.240 356.800,120.800 356.800 C 120.360 356.800,120.000 356.980,120.000 357.200 C 120.000 357.420,119.550 357.600,119.000 357.600 C 118.450 357.600,118.000 357.780,118.000 358.000 C 118.000 358.220,117.561 358.400,117.024 358.400 C 116.487 358.400,115.936 358.580,115.800 358.800 C 115.664 359.020,114.948 359.200,114.210 359.200 C 113.471 359.200,112.792 359.425,112.700 359.700 C 112.571 360.087,109.351 360.200,98.400 360.200 C 87.449 360.200,84.229 360.087,84.100 359.700 C 84.005 359.415,83.269 359.200,82.390 359.200 C 81.542 359.200,80.736 359.020,80.600 358.800 C 80.464 358.580,79.733 358.400,78.976 358.400 C 78.219 358.400,77.600 358.220,77.600 358.000 C 77.600 357.780,77.060 357.600,76.400 357.600 C 75.740 357.600,75.200 357.454,75.200 357.275 C 75.200 357.096,74.570 356.702,73.800 356.400 C 73.030 356.098,72.400 355.704,72.400 355.525 C 72.400 355.346,72.128 355.200,71.796 355.200 C 71.464 355.200,70.628 354.660,69.937 354.000 C 69.246 353.340,68.504 352.800,68.288 352.800 C 67.818 352.800,66.582 351.426,65.679 349.900 C 65.320 349.295,64.886 348.800,64.714 348.800 C 64.541 348.800,64.400 348.440,64.400 348.000 C 64.400 347.560,64.220 347.200,64.000 347.200 C 63.780 347.200,63.600 346.840,63.600 346.400 C 63.600 345.960,63.420 345.600,63.200 345.600 C 62.980 345.600,62.800 344.970,62.800 344.200 C 62.800 343.430,62.620 342.800,62.400 342.800 C 62.163 342.800,62.000 341.341,62.000 339.224 C 62.000 337.257,62.180 335.536,62.400 335.400 C 62.620 335.264,62.800 334.544,62.800 333.800 C 62.800 333.056,62.980 332.336,63.200 332.200 C 63.420 332.064,63.600 331.513,63.600 330.976 C 63.600 330.439,63.780 330.000,64.000 330.000 C 64.220 330.000,64.400 329.640,64.400 329.200 C 64.400 328.760,64.580 328.400,64.800 328.400 C 65.020 328.400,65.200 328.144,65.200 327.831 C 65.200 326.307,73.424 320.000,75.412 320.000 C 75.735 320.000,76.000 319.820,76.000 319.600 C 76.000 319.380,76.540 319.200,77.200 319.200 C 77.860 319.200,78.400 319.020,78.400 318.800 C 78.400 318.580,79.019 318.400,79.776 318.400 C 80.533 318.400,81.264 318.220,81.400 318.000 C 81.536 317.780,82.436 317.600,83.400 317.600 C 84.364 317.600,85.264 317.420,85.400 317.200 C 85.555 316.949,89.871 316.800,97.024 316.800 C 104.341 316.800,108.400 316.943,108.400 317.200 " stroke="none" fill="#040404" fill-rule="evenodd"></path><path id="path1" d="" stroke="none" fill="#080404" fill-rule="evenodd"></path><path id="path2" d="" stroke="none" fill="#080404" fill-rule="evenodd"></path><path id="path3" d="" stroke="none" fill="#080404" fill-rule="evenodd"></path><path id="path4" d="" stroke="none" fill="#080404" fill-rule="evenodd"></path></g></svg>