<svg id="svg" version="1.1" xmlns="http://www.w3.org/2000/svg" xmlns:xlink="http://www.w3.org/1999/xlink" width="400" height="400" viewBox="0, 0, 400,400"><g id="svgg"><path id="path0" d="M194.418 0.292 C 194.098 0.418,193.479 0.854,193.043 1.261 C 192.606 1.667,192.079 2.000,191.871 2.000 C 191.353 2.000,189.601 4.083,189.600 4.700 C 189.600 4.975,189.420 5.200,189.200 5.200 C 188.980 5.200,188.800 5.560,188.800 6.000 C 188.800 6.440,188.620 6.800,188.400 6.800 C 188.180 6.800,188.000 7.689,188.000 8.776 C 188.000 9.863,187.820 10.864,187.600 11.000 C 187.380 11.136,187.200 12.677,187.200 14.424 L 187.200 17.600 186.000 17.600 C 185.340 17.600,184.800 17.780,184.800 18.000 C 184.800 18.241,183.133 18.400,180.600 18.400 C 178.067 18.400,176.400 18.559,176.400 18.800 C 176.400 19.033,175.067 19.200,173.200 19.200 C 171.333 19.200,170.000 19.367,170.000 19.600 C 170.000 19.820,169.010 20.000,167.800 20.000 C 166.590 20.000,165.600 20.180,165.600 20.400 C 165.600 20.620,164.700 20.800,163.600 20.800 C 162.500 20.800,161.600 20.980,161.600 21.200 C 161.600 21.420,160.880 21.600,160.000 21.600 C 159.120 21.600,158.400 21.780,158.400 22.000 C 158.400 22.220,157.601 22.400,156.624 22.400 C 155.647 22.400,154.736 22.580,154.600 22.800 C 154.464 23.020,153.823 23.200,153.176 23.200 C 152.529 23.200,152.000 23.380,152.000 23.600 C 152.000 23.820,151.381 24.000,150.624 24.000 C 149.867 24.000,149.136 24.180,149.000 24.400 C 148.864 24.620,148.223 24.800,147.576 24.800 C 146.929 24.800,146.400 24.980,146.400 25.200 C 146.400 25.420,145.860 25.600,145.200 25.600 C 144.540 25.600,144.000 25.780,144.000 26.000 C 144.000 26.220,143.550 26.400,143.000 26.400 C 142.450 26.400,142.000 26.557,142.000 26.748 C 142.000 26.940,141.084 27.218,139.965 27.367 C 138.846 27.515,137.541 27.837,137.065 28.081 C 135.148 29.065,134.779 29.200,134.005 29.200 C 133.562 29.200,133.200 29.380,133.200 29.600 C 133.200 29.820,132.865 30.000,132.456 30.000 C 131.836 30.000,129.478 31.024,125.905 32.846 C 125.523 33.041,124.938 33.200,124.605 33.200 C 124.272 33.200,124.000 33.380,124.000 33.600 C 124.000 33.820,123.640 34.000,123.200 34.000 C 122.760 34.000,122.400 34.180,122.400 34.400 C 122.400 34.620,122.040 34.800,121.600 34.800 C 121.160 34.800,120.800 34.980,120.800 35.200 C 120.800 35.420,120.440 35.600,120.000 35.600 C 119.560 35.600,119.200 35.780,119.200 36.000 C 119.200 36.220,118.840 36.400,118.400 36.400 C 117.960 36.400,117.600 36.580,117.600 36.800 C 117.600 37.020,117.240 37.200,116.800 37.200 C 116.360 37.200,116.000 37.346,116.000 37.525 C 116.000 37.704,115.370 38.098,114.600 38.400 C 113.830 38.702,113.200 39.096,113.200 39.275 C 113.200 39.454,112.930 39.600,112.600 39.600 C 112.270 39.600,112.000 39.780,112.000 40.000 C 112.000 40.220,111.640 40.400,111.200 40.400 C 110.760 40.400,110.400 40.580,110.400 40.800 C 110.400 41.020,110.130 41.200,109.800 41.200 C 109.470 41.200,109.200 41.380,109.200 41.600 C 109.200 41.820,108.880 42.000,108.488 42.000 C 108.097 42.000,107.517 42.360,107.200 42.800 C 106.883 43.240,106.376 43.600,106.073 43.600 C 105.452 43.600,103.290 44.743,102.479 45.500 C 102.184 45.775,101.804 46.000,101.634 46.000 C 101.464 46.000,100.801 46.450,100.162 47.000 C 99.523 47.549,98.775 47.999,98.500 48.000 C 98.225 48.000,98.000 48.138,98.000 48.306 C 98.000 48.474,97.280 49.056,96.400 49.600 C 95.520 50.144,94.800 50.726,94.800 50.894 C 94.800 51.062,94.612 51.200,94.382 51.200 C 94.152 51.200,93.514 51.650,92.964 52.200 C 92.414 52.750,91.798 53.200,91.595 53.200 C 91.392 53.200,90.597 53.830,89.827 54.600 C 89.057 55.370,88.227 56.000,87.982 56.000 C 87.737 56.000,86.846 56.720,86.000 57.600 C 85.154 58.480,84.258 59.200,84.008 59.200 C 83.758 59.200,82.737 59.965,81.740 60.899 C 80.743 61.833,79.463 62.958,78.896 63.399 C 77.552 64.442,64.442 77.552,63.399 78.896 C 62.958 79.463,61.833 80.743,60.899 81.740 C 59.965 82.737,59.200 83.758,59.200 84.008 C 59.200 84.258,58.480 85.154,57.600 86.000 C 56.720 86.846,56.000 87.749,56.000 88.008 C 56.000 88.267,55.460 88.983,54.800 89.600 C 54.140 90.217,53.600 90.892,53.600 91.101 C 53.600 91.310,53.060 92.046,52.400 92.737 C 51.740 93.428,51.200 94.174,51.200 94.396 C 51.200 94.618,51.062 94.800,50.894 94.800 C 50.726 94.800,50.144 95.520,49.600 96.400 C 49.056 97.280,48.474 98.000,48.306 98.000 C 48.138 98.000,48.000 98.225,48.000 98.500 C 47.999 98.775,47.549 99.523,47.000 100.162 C 46.450 100.801,46.000 101.464,46.000 101.634 C 46.000 101.804,45.775 102.184,45.500 102.479 C 44.743 103.290,43.600 105.452,43.600 106.073 C 43.600 106.376,43.240 106.883,42.800 107.200 C 42.360 107.517,42.000 108.097,42.000 108.488 C 42.000 108.880,41.820 109.200,41.600 109.200 C 41.380 109.200,41.200 109.470,41.200 109.800 C 41.200 110.130,41.020 110.400,40.800 110.400 C 40.580 110.400,40.400 110.760,40.400 111.200 C 40.400 111.640,40.220 112.000,40.000 112.000 C 39.780 112.000,39.600 112.270,39.600 112.600 C 39.600 112.930,39.454 113.200,39.275 113.200 C 39.096 113.200,38.702 113.830,38.400 114.600 C 38.098 115.370,37.704 116.000,37.525 116.000 C 37.346 116.000,37.200 116.360,37.200 116.800 C 37.200 117.240,37.020 117.600,36.800 117.600 C 36.580 117.600,36.400 117.960,36.400 118.400 C 36.400 118.840,36.220 119.200,36.000 119.200 C 35.780 119.200,35.600 119.560,35.600 120.000 C 35.600 120.440,35.420 120.800,35.200 120.800 C 34.980 120.800,34.800 121.160,34.800 121.600 C 34.800 122.040,34.620 122.400,34.400 122.400 C 34.180 122.400,34.000 122.760,34.000 123.200 C 34.000 123.640,33.820 124.000,33.600 124.000 C 33.380 124.000,33.200 124.272,33.200 124.605 C 33.200 124.938,33.041 125.523,32.846 125.905 C 31.024 129.478,30.000 131.836,30.000 132.456 C 30.000 132.865,29.820 133.200,29.600 133.200 C 29.380 133.200,29.200 133.562,29.200 134.005 C 29.200 134.448,29.020 135.168,28.800 135.605 C 28.580 136.042,28.235 136.734,28.033 137.141 C 27.832 137.549,27.541 138.721,27.387 139.746 C 27.233 140.771,26.948 141.708,26.754 141.829 C 26.559 141.949,26.400 142.487,26.400 143.024 C 26.400 143.561,26.220 144.000,26.000 144.000 C 25.780 144.000,25.600 144.540,25.600 145.200 C 25.600 145.860,25.420 146.400,25.200 146.400 C 24.980 146.400,24.800 146.940,24.800 147.600 C 24.800 148.260,24.620 148.800,24.400 148.800 C 24.180 148.800,24.000 149.520,24.000 150.400 C 24.000 151.280,23.820 152.000,23.600 152.000 C 23.380 152.000,23.200 152.529,23.200 153.176 C 23.200 153.823,23.020 154.464,22.800 154.600 C 22.580 154.736,22.400 155.647,22.400 156.624 C 22.400 157.601,22.220 158.400,22.000 158.400 C 21.780 158.400,21.600 159.120,21.600 160.000 C 21.600 160.880,21.420 161.600,21.200 161.600 C 20.980 161.600,20.800 162.399,20.800 163.376 C 20.800 164.353,20.620 165.264,20.400 165.400 C 20.180 165.536,20.000 166.627,20.000 167.824 C 20.000 169.021,19.820 170.000,19.600 170.000 C 19.369 170.000,19.200 171.259,19.200 172.976 C 19.200 174.613,19.020 176.064,18.800 176.200 C 18.577 176.338,18.400 178.196,18.400 180.400 C 18.400 182.604,18.223 184.462,18.000 184.600 C 17.780 184.736,17.600 185.557,17.600 186.424 L 17.600 188.000 12.200 188.000 C 8.867 188.000,6.800 188.153,6.800 188.400 C 6.800 188.620,6.440 188.800,6.000 188.800 C 5.560 188.800,5.200 188.980,5.200 189.200 C 5.200 189.420,4.975 189.600,4.700 189.600 C 4.083 189.601,2.000 191.353,2.000 191.871 C 2.000 192.079,1.595 192.684,1.100 193.215 C -0.726 195.174,-0.255 207.600,1.646 207.600 C 1.841 207.600,2.000 207.793,2.000 208.029 C 2.000 208.631,3.038 209.600,3.683 209.600 C 3.980 209.600,4.483 209.960,4.800 210.400 C 5.117 210.840,5.686 211.200,6.065 211.200 C 6.443 211.200,6.864 211.380,7.000 211.600 C 7.144 211.833,9.404 212.000,12.424 212.000 L 17.600 212.000 17.600 213.576 C 17.600 214.443,17.780 215.264,18.000 215.400 C 18.223 215.538,18.400 217.396,18.400 219.600 C 18.400 221.804,18.577 223.662,18.800 223.800 C 19.020 223.936,19.200 225.387,19.200 227.024 C 19.200 228.741,19.369 230.000,19.600 230.000 C 19.820 230.000,20.000 230.979,20.000 232.176 C 20.000 233.373,20.180 234.464,20.400 234.600 C 20.620 234.736,20.800 235.636,20.800 236.600 C 20.800 237.564,20.980 238.464,21.200 238.600 C 21.420 238.736,21.600 239.467,21.600 240.224 C 21.600 240.981,21.780 241.600,22.000 241.600 C 22.220 241.600,22.400 242.399,22.400 243.376 C 22.400 244.353,22.580 245.264,22.800 245.400 C 23.020 245.536,23.200 246.177,23.200 246.824 C 23.200 247.471,23.380 248.000,23.600 248.000 C 23.820 248.000,24.000 248.720,24.000 249.600 C 24.000 250.480,24.180 251.200,24.400 251.200 C 24.620 251.200,24.800 251.740,24.800 252.400 C 24.800 253.060,24.980 253.600,25.200 253.600 C 25.420 253.600,25.600 254.140,25.600 254.800 C 25.600 255.460,25.780 256.000,26.000 256.000 C 26.220 256.000,26.400 256.540,26.400 257.200 C 26.400 257.860,26.560 258.400,26.755 258.400 C 26.950 258.400,27.236 259.255,27.392 260.300 C 27.548 261.345,27.812 262.380,27.979 262.600 C 28.147 262.820,28.529 263.855,28.829 264.900 C 29.129 265.945,29.515 266.800,29.687 266.800 C 29.859 266.800,30.000 267.155,30.000 267.588 C 30.000 268.021,30.360 269.017,30.800 269.800 C 31.240 270.583,31.600 271.489,31.600 271.812 C 31.600 272.135,31.780 272.400,32.000 272.400 C 32.220 272.400,32.400 272.749,32.400 273.176 C 32.400 273.603,32.580 274.064,32.800 274.200 C 33.020 274.336,33.200 274.797,33.200 275.224 C 33.200 275.651,33.380 276.000,33.600 276.000 C 33.820 276.000,34.000 276.360,34.000 276.800 C 34.000 277.240,34.180 277.600,34.400 277.600 C 34.620 277.600,34.800 277.960,34.800 278.400 C 34.800 278.840,34.980 279.200,35.200 279.200 C 35.420 279.200,35.600 279.560,35.600 280.000 C 35.600 280.440,35.780 280.800,36.000 280.800 C 36.220 280.800,36.400 281.160,36.400 281.600 C 36.400 282.040,36.580 282.400,36.800 282.400 C 37.020 282.400,37.200 282.760,37.200 283.200 C 37.200 283.640,37.380 284.000,37.600 284.000 C 37.820 284.000,38.000 284.278,38.000 284.617 C 38.000 284.956,38.360 285.620,38.800 286.092 C 39.240 286.564,39.600 287.187,39.600 287.475 C 39.600 287.764,39.780 288.000,40.000 288.000 C 40.220 288.000,40.400 288.360,40.400 288.800 C 40.400 289.240,40.536 289.600,40.702 289.600 C 40.869 289.600,41.260 290.185,41.572 290.900 C 41.884 291.615,42.468 292.491,42.870 292.847 C 43.271 293.203,43.600 293.715,43.600 293.985 C 43.600 294.547,44.769 296.736,45.474 297.495 C 45.734 297.775,46.062 298.364,46.201 298.802 C 46.340 299.241,46.610 299.600,46.800 299.600 C 46.990 299.600,47.253 299.938,47.384 300.351 C 47.516 300.764,48.067 301.619,48.611 302.251 C 49.154 302.883,49.599 303.585,49.600 303.812 C 49.600 304.038,49.960 304.483,50.400 304.800 C 50.840 305.117,51.200 305.607,51.200 305.888 C 51.200 306.170,51.380 306.400,51.600 306.400 C 51.820 306.400,52.000 306.630,52.000 306.912 C 52.000 307.193,52.360 307.683,52.800 308.000 C 53.240 308.317,53.600 308.735,53.600 308.928 C 53.600 309.121,54.140 309.783,54.800 310.400 C 55.460 311.017,56.000 311.733,56.000 311.992 C 56.000 312.251,56.720 313.154,57.600 314.000 C 58.480 314.846,59.200 315.744,59.200 315.997 C 59.200 316.250,59.425 316.686,59.700 316.966 C 59.975 317.246,61.100 318.514,62.200 319.785 C 67.038 325.375,82.213 340.061,84.257 341.131 C 84.886 341.461,85.877 342.241,86.460 342.865 C 87.044 343.489,87.737 344.000,88.000 344.000 C 88.263 344.000,88.983 344.540,89.600 345.200 C 90.217 345.860,90.892 346.400,91.101 346.400 C 91.310 346.400,92.046 346.940,92.737 347.600 C 93.428 348.260,94.174 348.800,94.396 348.800 C 94.618 348.800,94.800 348.938,94.800 349.106 C 94.800 349.274,95.520 349.856,96.400 350.400 C 97.280 350.944,98.000 351.526,98.000 351.694 C 98.000 351.862,98.225 352.000,98.500 352.000 C 98.775 352.001,99.523 352.451,100.162 353.000 C 100.801 353.550,101.464 354.000,101.634 354.000 C 101.804 354.000,102.181 354.228,102.471 354.506 C 102.762 354.784,103.855 355.459,104.900 356.005 C 105.945 356.552,106.800 357.094,106.800 357.210 C 106.800 357.326,107.608 357.776,108.596 358.210 C 109.584 358.645,110.394 359.135,110.396 359.300 C 110.398 359.465,110.745 359.600,111.167 359.600 C 111.588 359.600,111.993 359.735,112.067 359.900 C 112.234 360.276,114.364 361.575,115.300 361.871 C 115.685 361.993,116.000 362.252,116.000 362.447 C 116.000 362.641,116.360 362.800,116.800 362.800 C 117.240 362.800,117.600 362.980,117.600 363.200 C 117.600 363.420,117.960 363.600,118.400 363.600 C 118.840 363.600,119.200 363.780,119.200 364.000 C 119.200 364.220,119.560 364.400,120.000 364.400 C 120.440 364.400,120.800 364.580,120.800 364.800 C 120.800 365.020,121.160 365.200,121.600 365.200 C 122.040 365.200,122.400 365.380,122.400 365.600 C 122.400 365.820,122.760 366.000,123.200 366.000 C 123.640 366.000,124.000 366.180,124.000 366.400 C 124.000 366.620,124.272 366.800,124.605 366.800 C 124.938 366.800,125.523 366.957,125.905 367.150 C 128.880 368.648,130.153 369.200,130.638 369.200 C 130.947 369.200,131.200 369.380,131.200 369.600 C 131.200 369.820,131.650 370.000,132.200 370.000 C 132.750 370.000,133.200 370.180,133.200 370.400 C 133.200 370.620,133.562 370.800,134.005 370.800 C 134.448 370.800,135.168 370.980,135.605 371.200 C 136.042 371.420,136.758 371.780,137.195 372.000 C 137.632 372.220,138.352 372.400,138.795 372.400 C 139.238 372.400,139.600 372.580,139.600 372.800 C 139.600 373.020,140.140 373.200,140.800 373.200 C 141.460 373.200,142.000 373.380,142.000 373.600 C 142.000 373.820,142.439 374.000,142.976 374.000 C 143.513 374.000,144.056 374.167,144.183 374.372 C 144.309 374.577,145.400 374.867,146.606 375.018 C 147.813 375.169,148.800 375.451,148.800 375.646 C 148.800 375.841,149.520 376.000,150.400 376.000 C 151.280 376.000,152.000 376.180,152.000 376.400 C 152.000 376.620,152.529 376.800,153.176 376.800 C 153.823 376.800,154.464 376.980,154.600 377.200 C 154.736 377.420,155.647 377.600,156.624 377.600 C 157.601 377.600,158.400 377.780,158.400 378.000 C 158.400 378.220,159.120 378.400,160.000 378.400 C 160.880 378.400,161.600 378.580,161.600 378.800 C 161.600 379.020,162.500 379.200,163.600 379.200 C 164.700 379.200,165.600 379.380,165.600 379.600 C 165.600 379.820,166.590 380.000,167.800 380.000 C 169.010 380.000,170.000 380.180,170.000 380.400 C 170.000 380.633,171.333 380.800,173.200 380.800 C 175.067 380.800,176.400 380.967,176.400 381.200 C 176.400 381.441,178.067 381.600,180.600 381.600 C 183.133 381.600,184.800 381.759,184.800 382.000 C 184.800 382.220,185.520 382.400,186.400 382.400 L 188.000 382.400 188.000 387.800 C 188.000 391.133,188.153 393.200,188.400 393.200 C 188.620 393.200,188.800 393.560,188.800 394.000 C 188.800 394.440,188.980 394.800,189.200 394.800 C 189.420 394.800,189.600 395.025,189.600 395.300 C 189.601 395.995,191.383 398.000,192.000 398.000 C 192.278 398.000,192.857 398.405,193.286 398.900 C 194.882 400.740,207.600 400.256,207.600 398.354 C 207.600 398.159,207.793 398.000,208.029 398.000 C 208.586 398.000,209.261 397.269,209.968 395.900 C 210.280 395.295,210.685 394.800,210.868 394.800 C 211.050 394.800,211.200 394.440,211.200 394.000 C 211.200 393.560,211.380 393.200,211.600 393.200 C 211.847 393.200,212.000 391.133,212.000 387.800 L 212.000 382.400 213.600 382.400 C 214.480 382.400,215.200 382.220,215.200 382.000 C 215.200 381.759,216.859 381.600,219.376 381.600 C 221.729 381.600,223.661 381.425,223.800 381.200 C 223.936 380.980,225.387 380.800,227.024 380.800 C 228.741 380.800,230.000 380.631,230.000 380.400 C 230.000 380.180,230.979 380.000,232.176 380.000 C 233.373 380.000,234.464 379.820,234.600 379.600 C 234.736 379.380,235.636 379.200,236.600 379.200 C 237.564 379.200,238.464 379.020,238.600 378.800 C 238.736 378.580,239.467 378.400,240.224 378.400 C 240.981 378.400,241.600 378.220,241.600 378.000 C 241.600 377.780,242.399 377.600,243.376 377.600 C 244.353 377.600,245.264 377.420,245.400 377.200 C 245.536 376.980,246.177 376.800,246.824 376.800 C 247.471 376.800,248.000 376.620,248.000 376.400 C 248.000 376.180,248.720 376.000,249.600 376.000 C 250.480 376.000,251.200 375.841,251.200 375.646 C 251.200 375.451,252.187 375.169,253.394 375.018 C 254.600 374.867,255.691 374.577,255.817 374.372 C 255.944 374.167,256.476 374.000,257.000 374.000 C 257.524 374.000,258.064 373.820,258.200 373.600 C 258.336 373.380,258.887 373.200,259.424 373.200 C 259.961 373.200,260.400 373.020,260.400 372.800 C 260.400 372.580,260.940 372.400,261.600 372.400 C 262.260 372.400,262.800 372.220,262.800 372.000 C 262.800 371.780,263.149 371.600,263.576 371.600 C 264.003 371.600,264.464 371.420,264.600 371.200 C 264.736 370.980,265.287 370.800,265.824 370.800 C 266.361 370.800,266.800 370.620,266.800 370.400 C 266.800 370.180,267.239 370.000,267.776 370.000 C 268.313 370.000,268.864 369.820,269.000 369.600 C 269.136 369.380,269.597 369.200,270.024 369.200 C 270.451 369.200,270.800 369.020,270.800 368.800 C 270.800 368.580,271.160 368.400,271.600 368.400 C 272.040 368.400,272.400 368.220,272.400 368.000 C 272.400 367.780,272.850 367.600,273.400 367.600 C 273.950 367.600,274.400 367.420,274.400 367.200 C 274.400 366.980,274.760 366.800,275.200 366.800 C 275.640 366.800,276.000 366.620,276.000 366.400 C 276.000 366.180,276.360 366.000,276.800 366.000 C 277.240 366.000,277.600 365.820,277.600 365.600 C 277.600 365.380,277.960 365.200,278.400 365.200 C 278.840 365.200,279.200 365.020,279.200 364.800 C 279.200 364.580,279.560 364.400,280.000 364.400 C 280.440 364.400,280.800 364.220,280.800 364.000 C 280.800 363.780,281.160 363.600,281.600 363.600 C 282.040 363.600,282.400 363.420,282.400 363.200 C 282.400 362.980,282.760 362.800,283.200 362.800 C 283.640 362.800,284.000 362.620,284.000 362.400 C 284.000 362.180,284.360 362.000,284.800 362.000 C 285.240 362.000,285.600 361.820,285.600 361.600 C 285.600 361.380,285.870 361.200,286.200 361.200 C 286.530 361.200,286.800 361.020,286.800 360.800 C 286.800 360.580,287.070 360.400,287.400 360.400 C 287.730 360.400,288.000 360.220,288.000 360.000 C 288.000 359.780,288.360 359.600,288.800 359.600 C 289.240 359.600,289.600 359.456,289.600 359.280 C 289.600 359.105,290.228 358.734,290.996 358.456 C 291.763 358.178,292.624 357.737,292.908 357.476 C 293.632 356.809,295.665 355.593,296.500 355.329 C 296.885 355.207,297.200 354.970,297.200 354.802 C 297.200 354.634,297.740 354.273,298.400 354.000 C 299.060 353.727,299.600 353.367,299.600 353.200 C 299.600 353.033,300.140 352.673,300.800 352.400 C 301.460 352.127,302.000 351.745,302.000 351.551 C 302.000 351.358,302.270 351.200,302.600 351.200 C 302.930 351.200,303.200 351.020,303.200 350.800 C 303.200 350.580,303.430 350.400,303.712 350.400 C 303.993 350.400,304.483 350.040,304.800 349.600 C 305.117 349.160,305.607 348.800,305.888 348.800 C 306.170 348.800,306.400 348.620,306.400 348.400 C 306.400 348.180,306.630 348.000,306.912 348.000 C 307.193 348.000,307.683 347.640,308.000 347.200 C 308.317 346.760,308.735 346.400,308.928 346.400 C 309.121 346.400,309.783 345.860,310.400 345.200 C 311.017 344.540,311.737 344.000,312.000 344.000 C 312.263 344.000,312.956 343.489,313.540 342.865 C 314.123 342.241,315.114 341.461,315.743 341.131 C 318.769 339.546,339.546 318.769,341.131 315.743 C 341.461 315.114,342.241 314.123,342.865 313.540 C 343.489 312.956,344.000 312.263,344.000 312.000 C 344.000 311.737,344.540 311.017,345.200 310.400 C 345.860 309.783,346.400 309.121,346.400 308.928 C 346.400 308.735,346.760 308.317,347.200 308.000 C 347.640 307.683,348.000 307.193,348.000 306.912 C 348.000 306.630,348.180 306.400,348.400 306.400 C 348.620 306.400,348.800 306.170,348.800 305.888 C 348.800 305.607,349.160 305.117,349.600 304.800 C 350.040 304.483,350.400 303.993,350.400 303.712 C 350.400 303.430,350.580 303.200,350.800 303.200 C 351.020 303.200,351.200 302.930,351.200 302.600 C 351.200 302.270,351.358 302.000,351.551 302.000 C 351.745 302.000,352.127 301.460,352.400 300.800 C 352.673 300.140,353.033 299.600,353.200 299.600 C 353.367 299.600,353.727 299.060,354.000 298.400 C 354.273 297.740,354.634 297.200,354.802 297.200 C 354.970 297.200,355.207 296.885,355.329 296.500 C 355.593 295.665,356.809 293.632,357.476 292.908 C 357.737 292.624,358.178 291.763,358.456 290.996 C 358.734 290.228,359.105 289.600,359.280 289.600 C 359.456 289.600,359.600 289.240,359.600 288.800 C 359.600 288.360,359.780 288.000,360.000 288.000 C 360.220 288.000,360.400 287.730,360.400 287.400 C 360.400 287.070,360.580 286.800,360.800 286.800 C 361.020 286.800,361.200 286.530,361.200 286.200 C 361.200 285.870,361.380 285.600,361.600 285.600 C 361.820 285.600,362.000 285.240,362.000 284.800 C 362.000 284.360,362.180 284.000,362.400 284.000 C 362.620 284.000,362.800 283.640,362.800 283.200 C 362.800 282.760,362.980 282.400,363.200 282.400 C 363.420 282.400,363.600 282.040,363.600 281.600 C 363.600 281.160,363.780 280.800,364.000 280.800 C 364.220 280.800,364.400 280.440,364.400 280.000 C 364.400 279.560,364.580 279.200,364.800 279.200 C 365.020 279.200,365.200 278.840,365.200 278.400 C 365.200 277.960,365.380 277.600,365.600 277.600 C 365.820 277.600,366.000 277.240,366.000 276.800 C 366.000 276.360,366.180 276.000,366.400 276.000 C 366.620 276.000,366.800 275.651,366.800 275.224 C 366.800 274.797,366.980 274.336,367.200 274.200 C 367.420 274.064,367.600 273.603,367.600 273.176 C 367.600 272.749,367.780 272.400,368.000 272.400 C 368.220 272.400,368.400 272.040,368.400 271.600 C 368.400 271.160,368.580 270.800,368.800 270.800 C 369.020 270.800,369.200 270.451,369.200 270.024 C 369.200 269.597,369.380 269.136,369.600 269.000 C 369.820 268.864,370.000 268.313,370.000 267.776 C 370.000 267.239,370.180 266.800,370.400 266.800 C 370.620 266.800,370.800 266.361,370.800 265.824 C 370.800 265.287,370.980 264.736,371.200 264.600 C 371.420 264.464,371.600 264.003,371.600 263.576 C 371.600 263.149,371.780 262.800,372.000 262.800 C 372.220 262.800,372.400 262.260,372.400 261.600 C 372.400 260.940,372.580 260.400,372.800 260.400 C 373.020 260.400,373.200 259.961,373.200 259.424 C 373.200 258.887,373.380 258.336,373.600 258.200 C 373.820 258.064,374.000 257.524,374.000 257.000 C 374.000 256.476,374.167 255.944,374.372 255.817 C 374.577 255.691,374.867 254.600,375.018 253.394 C 375.169 252.187,375.451 251.200,375.646 251.200 C 375.841 251.200,376.000 250.480,376.000 249.600 C 376.000 248.720,376.180 248.000,376.400 248.000 C 376.620 248.000,376.800 247.460,376.800 246.800 C 376.800 246.140,376.980 245.600,377.200 245.600 C 377.420 245.600,377.600 244.700,377.600 243.600 C 377.600 242.500,377.780 241.600,378.000 241.600 C 378.220 241.600,378.400 240.981,378.400 240.224 C 378.400 239.467,378.580 238.736,378.800 238.600 C 379.020 238.464,379.200 237.564,379.200 236.600 C 379.200 235.636,379.380 234.736,379.600 234.600 C 379.820 234.464,380.000 233.373,380.000 232.176 C 380.000 230.979,380.180 230.000,380.400 230.000 C 380.631 230.000,380.800 228.741,380.800 227.024 C 380.800 225.387,380.980 223.936,381.200 223.800 C 381.423 223.662,381.600 221.804,381.600 219.600 C 381.600 217.396,381.777 215.538,382.000 215.400 C 382.220 215.264,382.400 214.443,382.400 213.576 L 382.400 212.000 387.400 212.000 C 390.467 212.000,392.400 211.845,392.400 211.600 C 392.400 211.380,392.874 211.200,393.453 211.200 C 394.032 211.200,394.797 210.884,395.153 210.497 C 395.509 210.111,396.295 209.540,396.900 209.230 C 397.505 208.919,398.000 208.425,398.000 208.132 C 398.000 207.840,398.180 207.600,398.400 207.600 C 398.620 207.600,398.800 207.345,398.800 207.033 C 398.800 206.722,399.025 206.392,399.300 206.300 C 400.174 206.008,399.992 194.334,399.100 193.442 C 398.715 193.058,398.400 192.595,398.400 192.414 C 398.400 191.802,396.084 189.600,395.440 189.600 C 395.088 189.600,394.800 189.420,394.800 189.200 C 394.800 188.980,394.440 188.800,394.000 188.800 C 393.560 188.800,393.200 188.620,393.200 188.400 C 393.200 188.180,392.401 188.000,391.424 188.000 C 390.447 188.000,389.536 187.820,389.400 187.600 C 389.264 187.380,387.633 187.200,385.776 187.200 L 382.400 187.200 382.400 186.024 C 382.400 185.377,382.220 184.736,382.000 184.600 C 381.777 184.462,381.600 182.596,381.600 180.376 C 381.600 177.992,381.440 176.400,381.200 176.400 C 380.967 176.400,380.800 175.067,380.800 173.200 C 380.800 171.333,380.633 170.000,380.400 170.000 C 380.180 170.000,380.000 169.010,380.000 167.800 C 380.000 166.590,379.820 165.600,379.600 165.600 C 379.380 165.600,379.200 164.700,379.200 163.600 C 379.200 162.500,379.020 161.600,378.800 161.600 C 378.580 161.600,378.400 160.880,378.400 160.000 C 378.400 159.120,378.220 158.400,378.000 158.400 C 377.780 158.400,377.600 157.500,377.600 156.400 C 377.600 155.300,377.420 154.400,377.200 154.400 C 376.980 154.400,376.800 153.860,376.800 153.200 C 376.800 152.540,376.620 152.000,376.400 152.000 C 376.180 152.000,376.000 151.280,376.000 150.400 C 376.000 149.520,375.841 148.800,375.646 148.800 C 375.451 148.800,375.169 147.813,375.018 146.606 C 374.867 145.400,374.577 144.309,374.372 144.183 C 374.167 144.056,374.000 143.513,374.000 142.976 C 374.000 142.439,373.820 142.000,373.600 142.000 C 373.380 142.000,373.200 141.460,373.200 140.800 C 373.200 140.140,373.020 139.600,372.800 139.600 C 372.580 139.600,372.400 139.060,372.400 138.400 C 372.400 137.740,372.220 137.200,372.000 137.200 C 371.780 137.200,371.600 136.851,371.600 136.424 C 371.600 135.997,371.420 135.536,371.200 135.400 C 370.980 135.264,370.800 134.713,370.800 134.176 C 370.800 133.639,370.620 133.200,370.400 133.200 C 370.180 133.200,370.000 132.750,370.000 132.200 C 370.000 131.650,369.820 131.200,369.600 131.200 C 369.380 131.200,369.200 130.947,369.200 130.638 C 369.200 130.153,368.648 128.880,367.150 125.905 C 366.957 125.523,366.800 124.938,366.800 124.605 C 366.800 124.272,366.620 124.000,366.400 124.000 C 366.180 124.000,366.000 123.640,366.000 123.200 C 366.000 122.760,365.820 122.400,365.600 122.400 C 365.380 122.400,365.200 122.040,365.200 121.600 C 365.200 121.160,365.020 120.800,364.800 120.800 C 364.580 120.800,364.400 120.440,364.400 120.000 C 364.400 119.560,364.220 119.200,364.000 119.200 C 363.780 119.200,363.600 118.840,363.600 118.400 C 363.600 117.960,363.420 117.600,363.200 117.600 C 362.980 117.600,362.800 117.240,362.800 116.800 C 362.800 116.360,362.620 116.000,362.400 116.000 C 362.180 116.000,362.000 115.640,362.000 115.200 C 362.000 114.760,361.820 114.400,361.600 114.400 C 361.380 114.400,361.200 114.130,361.200 113.800 C 361.200 113.470,361.020 113.200,360.800 113.200 C 360.580 113.200,360.400 112.930,360.400 112.600 C 360.400 112.270,360.220 112.000,360.000 112.000 C 359.780 112.000,359.600 111.640,359.600 111.200 C 359.600 110.760,359.456 110.400,359.280 110.400 C 359.105 110.400,358.734 109.772,358.456 109.004 C 358.178 108.237,357.737 107.376,357.476 107.092 C 356.809 106.368,355.593 104.335,355.329 103.500 C 355.207 103.115,354.970 102.800,354.802 102.800 C 354.634 102.800,354.273 102.260,354.000 101.600 C 353.727 100.940,353.345 100.400,353.151 100.400 C 352.958 100.400,352.800 100.175,352.800 99.900 C 352.799 99.625,352.334 98.860,351.765 98.200 C 351.196 97.540,350.437 96.505,350.079 95.900 C 349.721 95.295,349.286 94.800,349.114 94.800 C 348.941 94.800,348.800 94.570,348.800 94.288 C 348.800 94.007,348.440 93.517,348.000 93.200 C 347.560 92.883,347.200 92.431,347.200 92.196 C 347.200 91.960,346.480 90.972,345.600 90.000 C 344.720 89.028,344.000 88.072,344.000 87.876 C 344.000 87.681,343.489 87.044,342.865 86.460 C 342.241 85.877,341.461 84.886,341.131 84.257 C 340.062 82.215,325.259 66.914,319.794 62.200 C 318.518 61.100,317.246 59.975,316.966 59.700 C 316.686 59.425,316.250 59.200,315.997 59.200 C 315.744 59.200,314.846 58.480,314.000 57.600 C 313.154 56.720,312.295 56.000,312.091 56.000 C 311.886 56.000,311.154 55.460,310.463 54.800 C 309.772 54.140,309.065 53.600,308.892 53.600 C 308.719 53.600,308.317 53.240,308.000 52.800 C 307.683 52.360,307.193 52.000,306.912 52.000 C 306.630 52.000,306.400 51.820,306.400 51.600 C 306.400 51.380,306.170 51.200,305.888 51.200 C 305.607 51.200,305.117 50.840,304.800 50.400 C 304.483 49.960,304.038 49.600,303.812 49.600 C 303.585 49.599,302.883 49.154,302.251 48.611 C 301.619 48.067,300.764 47.516,300.351 47.384 C 299.938 47.253,299.600 46.990,299.600 46.800 C 299.600 46.610,299.241 46.340,298.802 46.201 C 298.364 46.062,297.775 45.734,297.495 45.474 C 296.736 44.769,294.547 43.600,293.985 43.600 C 293.715 43.600,293.203 43.271,292.847 42.870 C 292.491 42.468,291.615 41.884,290.900 41.572 C 290.185 41.260,289.600 40.869,289.600 40.702 C 289.600 40.536,289.322 40.400,288.983 40.400 C 288.644 40.400,287.980 40.040,287.508 39.600 C 287.036 39.160,286.413 38.800,286.125 38.800 C 285.836 38.800,285.600 38.620,285.600 38.400 C 285.600 38.180,285.240 38.000,284.800 38.000 C 284.360 38.000,284.000 37.820,284.000 37.600 C 284.000 37.380,283.640 37.200,283.200 37.200 C 282.760 37.200,282.400 37.020,282.400 36.800 C 282.400 36.580,282.040 36.400,281.600 36.400 C 281.160 36.400,280.800 36.220,280.800 36.000 C 280.800 35.780,280.440 35.600,280.000 35.600 C 279.560 35.600,279.200 35.420,279.200 35.200 C 279.200 34.980,278.840 34.800,278.400 34.800 C 277.960 34.800,277.600 34.620,277.600 34.400 C 277.600 34.180,277.240 34.000,276.800 34.000 C 276.360 34.000,276.000 33.820,276.000 33.600 C 276.000 33.380,275.651 33.200,275.224 33.200 C 274.797 33.200,274.336 33.020,274.200 32.800 C 274.064 32.580,273.603 32.400,273.176 32.400 C 272.749 32.400,272.400 32.220,272.400 32.000 C 272.400 31.780,272.135 31.600,271.812 31.600 C 271.489 31.600,270.583 31.240,269.800 30.800 C 269.017 30.360,268.021 30.000,267.588 30.000 C 267.155 30.000,266.800 29.859,266.800 29.687 C 266.800 29.515,265.945 29.129,264.900 28.829 C 263.855 28.529,262.820 28.147,262.600 27.979 C 262.380 27.812,261.345 27.548,260.300 27.392 C 259.255 27.236,258.400 26.950,258.400 26.755 C 258.400 26.560,257.860 26.400,257.200 26.400 C 256.540 26.400,256.000 26.220,256.000 26.000 C 256.000 25.780,255.460 25.600,254.800 25.600 C 254.140 25.600,253.600 25.420,253.600 25.200 C 253.600 24.980,253.060 24.800,252.400 24.800 C 251.740 24.800,251.200 24.620,251.200 24.400 C 251.200 24.180,250.480 24.000,249.600 24.000 C 248.720 24.000,248.000 23.820,248.000 23.600 C 248.000 23.380,247.460 23.200,246.800 23.200 C 246.140 23.200,245.600 23.020,245.600 22.800 C 245.600 22.580,244.700 22.400,243.600 22.400 C 242.500 22.400,241.600 22.220,241.600 22.000 C 241.600 21.780,240.981 21.600,240.224 21.600 C 239.467 21.600,238.736 21.420,238.600 21.200 C 238.464 20.980,237.564 20.800,236.600 20.800 C 235.636 20.800,234.736 20.620,234.600 20.400 C 234.464 20.180,233.373 20.000,232.176 20.000 C 230.979 20.000,230.000 19.820,230.000 19.600 C 230.000 19.369,228.741 19.200,227.024 19.200 C 225.387 19.200,223.936 19.020,223.800 18.800 C 223.661 18.575,221.729 18.400,219.376 18.400 C 216.859 18.400,215.200 18.241,215.200 18.000 C 215.200 17.780,214.480 17.600,213.600 17.600 L 212.000 17.600 212.000 12.424 C 212.000 9.404,211.833 7.144,211.600 7.000 C 211.380 6.864,211.200 6.443,211.200 6.065 C 211.200 5.686,210.840 5.117,210.400 4.800 C 209.960 4.483,209.600 3.980,209.600 3.683 C 209.600 3.038,208.631 2.000,208.029 2.000 C 207.793 2.000,207.600 1.841,207.600 1.646 C 207.600 0.336,197.056 -0.746,194.418 0.292 M187.200 67.200 L 187.200 92.000 185.600 92.000 C 184.720 92.000,184.000 92.180,184.000 92.400 C 184.000 92.622,182.933 92.800,181.600 92.800 C 180.280 92.800,179.200 92.957,179.200 93.148 C 179.200 93.340,177.763 93.622,176.007 93.775 C 174.251 93.928,172.710 94.222,172.583 94.427 C 172.457 94.632,171.971 94.800,171.505 94.800 C 170.604 94.800,168.261 95.465,167.105 96.049 C 166.723 96.242,166.059 96.400,165.629 96.400 C 165.199 96.400,164.736 96.580,164.600 96.800 C 164.464 97.020,163.913 97.200,163.376 97.200 C 162.839 97.200,162.400 97.380,162.400 97.600 C 162.400 97.820,161.961 98.000,161.424 98.000 C 160.887 98.000,160.336 98.180,160.200 98.400 C 160.064 98.620,159.603 98.800,159.176 98.800 C 158.749 98.800,158.400 98.980,158.400 99.200 C 158.400 99.420,158.128 99.600,157.795 99.600 C 157.462 99.600,156.787 99.808,156.295 100.062 C 154.418 101.033,153.993 101.200,153.405 101.200 C 153.072 101.200,152.800 101.380,152.800 101.600 C 152.800 101.820,152.440 102.000,152.000 102.000 C 151.560 102.000,151.200 102.138,151.200 102.306 C 151.200 102.474,150.525 102.918,149.700 103.294 C 148.188 103.981,145.970 105.229,145.600 105.601 C 145.490 105.711,144.860 106.070,144.200 106.398 C 143.540 106.726,142.709 107.311,142.353 107.697 C 141.997 108.084,141.452 108.400,141.141 108.400 C 140.831 108.400,140.317 108.760,140.000 109.200 C 139.683 109.640,139.131 110.000,138.773 110.000 C 138.415 110.000,137.707 110.360,137.200 110.800 C 136.693 111.240,136.168 111.600,136.035 111.600 C 135.901 111.600,135.333 112.025,134.773 112.545 C 134.213 113.064,133.352 113.705,132.859 113.968 C 130.698 115.125,115.125 130.698,113.968 132.859 C 113.705 133.352,113.064 134.213,112.545 134.773 C 112.025 135.333,111.600 135.901,111.600 136.035 C 111.600 136.168,111.240 136.693,110.800 137.200 C 110.360 137.707,110.000 138.415,110.000 138.773 C 110.000 139.131,109.640 139.683,109.200 140.000 C 108.760 140.317,108.400 140.831,108.400 141.141 C 108.400 141.452,108.084 141.997,107.697 142.353 C 107.311 142.709,106.726 143.540,106.398 144.200 C 106.070 144.860,105.711 145.490,105.601 145.600 C 105.229 145.970,103.981 148.188,103.294 149.700 C 102.918 150.525,102.474 151.200,102.306 151.200 C 102.138 151.200,102.000 151.560,102.000 152.000 C 102.000 152.440,101.820 152.800,101.600 152.800 C 101.380 152.800,101.200 153.072,101.200 153.405 C 101.200 153.738,101.020 154.368,100.800 154.805 C 100.580 155.242,100.220 155.958,100.000 156.395 C 99.780 156.832,99.600 157.462,99.600 157.795 C 99.600 158.128,99.420 158.400,99.200 158.400 C 98.980 158.400,98.800 158.749,98.800 159.176 C 98.800 159.603,98.620 160.064,98.400 160.200 C 98.180 160.336,98.000 160.887,98.000 161.424 C 98.000 161.961,97.820 162.400,97.600 162.400 C 97.380 162.400,97.200 162.839,97.200 163.376 C 97.200 163.913,97.020 164.464,96.800 164.600 C 96.580 164.736,96.400 165.199,96.400 165.629 C 96.400 166.059,96.242 166.723,96.049 167.105 C 95.465 168.261,94.800 170.604,94.800 171.505 C 94.800 171.971,94.632 172.457,94.427 172.583 C 94.222 172.710,93.928 174.251,93.775 176.007 C 93.622 177.763,93.340 179.200,93.148 179.200 C 92.957 179.200,92.800 180.280,92.800 181.600 C 92.800 182.933,92.622 184.000,92.400 184.000 C 92.180 184.000,92.000 184.900,92.000 186.000 L 92.000 188.000 67.200 188.000 C 45.422 188.000,42.400 187.927,42.400 187.400 C 42.400 187.070,42.580 186.800,42.800 186.800 C 43.037 186.800,43.200 185.341,43.200 183.224 C 43.200 181.257,43.380 179.536,43.600 179.400 C 43.820 179.264,44.000 178.094,44.000 176.800 C 44.000 175.506,44.180 174.336,44.400 174.200 C 44.620 174.064,44.800 173.063,44.800 171.976 C 44.800 170.889,44.980 170.000,45.200 170.000 C 45.420 170.000,45.600 169.100,45.600 168.000 C 45.600 166.900,45.780 166.000,46.000 166.000 C 46.220 166.000,46.400 165.280,46.400 164.400 C 46.400 163.520,46.580 162.800,46.800 162.800 C 47.020 162.800,47.200 162.080,47.200 161.200 C 47.200 160.320,47.380 159.600,47.600 159.600 C 47.820 159.600,48.000 159.060,48.000 158.400 C 48.000 157.740,48.180 157.200,48.400 157.200 C 48.620 157.200,48.800 156.570,48.800 155.800 C 48.800 155.030,48.980 154.400,49.200 154.400 C 49.420 154.400,49.600 153.860,49.600 153.200 C 49.600 152.540,49.780 152.000,50.000 152.000 C 50.220 152.000,50.400 151.460,50.400 150.800 C 50.400 150.140,50.580 149.600,50.800 149.600 C 51.020 149.600,51.200 149.060,51.200 148.400 C 51.200 147.740,51.380 147.200,51.600 147.200 C 51.820 147.200,52.000 146.761,52.000 146.224 C 52.000 145.687,52.180 145.136,52.400 145.000 C 52.620 144.864,52.800 144.403,52.800 143.976 C 52.800 143.549,52.980 143.200,53.200 143.200 C 53.420 143.200,53.600 142.857,53.600 142.438 C 53.600 142.019,53.986 140.894,54.457 139.938 C 54.928 138.982,55.449 137.840,55.614 137.400 C 55.780 136.960,56.564 135.237,57.358 133.570 C 58.151 131.904,58.800 130.239,58.800 129.870 C 58.800 129.502,58.980 129.200,59.200 129.200 C 59.420 129.200,59.600 128.840,59.600 128.400 C 59.600 127.960,59.780 127.600,60.000 127.600 C 60.220 127.600,60.400 127.240,60.400 126.800 C 60.400 126.360,60.580 126.000,60.800 126.000 C 61.020 126.000,61.200 125.730,61.200 125.400 C 61.200 125.070,61.346 124.800,61.525 124.800 C 61.704 124.800,62.098 124.170,62.400 123.400 C 62.702 122.630,63.096 122.000,63.275 122.000 C 63.454 122.000,63.600 121.730,63.600 121.400 C 63.600 121.070,63.780 120.800,64.000 120.800 C 64.220 120.800,64.400 120.522,64.400 120.183 C 64.400 119.844,64.760 119.180,65.200 118.708 C 65.640 118.236,66.000 117.613,66.000 117.325 C 66.000 117.036,66.180 116.800,66.400 116.800 C 66.620 116.800,66.800 116.480,66.800 116.088 C 66.800 115.697,67.160 115.117,67.600 114.800 C 68.040 114.483,68.400 113.943,68.400 113.600 C 68.400 113.257,68.760 112.717,69.200 112.400 C 69.640 112.083,70.000 111.569,70.000 111.259 C 70.000 110.948,70.321 110.403,70.713 110.047 C 71.105 109.691,72.277 108.230,73.317 106.800 C 74.358 105.370,75.564 103.750,75.999 103.200 C 76.434 102.650,76.792 102.066,76.795 101.902 C 76.798 101.738,77.700 100.685,78.800 99.561 C 79.900 98.438,80.800 97.362,80.800 97.170 C 80.800 96.691,96.783 80.800,97.265 80.800 C 97.478 80.800,98.529 79.900,99.600 78.800 C 100.671 77.700,101.748 76.800,101.992 76.800 C 102.236 76.800,102.886 76.350,103.436 75.800 C 103.986 75.250,104.574 74.800,104.743 74.800 C 104.911 74.800,105.398 74.480,105.825 74.089 C 106.251 73.698,107.230 72.942,108.000 72.408 C 108.770 71.875,109.691 71.114,110.047 70.719 C 110.403 70.324,110.948 70.000,111.259 70.000 C 111.569 70.000,112.083 69.640,112.400 69.200 C 112.717 68.760,113.257 68.400,113.600 68.400 C 113.943 68.400,114.483 68.040,114.800 67.600 C 115.117 67.160,115.697 66.800,116.088 66.800 C 116.480 66.800,116.800 66.620,116.800 66.400 C 116.800 66.180,117.036 66.000,117.325 66.000 C 117.613 66.000,118.236 65.640,118.708 65.200 C 119.180 64.760,119.844 64.400,120.183 64.400 C 120.522 64.400,120.800 64.220,120.800 64.000 C 120.800 63.780,121.070 63.600,121.400 63.600 C 121.730 63.600,122.000 63.454,122.000 63.275 C 122.000 63.096,122.630 62.702,123.400 62.400 C 124.170 62.098,124.800 61.704,124.800 61.525 C 124.800 61.346,125.070 61.200,125.400 61.200 C 125.730 61.200,126.000 61.020,126.000 60.800 C 126.000 60.580,126.360 60.400,126.800 60.400 C 127.240 60.400,127.600 60.220,127.600 60.000 C 127.600 59.780,127.960 59.600,128.400 59.600 C 128.840 59.600,129.200 59.420,129.200 59.200 C 129.200 58.980,129.515 58.799,129.900 58.798 C 130.285 58.797,131.486 58.347,132.568 57.798 C 133.650 57.249,134.775 56.800,135.068 56.800 C 135.361 56.800,135.600 56.620,135.600 56.400 C 135.600 56.180,135.872 56.000,136.205 56.000 C 136.538 56.000,137.123 55.843,137.505 55.650 C 140.611 54.086,141.779 53.600,142.438 53.600 C 142.857 53.600,143.200 53.420,143.200 53.200 C 143.200 52.980,143.549 52.800,143.976 52.800 C 144.403 52.800,144.864 52.620,145.000 52.400 C 145.136 52.180,145.687 52.000,146.224 52.000 C 146.761 52.000,147.200 51.820,147.200 51.600 C 147.200 51.380,147.740 51.200,148.400 51.200 C 149.060 51.200,149.600 51.020,149.600 50.800 C 149.600 50.580,150.140 50.400,150.800 50.400 C 151.460 50.400,152.000 50.220,152.000 50.000 C 152.000 49.780,152.540 49.600,153.200 49.600 C 153.860 49.600,154.400 49.420,154.400 49.200 C 154.400 48.980,155.030 48.800,155.800 48.800 C 156.570 48.800,157.200 48.620,157.200 48.400 C 157.200 48.180,157.740 48.000,158.400 48.000 C 159.060 48.000,159.600 47.820,159.600 47.600 C 159.600 47.380,160.320 47.200,161.200 47.200 C 162.080 47.200,162.800 47.020,162.800 46.800 C 162.800 46.580,163.520 46.400,164.400 46.400 C 165.280 46.400,166.000 46.220,166.000 46.000 C 166.000 45.780,166.900 45.600,168.000 45.600 C 169.100 45.600,170.000 45.420,170.000 45.200 C 170.000 44.980,170.990 44.800,172.200 44.800 C 173.410 44.800,174.400 44.620,174.400 44.400 C 174.400 44.178,175.467 44.000,176.800 44.000 C 178.133 44.000,179.200 43.822,179.200 43.600 C 179.200 43.361,180.733 43.200,183.000 43.200 C 185.267 43.200,186.800 43.039,186.800 42.800 C 186.800 42.580,186.890 42.400,187.000 42.400 C 187.110 42.400,187.200 53.560,187.200 67.200 M213.400 42.800 C 213.536 43.020,215.257 43.200,217.224 43.200 C 219.341 43.200,220.800 43.363,220.800 43.600 C 220.800 43.822,221.859 44.000,223.176 44.000 C 224.483 44.000,225.664 44.180,225.800 44.400 C 225.936 44.620,226.937 44.800,228.024 44.800 C 229.111 44.800,230.000 44.980,230.000 45.200 C 230.000 45.420,230.900 45.600,232.000 45.600 C 233.100 45.600,234.000 45.780,234.000 46.000 C 234.000 46.220,234.720 46.400,235.600 46.400 C 236.480 46.400,237.200 46.580,237.200 46.800 C 237.200 47.020,237.920 47.200,238.800 47.200 C 239.680 47.200,240.400 47.380,240.400 47.600 C 240.400 47.820,240.929 48.000,241.576 48.000 C 242.223 48.000,242.864 48.180,243.000 48.400 C 243.136 48.620,243.766 48.800,244.400 48.800 C 245.034 48.800,245.664 48.980,245.800 49.200 C 245.936 49.420,246.487 49.600,247.024 49.600 C 247.561 49.600,248.000 49.780,248.000 50.000 C 248.000 50.220,248.540 50.400,249.200 50.400 C 249.860 50.400,250.400 50.580,250.400 50.800 C 250.400 51.020,250.940 51.200,251.600 51.200 C 252.260 51.200,252.800 51.380,252.800 51.600 C 252.800 51.820,253.239 52.000,253.776 52.000 C 254.313 52.000,254.864 52.180,255.000 52.400 C 255.136 52.620,255.597 52.800,256.024 52.800 C 256.451 52.800,256.800 52.980,256.800 53.200 C 256.800 53.420,257.340 53.600,258.000 53.600 C 258.660 53.600,259.200 53.780,259.200 54.000 C 259.200 54.220,259.560 54.400,260.000 54.400 C 260.440 54.400,260.800 54.580,260.800 54.800 C 260.800 55.020,261.072 55.200,261.405 55.200 C 261.738 55.200,262.323 55.364,262.705 55.565 C 265.421 56.991,269.573 58.800,270.130 58.800 C 270.498 58.800,270.800 58.980,270.800 59.200 C 270.800 59.420,271.160 59.600,271.600 59.600 C 272.040 59.600,272.400 59.780,272.400 60.000 C 272.400 60.220,272.760 60.400,273.200 60.400 C 273.640 60.400,274.000 60.580,274.000 60.800 C 274.000 61.020,274.360 61.200,274.800 61.200 C 275.240 61.200,275.600 61.380,275.600 61.600 C 275.600 61.820,275.836 62.000,276.125 62.000 C 276.413 62.000,277.036 62.360,277.508 62.800 C 277.980 63.240,278.554 63.600,278.783 63.600 C 279.012 63.600,279.200 63.780,279.200 64.000 C 279.200 64.220,279.478 64.400,279.817 64.400 C 280.156 64.400,280.820 64.760,281.292 65.200 C 281.764 65.640,282.387 66.000,282.675 66.000 C 282.964 66.000,283.200 66.180,283.200 66.400 C 283.200 66.620,283.520 66.800,283.912 66.800 C 284.303 66.800,284.883 67.160,285.200 67.600 C 285.517 68.040,286.057 68.400,286.400 68.400 C 286.743 68.400,287.283 68.760,287.600 69.200 C 287.917 69.640,288.409 70.000,288.692 70.000 C 288.975 70.000,289.772 70.540,290.463 71.200 C 291.154 71.860,291.880 72.400,292.078 72.400 C 292.275 72.400,292.886 72.850,293.436 73.400 C 293.986 73.950,294.563 74.400,294.718 74.401 C 294.873 74.401,295.630 74.941,296.400 75.600 C 297.170 76.259,297.934 76.799,298.098 76.799 C 298.262 76.800,299.315 77.700,300.439 78.800 C 301.562 79.900,302.644 80.800,302.844 80.800 C 303.344 80.800,317.997 95.507,319.201 97.218 C 319.736 97.978,320.855 99.261,321.687 100.069 C 322.519 100.876,323.200 101.705,323.200 101.909 C 323.200 102.114,323.740 102.846,324.400 103.537 C 325.060 104.228,325.600 104.974,325.600 105.196 C 325.600 105.418,325.735 105.600,325.900 105.601 C 326.065 105.601,326.736 106.456,327.390 107.501 C 328.045 108.545,328.900 109.749,329.290 110.175 C 329.681 110.602,330.000 111.147,330.000 111.387 C 330.000 111.627,330.360 112.083,330.800 112.400 C 331.240 112.717,331.600 113.257,331.600 113.600 C 331.600 113.943,331.960 114.483,332.400 114.800 C 332.840 115.117,333.200 115.697,333.200 116.088 C 333.200 116.480,333.380 116.800,333.600 116.800 C 333.820 116.800,334.000 117.036,334.000 117.325 C 334.000 117.613,334.360 118.236,334.800 118.708 C 335.240 119.180,335.600 119.844,335.600 120.183 C 335.600 120.522,335.759 120.800,335.953 120.800 C 336.148 120.800,336.407 121.115,336.529 121.500 C 336.825 122.436,338.124 124.566,338.500 124.733 C 338.665 124.807,338.800 125.122,338.800 125.433 C 338.800 125.745,338.980 126.000,339.200 126.000 C 339.420 126.000,339.600 126.360,339.600 126.800 C 339.600 127.240,339.780 127.600,340.000 127.600 C 340.220 127.600,340.400 127.960,340.400 128.400 C 340.400 128.840,340.580 129.200,340.800 129.200 C 341.020 129.200,341.200 129.560,341.200 130.000 C 341.200 130.440,341.380 130.800,341.600 130.800 C 341.820 130.800,342.000 131.160,342.000 131.600 C 342.000 132.040,342.180 132.400,342.400 132.400 C 342.620 132.400,342.800 132.760,342.800 133.200 C 342.800 133.640,342.960 134.000,343.155 134.000 C 343.351 134.000,343.633 134.652,343.783 135.449 C 343.932 136.246,344.216 137.191,344.413 137.549 C 345.391 139.327,346.400 141.829,346.400 142.475 C 346.400 142.874,346.580 143.200,346.800 143.200 C 347.020 143.200,347.200 143.549,347.200 143.976 C 347.200 144.403,347.380 144.864,347.600 145.000 C 347.820 145.136,348.000 145.687,348.000 146.224 C 348.000 146.761,348.180 147.200,348.400 147.200 C 348.620 147.200,348.800 147.740,348.800 148.400 C 348.800 149.060,348.980 149.600,349.200 149.600 C 349.420 149.600,349.600 150.140,349.600 150.800 C 349.600 151.460,349.780 152.000,350.000 152.000 C 350.220 152.000,350.400 152.540,350.400 153.200 C 350.400 153.860,350.580 154.400,350.800 154.400 C 351.020 154.400,351.200 155.030,351.200 155.800 C 351.200 156.570,351.380 157.200,351.600 157.200 C 351.820 157.200,352.000 157.740,352.000 158.400 C 352.000 159.060,352.180 159.600,352.400 159.600 C 352.620 159.600,352.800 160.320,352.800 161.200 C 352.800 162.080,352.980 162.800,353.200 162.800 C 353.420 162.800,353.600 163.520,353.600 164.400 C 353.600 165.280,353.780 166.000,354.000 166.000 C 354.220 166.000,354.400 166.900,354.400 168.000 C 354.400 169.100,354.580 170.000,354.800 170.000 C 355.020 170.000,355.200 170.889,355.200 171.976 C 355.200 173.063,355.380 174.064,355.600 174.200 C 355.820 174.336,356.000 175.506,356.000 176.800 C 356.000 178.094,356.180 179.264,356.400 179.400 C 356.620 179.536,356.800 181.242,356.800 183.190 C 356.800 185.650,356.953 186.795,357.300 186.935 C 357.575 187.046,346.729 187.151,333.197 187.168 L 308.595 187.200 308.097 185.606 C 307.824 184.730,307.600 183.210,307.600 182.230 C 307.600 181.249,307.420 180.336,307.200 180.200 C 306.980 180.064,306.800 179.153,306.800 178.176 C 306.800 177.199,306.638 176.400,306.440 176.400 C 306.242 176.400,305.981 175.635,305.859 174.700 C 305.420 171.337,305.106 170.000,304.756 170.000 C 304.560 170.000,304.400 169.608,304.400 169.128 C 304.400 167.843,302.847 163.249,301.553 160.705 C 301.359 160.323,301.200 159.648,301.200 159.205 C 301.200 158.762,301.020 158.400,300.800 158.400 C 300.580 158.400,300.400 158.040,300.400 157.600 C 300.400 157.160,300.220 156.800,300.000 156.800 C 299.780 156.800,299.600 156.440,299.600 156.000 C 299.600 155.560,299.420 155.200,299.200 155.200 C 298.980 155.200,298.800 154.857,298.800 154.438 C 298.800 153.734,297.300 150.459,296.768 150.000 C 296.640 149.890,296.281 149.215,295.970 148.500 C 295.659 147.785,295.269 147.200,295.102 147.200 C 294.936 147.200,294.800 146.840,294.800 146.400 C 294.800 145.960,294.664 145.600,294.498 145.600 C 294.331 145.600,293.971 145.094,293.697 144.475 C 293.424 143.856,292.840 142.964,292.400 142.492 C 291.960 142.020,291.600 141.383,291.600 141.078 C 291.600 140.772,291.240 140.107,290.800 139.600 C 290.360 139.093,290.000 138.538,290.000 138.367 C 290.000 138.197,289.769 137.819,289.487 137.529 C 289.205 137.238,288.538 136.370,288.006 135.600 C 287.474 134.830,286.931 134.110,286.800 134.000 C 286.669 133.890,286.126 133.177,285.593 132.416 C 283.242 129.053,270.947 116.758,267.584 114.407 C 266.823 113.874,266.110 113.331,266.000 113.200 C 265.890 113.069,265.170 112.526,264.400 111.994 C 263.630 111.462,262.762 110.795,262.471 110.513 C 262.181 110.231,261.635 110.000,261.260 110.000 C 260.884 110.000,260.317 109.640,260.000 109.200 C 259.683 108.760,259.193 108.400,258.912 108.400 C 258.630 108.400,258.400 108.220,258.400 108.000 C 258.400 107.780,258.130 107.600,257.800 107.600 C 257.470 107.600,257.200 107.420,257.200 107.200 C 257.200 106.980,256.930 106.800,256.600 106.800 C 256.270 106.800,256.000 106.620,256.000 106.400 C 256.000 106.180,255.640 106.000,255.200 106.000 C 254.760 106.000,254.400 105.820,254.400 105.600 C 254.400 105.380,254.040 105.200,253.600 105.200 C 253.160 105.200,252.800 105.048,252.800 104.863 C 252.800 104.677,251.945 104.092,250.900 103.563 C 249.855 103.033,248.940 102.465,248.867 102.300 C 248.793 102.135,248.512 102.000,248.242 102.000 C 247.971 102.000,247.005 101.640,246.094 101.200 C 245.184 100.760,244.160 100.400,243.819 100.400 C 243.479 100.400,243.200 100.220,243.200 100.000 C 243.200 99.780,242.840 99.600,242.400 99.600 C 241.960 99.600,241.600 99.420,241.600 99.200 C 241.600 98.980,241.150 98.800,240.600 98.800 C 240.050 98.800,239.600 98.620,239.600 98.400 C 239.600 98.180,239.150 98.000,238.600 98.000 C 238.050 98.000,237.600 97.820,237.600 97.600 C 237.600 97.380,237.238 97.200,236.795 97.200 C 236.352 97.200,235.677 97.041,235.295 96.846 C 234.074 96.224,229.325 94.800,228.471 94.800 C 228.018 94.800,227.543 94.632,227.417 94.427 C 227.290 94.222,225.749 93.928,223.993 93.775 C 222.237 93.622,220.800 93.340,220.800 93.148 C 220.800 92.957,219.720 92.800,218.400 92.800 C 217.067 92.800,216.000 92.622,216.000 92.400 C 216.000 92.180,215.100 92.000,214.000 92.000 L 212.000 92.000 212.000 67.200 C 212.000 41.962,212.075 40.656,213.400 42.800 M187.608 134.800 C 187.823 134.800,188.000 135.700,188.000 136.800 C 188.000 137.900,188.180 138.800,188.400 138.800 C 188.620 138.800,188.800 139.164,188.800 139.609 C 188.800 140.427,192.836 144.800,193.591 144.800 C 193.816 144.800,194.000 144.980,194.000 145.200 C 194.000 145.420,194.439 145.600,194.976 145.600 C 195.513 145.600,196.064 145.780,196.200 146.000 C 196.336 146.220,198.057 146.400,200.024 146.400 C 202.141 146.400,203.600 146.237,203.600 146.000 C 203.600 145.780,204.140 145.600,204.800 145.600 C 205.460 145.600,206.000 145.420,206.000 145.200 C 206.000 144.980,206.239 144.800,206.530 144.800 C 206.822 144.800,207.357 144.485,207.721 144.100 C 209.989 141.697,210.400 141.194,210.400 140.818 C 210.400 140.588,210.580 140.400,210.800 140.400 C 211.020 140.400,211.200 140.040,211.200 139.600 C 211.200 139.160,211.380 138.800,211.600 138.800 C 211.857 138.800,212.000 134.867,212.000 127.800 C 212.000 116.832,212.206 115.269,213.400 117.200 C 213.536 117.420,214.537 117.600,215.624 117.600 C 216.711 117.600,217.600 117.780,217.600 118.000 C 217.600 118.220,218.320 118.400,219.200 118.400 C 220.080 118.400,220.800 118.560,220.800 118.756 C 220.800 118.952,221.430 119.222,222.200 119.356 C 222.970 119.490,224.230 119.710,225.000 119.844 C 225.770 119.978,226.400 120.248,226.400 120.444 C 226.400 120.640,226.755 120.800,227.188 120.800 C 227.621 120.800,228.617 121.160,229.400 121.600 C 230.183 122.040,231.054 122.400,231.335 122.400 C 231.616 122.400,233.096 123.029,234.623 123.799 C 236.150 124.568,237.715 125.198,238.100 125.199 C 238.485 125.199,238.800 125.380,238.800 125.600 C 238.800 125.820,239.160 126.000,239.600 126.000 C 240.040 126.000,240.400 126.180,240.400 126.400 C 240.400 126.620,240.720 126.800,241.112 126.800 C 241.503 126.800,242.083 127.160,242.400 127.600 C 242.717 128.040,243.207 128.400,243.488 128.400 C 243.770 128.400,244.000 128.580,244.000 128.800 C 244.000 129.020,244.320 129.200,244.712 129.200 C 245.103 129.200,245.683 129.560,246.000 130.000 C 246.317 130.440,246.762 130.800,246.988 130.801 C 247.215 130.801,248.030 131.341,248.800 132.000 C 249.570 132.659,250.353 133.199,250.540 133.199 C 250.726 133.200,251.356 133.702,251.940 134.315 C 252.523 134.929,253.630 135.870,254.400 136.407 C 255.963 137.498,263.199 144.650,263.202 145.107 C 263.203 145.268,264.013 146.292,265.002 147.383 C 265.991 148.474,266.800 149.511,266.800 149.687 C 266.800 149.863,267.340 150.572,268.000 151.263 C 268.660 151.954,269.200 152.679,269.200 152.876 C 269.200 153.073,269.560 153.620,270.000 154.092 C 270.440 154.564,270.800 155.187,270.800 155.475 C 270.800 155.764,270.980 156.000,271.200 156.000 C 271.420 156.000,271.600 156.270,271.600 156.600 C 271.600 156.930,271.780 157.200,272.000 157.200 C 272.220 157.200,272.400 157.470,272.400 157.800 C 272.400 158.130,272.580 158.400,272.800 158.400 C 273.020 158.400,273.200 158.670,273.200 159.000 C 273.200 159.330,273.380 159.600,273.600 159.600 C 273.820 159.600,274.000 159.960,274.000 160.400 C 274.000 160.840,274.180 161.200,274.400 161.200 C 274.620 161.200,274.800 161.560,274.800 162.000 C 274.800 162.440,274.980 162.800,275.200 162.800 C 275.420 162.800,275.600 163.160,275.600 163.600 C 275.600 164.040,275.780 164.400,276.000 164.400 C 276.220 164.400,276.400 164.760,276.400 165.200 C 276.400 165.640,276.557 166.000,276.749 166.000 C 276.941 166.000,277.214 166.728,277.356 167.617 C 277.499 168.507,277.792 169.587,278.008 170.017 C 278.223 170.448,278.580 171.158,278.800 171.595 C 279.020 172.032,279.200 172.741,279.200 173.171 C 279.200 173.601,279.380 174.064,279.600 174.200 C 279.820 174.336,280.000 174.876,280.000 175.400 C 280.000 175.924,280.180 176.464,280.400 176.600 C 280.620 176.736,280.800 177.366,280.800 178.000 C 280.800 178.634,280.980 179.264,281.200 179.400 C 281.420 179.536,281.600 180.321,281.600 181.144 C 281.600 181.967,281.763 182.811,281.961 183.020 C 282.160 183.229,282.386 184.255,282.464 185.300 L 282.606 187.200 273.926 187.200 C 268.572 187.200,265.153 187.353,265.000 187.600 C 264.864 187.820,263.964 188.000,263.000 188.000 C 262.036 188.000,261.136 188.180,261.000 188.400 C 260.864 188.620,260.489 188.800,260.168 188.800 C 259.510 188.800,255.200 192.957,255.200 193.591 C 255.200 193.816,255.020 194.000,254.800 194.000 C 254.580 194.000,254.400 194.439,254.400 194.976 C 254.400 195.513,254.220 196.064,254.000 196.200 C 253.780 196.336,253.600 198.057,253.600 200.024 C 253.600 202.141,253.763 203.600,254.000 203.600 C 254.220 203.600,254.400 204.140,254.400 204.800 C 254.400 205.460,254.580 206.000,254.800 206.000 C 255.020 206.000,255.200 206.239,255.200 206.530 C 255.200 206.822,255.515 207.357,255.900 207.721 C 258.351 210.034,258.826 210.400,259.382 210.400 C 259.722 210.400,260.001 210.535,260.003 210.700 C 260.014 211.741,262.544 212.000,272.680 212.000 C 282.356 212.000,284.134 212.176,282.800 213.000 C 282.580 213.136,282.400 214.036,282.400 215.000 C 282.400 215.964,282.239 216.852,282.042 216.974 C 281.845 217.095,281.582 217.871,281.458 218.697 C 280.917 222.278,280.691 223.200,280.356 223.200 C 280.160 223.200,280.000 223.729,280.000 224.376 C 280.000 225.023,279.820 225.664,279.600 225.800 C 279.380 225.936,279.200 226.399,279.200 226.829 C 279.200 227.259,279.020 227.968,278.800 228.405 C 278.580 228.842,278.223 229.552,278.008 229.983 C 277.792 230.413,277.499 231.493,277.356 232.383 C 277.214 233.272,276.941 234.000,276.749 234.000 C 276.557 234.000,276.400 234.360,276.400 234.800 C 276.400 235.240,276.220 235.600,276.000 235.600 C 275.780 235.600,275.600 235.960,275.600 236.400 C 275.600 236.840,275.420 237.200,275.200 237.200 C 274.980 237.200,274.800 237.560,274.800 238.000 C 274.800 238.440,274.620 238.800,274.400 238.800 C 274.180 238.800,274.000 239.078,274.000 239.417 C 274.000 239.756,273.640 240.420,273.200 240.892 C 272.760 241.364,272.400 241.987,272.400 242.275 C 272.400 242.564,272.220 242.800,272.000 242.800 C 271.780 242.800,271.600 243.070,271.600 243.400 C 271.600 243.730,271.420 244.000,271.200 244.000 C 270.980 244.000,270.800 244.270,270.800 244.600 C 270.800 244.930,270.620 245.200,270.400 245.200 C 270.180 245.200,270.000 245.470,270.000 245.800 C 270.000 246.130,269.850 246.400,269.668 246.400 C 269.485 246.400,269.080 246.895,268.768 247.500 C 268.455 248.105,267.795 249.013,267.300 249.518 C 266.805 250.023,266.400 250.588,266.400 250.773 C 266.400 250.958,265.500 252.068,264.400 253.239 C 263.300 254.411,262.400 255.492,262.400 255.642 C 262.400 256.387,257.670 261.111,255.572 262.462 C 255.007 262.826,253.778 263.861,252.840 264.762 C 251.902 265.663,250.978 266.400,250.786 266.400 C 250.593 266.400,250.023 266.805,249.518 267.300 C 249.013 267.795,248.105 268.455,247.500 268.768 C 246.895 269.080,246.400 269.485,246.400 269.668 C 246.400 269.850,246.130 270.000,245.800 270.000 C 245.470 270.000,245.200 270.180,245.200 270.400 C 245.200 270.620,244.930 270.800,244.600 270.800 C 244.270 270.800,244.000 270.980,244.000 271.200 C 244.000 271.420,243.730 271.600,243.400 271.600 C 243.070 271.600,242.800 271.780,242.800 272.000 C 242.800 272.220,242.564 272.400,242.275 272.400 C 241.987 272.400,241.364 272.760,240.892 273.200 C 240.420 273.640,239.756 274.000,239.417 274.000 C 239.078 274.000,238.800 274.180,238.800 274.400 C 238.800 274.620,238.440 274.800,238.000 274.800 C 237.560 274.800,237.200 274.980,237.200 275.200 C 237.200 275.420,236.840 275.600,236.400 275.600 C 235.960 275.600,235.600 275.780,235.600 276.000 C 235.600 276.220,235.240 276.400,234.800 276.400 C 234.360 276.400,234.000 276.557,234.000 276.749 C 234.000 276.941,233.272 277.214,232.383 277.356 C 231.493 277.499,230.368 277.820,229.883 278.070 C 227.965 279.058,227.582 279.200,226.829 279.200 C 226.399 279.200,225.936 279.380,225.800 279.600 C 225.664 279.820,225.023 280.000,224.376 280.000 C 223.729 280.000,223.200 280.160,223.200 280.356 C 223.200 280.691,222.278 280.917,218.697 281.458 C 217.871 281.582,217.095 281.845,216.974 282.042 C 216.852 282.239,215.964 282.400,215.000 282.400 C 214.036 282.400,213.136 282.580,213.000 282.800 C 212.171 284.141,212.000 282.324,212.000 272.200 C 212.000 265.133,211.857 261.200,211.600 261.200 C 211.380 261.200,211.200 260.875,211.200 260.478 C 211.200 259.845,209.934 258.172,207.737 255.900 C 207.365 255.515,206.822 255.200,206.530 255.200 C 206.239 255.200,206.000 255.020,206.000 254.800 C 206.000 254.580,205.561 254.400,205.024 254.400 C 204.487 254.400,203.936 254.220,203.800 254.000 C 203.664 253.780,201.954 253.600,200.000 253.600 C 198.046 253.600,196.336 253.780,196.200 254.000 C 196.064 254.220,195.513 254.400,194.976 254.400 C 194.439 254.400,194.000 254.580,194.000 254.800 C 194.000 255.020,193.804 255.200,193.565 255.200 C 192.840 255.200,188.800 259.654,188.800 260.454 C 188.800 260.864,188.620 261.200,188.400 261.200 C 188.143 261.200,188.000 265.133,188.000 272.200 C 188.000 282.324,187.829 284.141,187.000 282.800 C 186.864 282.580,185.964 282.400,185.000 282.400 C 184.036 282.400,183.136 282.220,183.000 282.000 C 182.864 281.780,182.054 281.600,181.200 281.600 C 180.346 281.600,179.536 281.420,179.400 281.200 C 179.264 280.980,178.634 280.800,178.000 280.800 C 177.366 280.800,176.736 280.620,176.600 280.400 C 176.464 280.180,175.924 280.000,175.400 280.000 C 174.876 280.000,174.336 279.820,174.200 279.600 C 174.064 279.380,173.601 279.200,173.171 279.200 C 172.741 279.200,172.032 279.020,171.595 278.800 C 171.158 278.580,170.448 278.223,170.017 278.008 C 169.587 277.792,168.507 277.499,167.617 277.356 C 166.728 277.214,166.000 276.941,166.000 276.749 C 166.000 276.557,165.640 276.400,165.200 276.400 C 164.760 276.400,164.400 276.220,164.400 276.000 C 164.400 275.780,164.040 275.600,163.600 275.600 C 163.160 275.600,162.800 275.420,162.800 275.200 C 162.800 274.980,162.440 274.800,162.000 274.800 C 161.560 274.800,161.200 274.620,161.200 274.400 C 161.200 274.180,160.840 274.000,160.400 274.000 C 159.960 274.000,159.600 273.820,159.600 273.600 C 159.600 273.380,159.330 273.200,159.000 273.200 C 158.670 273.200,158.400 273.020,158.400 272.800 C 158.400 272.580,158.130 272.400,157.800 272.400 C 157.470 272.400,157.200 272.220,157.200 272.000 C 157.200 271.780,156.930 271.600,156.600 271.600 C 156.270 271.600,156.000 271.420,156.000 271.200 C 156.000 270.980,155.775 270.800,155.500 270.799 C 155.225 270.799,154.370 270.259,153.600 269.600 C 152.830 268.941,152.015 268.401,151.788 268.401 C 151.562 268.400,151.117 268.040,150.800 267.600 C 150.483 267.160,150.031 266.800,149.795 266.800 C 149.559 266.800,148.474 265.991,147.383 265.002 C 146.292 264.013,145.264 263.203,145.097 263.202 C 144.687 263.199,136.800 255.279,136.800 254.869 C 136.800 254.690,135.990 253.698,135.000 252.665 C 134.010 251.631,133.200 250.607,133.200 250.389 C 133.200 250.171,132.660 249.428,132.000 248.737 C 131.340 248.046,130.800 247.321,130.800 247.124 C 130.800 246.927,130.440 246.380,130.000 245.908 C 129.560 245.436,129.200 244.813,129.200 244.525 C 129.200 244.236,129.020 244.000,128.800 244.000 C 128.580 244.000,128.400 243.812,128.400 243.583 C 128.400 243.354,128.040 242.780,127.600 242.308 C 127.160 241.836,126.800 241.213,126.800 240.925 C 126.800 240.636,126.620 240.400,126.400 240.400 C 126.180 240.400,126.000 240.040,126.000 239.600 C 126.000 239.160,125.820 238.800,125.600 238.800 C 125.380 238.800,125.199 238.485,125.199 238.100 C 125.198 237.715,124.568 236.150,123.799 234.623 C 123.029 233.096,122.400 231.644,122.400 231.398 C 122.400 231.152,122.040 230.205,121.600 229.294 C 121.160 228.384,120.800 227.360,120.800 227.019 C 120.800 226.679,120.620 226.400,120.400 226.400 C 120.180 226.400,120.000 225.781,120.000 225.024 C 120.000 224.267,119.820 223.536,119.600 223.400 C 119.380 223.264,119.200 222.623,119.200 221.976 C 119.200 221.329,119.020 220.800,118.800 220.800 C 118.580 220.800,118.400 220.080,118.400 219.200 C 118.400 218.320,118.220 217.600,118.000 217.600 C 117.780 217.600,117.600 216.711,117.600 215.624 C 117.600 214.537,117.420 213.536,117.200 213.400 C 115.269 212.206,116.832 212.000,127.800 212.000 C 134.867 212.000,138.800 211.857,138.800 211.600 C 138.800 211.380,139.125 211.200,139.522 211.200 C 140.155 211.200,141.828 209.934,144.100 207.737 C 144.485 207.365,144.800 206.822,144.800 206.530 C 144.800 206.239,144.980 206.000,145.200 206.000 C 145.420 206.000,145.600 205.460,145.600 204.800 C 145.600 204.140,145.780 203.600,146.000 203.600 C 146.237 203.600,146.400 202.141,146.400 200.024 C 146.400 198.057,146.220 196.336,146.000 196.200 C 145.780 196.064,145.600 195.513,145.600 194.976 C 145.600 194.439,145.420 194.000,145.200 194.000 C 144.980 194.000,144.800 193.816,144.800 193.591 C 144.800 192.836,140.427 188.800,139.609 188.800 C 139.164 188.800,138.800 188.620,138.800 188.400 C 138.800 188.143,134.867 188.000,127.800 188.000 C 116.832 188.000,115.269 187.794,117.200 186.600 C 117.420 186.464,117.600 185.463,117.600 184.376 C 117.600 183.289,117.780 182.400,118.000 182.400 C 118.220 182.400,118.400 181.680,118.400 180.800 C 118.400 179.920,118.580 179.200,118.800 179.200 C 119.020 179.200,119.200 178.581,119.200 177.824 C 119.200 177.067,119.380 176.336,119.600 176.200 C 119.820 176.064,120.000 175.524,120.000 175.000 C 120.000 174.476,120.180 173.936,120.400 173.800 C 120.620 173.664,120.800 173.113,120.800 172.576 C 120.800 172.039,120.980 171.600,121.200 171.600 C 121.420 171.600,121.600 171.251,121.600 170.824 C 121.600 170.397,121.780 169.936,122.000 169.800 C 122.220 169.664,122.400 169.238,122.400 168.853 C 122.400 168.469,123.029 166.904,123.799 165.377 C 124.568 163.850,125.198 162.285,125.199 161.900 C 125.199 161.515,125.380 161.200,125.600 161.200 C 125.820 161.200,126.000 160.840,126.000 160.400 C 126.000 159.960,126.180 159.600,126.400 159.600 C 126.620 159.600,126.800 159.330,126.800 159.000 C 126.800 158.670,126.980 158.400,127.200 158.400 C 127.420 158.400,127.600 158.164,127.600 157.875 C 127.600 157.587,127.960 156.964,128.400 156.492 C 128.840 156.020,129.200 155.396,129.200 155.105 C 129.200 154.814,129.560 154.317,130.000 154.000 C 130.440 153.683,130.800 153.191,130.800 152.908 C 130.800 152.625,131.340 151.828,132.000 151.137 C 132.660 150.446,133.200 149.728,133.200 149.541 C 133.200 149.354,133.920 148.459,134.800 147.552 C 135.680 146.645,136.400 145.749,136.400 145.561 C 136.400 145.113,145.113 136.400,145.561 136.400 C 145.749 136.400,146.645 135.680,147.552 134.800 C 148.459 133.920,149.354 133.200,149.541 133.200 C 149.728 133.200,150.446 132.660,151.137 132.000 C 151.828 131.340,152.625 130.800,152.908 130.800 C 153.191 130.800,153.683 130.440,154.000 130.000 C 154.317 129.560,154.814 129.200,155.105 129.200 C 155.396 129.200,156.020 128.840,156.492 128.400 C 156.964 127.960,157.587 127.600,157.875 127.600 C 158.164 127.600,158.400 127.420,158.400 127.200 C 158.400 126.980,158.670 126.800,159.000 126.800 C 159.330 126.800,159.600 126.620,159.600 126.400 C 159.600 126.180,159.960 126.000,160.400 126.000 C 160.840 126.000,161.200 125.820,161.200 125.600 C 161.200 125.380,161.515 125.199,161.900 125.198 C 162.285 125.197,163.486 124.747,164.568 124.198 C 165.650 123.649,166.775 123.200,167.068 123.200 C 167.361 123.200,167.600 123.020,167.600 122.800 C 167.600 122.580,167.955 122.400,168.388 122.400 C 168.821 122.400,169.817 122.040,170.600 121.600 C 171.383 121.160,172.368 120.800,172.789 120.800 C 173.209 120.800,173.664 120.620,173.800 120.400 C 173.936 120.180,174.476 120.000,175.000 120.000 C 175.524 120.000,176.064 119.820,176.200 119.600 C 176.336 119.380,177.067 119.200,177.824 119.200 C 178.581 119.200,179.200 119.020,179.200 118.800 C 179.200 118.580,179.920 118.400,180.800 118.400 C 181.680 118.400,182.400 118.220,182.400 118.000 C 182.400 117.780,183.289 117.600,184.376 117.600 C 185.518 117.600,186.489 117.389,186.676 117.100 C 186.854 116.825,187.048 120.695,187.108 125.700 C 187.174 131.311,187.366 134.800,187.608 134.800 M196.000 163.200 C 196.000 163.420,195.728 163.600,195.395 163.600 C 194.023 163.600,188.800 168.168,188.800 169.368 C 188.800 169.689,188.620 170.064,188.400 170.200 C 188.180 170.336,188.000 171.326,188.000 172.400 C 188.000 173.474,187.820 174.464,187.600 174.600 C 187.361 174.748,187.200 177.337,187.200 181.024 L 187.200 187.200 181.000 187.200 C 177.133 187.200,174.800 187.351,174.800 187.600 C 174.800 187.820,173.821 188.000,172.624 188.000 C 171.427 188.000,170.336 188.180,170.200 188.400 C 170.064 188.620,169.690 188.800,169.368 188.800 C 168.139 188.800,163.600 193.990,163.600 195.395 C 163.600 195.728,163.420 196.000,163.200 196.000 C 162.962 196.000,162.800 197.525,162.800 199.776 C 162.800 201.863,162.979 203.663,163.200 203.800 C 163.420 203.936,163.600 204.487,163.600 205.024 C 163.600 205.561,163.780 206.000,164.000 206.000 C 164.220 206.000,164.400 206.239,164.400 206.530 C 164.400 206.822,164.715 207.357,165.100 207.721 C 167.503 209.989,168.006 210.400,168.382 210.400 C 168.612 210.400,168.800 210.580,168.800 210.800 C 168.800 211.020,169.250 211.200,169.800 211.200 C 170.350 211.200,170.800 211.380,170.800 211.600 C 170.800 211.854,173.800 212.000,179.000 212.000 L 187.200 212.000 187.200 218.600 C 187.200 222.733,187.349 225.200,187.600 225.200 C 187.820 225.200,188.000 226.100,188.000 227.200 C 188.000 228.300,188.180 229.200,188.400 229.200 C 188.620 229.200,188.800 229.626,188.800 230.146 C 188.800 231.267,192.389 235.122,194.200 235.947 C 194.860 236.247,195.713 236.652,196.095 236.847 C 197.063 237.340,203.600 237.299,203.600 236.800 C 203.600 236.580,203.943 236.400,204.362 236.400 C 205.250 236.400,208.400 234.796,208.400 234.344 C 208.400 234.175,208.850 233.586,209.400 233.036 C 209.950 232.486,210.400 231.758,210.400 231.418 C 210.400 231.078,210.580 230.800,210.800 230.800 C 211.020 230.800,211.200 230.440,211.200 230.000 C 211.200 229.560,211.380 229.200,211.600 229.200 C 211.854 229.200,212.000 226.067,212.000 220.600 L 212.000 212.000 220.600 212.000 C 226.067 212.000,229.200 211.854,229.200 211.600 C 229.200 211.380,229.560 211.200,230.000 211.200 C 230.440 211.200,230.800 211.020,230.800 210.800 C 230.800 210.580,231.078 210.400,231.418 210.400 C 231.758 210.400,232.486 209.950,233.036 209.400 C 233.586 208.850,234.175 208.400,234.344 208.400 C 234.796 208.400,236.400 205.250,236.400 204.362 C 236.400 203.943,236.580 203.600,236.800 203.600 C 237.299 203.600,237.340 197.063,236.847 196.095 C 236.652 195.713,236.247 194.860,235.947 194.200 C 235.122 192.389,231.267 188.800,230.146 188.800 C 229.626 188.800,229.200 188.620,229.200 188.400 C 229.200 188.180,228.300 188.000,227.200 188.000 C 226.100 188.000,225.200 187.820,225.200 187.600 C 225.200 187.349,222.733 187.200,218.600 187.200 L 212.000 187.200 212.000 179.000 C 212.000 173.800,211.854 170.800,211.600 170.800 C 211.380 170.800,211.200 170.350,211.200 169.800 C 211.200 169.250,211.020 168.800,210.800 168.800 C 210.580 168.800,210.400 168.612,210.400 168.382 C 210.400 168.006,209.989 167.503,207.721 165.100 C 207.357 164.715,206.822 164.400,206.530 164.400 C 206.239 164.400,206.000 164.220,206.000 164.000 C 206.000 163.780,205.550 163.600,205.000 163.600 C 204.450 163.600,204.000 163.420,204.000 163.200 C 204.000 162.960,202.400 162.800,200.000 162.800 C 197.600 162.800,196.000 162.960,196.000 163.200 M92.000 214.000 C 92.000 215.100,92.180 216.000,92.400 216.000 C 92.622 216.000,92.800 217.067,92.800 218.400 C 92.800 219.720,92.957 220.800,93.148 220.800 C 93.340 220.800,93.622 222.237,93.775 223.993 C 93.928 225.749,94.222 227.290,94.427 227.417 C 94.632 227.543,94.800 228.018,94.800 228.471 C 94.800 229.610,96.642 235.320,97.647 237.295 C 97.841 237.677,98.000 238.352,98.000 238.795 C 98.000 239.238,98.180 239.600,98.400 239.600 C 98.620 239.600,98.800 240.050,98.800 240.600 C 98.800 241.150,98.980 241.600,99.200 241.600 C 99.420 241.600,99.600 241.960,99.600 242.400 C 99.600 242.840,99.780 243.200,100.000 243.200 C 100.220 243.200,100.400 243.472,100.400 243.805 C 100.400 244.393,100.567 244.818,101.538 246.695 C 101.792 247.187,102.000 247.847,102.000 248.161 C 102.000 248.476,102.135 248.793,102.300 248.867 C 102.465 248.940,103.033 249.855,103.563 250.900 C 104.092 251.945,104.677 252.800,104.863 252.800 C 105.048 252.800,105.200 253.160,105.200 253.600 C 105.200 254.040,105.380 254.400,105.600 254.400 C 105.820 254.400,106.000 254.678,106.000 255.017 C 106.000 255.356,106.360 256.020,106.800 256.492 C 107.240 256.964,107.600 257.587,107.600 257.875 C 107.600 258.164,107.780 258.400,108.000 258.400 C 108.220 258.400,108.400 258.630,108.400 258.912 C 108.400 259.193,108.760 259.683,109.200 260.000 C 109.640 260.317,110.000 260.884,110.000 261.260 C 110.000 261.635,110.231 262.181,110.513 262.471 C 110.795 262.762,111.462 263.630,111.994 264.400 C 112.526 265.170,113.069 265.890,113.200 266.000 C 113.331 266.110,113.874 266.823,114.407 267.584 C 116.758 270.947,129.053 283.242,132.416 285.593 C 133.177 286.126,133.890 286.669,134.000 286.800 C 134.110 286.931,134.830 287.474,135.600 288.006 C 136.370 288.538,137.238 289.205,137.529 289.487 C 137.819 289.769,138.197 290.000,138.367 290.000 C 138.538 290.000,139.093 290.360,139.600 290.800 C 140.107 291.240,140.772 291.600,141.078 291.600 C 141.383 291.600,142.020 291.960,142.492 292.400 C 142.964 292.840,143.856 293.424,144.475 293.697 C 145.094 293.971,145.600 294.331,145.600 294.498 C 145.600 294.664,145.960 294.800,146.400 294.800 C 146.840 294.800,147.200 294.946,147.200 295.125 C 147.200 295.304,147.830 295.698,148.600 296.000 C 149.370 296.302,150.000 296.652,150.000 296.777 C 150.000 296.902,150.585 297.240,151.300 297.529 C 152.015 297.817,152.913 298.221,153.295 298.426 C 153.677 298.632,154.262 298.800,154.595 298.800 C 154.928 298.800,155.200 298.980,155.200 299.200 C 155.200 299.420,155.560 299.600,156.000 299.600 C 156.440 299.600,156.800 299.780,156.800 300.000 C 156.800 300.220,157.160 300.400,157.600 300.400 C 158.040 300.400,158.400 300.580,158.400 300.800 C 158.400 301.020,158.762 301.200,159.205 301.200 C 159.648 301.200,160.323 301.359,160.705 301.553 C 161.087 301.748,161.850 302.084,162.400 302.300 C 162.950 302.516,163.850 302.872,164.400 303.091 C 166.360 303.871,168.270 304.400,169.128 304.400 C 169.608 304.400,170.000 304.560,170.000 304.756 C 170.000 305.106,171.337 305.420,174.700 305.859 C 175.635 305.981,176.400 306.242,176.400 306.440 C 176.400 306.638,177.199 306.800,178.176 306.800 C 179.153 306.800,180.064 306.980,180.200 307.200 C 180.336 307.420,181.416 307.600,182.600 307.600 C 183.784 307.600,184.864 307.780,185.000 308.000 C 185.136 308.220,185.867 308.400,186.624 308.400 L 188.000 308.400 188.000 333.000 C 188.000 358.172,187.975 358.591,186.580 357.229 C 186.371 357.025,184.760 356.759,183.000 356.638 C 176.601 356.199,174.400 355.924,174.400 355.566 C 174.400 355.365,173.410 355.200,172.200 355.200 C 170.990 355.200,170.000 355.020,170.000 354.800 C 170.000 354.580,169.201 354.400,168.224 354.400 C 167.247 354.400,166.336 354.220,166.200 354.000 C 166.064 353.780,165.243 353.600,164.376 353.600 C 163.509 353.600,162.800 353.420,162.800 353.200 C 162.800 352.980,162.080 352.800,161.200 352.800 C 160.320 352.800,159.600 352.620,159.600 352.400 C 159.600 352.180,159.060 352.000,158.400 352.000 C 157.740 352.000,157.200 351.820,157.200 351.600 C 157.200 351.380,156.570 351.200,155.800 351.200 C 155.030 351.200,154.400 351.020,154.400 350.800 C 154.400 350.580,153.860 350.400,153.200 350.400 C 152.540 350.400,152.000 350.220,152.000 350.000 C 152.000 349.780,151.460 349.600,150.800 349.600 C 150.140 349.600,149.600 349.420,149.600 349.200 C 149.600 348.980,149.060 348.800,148.400 348.800 C 147.740 348.800,147.200 348.653,147.200 348.472 C 147.200 348.292,146.300 347.900,145.200 347.600 C 144.100 347.300,143.200 346.908,143.200 346.728 C 143.200 346.547,142.857 346.400,142.438 346.400 C 141.778 346.400,140.882 346.029,137.549 344.377 C 137.191 344.200,136.246 343.932,135.449 343.783 C 134.652 343.633,134.000 343.351,134.000 343.155 C 134.000 342.960,133.640 342.800,133.200 342.800 C 132.760 342.800,132.400 342.620,132.400 342.400 C 132.400 342.180,132.040 342.000,131.600 342.000 C 131.160 342.000,130.800 341.820,130.800 341.600 C 130.800 341.380,130.440 341.200,130.000 341.200 C 129.560 341.200,129.200 341.020,129.200 340.800 C 129.200 340.580,128.840 340.400,128.400 340.400 C 127.960 340.400,127.600 340.220,127.600 340.000 C 127.600 339.780,127.240 339.600,126.800 339.600 C 126.360 339.600,126.000 339.420,126.000 339.200 C 126.000 338.980,125.730 338.800,125.400 338.800 C 125.070 338.800,124.800 338.641,124.800 338.447 C 124.800 338.252,124.485 337.993,124.100 337.871 C 123.164 337.575,121.034 336.276,120.867 335.900 C 120.793 335.735,120.471 335.600,120.150 335.600 C 119.829 335.600,119.180 335.240,118.708 334.800 C 118.236 334.360,117.613 334.000,117.325 334.000 C 117.036 334.000,116.800 333.820,116.800 333.600 C 116.800 333.380,116.564 333.200,116.275 333.200 C 115.987 333.200,115.402 332.885,114.975 332.500 C 114.549 332.115,113.705 331.545,113.100 331.232 C 112.495 330.920,112.000 330.515,112.000 330.332 C 112.000 330.150,111.728 330.000,111.396 330.000 C 111.064 330.000,110.233 329.465,109.550 328.812 C 108.866 328.159,107.968 327.517,107.553 327.385 C 107.139 327.254,106.800 326.978,106.800 326.773 C 106.800 326.568,106.530 326.400,106.200 326.400 C 105.870 326.400,105.600 326.220,105.600 326.000 C 105.600 325.780,105.402 325.600,105.160 325.600 C 104.919 325.600,104.217 325.060,103.600 324.400 C 102.983 323.740,102.299 323.200,102.080 323.200 C 101.861 323.200,100.762 322.300,99.639 321.200 C 98.515 320.100,97.427 319.200,97.221 319.200 C 96.702 319.200,82.018 304.528,80.807 302.800 C 80.267 302.030,79.145 300.739,78.313 299.931 C 77.481 299.124,76.800 298.314,76.799 298.131 C 76.799 297.949,76.259 297.170,75.600 296.400 C 74.941 295.630,74.401 294.873,74.401 294.718 C 74.400 294.563,73.950 293.986,73.400 293.436 C 72.850 292.886,72.400 292.275,72.400 292.078 C 72.400 291.880,71.860 291.154,71.200 290.463 C 70.540 289.772,70.000 288.975,70.000 288.692 C 70.000 288.409,69.640 287.917,69.200 287.600 C 68.760 287.283,68.400 286.743,68.400 286.400 C 68.400 286.057,68.040 285.517,67.600 285.200 C 67.160 284.883,66.800 284.303,66.800 283.912 C 66.800 283.520,66.620 283.200,66.400 283.200 C 66.180 283.200,66.000 282.964,66.000 282.675 C 66.000 282.387,65.640 281.764,65.200 281.292 C 64.760 280.820,64.400 280.156,64.400 279.817 C 64.400 279.478,64.220 279.200,64.000 279.200 C 63.780 279.200,63.600 278.930,63.600 278.600 C 63.600 278.270,63.420 278.000,63.200 278.000 C 62.980 278.000,62.800 277.764,62.800 277.475 C 62.800 277.187,62.440 276.564,62.000 276.092 C 61.560 275.620,61.200 274.956,61.200 274.617 C 61.200 274.278,61.020 274.000,60.800 274.000 C 60.580 274.000,60.400 273.640,60.400 273.200 C 60.400 272.760,60.220 272.400,60.000 272.400 C 59.780 272.400,59.600 272.040,59.600 271.600 C 59.600 271.160,59.420 270.800,59.200 270.800 C 58.980 270.800,58.800 270.498,58.800 270.130 C 58.800 269.573,56.991 265.421,55.565 262.705 C 55.364 262.323,55.200 261.738,55.200 261.405 C 55.200 261.072,55.020 260.800,54.800 260.800 C 54.580 260.800,54.400 260.440,54.400 260.000 C 54.400 259.560,54.220 259.200,54.000 259.200 C 53.780 259.200,53.600 258.660,53.600 258.000 C 53.600 257.340,53.420 256.800,53.200 256.800 C 52.980 256.800,52.800 256.451,52.800 256.024 C 52.800 255.597,52.620 255.136,52.400 255.000 C 52.180 254.864,52.000 254.313,52.000 253.776 C 52.000 253.239,51.820 252.800,51.600 252.800 C 51.380 252.800,51.200 252.260,51.200 251.600 C 51.200 250.940,51.020 250.400,50.800 250.400 C 50.580 250.400,50.400 249.860,50.400 249.200 C 50.400 248.540,50.220 248.000,50.000 248.000 C 49.780 248.000,49.600 247.561,49.600 247.024 C 49.600 246.487,49.420 245.936,49.200 245.800 C 48.980 245.664,48.800 244.933,48.800 244.176 C 48.800 243.419,48.620 242.800,48.400 242.800 C 48.180 242.800,48.000 242.260,48.000 241.600 C 48.000 240.940,47.820 240.400,47.600 240.400 C 47.380 240.400,47.200 239.680,47.200 238.800 C 47.200 237.920,47.020 237.200,46.800 237.200 C 46.580 237.200,46.400 236.480,46.400 235.600 C 46.400 234.720,46.220 234.000,46.000 234.000 C 45.780 234.000,45.600 233.100,45.600 232.000 C 45.600 230.900,45.420 230.000,45.200 230.000 C 44.980 230.000,44.800 229.111,44.800 228.024 C 44.800 226.937,44.620 225.936,44.400 225.800 C 44.180 225.664,44.000 224.494,44.000 223.200 C 44.000 221.906,43.820 220.736,43.600 220.600 C 43.380 220.464,43.200 218.743,43.200 216.776 C 43.200 214.659,43.037 213.200,42.800 213.200 C 42.580 213.200,42.400 212.930,42.400 212.600 C 42.400 212.073,45.422 212.000,67.200 212.000 L 92.000 212.000 92.000 214.000 M357.600 212.600 C 357.600 212.930,357.420 213.200,357.200 213.200 C 356.963 213.200,356.800 214.659,356.800 216.776 C 356.800 218.743,356.620 220.464,356.400 220.600 C 356.180 220.736,356.000 221.906,356.000 223.200 C 356.000 224.494,355.820 225.664,355.600 225.800 C 355.380 225.936,355.200 226.937,355.200 228.024 C 355.200 229.111,355.020 230.000,354.800 230.000 C 354.580 230.000,354.400 230.799,354.400 231.776 C 354.400 232.753,354.220 233.664,354.000 233.800 C 353.780 233.936,353.600 234.757,353.600 235.624 C 353.600 236.491,353.420 237.200,353.200 237.200 C 352.980 237.200,352.800 237.920,352.800 238.800 C 352.800 239.680,352.620 240.400,352.400 240.400 C 352.180 240.400,352.000 240.940,352.000 241.600 C 352.000 242.260,351.820 242.800,351.600 242.800 C 351.380 242.800,351.200 243.419,351.200 244.176 C 351.200 244.933,351.020 245.664,350.800 245.800 C 350.580 245.936,350.400 246.487,350.400 247.024 C 350.400 247.561,350.220 248.000,350.000 248.000 C 349.780 248.000,349.600 248.540,349.600 249.200 C 349.600 249.860,349.420 250.400,349.200 250.400 C 348.980 250.400,348.800 250.940,348.800 251.600 C 348.800 252.260,348.620 252.800,348.400 252.800 C 348.180 252.800,348.000 253.239,348.000 253.776 C 348.000 254.313,347.820 254.864,347.600 255.000 C 347.380 255.136,347.200 255.597,347.200 256.024 C 347.200 256.451,347.020 256.800,346.800 256.800 C 346.580 256.800,346.400 257.340,346.400 258.000 C 346.400 258.660,346.220 259.200,346.000 259.200 C 345.780 259.200,345.600 259.465,345.600 259.788 C 345.600 260.111,345.251 260.998,344.824 261.758 C 344.397 262.518,343.927 263.783,343.779 264.570 C 343.632 265.356,343.351 266.000,343.155 266.000 C 342.960 266.000,342.800 266.360,342.800 266.800 C 342.800 267.240,342.620 267.600,342.400 267.600 C 342.180 267.600,342.000 267.960,342.000 268.400 C 342.000 268.840,341.820 269.200,341.600 269.200 C 341.380 269.200,341.200 269.560,341.200 270.000 C 341.200 270.440,341.020 270.800,340.800 270.800 C 340.580 270.800,340.400 271.160,340.400 271.600 C 340.400 272.040,340.220 272.400,340.000 272.400 C 339.780 272.400,339.600 272.760,339.600 273.200 C 339.600 273.640,339.420 274.000,339.200 274.000 C 338.980 274.000,338.800 274.360,338.800 274.800 C 338.800 275.240,338.642 275.600,338.449 275.600 C 338.255 275.600,337.873 276.140,337.600 276.800 C 337.327 277.460,336.945 278.000,336.751 278.000 C 336.558 278.000,336.400 278.270,336.400 278.600 C 336.400 278.930,336.220 279.200,336.000 279.200 C 335.780 279.200,335.600 279.478,335.600 279.817 C 335.600 280.156,335.240 280.820,334.800 281.292 C 334.360 281.764,334.000 282.387,334.000 282.675 C 334.000 282.964,333.820 283.200,333.600 283.200 C 333.380 283.200,333.200 283.494,333.200 283.853 C 333.200 284.212,332.884 284.797,332.497 285.153 C 332.111 285.509,331.540 286.295,331.230 286.900 C 330.919 287.505,330.515 288.000,330.332 288.000 C 330.150 288.000,330.000 288.236,330.000 288.525 C 330.000 288.813,329.659 289.415,329.243 289.862 C 328.826 290.309,328.169 291.288,327.783 292.038 C 327.397 292.787,326.748 293.691,326.341 294.047 C 325.933 294.403,325.600 294.809,325.600 294.951 C 325.600 295.092,325.060 295.772,324.400 296.463 C 323.740 297.154,323.200 297.886,323.200 298.091 C 323.200 298.295,322.519 299.124,321.687 299.931 C 320.855 300.739,319.735 302.030,319.198 302.800 C 317.988 304.535,303.378 319.200,302.859 319.200 C 302.651 319.200,301.562 320.100,300.439 321.200 C 299.315 322.300,298.244 323.200,298.057 323.200 C 297.871 323.200,297.154 323.740,296.463 324.400 C 295.772 325.060,295.092 325.600,294.951 325.600 C 294.809 325.600,294.403 325.933,294.047 326.341 C 293.691 326.748,292.787 327.397,292.038 327.783 C 291.288 328.169,290.309 328.826,289.862 329.243 C 289.415 329.659,288.853 330.000,288.613 330.000 C 288.373 330.000,287.917 330.360,287.600 330.800 C 287.283 331.240,286.743 331.600,286.400 331.600 C 286.057 331.600,285.517 331.960,285.200 332.400 C 284.883 332.840,284.303 333.200,283.912 333.200 C 283.520 333.200,283.200 333.380,283.200 333.600 C 283.200 333.820,282.964 334.000,282.675 334.000 C 282.387 334.000,281.764 334.360,281.292 334.800 C 280.820 335.240,280.156 335.600,279.817 335.600 C 279.478 335.600,279.200 335.780,279.200 336.000 C 279.200 336.220,279.012 336.400,278.783 336.400 C 278.554 336.400,277.980 336.760,277.508 337.200 C 277.036 337.640,276.413 338.000,276.125 338.000 C 275.836 338.000,275.600 338.180,275.600 338.400 C 275.600 338.620,275.240 338.800,274.800 338.800 C 274.360 338.800,274.000 338.980,274.000 339.200 C 274.000 339.420,273.640 339.600,273.200 339.600 C 272.760 339.600,272.400 339.780,272.400 340.000 C 272.400 340.220,272.040 340.400,271.600 340.400 C 271.160 340.400,270.800 340.580,270.800 340.800 C 270.800 341.020,270.440 341.200,270.000 341.200 C 269.560 341.200,269.200 341.380,269.200 341.600 C 269.200 341.820,268.840 342.000,268.400 342.000 C 267.960 342.000,267.600 342.180,267.600 342.400 C 267.600 342.620,267.240 342.800,266.800 342.800 C 266.360 342.800,266.000 342.960,266.000 343.155 C 266.000 343.351,265.356 343.632,264.570 343.779 C 263.783 343.927,262.518 344.397,261.758 344.824 C 260.998 345.251,260.111 345.600,259.788 345.600 C 259.465 345.600,259.200 345.780,259.200 346.000 C 259.200 346.220,258.838 346.400,258.395 346.400 C 257.952 346.400,257.232 346.580,256.795 346.800 C 256.358 347.020,255.642 347.380,255.205 347.600 C 254.768 347.820,254.048 348.000,253.605 348.000 C 253.162 348.000,252.800 348.180,252.800 348.400 C 252.800 348.620,252.260 348.800,251.600 348.800 C 250.940 348.800,250.400 348.980,250.400 349.200 C 250.400 349.420,249.860 349.600,249.200 349.600 C 248.540 349.600,248.000 349.780,248.000 350.000 C 248.000 350.220,247.561 350.400,247.024 350.400 C 246.487 350.400,245.936 350.580,245.800 350.800 C 245.664 351.020,244.933 351.200,244.176 351.200 C 243.419 351.200,242.800 351.380,242.800 351.600 C 242.800 351.820,242.260 352.000,241.600 352.000 C 240.940 352.000,240.400 352.180,240.400 352.400 C 240.400 352.620,239.680 352.800,238.800 352.800 C 237.920 352.800,237.200 352.980,237.200 353.200 C 237.200 353.420,236.491 353.600,235.624 353.600 C 234.757 353.600,233.936 353.780,233.800 354.000 C 233.664 354.220,232.753 354.400,231.776 354.400 C 230.799 354.400,230.000 354.580,230.000 354.800 C 230.000 355.020,229.111 355.200,228.024 355.200 C 226.937 355.200,225.936 355.380,225.800 355.600 C 225.664 355.820,224.483 356.000,223.176 356.000 C 221.859 356.000,220.800 356.178,220.800 356.400 C 220.800 356.637,219.341 356.800,217.224 356.800 C 215.257 356.800,213.536 356.980,213.400 357.200 C 212.076 359.342,212.000 358.028,212.000 333.044 L 212.000 308.488 213.500 308.220 C 214.325 308.073,215.990 307.857,217.200 307.741 C 218.410 307.625,219.571 307.365,219.780 307.165 C 219.989 306.964,220.923 306.800,221.856 306.800 C 222.789 306.800,223.664 306.620,223.800 306.400 C 223.936 306.180,224.656 306.000,225.400 306.000 C 226.144 306.000,226.864 305.820,227.000 305.600 C 227.136 305.380,227.867 305.200,228.624 305.200 C 229.381 305.200,230.000 305.020,230.000 304.800 C 230.000 304.580,230.529 304.400,231.176 304.400 C 231.823 304.400,232.464 304.220,232.600 304.000 C 232.736 303.780,233.366 303.600,234.000 303.600 C 234.634 303.600,235.264 303.420,235.400 303.200 C 235.536 302.980,235.997 302.800,236.424 302.800 C 236.851 302.800,237.200 302.620,237.200 302.400 C 237.200 302.180,237.740 302.000,238.400 302.000 C 239.060 302.000,239.600 301.820,239.600 301.600 C 239.600 301.380,240.050 301.200,240.600 301.200 C 241.150 301.200,241.600 301.020,241.600 300.800 C 241.600 300.580,241.960 300.400,242.400 300.400 C 242.840 300.400,243.200 300.220,243.200 300.000 C 243.200 299.780,243.560 299.600,244.000 299.600 C 244.440 299.600,244.800 299.420,244.800 299.200 C 244.800 298.980,245.045 298.800,245.344 298.800 C 246.001 298.800,250.945 296.324,251.133 295.900 C 251.207 295.735,251.612 295.600,252.033 295.600 C 252.455 295.600,252.800 295.420,252.800 295.200 C 252.800 294.980,253.160 294.800,253.600 294.800 C 254.040 294.800,254.400 294.620,254.400 294.400 C 254.400 294.180,254.636 294.000,254.925 294.000 C 255.213 294.000,255.836 293.640,256.308 293.200 C 256.780 292.760,257.444 292.400,257.783 292.400 C 258.122 292.400,258.400 292.220,258.400 292.000 C 258.400 291.780,258.642 291.600,258.938 291.600 C 259.234 291.600,259.999 291.150,260.638 290.600 C 261.277 290.051,261.985 289.601,262.212 289.600 C 262.438 289.600,262.883 289.240,263.200 288.800 C 263.517 288.360,263.980 288.000,264.229 288.000 C 264.478 288.000,265.246 287.460,265.937 286.800 C 266.628 286.140,267.344 285.600,267.530 285.600 C 268.512 285.600,285.600 268.512,285.600 267.530 C 285.600 267.344,286.140 266.628,286.800 265.937 C 287.460 265.246,288.000 264.478,288.000 264.229 C 288.000 263.980,288.360 263.517,288.800 263.200 C 289.240 262.883,289.600 262.438,289.600 262.212 C 289.601 261.985,290.051 261.277,290.600 260.638 C 291.150 259.999,291.600 259.234,291.600 258.938 C 291.600 258.642,291.780 258.400,292.000 258.400 C 292.220 258.400,292.400 258.122,292.400 257.783 C 292.400 257.444,292.760 256.780,293.200 256.308 C 293.640 255.836,294.000 255.213,294.000 254.925 C 294.000 254.636,294.180 254.400,294.400 254.400 C 294.620 254.400,294.800 254.040,294.800 253.600 C 294.800 253.160,294.980 252.800,295.200 252.800 C 295.420 252.800,295.600 252.440,295.600 252.000 C 295.600 251.560,295.780 251.200,296.000 251.200 C 296.220 251.200,296.404 250.975,296.409 250.700 C 296.414 250.425,296.770 249.750,297.200 249.200 C 297.630 248.650,297.986 247.795,297.991 247.300 C 297.996 246.805,298.180 246.400,298.400 246.400 C 298.620 246.400,298.800 246.040,298.800 245.600 C 298.800 245.160,298.980 244.800,299.200 244.800 C 299.420 244.800,299.600 244.440,299.600 244.000 C 299.600 243.560,299.780 243.200,300.000 243.200 C 300.220 243.200,300.400 242.851,300.400 242.424 C 300.400 241.997,300.580 241.536,300.800 241.400 C 301.020 241.264,301.200 240.803,301.200 240.376 C 301.200 239.949,301.380 239.600,301.600 239.600 C 301.820 239.600,302.000 239.060,302.000 238.400 C 302.000 237.740,302.141 237.200,302.313 237.200 C 302.485 237.200,302.857 236.345,303.139 235.300 C 303.422 234.255,303.821 233.087,304.027 232.705 C 304.232 232.323,304.400 231.558,304.400 231.005 C 304.400 230.452,304.580 230.000,304.800 230.000 C 305.020 230.000,305.200 229.381,305.200 228.624 C 305.200 227.867,305.380 227.136,305.600 227.000 C 305.820 226.864,306.000 226.144,306.000 225.400 C 306.000 224.656,306.180 223.936,306.400 223.800 C 306.620 223.664,306.800 222.789,306.800 221.856 C 306.800 220.923,306.964 219.989,307.165 219.780 C 307.365 219.571,307.625 218.410,307.741 217.200 C 307.857 215.990,308.073 214.325,308.220 213.500 L 308.488 212.000 333.044 212.000 C 354.605 212.000,357.600 212.073,357.600 212.600 " stroke="none" fill="#040404" fill-rule="evenodd"></path><path id="path1" d="" stroke="none" fill="#080404" fill-rule="evenodd"></path><path id="path2" d="" stroke="none" fill="#080404" fill-rule="evenodd"></path><path id="path3" d="" stroke="none" fill="#080404" fill-rule="evenodd"></path><path id="path4" d="" stroke="none" fill="#080404" fill-rule="evenodd"></path></g></svg>