<svg id="svg" version="1.1" xmlns="http://www.w3.org/2000/svg" xmlns:xlink="http://www.w3.org/1999/xlink" width="400" height="400" viewBox="0, 0, 400,400"><g id="svgg"><path id="path0" d="M12.284 171.499 C 11.866 172.260,13.135 183.000,14.445 189.800 C 15.893 197.314,19.083 208.146,21.396 213.400 C 21.686 214.060,22.256 215.399,22.662 216.376 C 26.960 226.719,36.156 241.045,44.372 250.200 C 49.575 255.996,58.453 264.155,63.436 267.718 C 71.908 273.776,75.068 275.720,82.600 279.507 C 88.062 282.252,96.819 286.000,97.773 286.000 C 97.969 286.000,98.443 285.028,101.179 279.000 C 106.329 267.654,106.436 267.474,108.696 266.404 C 112.576 264.565,116.700 266.934,117.113 271.239 C 117.298 273.161,116.316 275.634,110.595 287.661 L 109.710 289.522 110.955 289.802 C 111.640 289.956,112.920 290.246,113.800 290.446 C 118.504 291.515,124.578 292.349,129.901 292.655 L 134.003 292.891 133.901 232.145 L 133.800 171.400 73.124 171.299 C 39.753 171.243,12.375 171.333,12.284 171.499 M257.800 174.557 C 256.255 175.253,255.029 176.647,254.455 178.360 C 254.120 179.363,254.000 206.996,254.000 283.652 L 254.000 387.585 254.900 387.803 C 255.395 387.923,266.780 387.971,280.200 387.910 L 304.600 387.800 304.800 368.000 C 305.035 344.721,304.852 345.619,309.700 344.030 L 311.200 343.538 311.200 338.001 L 311.200 332.464 309.900 332.188 C 308.095 331.805,306.021 330.149,305.358 328.560 C 304.888 327.435,304.800 315.532,304.800 252.793 C 304.800 170.770,305.002 177.054,302.306 175.132 L 301.000 174.200 280.000 174.108 C 263.067 174.035,258.768 174.122,257.800 174.557 M340.953 263.639 C 339.809 264.195,339.043 264.952,338.447 266.120 L 337.588 267.800 337.694 327.600 L 337.800 387.400 362.904 387.503 L 388.008 387.606 387.904 327.032 L 387.800 266.459 386.965 265.329 C 385.094 262.800,385.462 262.838,363.000 262.839 C 343.420 262.840,342.534 262.872,340.953 263.639 " stroke="none" fill="#e28e66" fill-rule="evenodd"></path><path id="path1" d="M150.404 0.269 C 148.316 0.359,146.435 0.605,146.224 0.816 C 146.013 1.027,144.796 1.200,143.520 1.200 C 142.240 1.200,141.200 1.379,141.200 1.600 C 141.200 1.820,140.221 2.000,139.024 2.000 C 137.827 2.000,136.736 2.180,136.600 2.400 C 136.464 2.620,135.643 2.800,134.776 2.800 C 133.909 2.800,133.200 2.980,133.200 3.200 C 133.200 3.420,132.480 3.600,131.600 3.600 C 130.720 3.600,130.000 3.780,130.000 4.000 C 130.000 4.220,129.370 4.400,128.600 4.400 C 127.830 4.400,127.200 4.580,127.200 4.800 C 127.200 5.020,126.480 5.200,125.600 5.200 C 124.720 5.200,124.000 5.380,124.000 5.600 C 124.000 5.820,123.460 6.000,122.800 6.000 C 122.140 6.000,121.600 6.180,121.600 6.400 C 121.600 6.620,121.060 6.800,120.400 6.800 C 119.740 6.800,119.200 6.980,119.200 7.200 C 119.200 7.420,118.660 7.600,118.000 7.600 C 117.340 7.600,116.800 7.780,116.800 8.000 C 116.800 8.220,116.361 8.400,115.824 8.400 C 115.287 8.400,114.736 8.580,114.600 8.800 C 114.464 9.020,114.003 9.200,113.576 9.200 C 113.149 9.200,112.800 9.360,112.800 9.555 C 112.800 9.750,111.990 10.031,111.000 10.179 C 110.010 10.328,109.200 10.618,109.200 10.825 C 109.200 11.031,108.840 11.200,108.400 11.200 C 107.960 11.200,107.600 11.380,107.600 11.600 C 107.600 11.820,107.364 12.000,107.075 12.000 C 106.539 12.000,104.186 13.021,101.500 14.419 C 97.837 16.326,96.587 17.016,96.400 17.232 C 96.290 17.360,95.615 17.719,94.900 18.030 C 94.185 18.341,93.600 18.731,93.600 18.898 C 93.600 19.064,93.364 19.200,93.075 19.200 C 92.787 19.200,92.164 19.560,91.692 20.000 C 91.220 20.440,90.596 20.800,90.305 20.800 C 90.014 20.800,89.517 21.160,89.200 21.600 C 88.883 22.040,88.303 22.400,87.912 22.400 C 87.520 22.400,87.200 22.550,87.200 22.732 C 87.200 22.915,86.705 23.319,86.100 23.630 C 85.495 23.940,84.709 24.511,84.353 24.897 C 83.997 25.284,83.452 25.600,83.141 25.600 C 82.831 25.600,82.317 25.960,82.000 26.400 C 81.683 26.840,81.235 27.200,81.004 27.200 C 80.500 27.200,77.320 29.720,74.694 32.200 C 73.645 33.190,72.655 34.000,72.494 34.000 C 71.881 34.002,70.000 35.922,70.000 36.547 C 70.000 36.906,69.820 37.200,69.600 37.200 C 69.371 37.200,69.200 38.410,69.200 40.029 C 69.200 43.016,69.509 43.663,71.191 44.197 C 71.716 44.364,72.697 44.837,73.372 45.248 C 74.701 46.059,76.603 46.243,77.000 45.600 C 77.136 45.380,77.582 45.200,77.990 45.200 C 78.399 45.200,78.793 45.065,78.867 44.900 C 79.408 43.683,91.509 34.543,97.000 31.203 C 101.512 28.459,102.365 27.984,107.135 25.549 C 131.331 13.203,161.698 8.879,188.200 14.007 C 194.541 15.233,193.996 15.108,199.282 16.555 C 210.558 19.643,222.184 24.797,233.200 31.590 C 236.118 33.390,244.923 39.737,246.234 40.987 C 246.472 41.214,247.630 42.210,248.806 43.200 C 254.439 47.941,265.600 59.856,265.600 61.128 C 265.600 61.630,262.360 67.990,261.589 69.000 C 261.421 69.220,260.840 70.210,260.298 71.200 C 258.818 73.902,257.414 76.424,256.457 78.100 C 254.749 81.090,248.877 91.579,246.883 95.200 C 246.338 96.190,245.261 98.080,244.491 99.400 C 243.721 100.720,242.742 102.413,242.317 103.163 C 239.580 107.984,243.960 113.999,248.681 111.903 C 250.888 110.924,251.133 110.576,256.506 100.800 C 257.171 99.590,257.850 98.420,258.016 98.200 C 258.181 97.980,258.785 96.945,259.358 95.900 C 259.931 94.855,260.875 93.145,261.456 92.100 C 262.037 91.055,262.959 89.390,263.505 88.400 C 264.052 87.410,264.814 86.060,265.200 85.400 C 266.115 83.835,267.672 81.044,270.096 76.628 C 273.275 70.834,273.140 70.894,275.103 74.400 C 275.534 75.170,276.362 76.610,276.942 77.600 C 280.893 84.340,286.284 97.230,288.443 105.100 C 289.739 109.824,290.223 111.819,290.842 115.000 C 292.628 124.175,292.987 128.427,292.985 140.400 C 292.984 150.803,292.675 155.670,291.703 160.600 L 291.387 162.200 273.994 162.411 C 253.199 162.663,251.718 162.996,247.022 168.482 C 242.433 173.844,242.401 174.139,242.400 211.556 C 242.400 240.943,242.356 242.946,241.700 243.459 C 236.107 247.832,217.055 258.800,215.051 258.800 C 214.908 258.800,214.028 259.140,213.096 259.556 C 206.392 262.544,195.078 265.712,186.000 267.143 C 179.161 268.221,171.823 268.971,171.044 268.672 C 170.456 268.446,170.400 262.844,170.399 203.713 C 170.397 140.275,170.382 138.975,169.618 137.722 C 167.805 134.750,174.173 135.023,101.618 134.800 L 36.600 134.600 36.717 131.400 C 36.864 127.382,37.832 119.536,38.667 115.600 C 39.017 113.950,39.446 111.880,39.621 111.000 C 39.796 110.120,40.133 108.725,40.370 107.900 C 40.606 107.075,40.990 105.725,41.223 104.900 C 41.455 104.075,41.827 102.770,42.050 102.000 C 42.273 101.230,42.555 100.192,42.676 99.694 C 42.797 99.196,43.054 98.690,43.248 98.570 C 43.441 98.451,43.600 98.001,43.600 97.571 C 43.600 97.141,43.759 96.477,43.953 96.095 C 44.148 95.713,44.484 94.950,44.700 94.400 C 49.205 82.941,55.996 70.905,62.961 62.036 C 65.385 58.948,65.778 56.090,64.100 53.738 C 63.605 53.044,63.200 52.189,63.200 51.838 C 63.200 51.487,62.930 51.200,62.600 51.200 C 62.270 51.200,62.000 51.020,62.000 50.800 C 62.000 50.227,58.157 50.305,57.101 50.900 C 55.911 51.570,52.000 55.476,52.000 55.995 C 52.000 56.222,51.460 56.972,50.800 57.663 C 50.140 58.354,49.600 59.122,49.600 59.371 C 49.600 59.620,49.240 60.083,48.800 60.400 C 48.360 60.717,48.000 61.179,48.000 61.426 C 48.000 61.674,47.640 62.202,47.200 62.600 C 46.760 62.998,46.400 63.467,46.400 63.642 C 46.400 63.817,45.883 64.734,45.250 65.680 C 44.618 66.626,43.976 67.805,43.823 68.300 C 43.671 68.795,43.378 69.200,43.173 69.200 C 42.968 69.200,42.800 69.560,42.800 70.000 C 42.800 70.440,42.620 70.800,42.400 70.800 C 42.180 70.800,42.000 71.160,42.000 71.600 C 42.000 72.040,41.820 72.400,41.600 72.400 C 41.380 72.400,41.200 72.760,41.200 73.200 C 41.200 73.640,41.048 74.000,40.863 74.000 C 40.677 74.000,40.092 74.855,39.563 75.900 C 39.033 76.945,38.465 77.860,38.300 77.933 C 38.135 78.007,38.000 78.401,38.000 78.810 C 38.000 79.218,37.820 79.664,37.600 79.800 C 37.380 79.936,37.200 80.397,37.200 80.824 C 37.200 81.251,37.020 81.600,36.800 81.600 C 36.580 81.600,36.400 81.960,36.400 82.400 C 36.400 82.840,36.220 83.200,36.000 83.200 C 35.780 83.200,35.600 83.560,35.600 84.000 C 35.600 84.440,35.420 84.800,35.200 84.800 C 34.980 84.800,34.800 85.239,34.800 85.776 C 34.800 86.313,34.620 86.864,34.400 87.000 C 34.180 87.136,34.000 87.597,34.000 88.024 C 34.000 88.451,33.820 88.800,33.600 88.800 C 33.380 88.800,33.200 89.340,33.200 90.000 C 33.200 90.660,33.020 91.200,32.800 91.200 C 32.580 91.200,32.400 91.549,32.400 91.976 C 32.400 92.403,32.220 92.864,32.000 93.000 C 31.780 93.136,31.600 93.676,31.600 94.200 C 31.600 94.724,31.420 95.264,31.200 95.400 C 30.980 95.536,30.800 96.076,30.800 96.600 C 30.800 97.124,30.620 97.664,30.400 97.800 C 30.180 97.936,30.000 98.577,30.000 99.224 C 30.000 99.871,29.840 100.400,29.644 100.400 C 29.448 100.400,29.191 100.985,29.073 101.700 C 28.954 102.415,28.673 103.720,28.447 104.600 C 27.553 108.086,27.234 109.873,27.217 111.500 C 27.208 112.435,27.020 113.200,26.800 113.200 C 26.580 113.200,26.400 114.190,26.400 115.400 C 26.400 116.610,26.220 117.600,26.000 117.600 C 25.771 117.600,25.600 118.800,25.600 120.400 C 25.600 122.000,25.429 123.200,25.200 123.200 C 24.956 123.200,24.800 125.059,24.800 127.976 C 24.800 130.729,24.631 132.858,24.400 133.000 C 24.171 133.142,24.000 135.204,24.000 137.824 C 24.000 140.608,24.157 142.400,24.400 142.400 C 24.620 142.400,24.800 142.676,24.800 143.013 C 24.800 143.899,27.432 146.400,28.363 146.400 C 28.797 146.400,29.264 146.580,29.400 146.800 C 29.563 147.064,51.537 147.200,94.024 147.200 L 158.400 147.200 158.400 211.805 C 158.400 278.529,158.367 277.045,159.900 278.713 C 160.175 279.012,160.400 279.424,160.400 279.629 C 160.400 279.833,160.670 280.000,161.000 280.000 C 161.330 280.000,161.600 280.180,161.600 280.400 C 161.600 280.654,164.667 280.800,170.000 280.800 C 175.333 280.800,178.400 280.654,178.400 280.400 C 178.400 280.163,179.867 280.000,182.000 280.000 C 184.133 280.000,185.600 279.837,185.600 279.600 C 185.600 279.380,186.579 279.200,187.776 279.200 C 188.973 279.200,190.064 279.020,190.200 278.800 C 190.336 278.580,191.247 278.400,192.224 278.400 C 193.201 278.400,194.000 278.220,194.000 278.000 C 194.000 277.780,194.900 277.600,196.000 277.600 C 197.100 277.600,198.000 277.420,198.000 277.200 C 198.000 276.980,198.720 276.800,199.600 276.800 C 200.480 276.800,201.200 276.620,201.200 276.400 C 201.200 276.180,201.830 276.000,202.600 276.000 C 203.370 276.000,204.000 275.838,204.000 275.639 C 204.000 275.441,205.080 275.153,206.400 275.000 C 207.720 274.847,208.800 274.559,208.800 274.361 C 208.800 274.162,209.239 274.000,209.776 274.000 C 210.313 274.000,210.864 273.820,211.000 273.600 C 211.136 273.380,211.676 273.200,212.200 273.200 C 212.724 273.200,213.242 273.056,213.351 272.879 C 213.460 272.703,214.461 272.310,215.575 272.007 C 216.689 271.704,217.600 271.308,217.600 271.128 C 217.600 270.947,217.872 270.800,218.205 270.800 C 218.538 270.800,219.123 270.639,219.505 270.442 C 219.887 270.245,221.460 269.481,223.000 268.744 C 224.540 268.007,225.860 267.268,225.933 267.102 C 226.007 266.936,226.412 266.800,226.833 266.800 C 227.255 266.800,227.600 266.620,227.600 266.400 C 227.600 266.180,227.960 266.000,228.400 266.000 C 228.840 266.000,229.200 265.820,229.200 265.600 C 229.200 265.380,229.560 265.200,230.000 265.200 C 230.440 265.200,230.800 265.020,230.800 264.800 C 230.800 264.580,231.160 264.400,231.600 264.400 C 232.040 264.400,232.400 264.220,232.400 264.000 C 232.400 263.780,232.760 263.600,233.200 263.600 C 233.640 263.600,234.000 263.420,234.000 263.200 C 234.000 262.980,234.236 262.800,234.525 262.800 C 234.813 262.800,235.436 262.440,235.908 262.000 C 236.380 261.560,237.044 261.200,237.383 261.200 C 237.722 261.200,238.000 261.020,238.000 260.800 C 238.000 260.580,238.236 260.400,238.525 260.400 C 238.813 260.400,239.398 260.076,239.825 259.680 C 242.192 257.481,242.000 251.498,242.000 327.631 L 242.000 396.836 242.959 397.795 C 243.487 398.323,243.997 398.990,244.092 399.277 C 244.234 399.702,250.852 399.800,279.501 399.800 L 314.735 399.800 315.767 398.600 C 316.335 397.940,316.799 396.995,316.800 396.500 C 316.800 396.005,316.980 395.600,317.200 395.600 C 317.707 395.600,317.753 348.690,317.247 347.695 C 317.052 347.313,316.666 346.513,316.389 345.918 C 315.278 343.537,312.140 343.086,308.600 344.800 C 305.243 346.425,305.415 345.246,305.286 367.576 C 305.207 381.059,305.033 387.520,304.737 387.876 C 304.242 388.472,283.292 388.606,264.500 388.135 L 254.000 387.872 254.000 282.995 L 254.000 178.118 254.901 176.781 C 256.986 173.687,256.052 173.800,279.600 173.800 C 302.929 173.800,302.080 173.707,304.068 176.494 L 305.000 177.800 305.200 253.000 C 305.365 315.134,305.494 328.382,305.941 329.249 C 306.550 330.429,309.070 332.000,310.354 332.000 C 310.839 332.000,311.200 332.256,311.200 332.600 C 311.200 332.933,311.556 333.200,312.000 333.200 C 312.440 333.200,312.800 333.020,312.800 332.800 C 312.800 332.580,313.160 332.400,313.600 332.400 C 314.040 332.400,314.400 332.241,314.400 332.047 C 314.400 331.852,314.760 331.599,315.200 331.484 C 315.640 331.369,316.000 330.988,316.000 330.637 C 316.000 330.287,316.180 330.000,316.400 330.000 C 316.620 330.000,316.800 329.640,316.800 329.200 C 316.800 328.760,316.980 328.400,317.200 328.400 C 317.754 328.400,317.754 176.943,317.200 176.600 C 316.980 176.464,316.800 175.744,316.800 175.000 C 316.800 174.256,316.620 173.536,316.400 173.400 C 316.180 173.264,316.000 172.803,316.000 172.376 C 316.000 171.949,315.820 171.600,315.600 171.600 C 315.380 171.600,315.200 171.280,315.200 170.888 C 315.200 170.497,314.840 169.917,314.400 169.600 C 313.960 169.283,313.600 168.811,313.600 168.552 C 313.600 167.971,310.877 165.200,310.307 165.200 C 310.080 165.200,309.603 164.884,309.247 164.497 C 308.891 164.111,308.060 163.547,307.400 163.244 C 306.740 162.941,305.795 162.507,305.300 162.279 C 304.336 161.835,303.921 157.051,304.771 156.180 C 305.855 155.069,305.861 125.712,304.777 124.620 C 304.570 124.411,304.400 123.027,304.400 121.544 C 304.400 120.061,304.220 118.736,304.000 118.600 C 303.780 118.464,303.600 117.384,303.600 116.200 C 303.600 115.016,303.420 113.936,303.200 113.800 C 302.980 113.664,302.800 112.854,302.800 112.000 C 302.800 111.146,302.620 110.336,302.400 110.200 C 302.180 110.064,302.000 109.243,302.000 108.376 C 302.000 107.509,301.820 106.800,301.600 106.800 C 301.380 106.800,301.200 106.080,301.200 105.200 C 301.200 104.320,301.020 103.600,300.800 103.600 C 300.580 103.600,300.400 102.981,300.400 102.224 C 300.400 101.467,300.220 100.736,300.000 100.600 C 299.780 100.464,299.600 99.823,299.600 99.176 C 299.600 98.529,299.420 98.000,299.200 98.000 C 298.980 98.000,298.800 97.561,298.800 97.024 C 298.800 96.487,298.620 95.936,298.400 95.800 C 298.180 95.664,298.000 95.113,298.000 94.576 C 298.000 94.039,297.820 93.600,297.600 93.600 C 297.380 93.600,297.200 93.060,297.200 92.400 C 297.200 91.740,297.020 91.200,296.800 91.200 C 296.580 91.200,296.400 90.840,296.400 90.400 C 296.400 89.960,296.220 89.600,296.000 89.600 C 295.780 89.600,295.600 89.060,295.600 88.400 C 295.600 87.740,295.420 87.200,295.200 87.200 C 294.980 87.200,294.800 86.840,294.800 86.400 C 294.800 85.960,294.620 85.600,294.400 85.600 C 294.180 85.600,294.000 85.161,294.000 84.624 C 294.000 84.087,293.820 83.536,293.600 83.400 C 293.380 83.264,293.200 82.803,293.200 82.376 C 293.200 81.949,293.020 81.600,292.800 81.600 C 292.580 81.600,292.400 81.240,292.400 80.800 C 292.400 80.360,292.240 80.000,292.045 80.000 C 291.849 80.000,291.571 79.370,291.426 78.600 C 291.282 77.830,290.992 77.200,290.782 77.200 C 290.572 77.200,290.400 76.840,290.400 76.400 C 290.400 75.960,290.220 75.600,290.000 75.600 C 289.780 75.600,289.600 75.240,289.600 74.800 C 289.600 74.360,289.465 73.997,289.300 73.994 C 289.135 73.990,288.560 73.090,288.021 71.994 C 287.483 70.897,286.898 70.000,286.721 70.000 C 286.545 70.000,286.400 69.640,286.400 69.200 C 286.400 68.760,286.220 68.400,286.000 68.400 C 285.780 68.400,285.600 68.164,285.600 67.875 C 285.600 67.587,285.240 66.964,284.800 66.492 C 284.360 66.020,284.000 65.356,284.000 65.017 C 284.000 64.678,283.862 64.400,283.694 64.400 C 283.526 64.400,282.944 63.680,282.400 62.800 C 281.856 61.920,281.274 61.200,281.106 61.200 C 280.438 61.200,280.835 58.952,281.600 58.400 C 282.040 58.083,282.400 57.503,282.400 57.112 C 282.400 56.720,282.580 56.400,282.800 56.400 C 283.020 56.400,283.200 56.130,283.200 55.800 C 283.200 55.470,283.380 55.200,283.600 55.200 C 283.820 55.200,284.000 54.840,284.000 54.400 C 284.000 53.960,284.159 53.600,284.353 53.600 C 284.548 53.600,284.807 53.285,284.929 52.900 C 285.225 51.964,286.524 49.834,286.900 49.667 C 287.065 49.593,287.200 49.188,287.200 48.767 C 287.200 48.345,287.380 48.000,287.600 48.000 C 287.820 48.000,288.000 47.640,288.000 47.200 C 288.000 46.760,288.158 46.400,288.351 46.400 C 288.545 46.400,288.927 45.860,289.200 45.200 L 289.697 44.000 330.025 44.000 C 356.479 44.000,370.438 43.862,370.600 43.600 C 370.736 43.380,371.127 43.200,371.470 43.200 C 375.082 43.200,376.129 35.708,372.960 32.539 L 371.221 30.800 327.405 30.800 C 293.090 30.800,283.397 30.908,282.705 31.300 C 281.275 32.109,279.576 34.050,278.869 35.681 C 278.507 36.517,278.088 37.200,277.937 37.200 C 277.787 37.200,277.545 37.740,277.400 38.400 C 277.255 39.060,276.971 39.600,276.768 39.600 C 276.566 39.600,276.400 39.960,276.400 40.400 C 276.400 40.840,276.220 41.200,276.000 41.200 C 275.780 41.200,275.600 41.560,275.600 42.000 C 275.600 42.440,275.420 42.800,275.200 42.800 C 274.980 42.800,274.800 43.070,274.800 43.400 C 274.800 43.730,274.620 44.000,274.400 44.000 C 274.180 44.000,274.000 44.270,274.000 44.600 C 274.000 44.930,273.854 45.200,273.675 45.200 C 273.496 45.200,273.102 45.830,272.800 46.600 C 272.141 48.279,271.274 48.385,270.195 46.920 C 268.643 44.811,256.712 33.245,254.381 31.590 C 253.622 31.050,252.512 30.144,251.915 29.575 C 251.318 29.007,250.193 28.199,249.415 27.780 C 248.637 27.361,248.000 26.879,248.000 26.709 C 248.000 26.539,247.757 26.400,247.459 26.400 C 247.162 26.400,246.354 25.860,245.663 25.200 C 244.972 24.540,244.175 24.000,243.892 24.000 C 243.609 24.000,243.117 23.640,242.800 23.200 C 242.483 22.760,241.993 22.400,241.712 22.400 C 241.430 22.400,241.200 22.220,241.200 22.000 C 241.200 21.780,240.930 21.600,240.600 21.600 C 240.270 21.600,240.000 21.420,240.000 21.200 C 240.000 20.980,239.730 20.800,239.400 20.800 C 239.070 20.800,238.800 20.620,238.800 20.400 C 238.800 20.180,238.522 20.000,238.183 20.000 C 237.844 20.000,237.180 19.640,236.708 19.200 C 236.236 18.760,235.613 18.400,235.325 18.400 C 235.036 18.400,234.800 18.220,234.800 18.000 C 234.800 17.780,234.440 17.600,234.000 17.600 C 233.560 17.600,233.200 17.420,233.200 17.200 C 233.200 16.980,232.840 16.800,232.400 16.800 C 231.960 16.800,231.600 16.620,231.600 16.400 C 231.600 16.180,231.240 16.000,230.800 16.000 C 230.360 16.000,230.000 15.820,230.000 15.600 C 230.000 15.380,229.655 15.200,229.233 15.200 C 228.812 15.200,228.407 15.057,228.333 14.882 C 228.100 14.325,219.651 10.358,218.196 10.122 C 217.428 9.997,216.800 9.739,216.800 9.548 C 216.800 9.356,216.260 9.200,215.600 9.200 C 214.940 9.200,214.400 9.020,214.400 8.800 C 214.400 8.580,214.040 8.400,213.600 8.400 C 213.160 8.400,212.800 8.220,212.800 8.000 C 212.800 7.780,212.260 7.600,211.600 7.600 C 210.940 7.600,210.400 7.420,210.400 7.200 C 210.400 6.980,209.860 6.800,209.200 6.800 C 208.540 6.800,208.000 6.620,208.000 6.400 C 208.000 6.180,207.471 6.000,206.824 6.000 C 206.177 6.000,205.536 5.820,205.400 5.600 C 205.264 5.380,204.623 5.200,203.976 5.200 C 203.329 5.200,202.800 5.020,202.800 4.800 C 202.800 4.580,202.080 4.400,201.200 4.400 C 200.320 4.400,199.600 4.220,199.600 4.000 C 199.600 3.780,198.880 3.600,198.000 3.600 C 197.120 3.600,196.400 3.420,196.400 3.200 C 196.400 2.980,195.500 2.800,194.400 2.800 C 193.300 2.800,192.400 2.620,192.400 2.400 C 192.400 2.180,191.601 2.000,190.624 2.000 C 189.647 2.000,188.736 1.820,188.600 1.600 C 188.464 1.380,187.208 1.200,185.810 1.200 C 184.353 1.200,183.205 1.016,183.123 0.770 C 182.975 0.324,157.998 -0.058,150.404 0.269 M308.400 8.000 C 308.400 8.220,308.124 8.400,307.787 8.400 C 304.513 8.400,303.069 15.590,305.754 18.522 C 306.499 19.335,307.399 20.000,307.754 20.000 C 308.109 20.000,308.400 20.180,308.400 20.400 C 308.400 20.663,319.067 20.800,339.600 20.800 C 360.133 20.800,370.800 20.663,370.800 20.400 C 370.800 20.180,371.091 20.000,371.446 20.000 C 374.694 20.000,376.180 12.184,373.411 9.664 C 372.647 8.969,371.837 8.400,371.611 8.400 C 371.385 8.400,371.200 8.220,371.200 8.000 C 371.200 7.737,360.467 7.600,339.800 7.600 C 319.133 7.600,308.400 7.737,308.400 8.000 M339.400 131.200 C 339.264 131.420,338.605 131.600,337.936 131.600 C 336.596 131.600,334.000 133.816,334.000 134.960 C 334.000 135.312,333.820 135.600,333.600 135.600 C 332.077 135.600,333.387 140.513,335.487 142.675 L 336.773 144.000 361.187 144.000 C 377.196 144.000,385.600 143.862,385.600 143.600 C 385.600 143.380,385.883 143.200,386.229 143.200 C 388.986 143.200,389.861 135.492,387.385 133.015 C 386.591 132.221,385.205 131.600,384.229 131.600 C 383.689 131.600,383.136 131.420,383.000 131.200 C 382.840 130.941,375.137 130.800,361.200 130.800 C 347.263 130.800,339.560 130.941,339.400 131.200 M336.624 157.324 C 331.882 160.233,332.389 169.129,337.300 169.191 C 337.685 169.196,338.000 169.380,338.000 169.600 C 338.000 169.862,345.925 170.000,360.976 170.000 C 375.863 170.000,384.040 169.859,384.200 169.600 C 384.336 169.380,384.817 169.200,385.270 169.200 C 387.246 169.200,388.800 166.524,388.800 163.122 C 388.800 161.405,388.663 160.000,388.495 160.000 C 388.327 160.000,388.012 159.595,387.795 159.100 C 387.578 158.605,386.995 158.022,386.500 157.805 C 386.005 157.588,385.600 157.273,385.600 157.105 C 385.600 156.566,337.509 156.780,336.624 157.324 M4.600 158.800 C 4.464 159.020,3.888 159.200,3.320 159.200 C 2.683 159.200,1.826 159.682,1.085 160.457 L -0.117 161.715 0.097 173.692 C 0.239 181.683,0.458 185.818,0.755 186.115 C 1.000 186.360,1.200 187.514,1.200 188.680 C 1.200 189.846,1.380 190.800,1.600 190.800 C 1.820 190.800,2.000 191.700,2.000 192.800 C 2.000 193.900,2.180 194.800,2.400 194.800 C 2.620 194.800,2.800 195.599,2.800 196.576 C 2.800 197.553,2.980 198.464,3.200 198.600 C 3.420 198.736,3.600 199.366,3.600 200.000 C 3.600 200.634,3.780 201.264,4.000 201.400 C 4.220 201.536,4.400 202.267,4.400 203.024 C 4.400 203.781,4.580 204.400,4.800 204.400 C 5.020 204.400,5.200 204.929,5.200 205.576 C 5.200 206.223,5.380 206.864,5.600 207.000 C 5.820 207.136,6.000 207.777,6.000 208.424 C 6.000 209.071,6.180 209.600,6.400 209.600 C 6.620 209.600,6.800 209.962,6.800 210.405 C 6.800 211.183,6.942 211.569,7.938 213.495 C 8.192 213.987,8.400 214.752,8.400 215.195 C 8.400 215.638,8.580 216.000,8.800 216.000 C 9.020 216.000,9.200 216.439,9.200 216.976 C 9.200 217.513,9.380 218.064,9.600 218.200 C 9.820 218.336,10.000 218.716,10.000 219.046 C 10.000 219.597,10.848 221.685,12.238 224.561 C 12.547 225.200,12.800 225.965,12.800 226.261 C 12.800 226.558,12.980 226.800,13.200 226.800 C 13.420 226.800,13.600 227.160,13.600 227.600 C 13.600 228.040,13.780 228.400,14.000 228.400 C 14.220 228.400,14.400 228.760,14.400 229.200 C 14.400 229.640,14.535 230.003,14.700 230.006 C 14.865 230.010,15.440 230.910,15.979 232.006 C 16.517 233.103,17.102 234.000,17.279 234.000 C 17.455 234.000,17.600 234.360,17.600 234.800 C 17.600 235.240,17.780 235.600,18.000 235.600 C 18.220 235.600,18.400 235.960,18.400 236.400 C 18.400 236.840,18.580 237.200,18.800 237.200 C 19.020 237.200,19.200 237.470,19.200 237.800 C 19.200 238.130,19.380 238.400,19.600 238.400 C 19.820 238.400,20.000 238.670,20.000 239.000 C 20.000 239.330,20.180 239.600,20.400 239.600 C 20.620 239.600,20.800 239.830,20.800 240.112 C 20.800 240.393,21.160 240.883,21.600 241.200 C 22.040 241.517,22.400 242.057,22.400 242.400 C 22.400 242.743,22.760 243.283,23.200 243.600 C 23.640 243.917,24.000 244.457,24.000 244.800 C 24.000 245.143,24.360 245.683,24.800 246.000 C 25.240 246.317,25.600 246.831,25.600 247.141 C 25.600 247.452,25.933 247.997,26.341 248.353 C 26.748 248.709,27.360 249.540,27.700 250.200 C 28.041 250.860,28.836 251.940,29.467 252.600 C 30.099 253.260,30.927 254.246,31.309 254.791 C 34.032 258.681,46.970 271.508,50.985 274.299 C 51.856 274.904,53.098 275.895,53.744 276.500 C 54.390 277.105,55.122 277.600,55.371 277.600 C 55.620 277.600,56.083 277.960,56.400 278.400 C 56.717 278.840,57.231 279.200,57.541 279.200 C 57.852 279.200,58.397 279.526,58.753 279.925 C 59.109 280.324,60.300 281.257,61.400 281.999 C 62.500 282.740,63.490 283.449,63.600 283.574 C 63.710 283.699,64.295 284.056,64.900 284.368 C 65.505 284.680,66.000 285.085,66.000 285.268 C 66.000 285.450,66.360 285.600,66.800 285.600 C 67.240 285.600,67.600 285.745,67.600 285.921 C 67.600 286.098,68.497 286.683,69.594 287.221 C 70.690 287.760,71.590 288.335,71.594 288.500 C 71.597 288.665,71.960 288.800,72.400 288.800 C 72.840 288.800,73.200 288.980,73.200 289.200 C 73.200 289.420,73.560 289.600,74.000 289.600 C 74.440 289.600,74.800 289.780,74.800 290.000 C 74.800 290.220,75.160 290.400,75.600 290.400 C 76.040 290.400,76.400 290.572,76.400 290.782 C 76.400 290.992,77.030 291.282,77.800 291.426 C 78.570 291.571,79.200 291.849,79.200 292.045 C 79.200 292.240,79.560 292.400,80.000 292.400 C 80.440 292.400,80.800 292.580,80.800 292.800 C 80.800 293.020,81.160 293.200,81.600 293.200 C 82.040 293.200,82.400 293.380,82.400 293.600 C 82.400 293.820,82.760 294.000,83.200 294.000 C 83.640 294.000,84.000 294.180,84.000 294.400 C 84.000 294.620,84.439 294.800,84.976 294.800 C 85.513 294.800,86.064 294.980,86.200 295.200 C 86.336 295.420,86.797 295.600,87.224 295.600 C 87.651 295.600,88.000 295.780,88.000 296.000 C 88.000 296.220,88.540 296.400,89.200 296.400 C 89.860 296.400,90.400 296.580,90.400 296.800 C 90.400 297.020,90.760 297.200,91.200 297.200 C 91.644 297.200,92.000 297.467,92.000 297.800 C 92.000 298.130,91.820 298.400,91.600 298.400 C 91.380 298.400,91.200 298.850,91.200 299.400 C 91.200 299.950,91.020 300.400,90.800 300.400 C 90.580 300.400,90.400 300.760,90.400 301.200 C 90.400 301.640,90.220 302.000,90.000 302.000 C 89.780 302.000,89.600 302.360,89.600 302.800 C 89.600 303.240,89.420 303.600,89.200 303.600 C 88.980 303.600,88.800 303.960,88.800 304.400 C 88.800 304.840,88.620 305.200,88.400 305.200 C 88.180 305.200,88.000 305.560,88.000 306.000 C 88.000 306.440,87.820 306.800,87.600 306.800 C 87.380 306.800,87.200 307.149,87.200 307.576 C 87.200 308.003,87.020 308.464,86.800 308.600 C 86.580 308.736,86.400 309.197,86.400 309.624 C 86.400 310.051,86.220 310.400,86.000 310.400 C 85.780 310.400,85.600 310.634,85.600 310.920 C 85.600 311.656,84.659 313.593,84.300 313.597 C 84.135 313.599,84.000 313.960,84.000 314.400 C 84.000 314.840,83.820 315.200,83.600 315.200 C 83.380 315.200,83.200 315.472,83.200 315.805 C 83.200 316.393,83.033 316.818,82.062 318.695 C 81.808 319.187,81.600 319.862,81.600 320.195 C 81.600 320.528,81.420 320.800,81.200 320.800 C 80.980 320.800,80.800 321.160,80.800 321.600 C 80.800 322.040,80.620 322.400,80.400 322.400 C 80.180 322.400,80.000 322.760,80.000 323.200 C 80.000 323.640,79.820 324.000,79.600 324.000 C 79.380 324.000,79.200 324.265,79.200 324.588 C 79.200 324.911,78.862 325.778,78.448 326.515 C 78.034 327.251,77.562 328.462,77.399 329.204 C 76.838 331.757,79.048 331.600,43.618 331.600 L 11.179 331.600 9.389 333.389 L 7.600 335.179 7.600 338.189 C 7.600 339.930,7.769 341.200,8.000 341.200 C 8.220 341.200,8.400 341.388,8.400 341.618 C 8.400 342.337,10.325 344.000,11.158 344.000 C 11.595 344.000,12.064 344.180,12.200 344.400 C 12.542 344.953,82.400 344.953,82.400 344.400 C 82.400 344.180,82.805 344.000,83.300 344.000 C 84.681 343.999,86.085 342.479,87.551 339.400 C 88.284 337.860,89.045 336.287,89.242 335.905 C 89.439 335.523,89.600 334.938,89.600 334.605 C 89.600 334.272,89.780 334.000,90.000 334.000 C 90.220 334.000,90.400 333.640,90.400 333.200 C 90.400 332.760,90.564 332.400,90.765 332.400 C 90.966 332.400,91.251 331.680,91.400 330.800 C 91.549 329.920,91.834 329.200,92.035 329.200 C 92.236 329.200,92.400 328.840,92.400 328.400 C 92.400 327.960,92.580 327.600,92.800 327.600 C 93.020 327.600,93.200 327.240,93.200 326.800 C 93.200 326.360,93.380 326.000,93.600 326.000 C 93.820 326.000,94.000 325.651,94.000 325.224 C 94.000 324.797,94.180 324.336,94.400 324.200 C 94.620 324.064,94.800 323.603,94.800 323.176 C 94.800 322.749,94.980 322.400,95.200 322.400 C 95.420 322.400,95.600 322.040,95.600 321.600 C 95.600 321.160,95.780 320.800,96.000 320.800 C 96.220 320.800,96.400 320.440,96.400 320.000 C 96.400 319.560,96.580 319.200,96.800 319.200 C 97.020 319.200,97.200 318.840,97.200 318.400 C 97.200 317.960,97.380 317.600,97.600 317.600 C 97.820 317.600,98.000 317.328,98.000 316.995 C 98.000 316.662,98.180 316.032,98.400 315.595 C 98.620 315.158,98.980 314.442,99.200 314.005 C 99.420 313.568,99.600 312.938,99.600 312.605 C 99.600 312.272,99.780 312.000,100.000 312.000 C 100.220 312.000,100.400 311.640,100.400 311.200 C 100.400 310.760,100.580 310.400,100.800 310.400 C 101.020 310.400,101.200 310.040,101.200 309.600 C 101.200 309.160,101.380 308.800,101.600 308.800 C 101.820 308.800,102.000 308.440,102.000 308.000 C 102.000 307.560,102.180 307.200,102.400 307.200 C 102.620 307.200,102.800 306.851,102.800 306.424 C 102.800 305.997,102.980 305.536,103.200 305.400 C 103.420 305.264,103.600 304.803,103.600 304.376 C 103.600 303.949,103.780 303.600,104.000 303.600 C 104.220 303.600,104.400 303.240,104.400 302.800 C 104.400 302.107,104.667 302.000,106.400 302.000 C 107.500 302.000,108.400 302.180,108.400 302.400 C 108.400 302.620,109.109 302.800,109.976 302.800 C 110.843 302.800,111.664 302.980,111.800 303.200 C 111.936 303.420,112.901 303.600,113.944 303.600 C 114.987 303.600,116.011 303.764,116.220 303.965 C 116.647 304.375,119.620 304.737,125.100 305.046 C 127.135 305.161,128.800 305.423,128.800 305.627 C 128.800 305.843,131.667 306.000,135.600 306.000 C 139.867 306.000,142.400 305.851,142.400 305.600 C 142.400 305.380,142.678 305.200,143.018 305.200 C 143.692 305.200,145.108 303.865,145.900 302.483 C 146.633 301.205,146.633 163.199,145.900 161.910 C 145.137 160.569,144.520 160.000,143.829 160.000 C 143.483 160.000,143.200 159.820,143.200 159.600 C 143.200 159.380,142.761 159.200,142.224 159.200 C 141.687 159.200,141.136 159.020,141.000 158.800 C 140.837 158.536,117.670 158.400,72.800 158.400 C 27.930 158.400,4.763 158.536,4.600 158.800 M133.901 171.131 C 134.300 171.384,134.382 183.868,134.301 232.224 L 134.200 293.000 132.000 293.134 C 129.376 293.293,119.984 292.193,115.400 291.189 C 109.662 289.933,109.542 289.885,109.777 288.950 C 109.977 288.152,111.775 284.218,115.329 276.800 C 117.797 271.648,116.749 267.463,112.719 266.378 C 109.510 265.514,106.949 267.126,105.150 271.141 C 104.692 272.163,103.796 274.125,103.158 275.500 C 102.521 276.875,101.481 279.125,100.847 280.500 C 100.213 281.875,99.382 283.675,99.001 284.500 C 98.076 286.504,97.542 286.510,93.000 284.577 C 92.340 284.296,90.990 283.753,90.000 283.371 C 67.650 274.749,41.823 252.188,29.599 230.610 C 29.159 229.834,28.417 228.525,27.949 227.700 C 25.143 222.752,21.138 214.037,19.631 209.600 C 19.145 208.170,18.587 206.640,18.392 206.200 C 17.941 205.186,16.742 201.192,15.601 196.900 C 15.223 195.477,14.459 191.806,13.623 187.400 C 12.369 180.780,11.547 172.031,12.112 171.300 C 12.557 170.724,132.997 170.557,133.901 171.131 M337.600 181.977 C 337.270 182.159,336.529 182.526,335.953 182.793 C 333.956 183.719,331.875 190.800,333.600 190.800 C 333.820 190.800,334.000 191.078,334.000 191.418 C 334.000 192.218,335.782 194.000,336.582 194.000 C 336.922 194.000,337.200 194.180,337.200 194.400 C 337.200 194.662,345.448 194.800,361.144 194.800 L 385.089 194.800 386.944 193.072 L 388.800 191.344 388.800 188.350 C 388.800 185.197,387.224 182.400,385.446 182.400 C 385.091 182.400,384.800 182.220,384.800 182.000 C 384.800 181.508,338.494 181.485,337.600 181.977 M338.000 250.800 C 338.000 251.020,337.561 251.200,337.024 251.200 C 336.487 251.200,335.936 251.380,335.800 251.600 C 335.664 251.820,335.243 252.000,334.865 252.000 C 334.486 252.000,333.917 252.360,333.600 252.800 C 333.283 253.240,332.775 253.600,332.472 253.600 C 331.549 253.600,328.532 257.118,327.388 259.528 C 326.795 260.778,326.150 262.113,325.955 262.495 C 325.760 262.877,325.600 263.901,325.600 264.771 C 325.600 265.641,325.420 266.464,325.200 266.600 C 324.936 266.763,324.800 288.604,324.800 330.824 C 324.800 373.208,324.935 394.800,325.200 394.800 C 325.420 394.800,325.600 395.340,325.600 396.000 C 325.600 396.660,325.780 397.200,326.000 397.200 C 326.220 397.200,326.400 397.560,326.400 398.000 C 326.400 398.440,326.655 398.800,326.967 398.800 C 327.278 398.800,327.608 399.025,327.700 399.300 C 327.831 399.694,335.228 399.823,362.513 399.907 L 397.160 400.013 398.586 398.588 L 400.011 397.162 399.906 329.114 C 399.822 275.107,399.697 261.032,399.300 260.900 C 399.025 260.808,398.800 260.428,398.800 260.055 C 398.800 259.682,398.440 259.117,398.000 258.800 C 397.560 258.483,397.200 257.988,397.200 257.701 C 397.200 257.022,393.778 253.600,393.099 253.600 C 392.812 253.600,392.317 253.240,392.000 252.800 C 391.683 252.360,391.114 252.000,390.735 252.000 C 390.357 252.000,389.936 251.820,389.800 251.600 C 389.664 251.380,389.113 251.200,388.576 251.200 C 388.039 251.200,387.600 251.020,387.600 250.800 C 387.600 250.538,379.067 250.400,362.800 250.400 C 346.533 250.400,338.000 250.538,338.000 250.800 M384.451 262.965 C 385.902 263.573,387.143 264.800,387.925 266.400 C 388.305 267.177,388.390 280.817,388.307 327.600 L 388.200 387.800 362.900 387.903 L 337.600 388.006 337.601 327.303 C 337.603 258.625,337.278 265.035,340.855 263.264 C 343.094 262.156,381.885 261.890,384.451 262.965 M13.200 306.400 C 13.200 306.620,12.570 306.800,11.800 306.800 C 11.030 306.800,10.400 306.980,10.400 307.200 C 10.400 307.420,10.207 307.600,9.971 307.600 C 9.334 307.600,8.400 308.653,8.400 309.371 C 8.400 309.717,8.220 310.000,8.000 310.000 C 7.769 310.000,7.600 311.267,7.600 313.000 C 7.600 314.733,7.769 316.000,8.000 316.000 C 8.220 316.000,8.400 316.283,8.400 316.629 C 8.400 317.320,8.969 317.937,10.310 318.700 C 10.990 319.086,17.368 319.200,38.408 319.200 L 65.627 319.200 67.013 317.813 C 67.776 317.051,68.400 316.151,68.400 315.813 C 68.400 315.476,68.580 315.200,68.800 315.200 C 69.373 315.200,69.295 311.357,68.700 310.303 C 67.616 308.381,65.704 306.800,64.464 306.800 C 63.795 306.800,63.136 306.620,63.000 306.400 C 62.839 306.140,54.063 306.000,37.976 306.000 C 21.725 306.000,13.200 306.138,13.200 306.400 M173.200 314.800 C 173.200 315.020,172.581 315.200,171.824 315.200 C 171.067 315.200,170.336 315.380,170.200 315.600 C 170.064 315.820,169.603 316.000,169.176 316.000 C 168.749 316.000,168.400 316.180,168.400 316.400 C 168.400 316.620,168.040 316.800,167.600 316.800 C 167.160 316.800,166.800 316.941,166.800 317.114 C 166.800 317.286,166.241 317.758,165.558 318.161 C 164.172 318.980,162.000 321.125,162.000 321.676 C 162.000 321.873,161.642 322.417,161.205 322.887 C 160.768 323.356,160.298 324.339,160.160 325.070 C 160.023 325.802,159.751 326.400,159.555 326.400 C 159.360 326.400,159.200 327.030,159.200 327.800 C 159.200 328.570,159.020 329.200,158.800 329.200 C 158.537 329.200,158.400 340.667,158.400 362.800 C 158.400 384.933,158.537 396.400,158.800 396.400 C 159.020 396.400,159.200 396.678,159.200 397.017 C 159.200 397.357,159.652 398.122,160.204 398.717 L 161.208 399.800 196.122 399.800 L 231.036 399.800 232.018 398.778 C 234.088 396.623,234.000 398.234,234.000 362.600 C 234.000 343.511,233.845 328.891,233.639 328.495 C 233.440 328.113,233.043 326.990,232.756 326.000 C 232.469 325.010,231.911 323.909,231.517 323.553 C 231.123 323.197,230.800 322.698,230.800 322.444 C 230.800 321.759,226.515 317.600,225.809 317.600 C 225.474 317.600,225.200 317.420,225.200 317.200 C 225.200 316.980,224.930 316.800,224.600 316.800 C 224.270 316.800,224.000 316.620,224.000 316.400 C 224.000 316.180,223.651 316.000,223.224 316.000 C 222.797 316.000,222.336 315.820,222.200 315.600 C 222.064 315.380,221.434 315.200,220.800 315.200 C 220.166 315.200,219.536 315.020,219.400 314.800 C 219.240 314.541,211.063 314.400,196.176 314.400 C 181.125 314.400,173.200 314.538,173.200 314.800 M219.336 328.124 C 222.100 330.233,222.000 329.040,222.000 359.769 C 222.000 380.758,221.884 387.556,221.520 387.920 C 220.826 388.614,171.574 388.614,170.880 387.920 C 170.223 387.263,170.192 333.766,170.847 331.405 C 172.121 326.816,171.647 326.896,197.032 326.953 L 217.863 327.000 219.336 328.124 " stroke="none" fill="#040404" fill-rule="evenodd"></path><path id="path2" d="M160.300 12.699 C 162.775 12.769,166.825 12.769,169.300 12.699 C 171.775 12.628,169.750 12.571,164.800 12.571 C 159.850 12.571,157.825 12.628,160.300 12.699 M149.800 13.200 L 147.800 13.474 150.000 13.509 C 151.210 13.528,152.560 13.389,153.000 13.200 C 153.996 12.772,152.921 12.772,149.800 13.200 M176.200 13.182 C 176.951 13.522,181.927 13.772,181.567 13.452 C 181.475 13.371,180.050 13.195,178.400 13.062 C 176.482 12.908,175.689 12.951,176.200 13.182 M144.000 14.000 L 142.600 14.295 144.200 14.341 C 145.080 14.367,146.070 14.213,146.400 14.000 C 147.124 13.532,146.223 13.532,144.000 14.000 M183.200 13.997 C 183.741 14.350,187.164 14.599,186.767 14.256 C 186.675 14.177,185.700 13.999,184.600 13.859 C 183.235 13.686,182.790 13.730,183.200 13.997 M139.600 14.800 L 138.200 15.095 139.676 15.147 C 140.488 15.176,141.264 15.020,141.400 14.800 C 141.668 14.366,141.661 14.366,139.600 14.800 M188.000 14.788 C 188.330 15.008,189.215 15.191,189.967 15.194 C 191.760 15.202,191.441 14.975,189.200 14.650 C 187.942 14.467,187.581 14.509,188.000 14.788 M132.600 16.441 C 130.180 17.098,127.660 17.786,127.000 17.970 C 125.403 18.416,121.998 19.556,121.000 19.980 C 120.560 20.166,119.570 20.546,118.800 20.824 C 118.030 21.101,117.224 21.484,117.010 21.675 C 116.795 21.865,118.145 21.464,120.010 20.784 C 124.646 19.093,126.896 18.377,131.200 17.227 C 132.190 16.962,133.553 16.578,134.228 16.373 C 134.904 16.168,135.804 15.997,136.228 15.994 C 136.653 15.991,137.270 15.813,137.600 15.600 C 138.630 14.934,137.369 15.146,132.600 16.441 M192.000 15.579 C 192.330 15.804,193.125 15.991,193.767 15.994 C 195.304 16.002,194.984 15.770,193.000 15.438 C 191.854 15.246,191.570 15.286,192.000 15.579 M195.600 16.382 C 195.930 16.605,196.545 16.791,196.967 16.794 C 197.990 16.802,197.671 16.573,196.200 16.244 C 195.324 16.048,195.162 16.085,195.600 16.382 M198.600 17.157 C 199.040 17.354,200.210 17.738,201.200 18.011 C 203.687 18.696,207.637 19.979,208.600 20.414 C 209.040 20.612,210.300 21.117,211.400 21.536 C 212.500 21.955,213.760 22.437,214.200 22.608 C 214.729 22.813,214.865 22.784,214.600 22.521 C 214.380 22.303,213.120 21.719,211.800 21.223 C 210.480 20.728,209.040 20.166,208.600 19.974 C 207.115 19.329,200.611 17.306,199.200 17.051 C 198.213 16.873,198.036 16.904,198.600 17.157 M226.800 28.579 C 226.800 28.689,227.340 29.059,228.000 29.400 C 228.660 29.741,229.200 29.931,229.200 29.821 C 229.200 29.711,228.660 29.341,228.000 29.000 C 227.340 28.659,226.800 28.469,226.800 28.579 M99.284 30.266 C 98.340 30.835,97.654 31.388,97.761 31.494 C 97.867 31.600,98.487 31.308,99.139 30.844 C 99.790 30.380,100.521 30.000,100.762 30.000 C 101.003 30.000,101.200 29.820,101.200 29.600 C 101.200 29.088,101.289 29.057,99.284 30.266 M229.600 30.097 C 229.600 30.418,234.063 33.270,234.259 33.075 C 234.360 32.974,233.758 32.477,232.921 31.970 C 232.084 31.463,230.995 30.792,230.500 30.478 C 230.005 30.165,229.600 29.993,229.600 30.097 M93.600 33.895 C 91.730 35.146,89.968 36.396,89.685 36.671 C 89.402 36.947,88.637 37.487,87.985 37.872 C 87.333 38.257,86.800 38.735,86.800 38.934 C 86.800 39.132,87.385 38.856,88.100 38.319 C 88.815 37.782,90.023 36.905,90.785 36.371 C 91.547 35.837,92.500 35.109,92.903 34.754 C 93.306 34.398,94.437 33.695,95.418 33.191 C 96.398 32.687,97.200 32.123,97.200 31.937 C 97.200 31.466,97.357 31.381,93.600 33.895 M234.965 33.543 C 235.215 33.948,238.658 36.375,240.400 37.373 C 241.483 37.994,240.294 36.983,238.000 35.332 C 235.126 33.263,234.600 32.953,234.965 33.543 M241.200 37.786 C 241.200 37.965,241.515 38.360,241.900 38.663 C 242.736 39.321,244.373 40.251,243.800 39.743 C 241.718 37.896,241.200 37.506,241.200 37.786 M84.785 40.432 L 83.400 41.663 84.688 40.813 C 85.830 40.059,86.693 39.200,86.308 39.200 C 86.232 39.200,85.547 39.754,84.785 40.432 M244.400 40.184 C 244.400 40.616,246.516 42.418,246.749 42.184 C 246.851 42.083,246.858 41.955,246.767 41.900 C 246.675 41.845,246.105 41.364,245.500 40.830 C 244.895 40.297,244.400 40.006,244.400 40.184 M80.400 44.070 C 79.410 44.953,79.140 45.301,79.800 44.844 C 81.810 43.451,82.550 42.816,82.370 42.637 C 82.276 42.543,81.389 43.188,80.400 44.070 M247.222 42.700 C 247.234 42.865,247.819 43.438,248.522 43.974 L 249.800 44.949 248.625 43.674 C 247.403 42.349,247.185 42.197,247.222 42.700 M251.355 46.467 C 252.170 47.164,254.944 49.912,257.519 52.573 C 260.094 55.235,261.755 56.869,261.210 56.206 C 259.435 54.044,250.622 45.200,250.242 45.200 C 250.038 45.200,250.539 45.770,251.355 46.467 M73.141 46.101 C 73.343 46.303,73.933 46.401,74.454 46.319 C 75.255 46.193,75.198 46.137,74.087 45.952 C 73.293 45.821,72.919 45.879,73.141 46.101 M77.000 46.000 L 75.800 46.305 76.876 46.353 C 77.468 46.379,78.064 46.220,78.200 46.000 C 78.336 45.780,78.392 45.621,78.324 45.647 C 78.256 45.673,77.660 45.832,77.000 46.000 M64.583 53.735 C 66.486 56.983,65.951 58.867,61.441 64.796 C 60.021 66.663,58.949 68.282,59.059 68.392 C 59.170 68.503,59.422 68.303,59.621 67.948 C 60.088 67.113,63.694 62.261,64.041 62.000 C 66.062 60.481,66.544 56.005,64.947 53.591 C 63.542 51.469,63.309 51.561,64.583 53.735 M262.851 58.695 C 263.153 59.077,263.715 59.741,264.100 60.170 C 264.920 61.084,264.981 61.659,264.327 62.313 C 264.066 62.574,263.970 62.903,264.112 63.045 C 264.254 63.187,264.579 62.845,264.834 62.284 C 265.298 61.267,263.646 58.033,262.651 58.009 C 262.459 58.004,262.549 58.313,262.851 58.695 M262.986 64.900 L 262.352 66.200 263.167 65.200 C 263.952 64.237,264.208 63.600,263.810 63.600 C 263.706 63.600,263.335 64.185,262.986 64.900 M57.032 71.032 C 56.212 72.266,55.618 73.351,55.710 73.444 C 55.803 73.536,56.549 72.602,57.368 71.368 C 58.188 70.134,58.782 69.049,58.690 68.956 C 58.597 68.864,57.851 69.798,57.032 71.032 M257.414 74.635 C 257.041 75.204,256.827 75.761,256.939 75.872 C 257.050 75.983,257.429 75.518,257.781 74.837 C 258.559 73.333,258.344 73.215,257.414 74.635 M54.646 74.987 C 52.724 77.919,48.584 86.000,49.003 86.000 C 49.107 86.000,50.088 84.245,51.182 82.100 C 52.277 79.955,53.733 77.255,54.419 76.100 C 55.677 73.982,55.845 73.157,54.646 74.987 M270.583 76.700 C 268.361 80.590,266.702 83.787,267.107 83.400 C 267.337 83.180,267.870 82.370,268.293 81.600 C 268.716 80.830,269.738 78.985,270.565 77.500 C 271.392 76.015,271.979 74.800,271.869 74.800 C 271.758 74.800,271.180 75.655,270.583 76.700 M254.904 79.074 C 254.217 80.553,254.494 80.625,255.344 79.188 C 255.730 78.534,255.900 78.001,255.723 78.003 C 255.545 78.005,255.177 78.487,254.904 79.074 M277.800 80.800 C 278.141 81.460,278.511 82.000,278.621 82.000 C 278.731 82.000,278.541 81.460,278.200 80.800 C 277.859 80.140,277.489 79.600,277.379 79.600 C 277.269 79.600,277.459 80.140,277.800 80.800 M253.414 81.835 C 253.041 82.404,252.827 82.961,252.939 83.072 C 253.050 83.183,253.429 82.718,253.781 82.037 C 254.559 80.533,254.344 80.415,253.414 81.835 M278.838 82.600 C 278.838 82.820,279.361 83.990,280.000 85.200 C 280.639 86.410,281.162 87.220,281.162 87.000 C 281.162 86.780,280.639 85.610,280.000 84.400 C 279.361 83.190,278.838 82.380,278.838 82.600 M251.507 85.100 C 251.132 85.925,250.086 87.905,249.182 89.500 C 248.278 91.095,247.624 92.400,247.727 92.400 C 247.872 92.400,250.417 88.034,252.683 83.900 C 252.773 83.735,252.699 83.600,252.518 83.600 C 252.337 83.600,251.882 84.275,251.507 85.100 M265.786 85.300 L 265.152 86.600 265.967 85.600 C 266.752 84.637,267.008 84.000,266.610 84.000 C 266.506 84.000,266.135 84.585,265.786 85.300 M264.256 88.012 C 263.870 88.666,263.700 89.199,263.877 89.197 C 264.206 89.194,265.288 87.155,265.075 86.941 C 265.011 86.877,264.642 87.359,264.256 88.012 M281.200 87.765 C 281.200 87.882,281.630 88.928,282.155 90.089 C 282.680 91.250,283.505 93.280,283.987 94.600 C 284.469 95.920,285.030 97.313,285.232 97.695 C 285.434 98.077,285.600 98.741,285.600 99.171 C 285.600 99.601,285.780 100.064,286.000 100.200 C 286.220 100.336,286.400 100.799,286.400 101.229 C 286.400 101.659,286.569 102.323,286.776 102.705 C 286.983 103.087,287.275 103.940,287.425 104.600 C 287.576 105.260,287.771 105.606,287.860 105.368 C 288.122 104.665,284.946 95.415,282.756 90.504 C 282.340 89.572,282.000 88.637,282.000 88.428 C 282.000 88.219,281.820 87.936,281.600 87.800 C 281.380 87.664,281.200 87.648,281.200 87.765 M262.220 91.560 C 261.652 92.682,261.264 93.600,261.359 93.600 C 261.651 93.600,263.623 89.890,263.433 89.699 C 263.334 89.601,262.789 90.438,262.220 91.560 M246.653 94.100 L 245.933 95.400 246.758 94.400 C 247.489 93.513,247.814 92.800,247.486 92.800 C 247.424 92.800,247.049 93.385,246.653 94.100 M258.240 98.640 C 257.662 99.675,257.260 100.594,257.348 100.682 C 257.436 100.770,257.982 99.995,258.560 98.960 C 259.138 97.925,259.540 97.006,259.452 96.918 C 259.364 96.830,258.818 97.605,258.240 98.640 M254.614 105.035 C 254.241 105.604,254.027 106.161,254.139 106.272 C 254.250 106.383,254.629 105.918,254.981 105.237 C 255.759 103.733,255.544 103.615,254.614 105.035 M240.667 104.667 C 240.300 105.033,240.329 108.309,240.700 108.538 C 240.865 108.640,241.000 107.751,241.000 106.562 C 241.000 105.373,240.985 104.400,240.967 104.400 C 240.948 104.400,240.813 104.520,240.667 104.667 M288.000 106.910 C 288.000 107.483,288.187 108.068,288.416 108.210 C 288.689 108.379,288.738 108.077,288.560 107.334 C 288.192 105.801,288.000 105.656,288.000 106.910 M252.965 108.100 C 252.605 108.815,251.755 109.985,251.077 110.700 C 250.398 111.415,249.993 112.000,250.176 112.000 C 250.725 112.000,252.357 110.052,253.213 108.374 C 253.655 107.508,253.927 106.800,253.818 106.800 C 253.710 106.800,253.326 107.385,252.965 108.100 M288.846 109.600 C 288.827 110.150,288.987 110.870,289.200 111.200 C 289.694 111.964,289.694 111.142,289.200 109.600 L 288.880 108.600 288.846 109.600 M40.200 110.000 C 40.050 110.473,40.017 110.950,40.127 111.060 C 40.237 111.170,40.450 110.873,40.600 110.400 C 40.750 109.927,40.783 109.450,40.673 109.340 C 40.563 109.230,40.350 109.527,40.200 110.000 M241.200 109.494 C 241.201 109.924,243.168 112.165,243.369 111.964 C 243.460 111.874,243.009 111.212,242.367 110.493 C 241.725 109.775,241.200 109.325,241.200 109.494 M289.640 113.476 C 289.618 114.178,289.780 114.864,290.000 115.000 C 290.460 115.284,290.460 114.636,290.000 113.200 C 289.694 112.245,289.678 112.257,289.640 113.476 M39.456 113.684 C 39.321 114.188,39.227 114.960,39.246 115.400 C 39.265 115.840,39.445 115.498,39.646 114.640 C 40.036 112.978,39.870 112.140,39.456 113.684 M290.440 117.476 C 290.418 118.178,290.580 118.864,290.800 119.000 C 291.260 119.284,291.260 118.636,290.800 117.200 C 290.494 116.245,290.478 116.257,290.440 117.476 M38.676 117.610 C 38.530 118.155,38.427 119.050,38.446 119.600 C 38.471 120.318,38.584 120.157,38.849 119.027 C 39.255 117.295,39.100 116.025,38.676 117.610 M291.206 122.233 C 291.209 123.095,291.397 124.070,291.623 124.400 C 291.914 124.826,291.955 124.420,291.765 123.000 C 291.431 120.503,291.198 120.184,291.206 122.233 M37.869 122.756 C 37.721 123.495,37.621 124.663,37.647 125.350 C 37.679 126.212,37.805 125.925,38.055 124.423 C 38.453 122.021,38.297 120.617,37.869 122.756 M292.082 130.000 C 292.068 131.430,292.211 132.960,292.400 133.400 C 292.852 134.451,292.862 132.246,292.418 129.400 L 292.107 127.400 292.082 130.000 M37.016 130.989 C 36.864 132.412,36.853 133.762,36.993 133.989 C 37.165 134.268,57.997 134.400,101.762 134.400 C 173.046 134.400,167.749 134.203,169.690 136.924 L 170.600 138.200 170.804 203.200 C 170.916 238.950,171.051 268.224,171.104 268.254 C 171.803 268.647,185.432 267.023,190.200 265.978 C 195.243 264.873,197.601 264.267,197.448 264.115 C 197.354 264.021,196.044 264.234,194.538 264.589 C 189.973 265.666,188.717 265.921,185.800 266.364 C 180.739 267.132,179.844 267.227,175.504 267.459 L 171.207 267.688 171.104 202.873 L 171.000 138.059 170.163 136.929 C 169.703 136.308,168.731 135.395,168.004 134.900 L 166.682 134.000 101.917 134.000 L 37.152 134.000 37.427 131.200 C 37.579 129.660,37.611 128.400,37.498 128.400 C 37.385 128.400,37.168 129.565,37.016 130.989 M292.303 147.600 C 292.142 148.150,292.030 149.590,292.052 150.800 L 292.094 153.000 292.461 150.800 C 292.663 149.590,292.776 148.150,292.711 147.600 L 292.595 146.600 292.303 147.600 M291.473 156.553 C 291.323 156.945,291.218 157.836,291.240 158.533 C 291.279 159.767,291.290 159.759,291.649 158.227 C 292.045 156.537,291.924 155.379,291.473 156.553 M274.133 161.600 C 264.856 161.710,257.176 161.890,257.066 162.000 C 256.956 162.110,264.540 162.146,273.920 162.080 C 289.073 161.973,291.802 161.881,291.167 161.500 C 291.075 161.445,283.410 161.490,274.133 161.600 M251.400 163.868 C 249.551 164.847,246.934 167.082,245.964 168.511 C 245.166 169.686,245.229 169.659,246.678 168.200 C 248.952 165.910,250.153 164.949,251.881 164.037 C 252.716 163.596,253.220 163.235,253.000 163.234 C 252.780 163.233,252.060 163.518,251.400 163.868 M242.267 175.867 C 242.120 176.013,242.018 176.688,242.041 177.367 L 242.082 178.600 242.410 177.203 C 242.753 175.747,242.717 175.416,242.267 175.867 M240.700 243.103 C 240.095 243.478,239.600 243.936,239.600 244.120 C 239.600 244.304,240.140 244.070,240.800 243.600 C 241.460 243.130,242.000 242.668,242.000 242.573 C 242.000 242.318,241.904 242.357,240.700 243.103 M232.110 249.000 C 230.967 249.770,229.889 250.404,229.716 250.409 C 229.542 250.414,228.950 250.785,228.400 251.233 L 227.400 252.048 228.798 251.363 C 230.305 250.625,234.400 247.979,234.400 247.743 C 234.400 247.482,234.206 247.589,232.110 249.000 M201.400 262.800 L 200.600 263.144 201.400 263.166 C 201.840 263.178,202.470 263.013,202.800 262.800 C 203.595 262.286,202.596 262.286,201.400 262.800 M198.600 263.600 L 197.800 263.944 198.600 263.966 C 199.040 263.978,199.670 263.813,200.000 263.600 C 200.795 263.086,199.796 263.086,198.600 263.600 M186.100 327.500 C 191.765 327.562,201.035 327.562,206.700 327.500 C 212.365 327.437,207.730 327.386,196.400 327.386 C 185.070 327.386,180.435 327.437,186.100 327.500 M172.738 329.217 L 171.200 330.834 171.200 359.220 L 171.200 387.606 196.300 387.503 L 221.400 387.400 221.400 359.400 C 221.400 331.657,221.265 328.601,220.094 329.772 C 219.962 329.905,220.066 330.226,220.327 330.487 C 220.682 330.842,220.800 337.962,220.800 359.080 L 220.800 387.200 196.200 387.200 L 171.600 387.200 171.600 359.595 C 171.600 338.254,171.713 331.786,172.100 331.095 C 172.908 329.649,174.099 328.400,174.670 328.400 C 174.961 328.400,175.200 328.220,175.200 328.000 C 175.200 327.172,174.225 327.654,172.738 329.217 " stroke="none" fill="#78a0da" fill-rule="evenodd"></path><path id="path3" d="M153.473 13.060 C 153.311 13.222,151.609 13.505,149.690 13.689 C 142.527 14.377,141.791 14.479,141.420 14.835 C 141.211 15.036,140.504 15.200,139.848 15.200 C 139.193 15.200,138.104 15.368,137.428 15.573 C 136.753 15.778,135.390 16.150,134.400 16.400 C 128.024 18.009,125.151 18.891,120.000 20.822 C 118.130 21.522,116.018 22.311,115.307 22.574 C 114.597 22.837,113.892 23.175,113.741 23.326 C 113.590 23.477,113.137 23.600,112.733 23.600 C 112.330 23.600,112.000 23.780,112.000 24.000 C 112.000 24.220,111.640 24.400,111.200 24.400 C 110.760 24.400,110.400 24.580,110.400 24.800 C 110.400 25.020,110.166 25.200,109.880 25.200 C 109.144 25.200,107.207 26.141,107.203 26.500 C 107.201 26.665,106.840 26.800,106.400 26.800 C 105.960 26.800,105.600 26.980,105.600 27.200 C 105.600 27.420,105.240 27.600,104.800 27.600 C 104.360 27.600,104.000 27.746,104.000 27.925 C 104.000 28.104,103.370 28.498,102.600 28.800 C 101.830 29.102,101.200 29.475,101.200 29.628 C 101.200 29.781,100.885 30.007,100.500 30.129 C 99.714 30.378,97.507 31.665,97.200 32.053 C 97.090 32.192,96.252 32.732,95.339 33.253 C 94.425 33.774,93.255 34.514,92.739 34.898 C 92.222 35.282,89.910 36.991,87.600 38.695 C 85.290 40.399,82.860 42.310,82.200 42.942 C 78.102 46.862,74.187 47.565,71.287 44.900 C 70.385 44.071,70.066 44.270,66.772 47.700 C 63.120 51.504,63.245 51.141,64.800 53.400 C 66.553 55.948,66.159 60.407,64.041 62.000 C 63.895 62.110,62.916 63.370,61.865 64.800 C 60.815 66.230,59.695 67.717,59.378 68.105 C 59.060 68.492,58.800 68.910,58.800 69.033 C 58.800 69.155,58.283 70.008,57.651 70.928 C 53.998 76.243,48.533 86.782,45.946 93.500 C 45.273 95.249,44.703 96.608,44.353 97.295 C 44.159 97.677,44.000 98.341,44.000 98.771 C 44.000 99.201,43.820 99.664,43.600 99.800 C 43.380 99.936,43.200 100.476,43.200 101.000 C 43.200 101.524,43.020 102.064,42.800 102.200 C 42.580 102.336,42.400 102.876,42.400 103.400 C 42.400 103.924,42.220 104.464,42.000 104.600 C 41.780 104.736,41.600 105.456,41.600 106.200 C 41.600 106.944,41.440 107.652,41.244 107.773 C 41.049 107.894,40.793 108.579,40.677 109.296 C 40.561 110.013,40.089 112.580,39.629 115.000 C 38.655 120.127,37.767 126.504,37.415 130.900 L 37.167 134.000 101.924 134.000 L 166.682 134.000 168.004 134.900 C 168.731 135.395,169.703 136.308,170.163 136.929 L 171.000 138.059 171.104 202.873 L 171.207 267.688 175.504 267.455 C 183.107 267.043,189.677 265.956,197.800 263.768 C 200.000 263.175,202.297 262.604,202.905 262.499 C 203.513 262.394,204.108 262.149,204.229 261.954 C 204.349 261.759,204.851 261.600,205.344 261.600 C 205.837 261.600,206.411 261.457,206.620 261.282 C 206.829 261.107,207.720 260.735,208.600 260.455 C 209.480 260.176,210.605 259.779,211.100 259.574 C 211.595 259.368,212.405 259.043,212.900 258.851 C 216.116 257.602,224.558 253.502,224.733 253.104 C 224.807 252.937,225.212 252.800,225.633 252.800 C 226.055 252.800,226.400 252.641,226.400 252.447 C 226.400 252.252,226.715 251.990,227.100 251.864 C 228.417 251.433,238.816 244.841,239.919 243.738 C 240.218 243.439,240.808 243.010,241.231 242.783 C 241.980 242.382,242.000 241.514,242.000 209.210 C 242.000 187.533,242.139 175.962,242.400 175.800 C 242.620 175.664,242.800 175.023,242.800 174.376 C 242.800 173.729,242.980 173.200,243.200 173.200 C 243.420 173.200,243.600 172.920,243.600 172.578 C 243.600 170.442,248.685 165.118,252.232 163.540 C 255.738 161.980,257.161 161.856,274.200 161.627 L 291.000 161.400 291.314 158.800 C 292.565 148.424,292.835 137.530,292.047 129.200 C 291.807 126.670,291.504 123.430,291.372 122.000 C 291.240 120.570,290.968 119.229,290.766 119.020 C 290.565 118.811,290.400 117.902,290.400 117.000 C 290.400 116.098,290.238 115.189,290.041 114.980 C 289.844 114.771,289.580 113.880,289.456 113.000 C 288.978 109.611,288.699 108.385,288.356 108.173 C 288.160 108.052,288.000 107.571,288.000 107.105 C 288.000 106.204,287.335 103.861,286.751 102.705 C 286.558 102.323,286.400 101.659,286.400 101.229 C 286.400 100.799,286.220 100.336,286.000 100.200 C 285.780 100.064,285.600 99.601,285.600 99.171 C 285.600 98.741,285.434 98.077,285.232 97.695 C 285.030 97.313,284.469 95.920,283.986 94.600 C 282.465 90.439,279.205 83.207,277.586 80.400 C 277.015 79.410,276.290 78.015,275.976 77.300 C 275.662 76.585,275.269 76.000,275.102 76.000 C 274.936 76.000,274.799 75.775,274.798 75.500 C 274.795 74.857,272.833 72.447,272.814 73.064 C 272.806 73.319,272.107 74.759,271.259 76.264 C 270.412 77.769,269.267 79.810,268.716 80.800 C 268.164 81.790,267.300 83.320,266.795 84.200 C 266.290 85.080,265.500 86.520,265.038 87.400 C 264.577 88.280,264.110 89.090,264.000 89.200 C 263.826 89.374,263.279 90.353,261.429 93.800 C 261.193 94.240,260.910 94.690,260.799 94.800 C 260.689 94.910,260.334 95.540,260.010 96.200 C 259.686 96.860,258.741 98.543,257.910 99.941 C 257.080 101.338,256.400 102.530,256.400 102.590 C 256.400 103.020,251.786 110.725,251.244 111.200 C 244.954 116.710,236.484 107.516,242.400 101.600 C 242.600 101.400,244.131 98.590,244.960 96.903 C 245.202 96.410,245.535 96.005,245.700 96.003 C 245.865 96.001,246.000 95.820,246.000 95.601 C 246.000 95.381,246.882 93.613,247.961 91.670 C 249.039 89.728,250.434 87.163,251.061 85.969 C 251.687 84.776,252.290 83.710,252.400 83.600 C 252.652 83.348,253.496 81.869,254.570 79.800 C 255.026 78.920,255.490 78.110,255.600 78.000 C 255.710 77.890,256.174 77.080,256.630 76.200 C 257.704 74.131,258.548 72.652,258.800 72.400 C 258.910 72.290,259.378 71.480,259.839 70.600 C 260.301 69.720,261.156 68.145,261.739 67.100 C 265.290 60.741,265.103 61.287,264.100 60.175 C 263.715 59.748,262.862 58.679,262.204 57.800 C 260.696 55.784,249.985 45.016,247.658 43.177 C 246.699 42.420,245.375 41.305,244.715 40.700 C 244.055 40.095,243.398 39.600,243.254 39.600 C 243.110 39.600,242.544 39.191,241.996 38.691 C 241.182 37.948,237.586 35.420,234.470 33.400 C 230.385 30.752,227.789 29.174,226.800 28.736 C 226.140 28.444,225.600 28.069,225.600 27.902 C 225.600 27.736,225.255 27.600,224.833 27.600 C 224.412 27.600,224.007 27.464,223.933 27.298 C 223.704 26.780,216.639 23.474,212.200 21.809 C 210.660 21.231,209.040 20.596,208.600 20.399 C 207.569 19.937,204.198 18.812,202.400 18.330 C 201.630 18.124,200.460 17.795,199.800 17.600 C 193.520 15.743,187.114 14.458,179.600 13.550 C 175.477 13.052,153.887 12.647,153.473 13.060 M175.200 328.000 C 175.200 328.220,174.961 328.400,174.670 328.400 C 174.099 328.400,172.908 329.649,172.100 331.095 C 171.713 331.786,171.600 338.254,171.600 359.595 L 171.600 387.200 196.200 387.200 L 220.800 387.200 220.800 359.280 C 220.800 328.982,220.875 330.002,218.525 328.461 C 217.059 327.500,175.200 327.055,175.200 328.000 " stroke="none" fill="#9cc4fc" fill-rule="evenodd"></path><path id="path4" d="M159.600 11.985 C 157.792 12.177,159.428 12.283,164.967 12.331 C 169.348 12.369,172.858 12.332,172.767 12.249 C 172.414 11.929,162.070 11.721,159.600 11.985 M149.200 12.819 C 148.599 13.023,149.714 13.067,152.000 12.929 C 154.090 12.802,155.875 12.631,155.967 12.549 C 156.305 12.246,150.166 12.491,149.200 12.819 M173.633 12.549 C 173.725 12.631,175.510 12.808,177.600 12.941 C 180.004 13.094,181.106 13.050,180.600 12.820 C 179.852 12.480,173.270 12.224,173.633 12.549 M143.800 13.621 C 143.272 13.862,143.816 13.904,145.400 13.743 C 146.720 13.609,147.875 13.432,147.967 13.350 C 148.321 13.031,144.556 13.276,143.800 13.621 M185.788 14.045 C 188.201 14.465,190.361 14.739,190.588 14.655 C 190.814 14.571,190.280 14.380,189.400 14.230 C 188.520 14.080,187.045 13.787,186.123 13.579 C 185.200 13.371,183.760 13.219,182.923 13.241 C 182.002 13.266,183.135 13.584,185.788 14.045 M139.400 14.400 C 138.336 14.857,140.003 14.857,141.800 14.400 L 143.000 14.095 141.600 14.075 C 140.830 14.065,139.840 14.211,139.400 14.400 M135.600 15.200 C 134.842 15.690,136.070 15.690,137.600 15.200 C 138.580 14.886,138.576 14.879,137.400 14.846 C 136.740 14.827,135.930 14.987,135.600 15.200 M196.200 16.227 C 199.060 16.979,201.850 17.711,202.400 17.854 C 202.950 17.996,203.278 17.980,203.128 17.818 C 202.979 17.656,201.539 17.168,199.928 16.734 C 198.318 16.300,196.046 15.687,194.880 15.372 C 193.715 15.058,192.365 14.813,191.880 14.829 C 191.396 14.846,193.340 15.474,196.200 16.227 M132.400 16.000 C 131.613 16.509,133.016 16.509,134.200 16.000 C 134.933 15.685,134.916 15.654,134.000 15.634 C 133.450 15.622,132.730 15.787,132.400 16.000 M128.200 17.101 C 127.100 17.440,126.407 17.790,126.660 17.879 C 126.913 17.967,128.173 17.684,129.460 17.248 C 132.202 16.321,131.132 16.196,128.200 17.101 M124.400 18.400 C 123.867 18.745,123.867 18.788,124.400 18.788 C 124.730 18.788,125.270 18.613,125.600 18.400 C 126.133 18.055,126.133 18.012,125.600 18.012 C 125.270 18.012,124.730 18.187,124.400 18.400 M204.000 18.400 C 204.330 18.613,204.870 18.788,205.200 18.788 C 205.733 18.788,205.733 18.745,205.200 18.400 C 204.870 18.187,204.330 18.012,204.000 18.012 C 203.467 18.012,203.467 18.055,204.000 18.400 M122.000 19.200 C 121.467 19.545,121.467 19.588,122.000 19.588 C 122.330 19.588,122.870 19.413,123.200 19.200 C 123.733 18.855,123.733 18.812,123.200 18.812 C 122.870 18.812,122.330 18.987,122.000 19.200 M206.800 19.275 C 208.146 19.841,209.066 20.201,211.200 20.996 C 222.911 25.355,239.241 35.177,248.400 43.370 C 253.235 47.694,261.742 56.512,264.172 59.719 L 265.323 61.237 264.454 62.919 C 263.976 63.843,263.112 65.410,262.535 66.400 C 261.958 67.390,261.039 69.010,260.494 70.000 C 259.948 70.990,259.186 72.340,258.800 73.000 C 258.414 73.660,257.655 75.010,257.112 76.000 C 256.569 76.990,254.407 80.860,252.307 84.600 C 247.362 93.408,246.964 94.114,245.938 95.900 C 244.844 97.804,242.935 101.285,241.732 103.568 C 239.906 107.032,241.976 112.408,245.131 112.398 C 245.515 112.397,245.161 112.009,244.301 111.488 C 241.431 109.751,240.587 106.210,242.317 103.163 C 242.742 102.413,243.721 100.720,244.491 99.400 C 245.261 98.080,246.338 96.190,246.883 95.200 C 248.877 91.579,254.749 81.090,256.457 78.100 C 257.407 76.436,258.666 74.173,260.242 71.300 C 260.815 70.255,261.421 69.220,261.589 69.000 C 262.360 67.990,265.600 61.630,265.600 61.128 C 265.600 59.856,254.439 47.941,248.806 43.200 C 247.630 42.210,246.472 41.214,246.234 40.987 C 243.887 38.750,233.689 31.719,228.400 28.692 C 222.318 25.210,207.830 18.744,206.298 18.827 C 206.024 18.842,206.250 19.044,206.800 19.275 M116.200 21.422 C 111.685 23.255,104.415 26.784,101.178 28.714 C 100.175 29.311,98.465 30.327,97.378 30.971 C 92.097 34.098,79.432 43.629,78.867 44.900 C 78.793 45.065,78.399 45.200,77.990 45.200 C 77.582 45.200,77.136 45.380,77.000 45.600 C 76.064 47.114,80.368 44.382,83.135 41.705 C 83.429 41.421,84.329 40.697,85.135 40.096 C 85.941 39.496,86.690 38.905,86.800 38.783 C 86.910 38.661,87.630 38.129,88.400 37.600 C 89.170 37.071,89.890 36.527,90.000 36.391 C 90.821 35.374,107.793 25.200,108.669 25.200 C 108.769 25.200,110.054 24.642,111.525 23.961 C 112.996 23.279,114.560 22.577,115.000 22.401 C 115.440 22.224,116.653 21.702,117.696 21.240 C 118.738 20.778,119.853 20.400,120.172 20.400 C 120.491 20.400,120.864 20.220,121.000 20.000 C 121.389 19.370,120.884 19.520,116.200 21.422 M70.800 44.180 C 70.800 44.485,73.506 46.000,74.047 45.999 C 74.351 45.998,74.060 45.671,73.400 45.273 C 72.079 44.476,70.800 43.938,70.800 44.180 M63.200 51.782 C 63.200 52.164,63.605 53.044,64.100 53.738 C 64.787 54.701,64.997 55.541,64.986 57.284 C 64.979 58.540,65.111 59.350,65.280 59.084 C 65.954 58.024,65.572 55.533,64.400 53.336 C 63.740 52.099,63.200 51.400,63.200 51.782 M62.312 62.900 C 57.698 68.983,49.583 82.116,50.111 82.645 C 50.215 82.748,50.755 81.960,51.313 80.893 C 52.903 77.852,54.030 75.890,54.847 74.738 C 55.261 74.154,55.600 73.561,55.600 73.420 C 55.600 73.045,59.389 67.465,61.997 64.000 C 64.421 60.779,64.943 60.000,64.679 60.000 C 64.587 60.000,63.521 61.305,62.312 62.900 M271.520 74.109 C 270.730 75.479,269.784 77.230,269.418 78.000 C 268.392 80.157,269.893 78.200,271.180 75.702 C 273.064 72.047,272.952 72.096,274.454 74.269 C 275.984 76.483,282.800 89.844,282.800 90.631 C 282.800 90.918,282.999 91.276,283.243 91.426 C 284.161 91.994,279.647 82.164,276.802 77.400 C 276.145 76.300,275.323 74.831,274.976 74.136 C 273.582 71.350,273.112 71.346,271.520 74.109 M267.854 80.573 C 267.494 81.123,267.200 81.659,267.200 81.764 C 267.200 81.870,266.594 83.002,265.854 84.279 C 265.114 85.555,264.034 87.455,263.454 88.500 C 262.874 89.545,261.950 91.210,261.400 92.200 C 260.850 93.190,259.931 94.855,259.358 95.900 C 258.785 96.945,258.181 97.980,258.016 98.200 C 257.850 98.420,257.171 99.590,256.506 100.800 C 251.188 110.475,250.892 110.901,248.800 111.879 C 248.041 112.233,247.973 112.352,248.515 112.373 C 249.561 112.412,252.145 109.732,253.503 107.200 C 254.151 105.990,255.069 104.325,255.541 103.500 C 256.711 101.457,257.371 100.286,261.007 93.800 C 262.733 90.720,265.196 86.328,266.479 84.040 C 268.612 80.237,269.436 78.159,267.854 80.573 M48.482 85.669 C 47.251 88.291,46.142 90.815,45.613 92.200 C 45.091 93.565,44.323 95.368,43.953 96.095 C 43.759 96.477,43.600 97.116,43.600 97.515 C 43.600 97.914,43.451 98.411,43.270 98.620 C 43.088 98.829,42.707 99.810,42.423 100.800 C 42.139 101.790,41.769 103.050,41.600 103.600 C 41.431 104.150,41.071 105.410,40.800 106.400 C 40.529 107.390,40.163 108.650,39.987 109.200 C 39.811 109.750,39.568 110.830,39.447 111.600 C 39.326 112.370,38.960 114.220,38.632 115.711 C 37.927 118.923,37.430 123.928,37.968 122.400 C 38.162 121.850,38.338 120.791,38.360 120.046 C 38.382 119.302,38.567 118.042,38.772 117.246 C 38.976 116.451,39.350 114.720,39.602 113.400 C 39.854 112.080,40.251 110.280,40.484 109.400 C 40.717 108.520,41.052 107.260,41.227 106.600 C 42.811 100.634,45.557 93.102,48.360 87.037 C 49.266 85.077,49.931 83.398,49.839 83.305 C 49.746 83.213,49.136 84.276,48.482 85.669 M283.600 92.290 C 283.600 92.879,285.735 97.999,285.908 97.825 C 286.007 97.727,285.602 96.376,285.009 94.823 C 284.031 92.264,283.600 91.489,283.600 92.290 M286.012 98.800 C 286.012 99.130,286.187 99.670,286.400 100.000 C 286.745 100.533,286.788 100.533,286.788 100.000 C 286.788 99.670,286.613 99.130,286.400 98.800 C 286.055 98.267,286.012 98.267,286.012 98.800 M286.812 101.200 C 286.812 101.530,286.987 102.070,287.200 102.400 C 287.545 102.933,287.588 102.933,287.588 102.400 C 287.588 102.070,287.413 101.530,287.200 101.200 C 286.855 100.667,286.812 100.667,286.812 101.200 M287.600 103.441 C 287.600 103.647,287.973 105.162,288.430 106.808 C 289.588 110.985,291.022 117.968,291.551 122.000 C 292.647 130.361,292.800 132.610,292.801 140.364 C 292.801 148.108,292.625 150.633,291.527 158.671 L 291.080 161.942 273.440 162.074 L 255.800 162.206 253.167 163.448 C 247.479 166.130,243.820 170.652,242.549 176.572 C 242.146 178.449,242.025 186.234,242.014 210.894 L 242.000 242.787 236.100 246.717 C 229.078 251.395,222.362 255.141,216.400 257.705 C 215.630 258.036,214.147 258.688,213.104 259.153 C 212.062 259.619,211.024 260.000,210.799 260.000 C 210.574 260.000,210.077 260.174,209.695 260.386 C 209.088 260.723,203.722 262.520,200.200 263.565 C 199.028 263.913,193.390 265.287,190.200 266.002 C 189.320 266.200,187.700 266.484,186.600 266.633 C 185.500 266.783,184.832 266.989,185.115 267.091 C 187.159 267.828,205.798 262.809,213.096 259.556 C 214.028 259.140,214.908 258.800,215.051 258.800 C 217.055 258.800,236.107 247.832,241.700 243.459 C 242.356 242.946,242.400 240.943,242.400 211.556 C 242.401 174.139,242.433 173.844,247.022 168.482 C 251.718 162.996,253.199 162.663,273.994 162.411 L 291.387 162.200 291.703 160.600 C 293.070 153.664,293.523 133.017,292.479 125.200 C 291.538 118.153,290.491 112.613,289.228 108.000 C 289.018 107.230,288.671 105.911,288.458 105.068 C 288.083 103.589,287.600 102.672,287.600 103.441 M37.032 126.866 C 36.856 128.773,36.796 130.573,36.901 130.866 C 37.157 131.584,37.721 125.633,37.516 124.385 C 37.427 123.843,37.209 124.960,37.032 126.866 M36.538 133.000 L 36.600 134.600 101.618 134.800 C 173.637 135.022,167.725 134.787,169.494 137.488 C 170.159 138.502,170.212 142.334,170.400 203.582 L 170.600 268.600 172.000 268.715 C 172.770 268.778,174.390 268.651,175.600 268.433 C 177.765 268.042,177.747 268.038,174.500 268.152 C 172.685 268.216,171.157 268.252,171.104 268.234 C 171.051 268.215,170.916 238.950,170.804 203.200 L 170.600 138.200 169.679 136.909 C 167.760 134.218,172.837 134.413,101.599 134.301 L 37.000 134.200 36.738 132.800 L 36.475 131.400 36.538 133.000 M12.116 171.300 C 11.893 171.592,11.857 172.797,12.030 174.200 L 12.325 176.600 12.262 174.000 L 12.200 171.400 73.000 171.400 L 133.800 171.400 133.901 232.084 L 134.003 292.768 130.800 292.910 L 127.598 293.052 130.899 293.026 L 134.200 293.000 134.301 232.224 C 134.382 183.868,134.300 171.384,133.901 171.131 C 132.997 170.557,12.556 170.724,12.116 171.300 M269.928 173.900 C 275.498 173.963,284.498 173.962,289.928 173.900 C 295.358 173.837,290.800 173.785,279.800 173.786 C 268.800 173.786,264.358 173.837,269.928 173.900 M301.600 174.511 C 301.600 174.587,302.185 175.078,302.900 175.601 C 303.704 176.190,303.984 176.287,303.633 175.855 C 303.100 175.199,301.600 174.207,301.600 174.511 M12.440 179.233 C 12.462 180.425,12.627 181.850,12.806 182.400 C 12.999 182.992,13.042 182.176,12.911 180.400 C 12.647 176.836,12.384 176.183,12.440 179.233 M304.897 253.113 C 304.797 329.154,304.812 330.000,306.194 330.000 C 306.323 330.000,306.197 329.595,305.914 329.100 C 305.502 328.379,305.360 313.341,305.197 253.600 L 304.994 179.000 304.897 253.113 M13.228 185.033 C 13.244 185.895,13.409 186.960,13.596 187.400 C 13.808 187.898,13.851 187.369,13.712 186.000 C 13.444 183.365,13.189 182.857,13.228 185.033 M14.040 189.433 C 14.062 190.075,14.233 191.050,14.420 191.600 C 14.649 192.274,14.684 191.949,14.528 190.600 C 14.269 188.350,13.979 187.659,14.040 189.433 M14.836 193.280 C 14.795 194.056,15.881 198.415,16.194 198.727 C 16.542 199.076,16.412 198.314,15.627 195.400 C 15.212 193.860,14.856 192.906,14.836 193.280 M16.434 199.800 C 16.422 200.240,16.587 200.870,16.800 201.200 C 17.314 201.995,17.314 200.996,16.800 199.800 L 16.456 199.000 16.434 199.800 M17.256 202.400 C 17.256 202.730,17.411 203.360,17.600 203.800 C 17.817 204.304,17.944 204.378,17.944 204.000 C 17.944 203.670,17.789 203.040,17.600 202.600 C 17.383 202.096,17.256 202.022,17.256 202.400 M19.612 209.600 C 19.612 209.930,19.787 210.470,20.000 210.800 C 20.345 211.333,20.388 211.333,20.388 210.800 C 20.388 210.470,20.213 209.930,20.000 209.600 C 19.655 209.067,19.612 209.067,19.612 209.600 M24.679 221.500 C 24.967 222.294,26.000 223.897,26.000 223.550 C 26.000 223.202,24.763 220.800,24.583 220.800 C 24.496 220.800,24.539 221.115,24.679 221.500 M27.373 226.600 C 28.189 228.140,29.052 229.580,29.291 229.800 C 29.817 230.285,26.861 224.768,26.291 224.200 C 26.070 223.980,26.557 225.060,27.373 226.600 M29.600 230.544 C 29.600 230.950,36.700 241.491,37.169 241.781 C 37.388 241.916,35.840 239.456,33.729 236.313 C 29.481 229.989,29.600 230.156,29.600 230.544 M39.640 245.000 C 40.556 246.355,42.401 248.446,42.388 248.114 C 42.381 247.941,41.639 246.990,40.737 246.000 C 39.836 245.010,39.342 244.560,39.640 245.000 M42.800 248.844 C 42.800 249.434,56.794 263.339,57.090 263.043 C 57.221 262.912,56.965 262.489,56.521 262.103 C 52.018 258.185,49.332 255.601,46.338 252.308 C 44.392 250.168,42.800 248.609,42.800 248.844 M340.768 263.330 C 339.152 264.184,337.215 266.548,337.718 267.051 C 337.835 267.169,338.231 266.633,338.598 265.862 C 340.046 262.809,340.115 262.800,362.947 262.800 C 384.869 262.800,385.008 262.813,386.763 265.044 C 387.223 265.629,387.600 265.937,387.600 265.729 C 387.600 265.169,385.568 263.422,384.281 262.875 C 383.466 262.529,377.645 262.400,362.844 262.400 L 342.526 262.400 340.768 263.330 M57.600 263.325 C 57.600 263.423,58.455 264.191,59.500 265.032 C 60.545 265.872,61.040 266.145,60.600 265.637 C 59.774 264.683,57.600 263.008,57.600 263.325 M109.701 265.929 C 109.417 266.109,110.064 266.246,111.200 266.246 C 112.336 266.246,112.983 266.109,112.699 265.929 C 112.425 265.755,111.750 265.612,111.200 265.612 C 110.650 265.612,109.975 265.755,109.701 265.929 M61.740 266.703 C 61.896 266.956,62.591 267.567,63.284 268.060 C 63.977 268.554,64.417 268.750,64.260 268.497 C 64.104 268.244,63.409 267.633,62.716 267.140 C 62.023 266.646,61.583 266.450,61.740 266.703 M107.585 266.913 C 106.384 267.865,104.195 271.621,105.205 270.997 C 105.422 270.863,105.600 270.501,105.600 270.193 C 105.600 269.885,106.292 268.906,107.138 268.017 C 108.627 266.451,108.845 265.914,107.585 266.913 M115.057 267.725 C 116.831 269.351,117.295 272.041,116.237 274.573 C 115.881 275.425,115.659 276.193,115.745 276.278 C 116.067 276.600,117.200 273.127,117.200 271.818 C 117.200 269.620,115.269 266.400,113.951 266.400 C 113.765 266.400,114.262 266.996,115.057 267.725 M387.904 327.026 L 388.008 387.612 362.804 387.506 C 348.942 387.448,337.600 387.536,337.600 387.703 C 337.600 387.870,348.985 387.960,362.900 387.903 L 388.200 387.800 388.301 327.421 C 388.357 294.213,388.267 266.907,388.101 266.741 C 387.936 266.576,387.847 293.704,387.904 327.026 M180.000 267.600 C 178.619 267.891,178.625 267.895,180.400 267.900 C 181.390 267.903,182.740 267.768,183.400 267.600 C 185.083 267.172,182.035 267.172,180.000 267.600 M65.800 269.789 C 66.460 270.365,68.620 271.845,70.600 273.078 C 72.580 274.312,74.605 275.584,75.100 275.906 C 75.595 276.229,76.000 276.394,76.000 276.274 C 76.000 276.155,74.605 275.196,72.900 274.145 C 71.195 273.093,68.900 271.584,67.800 270.790 C 65.222 268.931,64.271 268.455,65.800 269.789 M104.015 272.698 C 102.931 275.019,102.397 276.400,102.583 276.400 C 102.854 276.400,104.869 271.935,104.682 271.749 C 104.598 271.665,104.298 272.092,104.015 272.698 M78.400 277.620 C 79.787 278.561,80.578 278.835,79.600 278.036 C 79.050 277.586,78.420 277.217,78.200 277.215 C 77.980 277.213,78.070 277.396,78.400 277.620 M113.478 280.620 C 112.009 283.614,112.145 283.969,113.646 281.060 C 114.310 279.773,114.786 278.653,114.704 278.571 C 114.623 278.489,114.071 279.411,113.478 280.620 M111.405 285.000 C 111.072 285.770,110.528 287.030,110.195 287.800 C 109.862 288.570,109.679 289.200,109.789 289.200 C 109.899 289.200,110.262 288.570,110.595 287.800 C 110.928 287.030,111.472 285.770,111.805 285.000 C 112.138 284.230,112.321 283.600,112.211 283.600 C 112.101 283.600,111.738 284.230,111.405 285.000 M111.200 290.133 C 113.548 290.848,116.508 291.485,119.000 291.812 C 121.883 292.191,121.032 291.694,117.976 291.214 C 116.559 290.991,114.680 290.646,113.800 290.446 C 110.519 289.700,109.293 289.553,111.200 290.133 M121.233 292.145 C 121.325 292.225,122.660 292.392,124.200 292.516 C 125.904 292.653,126.609 292.612,126.000 292.411 C 125.022 292.087,120.904 291.858,121.233 292.145 M175.100 327.080 C 173.535 327.326,171.368 329.531,170.847 331.405 C 170.192 333.766,170.223 387.263,170.880 387.920 C 171.574 388.614,220.826 388.614,221.520 387.920 C 221.884 387.556,222.000 380.758,222.000 359.769 C 222.000 329.040,222.100 330.233,219.336 328.124 L 217.863 327.000 197.032 326.953 C 185.574 326.927,175.705 326.984,175.100 327.080 M218.646 328.225 C 221.619 330.445,221.400 327.968,221.400 359.329 L 221.400 387.400 196.300 387.503 L 171.200 387.606 171.200 359.294 L 171.200 330.982 172.425 329.496 C 174.260 327.270,174.421 327.256,196.871 327.331 C 217.069 327.398,217.567 327.419,218.646 328.225 M306.842 345.560 C 306.159 346.199,305.606 346.874,305.613 347.060 C 305.620 347.247,305.887 347.054,306.206 346.632 C 306.526 346.210,307.285 345.536,307.894 345.135 C 308.502 344.734,308.794 344.404,308.542 344.403 C 308.291 344.401,307.526 344.922,306.842 345.560 M305.113 347.700 C 305.065 347.755,304.930 356.800,304.813 367.800 L 304.600 387.800 286.200 388.006 L 267.800 388.212 286.051 388.306 C 300.691 388.381,304.388 388.296,304.737 387.876 C 305.107 387.430,305.665 347.599,305.300 347.600 C 305.245 347.600,305.161 347.645,305.113 347.700 " stroke="none" fill="#4e647e" fill-rule="evenodd"></path></g></svg>